G04 #@! TF.GenerationSoftware,KiCad,Pcbnew,8.0.6*
G04 #@! TF.CreationDate,2025-05-30T23:26:52-07:00*
G04 #@! TF.ProjectId,aroma,61726f6d-612e-46b6-9963-61645f706362,rev?*
G04 #@! TF.SameCoordinates,Original*
G04 #@! TF.FileFunction,Legend,Top*
G04 #@! TF.FilePolarity,Positive*
%FSLAX46Y46*%
G04 Gerber Fmt 4.6, Leading zero omitted, Abs format (unit mm)*
G04 Created by KiCad (PCBNEW 8.0.6) date 2025-05-30 23:26:52*
%MOMM*%
%LPD*%
G01*
G04 APERTURE LIST*
G04 Aperture macros list*
%AMRoundRect*
0 Rectangle with rounded corners*
0 $1 Rounding radius*
0 $2 $3 $4 $5 $6 $7 $8 $9 X,Y pos of 4 corners*
0 Add a 4 corners polygon primitive as box body*
4,1,4,$2,$3,$4,$5,$6,$7,$8,$9,$2,$3,0*
0 Add four circle primitives for the rounded corners*
1,1,$1+$1,$2,$3*
1,1,$1+$1,$4,$5*
1,1,$1+$1,$6,$7*
1,1,$1+$1,$8,$9*
0 Add four rect primitives between the rounded corners*
20,1,$1+$1,$2,$3,$4,$5,0*
20,1,$1+$1,$4,$5,$6,$7,0*
20,1,$1+$1,$6,$7,$8,$9,0*
20,1,$1+$1,$8,$9,$2,$3,0*%
G04 Aperture macros list end*
%ADD10C,0.300000*%
%ADD11C,0.150000*%
%ADD12C,0.254000*%
%ADD13C,0.152400*%
%ADD14C,0.200000*%
%ADD15C,0.120000*%
%ADD16C,0.400000*%
%ADD17C,0.100000*%
%ADD18C,0.010000*%
%ADD19C,7.000000*%
%ADD20R,0.558800X1.625600*%
%ADD21C,2.154000*%
%ADD22RoundRect,0.102000X-1.100000X-0.700000X1.100000X-0.700000X1.100000X0.700000X-1.100000X0.700000X0*%
%ADD23RoundRect,0.200000X-0.275000X0.200000X-0.275000X-0.200000X0.275000X-0.200000X0.275000X0.200000X0*%
%ADD24RoundRect,0.250001X0.462499X0.624999X-0.462499X0.624999X-0.462499X-0.624999X0.462499X-0.624999X0*%
%ADD25RoundRect,0.237500X0.237500X-0.300000X0.237500X0.300000X-0.237500X0.300000X-0.237500X-0.300000X0*%
%ADD26RoundRect,0.200000X0.275000X-0.200000X0.275000X0.200000X-0.275000X0.200000X-0.275000X-0.200000X0*%
%ADD27RoundRect,0.250000X-0.900000X1.000000X-0.900000X-1.000000X0.900000X-1.000000X0.900000X1.000000X0*%
%ADD28R,1.498600X1.498600*%
%ADD29C,1.498600*%
%ADD30RoundRect,0.150000X-0.512500X-0.150000X0.512500X-0.150000X0.512500X0.150000X-0.512500X0.150000X0*%
%ADD31RoundRect,0.250000X1.000000X0.900000X-1.000000X0.900000X-1.000000X-0.900000X1.000000X-0.900000X0*%
%ADD32R,1.752600X5.511800*%
%ADD33RoundRect,0.200000X0.200000X0.275000X-0.200000X0.275000X-0.200000X-0.275000X0.200000X-0.275000X0*%
%ADD34R,1.500000X0.900000*%
%ADD35R,0.900000X1.500000*%
%ADD36R,0.900000X0.900000*%
%ADD37R,1.625600X0.558800*%
%ADD38RoundRect,0.250000X0.900000X-1.000000X0.900000X1.000000X-0.900000X1.000000X-0.900000X-1.000000X0*%
%ADD39R,0.431800X1.828800*%
%ADD40RoundRect,0.250000X-0.325000X-0.650000X0.325000X-0.650000X0.325000X0.650000X-0.325000X0.650000X0*%
%ADD41RoundRect,0.218750X0.381250X-0.218750X0.381250X0.218750X-0.381250X0.218750X-0.381250X-0.218750X0*%
%ADD42R,2.000000X2.000000*%
%ADD43RoundRect,0.237500X0.300000X0.237500X-0.300000X0.237500X-0.300000X-0.237500X0.300000X-0.237500X0*%
%ADD44RoundRect,0.102000X1.100000X0.700000X-1.100000X0.700000X-1.100000X-0.700000X1.100000X-0.700000X0*%
%ADD45RoundRect,0.237500X-0.237500X0.300000X-0.237500X-0.300000X0.237500X-0.300000X0.237500X0.300000X0*%
%ADD46R,0.500000X1.100000*%
%ADD47RoundRect,0.375000X-0.375000X0.625000X-0.375000X-0.625000X0.375000X-0.625000X0.375000X0.625000X0*%
%ADD48RoundRect,0.500000X-1.400000X0.500000X-1.400000X-0.500000X1.400000X-0.500000X1.400000X0.500000X0*%
%ADD49C,0.650000*%
%ADD50O,2.304000X1.204000*%
%ADD51O,2.004000X1.204000*%
%ADD52RoundRect,0.237500X-0.300000X-0.237500X0.300000X-0.237500X0.300000X0.237500X-0.300000X0.237500X0*%
%ADD53R,0.400000X1.200000*%
%ADD54RoundRect,0.200000X-0.200000X-0.275000X0.200000X-0.275000X0.200000X0.275000X-0.200000X0.275000X0*%
%ADD55C,1.600000*%
%ADD56C,1.750000*%
%ADD57R,1.600000X1.600000*%
%ADD58O,1.600000X1.600000*%
G04 APERTURE END LIST*
D10*
G36*
X178858513Y-80885498D02*
G01*
X178866573Y-80914075D01*
X178802156Y-81057896D01*
X178730286Y-81191046D01*
X178656801Y-81324603D01*
X178584358Y-81458378D01*
X178512957Y-81592370D01*
X178442598Y-81726579D01*
X178373281Y-81861006D01*
X178305005Y-81995651D01*
X178237772Y-82130513D01*
X178171580Y-82265593D01*
X178106430Y-82400890D01*
X178042322Y-82536405D01*
X177979256Y-82672137D01*
X177917232Y-82808087D01*
X177856249Y-82944254D01*
X177796309Y-83080639D01*
X177737410Y-83217241D01*
X177679553Y-83354061D01*
X177827381Y-83312845D01*
X177883251Y-83283719D01*
X178002984Y-83196144D01*
X178111863Y-83097011D01*
X178212979Y-82995757D01*
X178331139Y-82875824D01*
X178438780Y-82769916D01*
X178548918Y-82666052D01*
X178667271Y-82561981D01*
X178790842Y-82468522D01*
X178910537Y-82417634D01*
X178932519Y-82421297D01*
X179021912Y-82439616D01*
X178893215Y-82519427D01*
X178764804Y-82618494D01*
X178641625Y-82726891D01*
X178528007Y-82835933D01*
X178488485Y-82875589D01*
X178384071Y-82981652D01*
X178305303Y-83058039D01*
X178193012Y-83161445D01*
X178080261Y-83255224D01*
X177952285Y-83343117D01*
X177924284Y-83358457D01*
X177785534Y-83414958D01*
X177641311Y-83445698D01*
X177621667Y-83447850D01*
X177588695Y-83547501D01*
X176985659Y-83642756D01*
X177075052Y-83410481D01*
X176931987Y-83354061D01*
X176793537Y-83281203D01*
X176784159Y-83275659D01*
X176657294Y-83191890D01*
X176538282Y-83098304D01*
X176505722Y-83069762D01*
X176391304Y-83174657D01*
X176263092Y-83282969D01*
X176140560Y-83376134D01*
X176007478Y-83464062D01*
X175943719Y-83500607D01*
X175803102Y-83566488D01*
X175648628Y-83614401D01*
X175496014Y-83635696D01*
X175450593Y-83636894D01*
X175300017Y-83620717D01*
X175157684Y-83560951D01*
X175107676Y-83521856D01*
X175017741Y-83394322D01*
X174983480Y-83241010D01*
X174982379Y-83203852D01*
X175006207Y-83050977D01*
X175084151Y-82917368D01*
X175090823Y-82910027D01*
X175213738Y-82822100D01*
X175367062Y-82792791D01*
X175511824Y-82827615D01*
X175556106Y-82860202D01*
X175626095Y-82995382D01*
X175628646Y-83033859D01*
X175587530Y-83176071D01*
X175566364Y-83200921D01*
X175436259Y-83274972D01*
X175376587Y-83291046D01*
X175233694Y-83334964D01*
X175224912Y-83340872D01*
X175195603Y-83403154D01*
X175268876Y-83501339D01*
X175412685Y-83541106D01*
X175463049Y-83543105D01*
X175618365Y-83523630D01*
X175769065Y-83471563D01*
X175898290Y-83404619D01*
X176034824Y-83314543D01*
X176163292Y-83214720D01*
X176281186Y-83112123D01*
X176404200Y-82995291D01*
X176422191Y-82977438D01*
X176419554Y-82973775D01*
X176583391Y-82973775D01*
X176693799Y-83070369D01*
X176817298Y-83161411D01*
X176862561Y-83190662D01*
X176991897Y-83261309D01*
X177119016Y-83307899D01*
X177156523Y-83164453D01*
X177168108Y-83104200D01*
X177185299Y-82957892D01*
X177187159Y-82893907D01*
X177176031Y-82744113D01*
X177151988Y-82638185D01*
X177095978Y-82499780D01*
X177064794Y-82450607D01*
X176958723Y-82567154D01*
X176856115Y-82679026D01*
X176765840Y-82776671D01*
X176661315Y-82889771D01*
X176583391Y-82973775D01*
X176419554Y-82973775D01*
X176335835Y-82857461D01*
X176277843Y-82743698D01*
X176256846Y-82674089D01*
X176436113Y-82674089D01*
X176457362Y-82792791D01*
X176504989Y-82876322D01*
X176606309Y-82769032D01*
X176714080Y-82653607D01*
X176746057Y-82619134D01*
X176847572Y-82508317D01*
X176949593Y-82394114D01*
X176984193Y-82354619D01*
X176981174Y-82352421D01*
X177147592Y-82352421D01*
X177219583Y-82480832D01*
X177271423Y-82608143D01*
X177305787Y-82753996D01*
X177313921Y-82871926D01*
X177304854Y-83025799D01*
X177302793Y-83046349D01*
X177350833Y-82960563D01*
X177426762Y-82828237D01*
X177504339Y-82696231D01*
X177583565Y-82564546D01*
X177664440Y-82433181D01*
X177746964Y-82302137D01*
X177831136Y-82171414D01*
X177916957Y-82041011D01*
X178003510Y-81911662D01*
X178089515Y-81784465D01*
X178174969Y-81659420D01*
X178259874Y-81536528D01*
X178344229Y-81415788D01*
X178448901Y-81267890D01*
X178552713Y-81123355D01*
X178593998Y-81066482D01*
X178463467Y-81136192D01*
X178337918Y-81221120D01*
X178212661Y-81316694D01*
X178093856Y-81414410D01*
X178073028Y-81432114D01*
X177961949Y-81530124D01*
X177838455Y-81645092D01*
X177730721Y-81749277D01*
X177615041Y-81864315D01*
X177491416Y-81990207D01*
X177359846Y-82126952D01*
X177255953Y-82236634D01*
X177147592Y-82352421D01*
X176981174Y-82352421D01*
X176908722Y-82299665D01*
X176810537Y-82276950D01*
X176660639Y-82316131D01*
X176553349Y-82400781D01*
X176469200Y-82522143D01*
X176436113Y-82674089D01*
X176256846Y-82674089D01*
X176235185Y-82602276D01*
X176225087Y-82491639D01*
X176248088Y-82336725D01*
X176317090Y-82205372D01*
X176345254Y-82172170D01*
X176462402Y-82083512D01*
X176613130Y-82043617D01*
X176646406Y-82042477D01*
X176798100Y-82067090D01*
X176874284Y-82099630D01*
X177000737Y-82185096D01*
X177066992Y-82249839D01*
X177170785Y-82138788D01*
X177273613Y-82031497D01*
X177409213Y-81894294D01*
X177543097Y-81763777D01*
X177675262Y-81639946D01*
X177805711Y-81522801D01*
X177934442Y-81412342D01*
X178061456Y-81308569D01*
X178124319Y-81259190D01*
X178244967Y-81168000D01*
X178382705Y-81071110D01*
X178528815Y-80979920D01*
X178672841Y-80908107D01*
X178816182Y-80870491D01*
X178829204Y-80870111D01*
X178858513Y-80885498D01*
G37*
G36*
X181663398Y-80988813D02*
G01*
X181808008Y-80957206D01*
X181828262Y-80953642D01*
X181927180Y-80942651D01*
X181976273Y-80958039D01*
X181997522Y-80998339D01*
X181924249Y-81046699D01*
X181845847Y-81056957D01*
X181978503Y-81125358D01*
X182091804Y-81219004D01*
X182120621Y-81250397D01*
X182201614Y-81380635D01*
X182233020Y-81529550D01*
X182233461Y-81550816D01*
X182208345Y-81707108D01*
X182142792Y-81838593D01*
X182036551Y-81961384D01*
X181976273Y-82013168D01*
X181840306Y-82107003D01*
X181708638Y-82176561D01*
X181565118Y-82234409D01*
X181409747Y-82280546D01*
X181339532Y-82296734D01*
X181436504Y-82411337D01*
X181450907Y-82438883D01*
X181498305Y-82582907D01*
X181509525Y-82715122D01*
X181496762Y-82867732D01*
X181465507Y-83017965D01*
X181442847Y-83099804D01*
X181402215Y-83241759D01*
X181376168Y-83364319D01*
X181381297Y-83393628D01*
X181389357Y-83402421D01*
X181509129Y-83317014D01*
X181629801Y-83202647D01*
X181732274Y-83099804D01*
X181838427Y-82990818D01*
X181933042Y-82896106D01*
X182036357Y-82791875D01*
X182145579Y-82688191D01*
X182258236Y-82589845D01*
X182311130Y-82547327D01*
X182437234Y-82458669D01*
X182544138Y-82417634D01*
X182568318Y-82420565D01*
X182649651Y-82441081D01*
X182518630Y-82528734D01*
X182400829Y-82626330D01*
X182289872Y-82728518D01*
X182167286Y-82849669D01*
X182060846Y-82960242D01*
X181946964Y-83082951D01*
X181844974Y-83193790D01*
X181831926Y-83208248D01*
X181729283Y-83317136D01*
X181615038Y-83430448D01*
X181502481Y-83528168D01*
X181461165Y-83557759D01*
X181322937Y-83621747D01*
X181213503Y-83636894D01*
X181065255Y-83609597D01*
X180963642Y-83540174D01*
X180887805Y-83409906D01*
X180869853Y-83280055D01*
X180893243Y-83123572D01*
X180948470Y-82969871D01*
X181016041Y-82831660D01*
X181036182Y-82794989D01*
X181108951Y-82658702D01*
X181170675Y-82522345D01*
X181202512Y-82394919D01*
X181192986Y-82348025D01*
X181165875Y-82323112D01*
X181115317Y-82322379D01*
X180969687Y-82302412D01*
X180921144Y-82251304D01*
X180951919Y-82200746D01*
X181024459Y-82181695D01*
X181129239Y-82205875D01*
X181225226Y-82230055D01*
X181378992Y-82187005D01*
X181501552Y-82095299D01*
X181602280Y-81985252D01*
X181615038Y-81969204D01*
X181704477Y-81836534D01*
X181768361Y-81700109D01*
X181809687Y-81542143D01*
X181819469Y-81415994D01*
X181795564Y-81267891D01*
X181776971Y-81228415D01*
X181668650Y-81126652D01*
X181653872Y-81119972D01*
X181523038Y-81192014D01*
X181397612Y-81305375D01*
X181297223Y-81431406D01*
X181200591Y-81586130D01*
X181125990Y-81730569D01*
X181053794Y-81893372D01*
X181018597Y-81981660D01*
X180964475Y-82122018D01*
X180906612Y-82266594D01*
X180882309Y-82324577D01*
X180817084Y-82470456D01*
X180752840Y-82604835D01*
X180680620Y-82744328D01*
X180600906Y-82883303D01*
X180592149Y-82897571D01*
X180504422Y-83029176D01*
X180406269Y-83152123D01*
X180306385Y-83252212D01*
X180186820Y-83348110D01*
X180057286Y-83431372D01*
X179917782Y-83502000D01*
X179835973Y-83535778D01*
X179685947Y-83584657D01*
X179535921Y-83617540D01*
X179385894Y-83634425D01*
X179302547Y-83636894D01*
X179147071Y-83628651D01*
X178991976Y-83599671D01*
X178844257Y-83542999D01*
X178780111Y-83505003D01*
X178669561Y-83402222D01*
X178601297Y-83263633D01*
X178585938Y-83141570D01*
X178610571Y-82996541D01*
X178691148Y-82867397D01*
X178698046Y-82860202D01*
X178822426Y-82774473D01*
X178969888Y-82745896D01*
X179115490Y-82779964D01*
X179161130Y-82811842D01*
X179234655Y-82941031D01*
X179237334Y-82977438D01*
X179197616Y-83122634D01*
X179188974Y-83134975D01*
X179067341Y-83204584D01*
X179038032Y-83206782D01*
X178891271Y-83236515D01*
X178823342Y-83322554D01*
X178906541Y-83443966D01*
X178949371Y-83471297D01*
X179086209Y-83525153D01*
X179234124Y-83543035D01*
X179244661Y-83543105D01*
X179395634Y-83519737D01*
X179532623Y-83460307D01*
X179658487Y-83374033D01*
X179768830Y-83270314D01*
X179809595Y-83224368D01*
X179899629Y-83104063D01*
X179986673Y-82967917D01*
X180067422Y-82828280D01*
X180139042Y-82695742D01*
X180214598Y-82548498D01*
X180230181Y-82517285D01*
X180301293Y-82376807D01*
X180372459Y-82239970D01*
X180419958Y-82152386D01*
X180493703Y-82023583D01*
X180584653Y-81878983D01*
X180678282Y-81745255D01*
X180774590Y-81622397D01*
X180873577Y-81510409D01*
X180924075Y-81458492D01*
X181043847Y-81347004D01*
X181165303Y-81249121D01*
X181288441Y-81164841D01*
X181431232Y-81085180D01*
X181485345Y-81059888D01*
X181340419Y-81030670D01*
X181318283Y-81027648D01*
X181169548Y-81013576D01*
X181061828Y-81010795D01*
X180901403Y-81015483D01*
X180742164Y-81029548D01*
X180584109Y-81052990D01*
X180427239Y-81085808D01*
X180271554Y-81128003D01*
X180219923Y-81144152D01*
X180070420Y-81197157D01*
X179930758Y-81256706D01*
X179780256Y-81334449D01*
X179643148Y-81421097D01*
X179536287Y-81502456D01*
X179419637Y-81607242D01*
X179319731Y-81714604D01*
X179229174Y-81835677D01*
X179221946Y-81846838D01*
X179148412Y-81985097D01*
X179110148Y-82128698D01*
X179108374Y-82164110D01*
X179145091Y-82309893D01*
X179179448Y-82351688D01*
X179317797Y-82413512D01*
X179378018Y-82417634D01*
X179526326Y-82386722D01*
X179659048Y-82313735D01*
X179785594Y-82211339D01*
X179800069Y-82197815D01*
X179908788Y-82083097D01*
X180001936Y-81958763D01*
X180079514Y-81824811D01*
X180141521Y-81681242D01*
X180181628Y-81538815D01*
X180200139Y-81430648D01*
X180252121Y-81293380D01*
X180259490Y-81292163D01*
X180323970Y-81372763D01*
X180337194Y-81526533D01*
X180338625Y-81624822D01*
X180326423Y-81794007D01*
X180289818Y-81950219D01*
X180228810Y-82093458D01*
X180143398Y-82223724D01*
X180083635Y-82292337D01*
X179966788Y-82395976D01*
X179838721Y-82474160D01*
X179699434Y-82526888D01*
X179548927Y-82554162D01*
X179457885Y-82558318D01*
X179308271Y-82542347D01*
X179163935Y-82483342D01*
X179112037Y-82444745D01*
X179018421Y-82321687D01*
X178982758Y-82176910D01*
X178981612Y-82142128D01*
X179001565Y-81996706D01*
X179055403Y-81857963D01*
X179102512Y-81775031D01*
X179196453Y-81646685D01*
X179300638Y-81536317D01*
X179422712Y-81431961D01*
X179435903Y-81421856D01*
X179555962Y-81336959D01*
X179684779Y-81259224D01*
X179822355Y-81188651D01*
X179968688Y-81125238D01*
X180123781Y-81068987D01*
X180177424Y-81051828D01*
X180340528Y-81006009D01*
X180504508Y-80969671D01*
X180669363Y-80942812D01*
X180835094Y-80925432D01*
X181001701Y-80917532D01*
X181057431Y-80917006D01*
X181210623Y-80920512D01*
X181360439Y-80932050D01*
X181388625Y-80935324D01*
X181540619Y-80959178D01*
X181663398Y-80988813D01*
G37*
G36*
X182286217Y-82901235D02*
G01*
X182298769Y-82735801D01*
X182329510Y-82592438D01*
X182378694Y-82447633D01*
X182446323Y-82301385D01*
X182532395Y-82153694D01*
X182548534Y-82128939D01*
X182635821Y-82005960D01*
X182733734Y-81885235D01*
X182842273Y-81766764D01*
X182961438Y-81650547D01*
X183091229Y-81536584D01*
X183231646Y-81424875D01*
X183290788Y-81380823D01*
X183421194Y-81289351D01*
X183550829Y-81207275D01*
X183679693Y-81134596D01*
X183826021Y-81063041D01*
X183880635Y-81039371D01*
X184022005Y-80985836D01*
X184171304Y-80943893D01*
X184325091Y-80919993D01*
X184397208Y-80917006D01*
X184543456Y-80930916D01*
X184682303Y-80982307D01*
X184731332Y-81015924D01*
X184823107Y-81133893D01*
X184853579Y-81279094D01*
X184853698Y-81289965D01*
X184836845Y-81418192D01*
X184775296Y-81465819D01*
X184740125Y-81445303D01*
X184731332Y-81393279D01*
X184737194Y-81352979D01*
X184743056Y-81292896D01*
X184705820Y-81146356D01*
X184656594Y-81087732D01*
X184518514Y-81019886D01*
X184425785Y-81010795D01*
X184275255Y-81028518D01*
X184120420Y-81081687D01*
X183981408Y-81157286D01*
X183859632Y-81243685D01*
X183797836Y-81294361D01*
X183674901Y-81408770D01*
X183574383Y-81516861D01*
X183475619Y-81636545D01*
X183378607Y-81767821D01*
X183283349Y-81910689D01*
X183189844Y-82065148D01*
X183171353Y-82097431D01*
X183087865Y-82245405D01*
X183012157Y-82386527D01*
X182944227Y-82520797D01*
X182874809Y-82668784D01*
X182815980Y-82807445D01*
X182762766Y-82952526D01*
X182721073Y-83096472D01*
X182696248Y-83244701D01*
X182694347Y-83291046D01*
X182723092Y-83436189D01*
X182755163Y-83481556D01*
X182895590Y-83540941D01*
X182939811Y-83543105D01*
X183099343Y-83519208D01*
X183238627Y-83464108D01*
X183369053Y-83388270D01*
X183436601Y-83340872D01*
X183555232Y-83244711D01*
X183671337Y-83133824D01*
X183784919Y-83008212D01*
X183880265Y-82888823D01*
X183958304Y-82781067D01*
X184049836Y-82643543D01*
X184133374Y-82506019D01*
X184208918Y-82368495D01*
X184276468Y-82230971D01*
X184311479Y-82152386D01*
X184370464Y-82004512D01*
X184416677Y-81860379D01*
X184444194Y-81716172D01*
X184446301Y-81672449D01*
X184409856Y-81529618D01*
X184407466Y-81526636D01*
X184289497Y-81479741D01*
X184147172Y-81516885D01*
X184017586Y-81602531D01*
X183908623Y-81703525D01*
X183826413Y-81794082D01*
X183727314Y-81919224D01*
X183631152Y-82058895D01*
X183553260Y-82186385D01*
X183477408Y-82323965D01*
X183403595Y-82471634D01*
X183331821Y-82629392D01*
X183272520Y-82773725D01*
X183222570Y-82918577D01*
X183185275Y-83050711D01*
X183141357Y-83194967D01*
X183091486Y-83261737D01*
X183046789Y-83235359D01*
X183035066Y-83173810D01*
X183060162Y-83016823D01*
X183106530Y-82862777D01*
X183135450Y-82780334D01*
X183189855Y-82641299D01*
X183251953Y-82501165D01*
X183321746Y-82359931D01*
X183399232Y-82217599D01*
X183483553Y-82075481D01*
X183568904Y-81945883D01*
X183669783Y-81810507D01*
X183772065Y-81692172D01*
X183860851Y-81604305D01*
X183978500Y-81508776D01*
X184106585Y-81433930D01*
X184256994Y-81389364D01*
X184310013Y-81385952D01*
X184453256Y-81424183D01*
X184529832Y-81494396D01*
X184595581Y-81627609D01*
X184614096Y-81775031D01*
X184598354Y-81933040D01*
X184557266Y-82088585D01*
X184499335Y-82237455D01*
X184452896Y-82335568D01*
X184376730Y-82475301D01*
X184288644Y-82614964D01*
X184203653Y-82734619D01*
X184109904Y-82854223D01*
X184007397Y-82973775D01*
X183899943Y-83089566D01*
X183793005Y-83194589D01*
X183668895Y-83303508D01*
X183545486Y-83397770D01*
X183440265Y-83466901D01*
X183302970Y-83541273D01*
X183153987Y-83599542D01*
X183010800Y-83630918D01*
X182918562Y-83636894D01*
X182766688Y-83620955D01*
X182618739Y-83565857D01*
X182492687Y-83471404D01*
X182459141Y-83435394D01*
X182375550Y-83311379D01*
X182319316Y-83166846D01*
X182292297Y-83021147D01*
X182286217Y-82901235D01*
G37*
G36*
X186470830Y-81139755D02*
G01*
X186365423Y-81256222D01*
X186274537Y-81371992D01*
X186176374Y-81501754D01*
X186080286Y-81631416D01*
X185975428Y-81776574D01*
X185887936Y-81901252D01*
X185797238Y-82033532D01*
X185703334Y-82173415D01*
X185606225Y-82320899D01*
X185505909Y-82475986D01*
X185402389Y-82638675D01*
X185322644Y-82765680D01*
X185258897Y-82866796D01*
X185169984Y-83004421D01*
X185083222Y-83128509D01*
X184970886Y-83272903D01*
X184862373Y-83393230D01*
X184732110Y-83509798D01*
X184607822Y-83588763D01*
X184466563Y-83633886D01*
X184421388Y-83636894D01*
X184271302Y-83615296D01*
X184138820Y-83544220D01*
X184115840Y-83524054D01*
X184029587Y-83404216D01*
X183996142Y-83257653D01*
X183995673Y-83236092D01*
X184016991Y-83086406D01*
X184087144Y-82948129D01*
X184107048Y-82923217D01*
X184220435Y-82829600D01*
X184362675Y-82792918D01*
X184372295Y-82792791D01*
X184514433Y-82831488D01*
X184537892Y-82851409D01*
X184595594Y-82988773D01*
X184596510Y-83014075D01*
X184551430Y-83155411D01*
X184545219Y-83162086D01*
X184411661Y-83230404D01*
X184354710Y-83244884D01*
X184217690Y-83301304D01*
X184175924Y-83396559D01*
X184245533Y-83494012D01*
X184386023Y-83542338D01*
X184408932Y-83543105D01*
X184562896Y-83493875D01*
X184696762Y-83392337D01*
X184820360Y-83265416D01*
X184927121Y-83136187D01*
X185040889Y-82982342D01*
X185130813Y-82850805D01*
X185192951Y-82755422D01*
X185275538Y-82627059D01*
X185360992Y-82495729D01*
X185445743Y-82367579D01*
X185510956Y-82271088D01*
X185609931Y-82120902D01*
X185705724Y-81978455D01*
X185798334Y-81843747D01*
X185887761Y-81716779D01*
X185974006Y-81597550D01*
X186077335Y-81459398D01*
X186175692Y-81333339D01*
X186213642Y-81286301D01*
X186319370Y-81160798D01*
X186425203Y-81047197D01*
X186543670Y-80946218D01*
X186617376Y-80917006D01*
X186670865Y-80937522D01*
X186692114Y-80988080D01*
X186653405Y-81133599D01*
X186596527Y-81286395D01*
X186537279Y-81434232D01*
X186489881Y-81548618D01*
X186431311Y-81690147D01*
X186401953Y-81762575D01*
X186338882Y-81913831D01*
X186279636Y-82056831D01*
X186206593Y-82234655D01*
X186140349Y-82397802D01*
X186080907Y-82546271D01*
X186016167Y-82711217D01*
X185962053Y-82853230D01*
X185926413Y-82950327D01*
X185875988Y-83092400D01*
X185824754Y-83243296D01*
X185793789Y-83354794D01*
X185885696Y-83181105D01*
X185978969Y-83010649D01*
X186073607Y-82843426D01*
X186169610Y-82679435D01*
X186266978Y-82518678D01*
X186365712Y-82361154D01*
X186465811Y-82206862D01*
X186567275Y-82055803D01*
X186670105Y-81907977D01*
X186774300Y-81763385D01*
X186844521Y-81668785D01*
X186946937Y-81534434D01*
X187042332Y-81413298D01*
X187158607Y-81272339D01*
X187262403Y-81154874D01*
X187374598Y-81041079D01*
X187498914Y-80943436D01*
X187575052Y-80917006D01*
X187627808Y-80935324D01*
X187649790Y-80978555D01*
X187592301Y-81127290D01*
X187525462Y-81282433D01*
X187458624Y-81434555D01*
X187446092Y-81462889D01*
X187383062Y-81606812D01*
X187321284Y-81750985D01*
X187260759Y-81895409D01*
X187201486Y-82040084D01*
X187143465Y-82185009D01*
X187086697Y-82330184D01*
X187064340Y-82388325D01*
X187005882Y-82546276D01*
X186953606Y-82691503D01*
X186900432Y-82844850D01*
X186849965Y-82998894D01*
X186824005Y-83083684D01*
X186783820Y-83229944D01*
X186753829Y-83378146D01*
X186747801Y-83452979D01*
X186754396Y-83473496D01*
X186765387Y-83481556D01*
X186891010Y-83393972D01*
X186904605Y-83381905D01*
X187013999Y-83278727D01*
X187129990Y-83164018D01*
X187240321Y-83052681D01*
X187311270Y-82980369D01*
X187430120Y-82869698D01*
X187550837Y-82760304D01*
X187667376Y-82659022D01*
X187753838Y-82588360D01*
X187874432Y-82503709D01*
X187978785Y-82464528D01*
X188013956Y-82470390D01*
X188121667Y-82471856D01*
X187993669Y-82549525D01*
X187864615Y-82646337D01*
X187741328Y-82750751D01*
X187629654Y-82852875D01*
X187509860Y-82968737D01*
X187484926Y-82993558D01*
X187378001Y-83102470D01*
X187285624Y-83193593D01*
X187278297Y-83201653D01*
X187171868Y-83303663D01*
X187050166Y-83412048D01*
X186920748Y-83514058D01*
X186792681Y-83594390D01*
X186652547Y-83636894D01*
X186506082Y-83596339D01*
X186427599Y-83521856D01*
X186363302Y-83390148D01*
X186341953Y-83236393D01*
X186341870Y-83225101D01*
X186355986Y-83068892D01*
X186393728Y-82911942D01*
X186442254Y-82773740D01*
X186501147Y-82637727D01*
X186566953Y-82504140D01*
X186646084Y-82356949D01*
X186724514Y-82219957D01*
X186782240Y-82123077D01*
X186870407Y-81985484D01*
X186963647Y-81844068D01*
X187051669Y-81711919D01*
X187136867Y-81584715D01*
X187155198Y-81557411D01*
X187245433Y-81423092D01*
X187330098Y-81297063D01*
X187414358Y-81171629D01*
X187444626Y-81126566D01*
X187332038Y-81231049D01*
X187226525Y-81350850D01*
X187131402Y-81467027D01*
X187022575Y-81605771D01*
X186924168Y-81736574D01*
X186821289Y-81879399D01*
X186735766Y-82002314D01*
X186647380Y-82132923D01*
X186556133Y-82271226D01*
X186462023Y-82417222D01*
X186365051Y-82570911D01*
X186315491Y-82650642D01*
X186234388Y-82784868D01*
X186160792Y-82912760D01*
X186084742Y-83050399D01*
X186006238Y-83197786D01*
X185971842Y-83263935D01*
X185890823Y-83409258D01*
X185807074Y-83531635D01*
X185691104Y-83631067D01*
X185660432Y-83636894D01*
X185524853Y-83576708D01*
X185484577Y-83520390D01*
X185433693Y-83378821D01*
X185419364Y-83224368D01*
X185442924Y-83068627D01*
X185495698Y-82904416D01*
X185555068Y-82758147D01*
X185631401Y-82592068D01*
X185724698Y-82406179D01*
X185796319Y-82271248D01*
X185875479Y-82127513D01*
X185962179Y-81974974D01*
X186056418Y-81813631D01*
X186158195Y-81643483D01*
X186267512Y-81464531D01*
X186384368Y-81276775D01*
X186470830Y-81139755D01*
G37*
G36*
X190930949Y-80885498D02*
G01*
X190939009Y-80914075D01*
X190874591Y-81057896D01*
X190802721Y-81191046D01*
X190729236Y-81324603D01*
X190656794Y-81458378D01*
X190585393Y-81592370D01*
X190515034Y-81726579D01*
X190445716Y-81861006D01*
X190377441Y-81995651D01*
X190310207Y-82130513D01*
X190244016Y-82265593D01*
X190178866Y-82400890D01*
X190114758Y-82536405D01*
X190051691Y-82672137D01*
X189989667Y-82808087D01*
X189928685Y-82944254D01*
X189868744Y-83080639D01*
X189809845Y-83217241D01*
X189751988Y-83354061D01*
X189899816Y-83312845D01*
X189955687Y-83283719D01*
X190075419Y-83196144D01*
X190184298Y-83097011D01*
X190285415Y-82995757D01*
X190403574Y-82875824D01*
X190511215Y-82769916D01*
X190621354Y-82666052D01*
X190739706Y-82561981D01*
X190863277Y-82468522D01*
X190982972Y-82417634D01*
X191004954Y-82421297D01*
X191094347Y-82439616D01*
X190965650Y-82519427D01*
X190837239Y-82618494D01*
X190714061Y-82726891D01*
X190600442Y-82835933D01*
X190560921Y-82875589D01*
X190456507Y-82981652D01*
X190377739Y-83058039D01*
X190265448Y-83161445D01*
X190152696Y-83255224D01*
X190024721Y-83343117D01*
X189996720Y-83358457D01*
X189857970Y-83414958D01*
X189713746Y-83445698D01*
X189694103Y-83447850D01*
X189661130Y-83547501D01*
X189058094Y-83642756D01*
X189147487Y-83410481D01*
X189004422Y-83354061D01*
X188865973Y-83281203D01*
X188856594Y-83275659D01*
X188729729Y-83191890D01*
X188610718Y-83098304D01*
X188578157Y-83069762D01*
X188463740Y-83174657D01*
X188335527Y-83282969D01*
X188212995Y-83376134D01*
X188079913Y-83464062D01*
X188016154Y-83500607D01*
X187875537Y-83566488D01*
X187721063Y-83614401D01*
X187568449Y-83635696D01*
X187523028Y-83636894D01*
X187372452Y-83620717D01*
X187230120Y-83560951D01*
X187180111Y-83521856D01*
X187090177Y-83394322D01*
X187055916Y-83241010D01*
X187054815Y-83203852D01*
X187078643Y-83050977D01*
X187156587Y-82917368D01*
X187163258Y-82910027D01*
X187286174Y-82822100D01*
X187439497Y-82792791D01*
X187584260Y-82827615D01*
X187628541Y-82860202D01*
X187698531Y-82995382D01*
X187701081Y-83033859D01*
X187659965Y-83176071D01*
X187638799Y-83200921D01*
X187508694Y-83274972D01*
X187449023Y-83291046D01*
X187306129Y-83334964D01*
X187297348Y-83340872D01*
X187268039Y-83403154D01*
X187341311Y-83501339D01*
X187485120Y-83541106D01*
X187535484Y-83543105D01*
X187690800Y-83523630D01*
X187841500Y-83471563D01*
X187970725Y-83404619D01*
X188107260Y-83314543D01*
X188235728Y-83214720D01*
X188353622Y-83112123D01*
X188476635Y-82995291D01*
X188494626Y-82977438D01*
X188491990Y-82973775D01*
X188655826Y-82973775D01*
X188766234Y-83070369D01*
X188889734Y-83161411D01*
X188934996Y-83190662D01*
X189064333Y-83261309D01*
X189191451Y-83307899D01*
X189228958Y-83164453D01*
X189240544Y-83104200D01*
X189257734Y-82957892D01*
X189259595Y-82893907D01*
X189248466Y-82744113D01*
X189224424Y-82638185D01*
X189168413Y-82499780D01*
X189137229Y-82450607D01*
X189031158Y-82567154D01*
X188928550Y-82679026D01*
X188838276Y-82776671D01*
X188733750Y-82889771D01*
X188655826Y-82973775D01*
X188491990Y-82973775D01*
X188408271Y-82857461D01*
X188350279Y-82743698D01*
X188329282Y-82674089D01*
X188508548Y-82674089D01*
X188529797Y-82792791D01*
X188577424Y-82876322D01*
X188678744Y-82769032D01*
X188786515Y-82653607D01*
X188818492Y-82619134D01*
X188920007Y-82508317D01*
X189022028Y-82394114D01*
X189056629Y-82354619D01*
X189053610Y-82352421D01*
X189220027Y-82352421D01*
X189292018Y-82480832D01*
X189343859Y-82608143D01*
X189378222Y-82753996D01*
X189386357Y-82871926D01*
X189377289Y-83025799D01*
X189375228Y-83046350D01*
X189423268Y-82960563D01*
X189499197Y-82828237D01*
X189576775Y-82696231D01*
X189656001Y-82564546D01*
X189736876Y-82433181D01*
X189819399Y-82302137D01*
X189903572Y-82171414D01*
X189989392Y-82041011D01*
X190075946Y-81911662D01*
X190161950Y-81784465D01*
X190247404Y-81659420D01*
X190332309Y-81536528D01*
X190416665Y-81415788D01*
X190521336Y-81267890D01*
X190625149Y-81123355D01*
X190666434Y-81066482D01*
X190535902Y-81136192D01*
X190410354Y-81221120D01*
X190285096Y-81316694D01*
X190166291Y-81414410D01*
X190145464Y-81432114D01*
X190034384Y-81530124D01*
X189910890Y-81645092D01*
X189803156Y-81749277D01*
X189687477Y-81864315D01*
X189563852Y-81990207D01*
X189432281Y-82126952D01*
X189328389Y-82236634D01*
X189220027Y-82352421D01*
X189053610Y-82352421D01*
X188981158Y-82299665D01*
X188882972Y-82276950D01*
X188733075Y-82316131D01*
X188625785Y-82400781D01*
X188541635Y-82522143D01*
X188508548Y-82674089D01*
X188329282Y-82674089D01*
X188307620Y-82602276D01*
X188297522Y-82491639D01*
X188320523Y-82336725D01*
X188389525Y-82205372D01*
X188417690Y-82172170D01*
X188534837Y-82083512D01*
X188685566Y-82043617D01*
X188718841Y-82042477D01*
X188870535Y-82067090D01*
X188946720Y-82099630D01*
X189073173Y-82185096D01*
X189139427Y-82249839D01*
X189243221Y-82138788D01*
X189346048Y-82031497D01*
X189481649Y-81894294D01*
X189615532Y-81763777D01*
X189747698Y-81639946D01*
X189878146Y-81522801D01*
X190006878Y-81412342D01*
X190133892Y-81308569D01*
X190196755Y-81259190D01*
X190317403Y-81168000D01*
X190455140Y-81071110D01*
X190601251Y-80979920D01*
X190745276Y-80908107D01*
X190888618Y-80870491D01*
X190901639Y-80870111D01*
X190930949Y-80885498D01*
G37*
X177197619Y-113281423D02*
X177911905Y-113281423D01*
X177554762Y-114531423D02*
X177554762Y-113281423D01*
X178328572Y-114412376D02*
X178388095Y-114471900D01*
X178388095Y-114471900D02*
X178328572Y-114531423D01*
X178328572Y-114531423D02*
X178269048Y-114471900D01*
X178269048Y-114471900D02*
X178328572Y-114412376D01*
X178328572Y-114412376D02*
X178328572Y-114531423D01*
X180114286Y-113936185D02*
X180114286Y-114531423D01*
X179697619Y-113281423D02*
X180114286Y-113936185D01*
X180114286Y-113936185D02*
X180530952Y-113281423D01*
X181483334Y-114531423D02*
X181483334Y-113876661D01*
X181483334Y-113876661D02*
X181423810Y-113757614D01*
X181423810Y-113757614D02*
X181304762Y-113698090D01*
X181304762Y-113698090D02*
X181066667Y-113698090D01*
X181066667Y-113698090D02*
X180947620Y-113757614D01*
X181483334Y-114471900D02*
X181364286Y-114531423D01*
X181364286Y-114531423D02*
X181066667Y-114531423D01*
X181066667Y-114531423D02*
X180947620Y-114471900D01*
X180947620Y-114471900D02*
X180888096Y-114352852D01*
X180888096Y-114352852D02*
X180888096Y-114233804D01*
X180888096Y-114233804D02*
X180947620Y-114114757D01*
X180947620Y-114114757D02*
X181066667Y-114055233D01*
X181066667Y-114055233D02*
X181364286Y-114055233D01*
X181364286Y-114055233D02*
X181483334Y-113995709D01*
X182078572Y-113698090D02*
X182078572Y-114531423D01*
X182078572Y-113817138D02*
X182138095Y-113757614D01*
X182138095Y-113757614D02*
X182257143Y-113698090D01*
X182257143Y-113698090D02*
X182435714Y-113698090D01*
X182435714Y-113698090D02*
X182554762Y-113757614D01*
X182554762Y-113757614D02*
X182614286Y-113876661D01*
X182614286Y-113876661D02*
X182614286Y-114531423D01*
X183209524Y-114055233D02*
X184161905Y-114055233D01*
X184757143Y-114531423D02*
X184757143Y-113281423D01*
X185471428Y-114531423D02*
X184935714Y-113817138D01*
X185471428Y-113281423D02*
X184757143Y-113995709D01*
X186185714Y-114531423D02*
X186066666Y-114471900D01*
X186066666Y-114471900D02*
X186007143Y-114352852D01*
X186007143Y-114352852D02*
X186007143Y-113281423D01*
X187197619Y-114531423D02*
X187197619Y-113876661D01*
X187197619Y-113876661D02*
X187138095Y-113757614D01*
X187138095Y-113757614D02*
X187019047Y-113698090D01*
X187019047Y-113698090D02*
X186780952Y-113698090D01*
X186780952Y-113698090D02*
X186661905Y-113757614D01*
X187197619Y-114471900D02*
X187078571Y-114531423D01*
X187078571Y-114531423D02*
X186780952Y-114531423D01*
X186780952Y-114531423D02*
X186661905Y-114471900D01*
X186661905Y-114471900D02*
X186602381Y-114352852D01*
X186602381Y-114352852D02*
X186602381Y-114233804D01*
X186602381Y-114233804D02*
X186661905Y-114114757D01*
X186661905Y-114114757D02*
X186780952Y-114055233D01*
X186780952Y-114055233D02*
X187078571Y-114055233D01*
X187078571Y-114055233D02*
X187197619Y-113995709D01*
X187733333Y-114471900D02*
X187852380Y-114531423D01*
X187852380Y-114531423D02*
X188090476Y-114531423D01*
X188090476Y-114531423D02*
X188209523Y-114471900D01*
X188209523Y-114471900D02*
X188269047Y-114352852D01*
X188269047Y-114352852D02*
X188269047Y-114293328D01*
X188269047Y-114293328D02*
X188209523Y-114174280D01*
X188209523Y-114174280D02*
X188090476Y-114114757D01*
X188090476Y-114114757D02*
X187911904Y-114114757D01*
X187911904Y-114114757D02*
X187792857Y-114055233D01*
X187792857Y-114055233D02*
X187733333Y-113936185D01*
X187733333Y-113936185D02*
X187733333Y-113876661D01*
X187733333Y-113876661D02*
X187792857Y-113757614D01*
X187792857Y-113757614D02*
X187911904Y-113698090D01*
X187911904Y-113698090D02*
X188090476Y-113698090D01*
X188090476Y-113698090D02*
X188209523Y-113757614D01*
X188745238Y-114471900D02*
X188864285Y-114531423D01*
X188864285Y-114531423D02*
X189102381Y-114531423D01*
X189102381Y-114531423D02*
X189221428Y-114471900D01*
X189221428Y-114471900D02*
X189280952Y-114352852D01*
X189280952Y-114352852D02*
X189280952Y-114293328D01*
X189280952Y-114293328D02*
X189221428Y-114174280D01*
X189221428Y-114174280D02*
X189102381Y-114114757D01*
X189102381Y-114114757D02*
X188923809Y-114114757D01*
X188923809Y-114114757D02*
X188804762Y-114055233D01*
X188804762Y-114055233D02*
X188745238Y-113936185D01*
X188745238Y-113936185D02*
X188745238Y-113876661D01*
X188745238Y-113876661D02*
X188804762Y-113757614D01*
X188804762Y-113757614D02*
X188923809Y-113698090D01*
X188923809Y-113698090D02*
X189102381Y-113698090D01*
X189102381Y-113698090D02*
X189221428Y-113757614D01*
X190292857Y-114471900D02*
X190173809Y-114531423D01*
X190173809Y-114531423D02*
X189935714Y-114531423D01*
X189935714Y-114531423D02*
X189816667Y-114471900D01*
X189816667Y-114471900D02*
X189757143Y-114352852D01*
X189757143Y-114352852D02*
X189757143Y-113876661D01*
X189757143Y-113876661D02*
X189816667Y-113757614D01*
X189816667Y-113757614D02*
X189935714Y-113698090D01*
X189935714Y-113698090D02*
X190173809Y-113698090D01*
X190173809Y-113698090D02*
X190292857Y-113757614D01*
X190292857Y-113757614D02*
X190352381Y-113876661D01*
X190352381Y-113876661D02*
X190352381Y-113995709D01*
X190352381Y-113995709D02*
X189757143Y-114114757D01*
X190888096Y-113698090D02*
X190888096Y-114531423D01*
X190888096Y-113817138D02*
X190947619Y-113757614D01*
X190947619Y-113757614D02*
X191066667Y-113698090D01*
X191066667Y-113698090D02*
X191245238Y-113698090D01*
X191245238Y-113698090D02*
X191364286Y-113757614D01*
X191364286Y-113757614D02*
X191423810Y-113876661D01*
X191423810Y-113876661D02*
X191423810Y-114531423D01*
D11*
X167088095Y-112089780D02*
X167088095Y-111280257D01*
X167088095Y-111280257D02*
X167040476Y-111185019D01*
X167040476Y-111185019D02*
X166992857Y-111137400D01*
X166992857Y-111137400D02*
X166897619Y-111089780D01*
X166897619Y-111089780D02*
X166707143Y-111089780D01*
X166707143Y-111089780D02*
X166611905Y-111137400D01*
X166611905Y-111137400D02*
X166564286Y-111185019D01*
X166564286Y-111185019D02*
X166516667Y-111280257D01*
X166516667Y-111280257D02*
X166516667Y-112089780D01*
X165516667Y-111089780D02*
X166088095Y-111089780D01*
X165802381Y-111089780D02*
X165802381Y-112089780D01*
X165802381Y-112089780D02*
X165897619Y-111946923D01*
X165897619Y-111946923D02*
X165992857Y-111851685D01*
X165992857Y-111851685D02*
X166088095Y-111804066D01*
X165135714Y-111994542D02*
X165088095Y-112042161D01*
X165088095Y-112042161D02*
X164992857Y-112089780D01*
X164992857Y-112089780D02*
X164754762Y-112089780D01*
X164754762Y-112089780D02*
X164659524Y-112042161D01*
X164659524Y-112042161D02*
X164611905Y-111994542D01*
X164611905Y-111994542D02*
X164564286Y-111899304D01*
X164564286Y-111899304D02*
X164564286Y-111804066D01*
X164564286Y-111804066D02*
X164611905Y-111661209D01*
X164611905Y-111661209D02*
X165183333Y-111089780D01*
X165183333Y-111089780D02*
X164564286Y-111089780D01*
X157488095Y-112195180D02*
X157488095Y-111385657D01*
X157488095Y-111385657D02*
X157440476Y-111290419D01*
X157440476Y-111290419D02*
X157392857Y-111242800D01*
X157392857Y-111242800D02*
X157297619Y-111195180D01*
X157297619Y-111195180D02*
X157107143Y-111195180D01*
X157107143Y-111195180D02*
X157011905Y-111242800D01*
X157011905Y-111242800D02*
X156964286Y-111290419D01*
X156964286Y-111290419D02*
X156916667Y-111385657D01*
X156916667Y-111385657D02*
X156916667Y-112195180D01*
X155916667Y-111195180D02*
X156488095Y-111195180D01*
X156202381Y-111195180D02*
X156202381Y-112195180D01*
X156202381Y-112195180D02*
X156297619Y-112052323D01*
X156297619Y-112052323D02*
X156392857Y-111957085D01*
X156392857Y-111957085D02*
X156488095Y-111909466D01*
X154964286Y-111195180D02*
X155535714Y-111195180D01*
X155250000Y-111195180D02*
X155250000Y-112195180D01*
X155250000Y-112195180D02*
X155345238Y-112052323D01*
X155345238Y-112052323D02*
X155440476Y-111957085D01*
X155440476Y-111957085D02*
X155535714Y-111909466D01*
X168038095Y-109654819D02*
X168609523Y-109654819D01*
X168323809Y-110654819D02*
X168323809Y-109654819D01*
X168847619Y-109654819D02*
X169514285Y-110654819D01*
X169514285Y-109654819D02*
X168847619Y-110654819D01*
X161904167Y-103517799D02*
X162047024Y-103565418D01*
X162047024Y-103565418D02*
X162285119Y-103565418D01*
X162285119Y-103565418D02*
X162380357Y-103517799D01*
X162380357Y-103517799D02*
X162427976Y-103470179D01*
X162427976Y-103470179D02*
X162475595Y-103374941D01*
X162475595Y-103374941D02*
X162475595Y-103279703D01*
X162475595Y-103279703D02*
X162427976Y-103184465D01*
X162427976Y-103184465D02*
X162380357Y-103136846D01*
X162380357Y-103136846D02*
X162285119Y-103089227D01*
X162285119Y-103089227D02*
X162094643Y-103041608D01*
X162094643Y-103041608D02*
X161999405Y-102993989D01*
X161999405Y-102993989D02*
X161951786Y-102946370D01*
X161951786Y-102946370D02*
X161904167Y-102851132D01*
X161904167Y-102851132D02*
X161904167Y-102755894D01*
X161904167Y-102755894D02*
X161951786Y-102660656D01*
X161951786Y-102660656D02*
X161999405Y-102613037D01*
X161999405Y-102613037D02*
X162094643Y-102565418D01*
X162094643Y-102565418D02*
X162332738Y-102565418D01*
X162332738Y-102565418D02*
X162475595Y-102613037D01*
X162808929Y-102565418D02*
X163047024Y-103565418D01*
X163047024Y-103565418D02*
X163237500Y-102851132D01*
X163237500Y-102851132D02*
X163427976Y-103565418D01*
X163427976Y-103565418D02*
X163666072Y-102565418D01*
X164570833Y-103565418D02*
X163999405Y-103565418D01*
X164285119Y-103565418D02*
X164285119Y-102565418D01*
X164285119Y-102565418D02*
X164189881Y-102708275D01*
X164189881Y-102708275D02*
X164094643Y-102803513D01*
X164094643Y-102803513D02*
X163999405Y-102851132D01*
X159987500Y-98804118D02*
X159987500Y-99042213D01*
X159749405Y-98946975D02*
X159987500Y-99042213D01*
X159987500Y-99042213D02*
X160225595Y-98946975D01*
X159844643Y-99232689D02*
X159987500Y-99042213D01*
X159987500Y-99042213D02*
X160130357Y-99232689D01*
X159987500Y-98804118D02*
X159987500Y-99042213D01*
X159749405Y-98946975D02*
X159987500Y-99042213D01*
X159987500Y-99042213D02*
X160225595Y-98946975D01*
X159844643Y-99232689D02*
X159987500Y-99042213D01*
X159987500Y-99042213D02*
X160130357Y-99232689D01*
X136066666Y-89945180D02*
X136542856Y-89945180D01*
X136542856Y-89945180D02*
X136542856Y-90945180D01*
X135209523Y-89945180D02*
X135780951Y-89945180D01*
X135495237Y-89945180D02*
X135495237Y-90945180D01*
X135495237Y-90945180D02*
X135590475Y-90802323D01*
X135590475Y-90802323D02*
X135685713Y-90707085D01*
X135685713Y-90707085D02*
X135780951Y-90659466D01*
X139913200Y-89854819D02*
X139913200Y-90092914D01*
X139675105Y-89997676D02*
X139913200Y-90092914D01*
X139913200Y-90092914D02*
X140151295Y-89997676D01*
X139770343Y-90283390D02*
X139913200Y-90092914D01*
X139913200Y-90092914D02*
X140056057Y-90283390D01*
X139913200Y-89854819D02*
X139913200Y-90092914D01*
X139675105Y-89997676D02*
X139913200Y-90092914D01*
X139913200Y-90092914D02*
X140151295Y-89997676D01*
X139770343Y-90283390D02*
X139913200Y-90092914D01*
X139913200Y-90092914D02*
X140056057Y-90283390D01*
D12*
X156365237Y-85724318D02*
X156365237Y-84454318D01*
X157695714Y-85603365D02*
X157635238Y-85663842D01*
X157635238Y-85663842D02*
X157453809Y-85724318D01*
X157453809Y-85724318D02*
X157332857Y-85724318D01*
X157332857Y-85724318D02*
X157151428Y-85663842D01*
X157151428Y-85663842D02*
X157030476Y-85542889D01*
X157030476Y-85542889D02*
X156969999Y-85421937D01*
X156969999Y-85421937D02*
X156909523Y-85180032D01*
X156909523Y-85180032D02*
X156909523Y-84998603D01*
X156909523Y-84998603D02*
X156969999Y-84756699D01*
X156969999Y-84756699D02*
X157030476Y-84635746D01*
X157030476Y-84635746D02*
X157151428Y-84514794D01*
X157151428Y-84514794D02*
X157332857Y-84454318D01*
X157332857Y-84454318D02*
X157453809Y-84454318D01*
X157453809Y-84454318D02*
X157635238Y-84514794D01*
X157635238Y-84514794D02*
X157695714Y-84575270D01*
X158905238Y-85724318D02*
X158179523Y-85724318D01*
X158542380Y-85724318D02*
X158542380Y-84454318D01*
X158542380Y-84454318D02*
X158421428Y-84635746D01*
X158421428Y-84635746D02*
X158300476Y-84756699D01*
X158300476Y-84756699D02*
X158179523Y-84817175D01*
D11*
X145209523Y-97604819D02*
X144733333Y-97604819D01*
X144733333Y-97604819D02*
X144685714Y-98081009D01*
X144685714Y-98081009D02*
X144733333Y-98033390D01*
X144733333Y-98033390D02*
X144828571Y-97985771D01*
X144828571Y-97985771D02*
X145066666Y-97985771D01*
X145066666Y-97985771D02*
X145161904Y-98033390D01*
X145161904Y-98033390D02*
X145209523Y-98081009D01*
X145209523Y-98081009D02*
X145257142Y-98176247D01*
X145257142Y-98176247D02*
X145257142Y-98414342D01*
X145257142Y-98414342D02*
X145209523Y-98509580D01*
X145209523Y-98509580D02*
X145161904Y-98557200D01*
X145161904Y-98557200D02*
X145066666Y-98604819D01*
X145066666Y-98604819D02*
X144828571Y-98604819D01*
X144828571Y-98604819D02*
X144733333Y-98557200D01*
X144733333Y-98557200D02*
X144685714Y-98509580D01*
X145542857Y-97604819D02*
X145876190Y-98604819D01*
X145876190Y-98604819D02*
X146209523Y-97604819D01*
X168533333Y-108554819D02*
X168200000Y-108078628D01*
X167961905Y-108554819D02*
X167961905Y-107554819D01*
X167961905Y-107554819D02*
X168342857Y-107554819D01*
X168342857Y-107554819D02*
X168438095Y-107602438D01*
X168438095Y-107602438D02*
X168485714Y-107650057D01*
X168485714Y-107650057D02*
X168533333Y-107745295D01*
X168533333Y-107745295D02*
X168533333Y-107888152D01*
X168533333Y-107888152D02*
X168485714Y-107983390D01*
X168485714Y-107983390D02*
X168438095Y-108031009D01*
X168438095Y-108031009D02*
X168342857Y-108078628D01*
X168342857Y-108078628D02*
X167961905Y-108078628D01*
X168866667Y-107554819D02*
X169533333Y-108554819D01*
X169533333Y-107554819D02*
X168866667Y-108554819D01*
X123399419Y-112411903D02*
X124208942Y-112411903D01*
X124208942Y-112411903D02*
X124304180Y-112364284D01*
X124304180Y-112364284D02*
X124351800Y-112316665D01*
X124351800Y-112316665D02*
X124399419Y-112221427D01*
X124399419Y-112221427D02*
X124399419Y-112030951D01*
X124399419Y-112030951D02*
X124351800Y-111935713D01*
X124351800Y-111935713D02*
X124304180Y-111888094D01*
X124304180Y-111888094D02*
X124208942Y-111840475D01*
X124208942Y-111840475D02*
X123399419Y-111840475D01*
X123399419Y-111459522D02*
X123399419Y-110792856D01*
X123399419Y-110792856D02*
X124399419Y-111221427D01*
X138429818Y-100884404D02*
X139239341Y-100884404D01*
X139239341Y-100884404D02*
X139334579Y-100836785D01*
X139334579Y-100836785D02*
X139382199Y-100789166D01*
X139382199Y-100789166D02*
X139429818Y-100693928D01*
X139429818Y-100693928D02*
X139429818Y-100503452D01*
X139429818Y-100503452D02*
X139382199Y-100408214D01*
X139382199Y-100408214D02*
X139334579Y-100360595D01*
X139334579Y-100360595D02*
X139239341Y-100312976D01*
X139239341Y-100312976D02*
X138429818Y-100312976D01*
X138525056Y-99884404D02*
X138477437Y-99836785D01*
X138477437Y-99836785D02*
X138429818Y-99741547D01*
X138429818Y-99741547D02*
X138429818Y-99503452D01*
X138429818Y-99503452D02*
X138477437Y-99408214D01*
X138477437Y-99408214D02*
X138525056Y-99360595D01*
X138525056Y-99360595D02*
X138620294Y-99312976D01*
X138620294Y-99312976D02*
X138715532Y-99312976D01*
X138715532Y-99312976D02*
X138858389Y-99360595D01*
X138858389Y-99360595D02*
X139429818Y-99932023D01*
X139429818Y-99932023D02*
X139429818Y-99312976D01*
X135880018Y-102598999D02*
X136118113Y-102598999D01*
X136022875Y-102837094D02*
X136118113Y-102598999D01*
X136118113Y-102598999D02*
X136022875Y-102360904D01*
X136308589Y-102741856D02*
X136118113Y-102598999D01*
X136118113Y-102598999D02*
X136308589Y-102456142D01*
X135880018Y-102598999D02*
X136118113Y-102598999D01*
X136022875Y-102837094D02*
X136118113Y-102598999D01*
X136118113Y-102598999D02*
X136022875Y-102360904D01*
X136308589Y-102741856D02*
X136118113Y-102598999D01*
X136118113Y-102598999D02*
X136308589Y-102456142D01*
X150091667Y-103467799D02*
X150234524Y-103515418D01*
X150234524Y-103515418D02*
X150472619Y-103515418D01*
X150472619Y-103515418D02*
X150567857Y-103467799D01*
X150567857Y-103467799D02*
X150615476Y-103420179D01*
X150615476Y-103420179D02*
X150663095Y-103324941D01*
X150663095Y-103324941D02*
X150663095Y-103229703D01*
X150663095Y-103229703D02*
X150615476Y-103134465D01*
X150615476Y-103134465D02*
X150567857Y-103086846D01*
X150567857Y-103086846D02*
X150472619Y-103039227D01*
X150472619Y-103039227D02*
X150282143Y-102991608D01*
X150282143Y-102991608D02*
X150186905Y-102943989D01*
X150186905Y-102943989D02*
X150139286Y-102896370D01*
X150139286Y-102896370D02*
X150091667Y-102801132D01*
X150091667Y-102801132D02*
X150091667Y-102705894D01*
X150091667Y-102705894D02*
X150139286Y-102610656D01*
X150139286Y-102610656D02*
X150186905Y-102563037D01*
X150186905Y-102563037D02*
X150282143Y-102515418D01*
X150282143Y-102515418D02*
X150520238Y-102515418D01*
X150520238Y-102515418D02*
X150663095Y-102563037D01*
X150996429Y-102515418D02*
X151234524Y-103515418D01*
X151234524Y-103515418D02*
X151425000Y-102801132D01*
X151425000Y-102801132D02*
X151615476Y-103515418D01*
X151615476Y-103515418D02*
X151853572Y-102515418D01*
X152186905Y-102610656D02*
X152234524Y-102563037D01*
X152234524Y-102563037D02*
X152329762Y-102515418D01*
X152329762Y-102515418D02*
X152567857Y-102515418D01*
X152567857Y-102515418D02*
X152663095Y-102563037D01*
X152663095Y-102563037D02*
X152710714Y-102610656D01*
X152710714Y-102610656D02*
X152758333Y-102705894D01*
X152758333Y-102705894D02*
X152758333Y-102801132D01*
X152758333Y-102801132D02*
X152710714Y-102943989D01*
X152710714Y-102943989D02*
X152139286Y-103515418D01*
X152139286Y-103515418D02*
X152758333Y-103515418D01*
X148175000Y-98754118D02*
X148175000Y-98992213D01*
X147936905Y-98896975D02*
X148175000Y-98992213D01*
X148175000Y-98992213D02*
X148413095Y-98896975D01*
X148032143Y-99182689D02*
X148175000Y-98992213D01*
X148175000Y-98992213D02*
X148317857Y-99182689D01*
X148175000Y-98754118D02*
X148175000Y-98992213D01*
X147936905Y-98896975D02*
X148175000Y-98992213D01*
X148175000Y-98992213D02*
X148413095Y-98896975D01*
X148032143Y-99182689D02*
X148175000Y-98992213D01*
X148175000Y-98992213D02*
X148317857Y-99182689D01*
X147311903Y-112189780D02*
X147311903Y-111380257D01*
X147311903Y-111380257D02*
X147264284Y-111285019D01*
X147264284Y-111285019D02*
X147216665Y-111237400D01*
X147216665Y-111237400D02*
X147121427Y-111189780D01*
X147121427Y-111189780D02*
X146930951Y-111189780D01*
X146930951Y-111189780D02*
X146835713Y-111237400D01*
X146835713Y-111237400D02*
X146788094Y-111285019D01*
X146788094Y-111285019D02*
X146740475Y-111380257D01*
X146740475Y-111380257D02*
X146740475Y-112189780D01*
X146216665Y-111189780D02*
X146026189Y-111189780D01*
X146026189Y-111189780D02*
X145930951Y-111237400D01*
X145930951Y-111237400D02*
X145883332Y-111285019D01*
X145883332Y-111285019D02*
X145788094Y-111427876D01*
X145788094Y-111427876D02*
X145740475Y-111618352D01*
X145740475Y-111618352D02*
X145740475Y-111999304D01*
X145740475Y-111999304D02*
X145788094Y-112094542D01*
X145788094Y-112094542D02*
X145835713Y-112142161D01*
X145835713Y-112142161D02*
X145930951Y-112189780D01*
X145930951Y-112189780D02*
X146121427Y-112189780D01*
X146121427Y-112189780D02*
X146216665Y-112142161D01*
X146216665Y-112142161D02*
X146264284Y-112094542D01*
X146264284Y-112094542D02*
X146311903Y-111999304D01*
X146311903Y-111999304D02*
X146311903Y-111761209D01*
X146311903Y-111761209D02*
X146264284Y-111665971D01*
X146264284Y-111665971D02*
X146216665Y-111618352D01*
X146216665Y-111618352D02*
X146121427Y-111570733D01*
X146121427Y-111570733D02*
X145930951Y-111570733D01*
X145930951Y-111570733D02*
X145835713Y-111618352D01*
X145835713Y-111618352D02*
X145788094Y-111665971D01*
X145788094Y-111665971D02*
X145740475Y-111761209D01*
X144638095Y-93804438D02*
X144542857Y-93756819D01*
X144542857Y-93756819D02*
X144400000Y-93756819D01*
X144400000Y-93756819D02*
X144257143Y-93804438D01*
X144257143Y-93804438D02*
X144161905Y-93899676D01*
X144161905Y-93899676D02*
X144114286Y-93994914D01*
X144114286Y-93994914D02*
X144066667Y-94185390D01*
X144066667Y-94185390D02*
X144066667Y-94328247D01*
X144066667Y-94328247D02*
X144114286Y-94518723D01*
X144114286Y-94518723D02*
X144161905Y-94613961D01*
X144161905Y-94613961D02*
X144257143Y-94709200D01*
X144257143Y-94709200D02*
X144400000Y-94756819D01*
X144400000Y-94756819D02*
X144495238Y-94756819D01*
X144495238Y-94756819D02*
X144638095Y-94709200D01*
X144638095Y-94709200D02*
X144685714Y-94661580D01*
X144685714Y-94661580D02*
X144685714Y-94328247D01*
X144685714Y-94328247D02*
X144495238Y-94328247D01*
X145114286Y-94756819D02*
X145114286Y-93756819D01*
X145114286Y-93756819D02*
X145685714Y-94756819D01*
X145685714Y-94756819D02*
X145685714Y-93756819D01*
X146161905Y-94756819D02*
X146161905Y-93756819D01*
X146161905Y-93756819D02*
X146400000Y-93756819D01*
X146400000Y-93756819D02*
X146542857Y-93804438D01*
X146542857Y-93804438D02*
X146638095Y-93899676D01*
X146638095Y-93899676D02*
X146685714Y-93994914D01*
X146685714Y-93994914D02*
X146733333Y-94185390D01*
X146733333Y-94185390D02*
X146733333Y-94328247D01*
X146733333Y-94328247D02*
X146685714Y-94518723D01*
X146685714Y-94518723D02*
X146638095Y-94613961D01*
X146638095Y-94613961D02*
X146542857Y-94709200D01*
X146542857Y-94709200D02*
X146400000Y-94756819D01*
X146400000Y-94756819D02*
X146161905Y-94756819D01*
X129380952Y-99154819D02*
X128809524Y-99154819D01*
X129095238Y-99154819D02*
X129095238Y-98154819D01*
X129095238Y-98154819D02*
X129000000Y-98297676D01*
X129000000Y-98297676D02*
X128904762Y-98392914D01*
X128904762Y-98392914D02*
X128809524Y-98440533D01*
X129761905Y-98250057D02*
X129809524Y-98202438D01*
X129809524Y-98202438D02*
X129904762Y-98154819D01*
X129904762Y-98154819D02*
X130142857Y-98154819D01*
X130142857Y-98154819D02*
X130238095Y-98202438D01*
X130238095Y-98202438D02*
X130285714Y-98250057D01*
X130285714Y-98250057D02*
X130333333Y-98345295D01*
X130333333Y-98345295D02*
X130333333Y-98440533D01*
X130333333Y-98440533D02*
X130285714Y-98583390D01*
X130285714Y-98583390D02*
X129714286Y-99154819D01*
X129714286Y-99154819D02*
X130333333Y-99154819D01*
X130619048Y-98154819D02*
X130952381Y-99154819D01*
X130952381Y-99154819D02*
X131285714Y-98154819D01*
X121911906Y-89199419D02*
X121911906Y-90008942D01*
X121911906Y-90008942D02*
X121959525Y-90104180D01*
X121959525Y-90104180D02*
X122007144Y-90151800D01*
X122007144Y-90151800D02*
X122102382Y-90199419D01*
X122102382Y-90199419D02*
X122292858Y-90199419D01*
X122292858Y-90199419D02*
X122388096Y-90151800D01*
X122388096Y-90151800D02*
X122435715Y-90104180D01*
X122435715Y-90104180D02*
X122483334Y-90008942D01*
X122483334Y-90008942D02*
X122483334Y-89199419D01*
X123483334Y-90199419D02*
X122911906Y-90199419D01*
X123197620Y-90199419D02*
X123197620Y-89199419D01*
X123197620Y-89199419D02*
X123102382Y-89342276D01*
X123102382Y-89342276D02*
X123007144Y-89437514D01*
X123007144Y-89437514D02*
X122911906Y-89485133D01*
X124102382Y-89199419D02*
X124197620Y-89199419D01*
X124197620Y-89199419D02*
X124292858Y-89247038D01*
X124292858Y-89247038D02*
X124340477Y-89294657D01*
X124340477Y-89294657D02*
X124388096Y-89389895D01*
X124388096Y-89389895D02*
X124435715Y-89580371D01*
X124435715Y-89580371D02*
X124435715Y-89818466D01*
X124435715Y-89818466D02*
X124388096Y-90008942D01*
X124388096Y-90008942D02*
X124340477Y-90104180D01*
X124340477Y-90104180D02*
X124292858Y-90151800D01*
X124292858Y-90151800D02*
X124197620Y-90199419D01*
X124197620Y-90199419D02*
X124102382Y-90199419D01*
X124102382Y-90199419D02*
X124007144Y-90151800D01*
X124007144Y-90151800D02*
X123959525Y-90104180D01*
X123959525Y-90104180D02*
X123911906Y-90008942D01*
X123911906Y-90008942D02*
X123864287Y-89818466D01*
X123864287Y-89818466D02*
X123864287Y-89580371D01*
X123864287Y-89580371D02*
X123911906Y-89389895D01*
X123911906Y-89389895D02*
X123959525Y-89294657D01*
X123959525Y-89294657D02*
X124007144Y-89247038D01*
X124007144Y-89247038D02*
X124102382Y-89199419D01*
X137511905Y-112039780D02*
X137511905Y-111230257D01*
X137511905Y-111230257D02*
X137464286Y-111135019D01*
X137464286Y-111135019D02*
X137416667Y-111087400D01*
X137416667Y-111087400D02*
X137321429Y-111039780D01*
X137321429Y-111039780D02*
X137130953Y-111039780D01*
X137130953Y-111039780D02*
X137035715Y-111087400D01*
X137035715Y-111087400D02*
X136988096Y-111135019D01*
X136988096Y-111135019D02*
X136940477Y-111230257D01*
X136940477Y-111230257D02*
X136940477Y-112039780D01*
X136321429Y-111611209D02*
X136416667Y-111658828D01*
X136416667Y-111658828D02*
X136464286Y-111706447D01*
X136464286Y-111706447D02*
X136511905Y-111801685D01*
X136511905Y-111801685D02*
X136511905Y-111849304D01*
X136511905Y-111849304D02*
X136464286Y-111944542D01*
X136464286Y-111944542D02*
X136416667Y-111992161D01*
X136416667Y-111992161D02*
X136321429Y-112039780D01*
X136321429Y-112039780D02*
X136130953Y-112039780D01*
X136130953Y-112039780D02*
X136035715Y-111992161D01*
X136035715Y-111992161D02*
X135988096Y-111944542D01*
X135988096Y-111944542D02*
X135940477Y-111849304D01*
X135940477Y-111849304D02*
X135940477Y-111801685D01*
X135940477Y-111801685D02*
X135988096Y-111706447D01*
X135988096Y-111706447D02*
X136035715Y-111658828D01*
X136035715Y-111658828D02*
X136130953Y-111611209D01*
X136130953Y-111611209D02*
X136321429Y-111611209D01*
X136321429Y-111611209D02*
X136416667Y-111563590D01*
X136416667Y-111563590D02*
X136464286Y-111515971D01*
X136464286Y-111515971D02*
X136511905Y-111420733D01*
X136511905Y-111420733D02*
X136511905Y-111230257D01*
X136511905Y-111230257D02*
X136464286Y-111135019D01*
X136464286Y-111135019D02*
X136416667Y-111087400D01*
X136416667Y-111087400D02*
X136321429Y-111039780D01*
X136321429Y-111039780D02*
X136130953Y-111039780D01*
X136130953Y-111039780D02*
X136035715Y-111087400D01*
X136035715Y-111087400D02*
X135988096Y-111135019D01*
X135988096Y-111135019D02*
X135940477Y-111230257D01*
X135940477Y-111230257D02*
X135940477Y-111420733D01*
X135940477Y-111420733D02*
X135988096Y-111515971D01*
X135988096Y-111515971D02*
X136035715Y-111563590D01*
X136035715Y-111563590D02*
X136130953Y-111611209D01*
X139914286Y-90154819D02*
X139914286Y-89154819D01*
X139914286Y-89631009D02*
X140485714Y-89631009D01*
X140485714Y-90154819D02*
X140485714Y-89154819D01*
X140914286Y-89250057D02*
X140961905Y-89202438D01*
X140961905Y-89202438D02*
X141057143Y-89154819D01*
X141057143Y-89154819D02*
X141295238Y-89154819D01*
X141295238Y-89154819D02*
X141390476Y-89202438D01*
X141390476Y-89202438D02*
X141438095Y-89250057D01*
X141438095Y-89250057D02*
X141485714Y-89345295D01*
X141485714Y-89345295D02*
X141485714Y-89440533D01*
X141485714Y-89440533D02*
X141438095Y-89583390D01*
X141438095Y-89583390D02*
X140866667Y-90154819D01*
X140866667Y-90154819D02*
X141485714Y-90154819D01*
X142104762Y-89154819D02*
X142295238Y-89154819D01*
X142295238Y-89154819D02*
X142390476Y-89202438D01*
X142390476Y-89202438D02*
X142485714Y-89297676D01*
X142485714Y-89297676D02*
X142533333Y-89488152D01*
X142533333Y-89488152D02*
X142533333Y-89821485D01*
X142533333Y-89821485D02*
X142485714Y-90011961D01*
X142485714Y-90011961D02*
X142390476Y-90107200D01*
X142390476Y-90107200D02*
X142295238Y-90154819D01*
X142295238Y-90154819D02*
X142104762Y-90154819D01*
X142104762Y-90154819D02*
X142009524Y-90107200D01*
X142009524Y-90107200D02*
X141914286Y-90011961D01*
X141914286Y-90011961D02*
X141866667Y-89821485D01*
X141866667Y-89821485D02*
X141866667Y-89488152D01*
X141866667Y-89488152D02*
X141914286Y-89297676D01*
X141914286Y-89297676D02*
X142009524Y-89202438D01*
X142009524Y-89202438D02*
X142104762Y-89154819D01*
X194461905Y-111654819D02*
X195080952Y-111654819D01*
X195080952Y-111654819D02*
X194747619Y-112035771D01*
X194747619Y-112035771D02*
X194890476Y-112035771D01*
X194890476Y-112035771D02*
X194985714Y-112083390D01*
X194985714Y-112083390D02*
X195033333Y-112131009D01*
X195033333Y-112131009D02*
X195080952Y-112226247D01*
X195080952Y-112226247D02*
X195080952Y-112464342D01*
X195080952Y-112464342D02*
X195033333Y-112559580D01*
X195033333Y-112559580D02*
X194985714Y-112607200D01*
X194985714Y-112607200D02*
X194890476Y-112654819D01*
X194890476Y-112654819D02*
X194604762Y-112654819D01*
X194604762Y-112654819D02*
X194509524Y-112607200D01*
X194509524Y-112607200D02*
X194461905Y-112559580D01*
X195366667Y-111654819D02*
X195700000Y-112654819D01*
X195700000Y-112654819D02*
X196033333Y-111654819D01*
X196271429Y-111654819D02*
X196890476Y-111654819D01*
X196890476Y-111654819D02*
X196557143Y-112035771D01*
X196557143Y-112035771D02*
X196700000Y-112035771D01*
X196700000Y-112035771D02*
X196795238Y-112083390D01*
X196795238Y-112083390D02*
X196842857Y-112131009D01*
X196842857Y-112131009D02*
X196890476Y-112226247D01*
X196890476Y-112226247D02*
X196890476Y-112464342D01*
X196890476Y-112464342D02*
X196842857Y-112559580D01*
X196842857Y-112559580D02*
X196795238Y-112607200D01*
X196795238Y-112607200D02*
X196700000Y-112654819D01*
X196700000Y-112654819D02*
X196414286Y-112654819D01*
X196414286Y-112654819D02*
X196319048Y-112607200D01*
X196319048Y-112607200D02*
X196271429Y-112559580D01*
X123154819Y-102661904D02*
X123964342Y-102661904D01*
X123964342Y-102661904D02*
X124059580Y-102614285D01*
X124059580Y-102614285D02*
X124107200Y-102566666D01*
X124107200Y-102566666D02*
X124154819Y-102471428D01*
X124154819Y-102471428D02*
X124154819Y-102280952D01*
X124154819Y-102280952D02*
X124107200Y-102185714D01*
X124107200Y-102185714D02*
X124059580Y-102138095D01*
X124059580Y-102138095D02*
X123964342Y-102090476D01*
X123964342Y-102090476D02*
X123154819Y-102090476D01*
X123154819Y-101185714D02*
X123154819Y-101376190D01*
X123154819Y-101376190D02*
X123202438Y-101471428D01*
X123202438Y-101471428D02*
X123250057Y-101519047D01*
X123250057Y-101519047D02*
X123392914Y-101614285D01*
X123392914Y-101614285D02*
X123583390Y-101661904D01*
X123583390Y-101661904D02*
X123964342Y-101661904D01*
X123964342Y-101661904D02*
X124059580Y-101614285D01*
X124059580Y-101614285D02*
X124107200Y-101566666D01*
X124107200Y-101566666D02*
X124154819Y-101471428D01*
X124154819Y-101471428D02*
X124154819Y-101280952D01*
X124154819Y-101280952D02*
X124107200Y-101185714D01*
X124107200Y-101185714D02*
X124059580Y-101138095D01*
X124059580Y-101138095D02*
X123964342Y-101090476D01*
X123964342Y-101090476D02*
X123726247Y-101090476D01*
X123726247Y-101090476D02*
X123631009Y-101138095D01*
X123631009Y-101138095D02*
X123583390Y-101185714D01*
X123583390Y-101185714D02*
X123535771Y-101280952D01*
X123535771Y-101280952D02*
X123535771Y-101471428D01*
X123535771Y-101471428D02*
X123583390Y-101566666D01*
X123583390Y-101566666D02*
X123631009Y-101614285D01*
X123631009Y-101614285D02*
X123726247Y-101661904D01*
D13*
X164173601Y-110541300D02*
X164173601Y-112547900D01*
X164173601Y-112547900D02*
X165237861Y-112547900D01*
X166187862Y-110541300D02*
X165512140Y-110541300D01*
X166462141Y-112547900D02*
X167526401Y-112547900D01*
X167526401Y-112547900D02*
X167526401Y-110541300D01*
X166876201Y-108725200D02*
G75*
G02*
X166723801Y-108725200I-76200J0D01*
G01*
X166723801Y-108725200D02*
G75*
G02*
X166876201Y-108725200I76200J0D01*
G01*
D14*
X131300000Y-78800000D02*
X146500000Y-78800000D01*
X131300000Y-86500000D02*
X131300000Y-78800000D01*
X146500000Y-78800000D02*
X146500000Y-86500000D01*
X146500000Y-86500000D02*
X131300000Y-86500000D01*
D15*
X183177500Y-98587742D02*
X183177500Y-99062258D01*
X184222500Y-98587742D02*
X184222500Y-99062258D01*
D14*
X145100000Y-114650000D02*
X155300000Y-114650000D01*
X145100000Y-122350000D02*
X145100000Y-114650000D01*
X155300000Y-114650000D02*
X155300000Y-122350000D01*
X155300000Y-122350000D02*
X145100000Y-122350000D01*
D16*
X146900000Y-116850000D02*
G75*
G02*
X146700000Y-116850000I-100000J0D01*
G01*
X146700000Y-116850000D02*
G75*
G02*
X146900000Y-116850000I100000J0D01*
G01*
D13*
X154573601Y-110646700D02*
X154573601Y-112653300D01*
X154573601Y-112653300D02*
X155637861Y-112653300D01*
X156587862Y-110646700D02*
X155912140Y-110646700D01*
X156862141Y-112653300D02*
X157926401Y-112653300D01*
X157926401Y-112653300D02*
X157926401Y-110646700D01*
X157276201Y-108830600D02*
G75*
G02*
X157123801Y-108830600I-76200J0D01*
G01*
X157123801Y-108830600D02*
G75*
G02*
X157276201Y-108830600I76200J0D01*
G01*
D15*
X196600000Y-90035000D02*
X200660000Y-90035000D01*
X200660000Y-87765000D02*
X196600000Y-87765000D01*
X200660000Y-90035000D02*
X200660000Y-87765000D01*
D14*
X156100000Y-114650000D02*
X166300000Y-114650000D01*
X156100000Y-122350000D02*
X156100000Y-114650000D01*
X166300000Y-114650000D02*
X166300000Y-122350000D01*
X166300000Y-122350000D02*
X156100000Y-122350000D01*
D16*
X157900000Y-116850000D02*
G75*
G02*
X157700000Y-116850000I-100000J0D01*
G01*
X157700000Y-116850000D02*
G75*
G02*
X157900000Y-116850000I100000J0D01*
G01*
D15*
X200940000Y-108171267D02*
X200940000Y-107878733D01*
X201960000Y-108171267D02*
X201960000Y-107878733D01*
X127277500Y-111937258D02*
X127277500Y-111462742D01*
X128322500Y-111937258D02*
X128322500Y-111462742D01*
X129650000Y-106740000D02*
X129650000Y-112550000D01*
X133950000Y-106740000D02*
X129650000Y-106740000D01*
X133950000Y-106740000D02*
X133950000Y-112550000D01*
D14*
X134100000Y-114650000D02*
X144300000Y-114650000D01*
X134100000Y-122350000D02*
X134100000Y-114650000D01*
X144300000Y-114650000D02*
X144300000Y-122350000D01*
X144300000Y-122350000D02*
X134100000Y-122350000D01*
D16*
X135900000Y-116850000D02*
G75*
G02*
X135700000Y-116850000I-100000J0D01*
G01*
X135700000Y-116850000D02*
G75*
G02*
X135900000Y-116850000I100000J0D01*
G01*
D13*
X160113300Y-101942639D02*
X160113300Y-104285898D01*
X160625140Y-106234799D02*
X165849860Y-106234799D01*
X165849860Y-99986399D02*
X161045208Y-99986399D01*
X166361700Y-104285898D02*
X166361700Y-101935301D01*
D15*
X192100000Y-94740000D02*
X191300000Y-94740000D01*
X192100000Y-94740000D02*
X192900000Y-94740000D01*
X192100000Y-97860000D02*
X191300000Y-97860000D01*
X192100000Y-97860000D02*
X192900000Y-97860000D01*
X190800000Y-94790000D02*
X190560000Y-94460000D01*
X191040000Y-94460000D01*
X190800000Y-94790000D01*
G36*
X190800000Y-94790000D02*
G01*
X190560000Y-94460000D01*
X191040000Y-94460000D01*
X190800000Y-94790000D01*
G37*
X128760000Y-104650000D02*
X122950000Y-104650000D01*
X128760000Y-108950000D02*
X122950000Y-108950000D01*
X128760000Y-108950000D02*
X128760000Y-104650000D01*
D13*
X132775800Y-88774400D02*
X132775800Y-92025600D01*
X134274400Y-93524200D02*
X137525600Y-93524200D01*
X137525600Y-87275800D02*
X134274400Y-87275800D01*
X139024200Y-92025600D02*
X139024200Y-88774400D01*
D15*
X174337258Y-107577500D02*
X173862742Y-107577500D01*
X174337258Y-108622500D02*
X173862742Y-108622500D01*
X184990000Y-95146267D02*
X184990000Y-94853733D01*
X186010000Y-95146267D02*
X186010000Y-94853733D01*
D17*
X147505000Y-79640000D02*
X147505000Y-79640000D01*
X147605000Y-79640000D02*
X147605000Y-79640000D01*
D14*
X148605000Y-72150000D02*
X166605000Y-72150000D01*
X148605000Y-78900000D02*
X148605000Y-72150000D01*
X148605000Y-97650000D02*
X148605000Y-96900000D01*
X151105000Y-97650000D02*
X148605000Y-97650000D01*
X166605000Y-72150000D02*
X166605000Y-78900000D01*
X166605000Y-96900000D02*
X166605000Y-97650000D01*
X166605000Y-97650000D02*
X164105000Y-97650000D01*
D17*
X147505000Y-79640000D02*
G75*
G02*
X147605000Y-79640000I50000J0D01*
G01*
X147605000Y-79640000D02*
G75*
G02*
X147505000Y-79640000I-50000J0D01*
G01*
D13*
X122941300Y-109973599D02*
X122941300Y-111037859D01*
X122941300Y-112262139D02*
X122941300Y-113326399D01*
X122941300Y-113326399D02*
X124947900Y-113326399D01*
X124947900Y-109973599D02*
X122941300Y-109973599D01*
X124947900Y-111987860D02*
X124947900Y-111312138D01*
X126840200Y-112599999D02*
G75*
G02*
X126687800Y-112599999I-76200J0D01*
G01*
X126687800Y-112599999D02*
G75*
G02*
X126840200Y-112599999I76200J0D01*
G01*
D15*
X131750000Y-101660000D02*
X131750000Y-95850000D01*
X131750000Y-101660000D02*
X136050000Y-101660000D01*
X136050000Y-101660000D02*
X136050000Y-95850000D01*
X186290000Y-90846267D02*
X186290000Y-90553733D01*
X187310000Y-90846267D02*
X187310000Y-90553733D01*
X126250000Y-94360000D02*
X126250000Y-88550000D01*
X126250000Y-94360000D02*
X130550000Y-94360000D01*
X130550000Y-94360000D02*
X130550000Y-88550000D01*
X132177500Y-104237258D02*
X132177500Y-103762742D01*
X133222500Y-104237258D02*
X133222500Y-103762742D01*
X141990000Y-98483767D02*
X141990000Y-98191233D01*
X143010000Y-98483767D02*
X143010000Y-98191233D01*
X166237258Y-107227500D02*
X165762742Y-107227500D01*
X166237258Y-108272500D02*
X165762742Y-108272500D01*
X146837258Y-107177500D02*
X146362742Y-107177500D01*
X146837258Y-108222500D02*
X146362742Y-108222500D01*
D13*
X137247799Y-98395300D02*
X137247799Y-101849700D01*
X140702199Y-101849700D02*
X140702199Y-98395300D01*
D15*
X135588748Y-104390000D02*
X137011252Y-104390000D01*
X135588748Y-106210000D02*
X137011252Y-106210000D01*
X136962256Y-107027500D02*
X136487740Y-107027500D01*
X136962256Y-108072500D02*
X136487740Y-108072500D01*
X189040000Y-92562122D02*
X189040000Y-91762878D01*
X190160000Y-92562122D02*
X190160000Y-91762878D01*
D14*
X120600000Y-78750000D02*
X130800000Y-78750000D01*
X120600000Y-86450000D02*
X120600000Y-78750000D01*
X130800000Y-78750000D02*
X130800000Y-86450000D01*
X130800000Y-86450000D02*
X120600000Y-86450000D01*
D16*
X129200000Y-84250000D02*
G75*
G02*
X129000000Y-84250000I-100000J0D01*
G01*
X129000000Y-84250000D02*
G75*
G02*
X129200000Y-84250000I100000J0D01*
G01*
D15*
X174337258Y-109677500D02*
X173862742Y-109677500D01*
X174337258Y-110722500D02*
X173862742Y-110722500D01*
X140837258Y-104777500D02*
X140362742Y-104777500D01*
X140837258Y-105822500D02*
X140362742Y-105822500D01*
X143240000Y-88646267D02*
X143240000Y-88353733D01*
X144260000Y-88646267D02*
X144260000Y-88353733D01*
X139450000Y-106940000D02*
X139450000Y-112750000D01*
X143750000Y-106940000D02*
X139450000Y-106940000D01*
X143750000Y-106940000D02*
X143750000Y-112750000D01*
X191702500Y-88662258D02*
X191702500Y-88187742D01*
X192747500Y-88662258D02*
X192747500Y-88187742D01*
D13*
X148300800Y-101892639D02*
X148300800Y-104235898D01*
X148812640Y-106184799D02*
X154037360Y-106184799D01*
X154037360Y-99936399D02*
X149232708Y-99936399D01*
X154549200Y-104235898D02*
X154549200Y-101885301D01*
X144873599Y-110641300D02*
X144873599Y-112647900D01*
X144873599Y-112647900D02*
X145937859Y-112647900D01*
X146887860Y-110641300D02*
X146212138Y-110641300D01*
X147162139Y-112647900D02*
X148226399Y-112647900D01*
X148226399Y-112647900D02*
X148226399Y-110641300D01*
X147576199Y-108825200D02*
G75*
G02*
X147423799Y-108825200I-76200J0D01*
G01*
X147423799Y-108825200D02*
G75*
G02*
X147576199Y-108825200I76200J0D01*
G01*
D15*
X140100000Y-90800000D02*
X142500000Y-90800000D01*
X140100000Y-93200000D02*
X140100000Y-90800000D01*
X142500000Y-90800000D02*
X142500000Y-93200000D01*
X142500000Y-93200000D02*
X140100000Y-93200000D01*
X158850000Y-106890000D02*
X158850000Y-112700000D01*
X163150000Y-106890000D02*
X158850000Y-106890000D01*
X163150000Y-106890000D02*
X163150000Y-112700000D01*
X156537258Y-107327500D02*
X156062742Y-107327500D01*
X156537258Y-108372500D02*
X156062742Y-108372500D01*
X192183767Y-98890000D02*
X191891233Y-98890000D01*
X192183767Y-99910000D02*
X191891233Y-99910000D01*
X129977500Y-103787742D02*
X129977500Y-104262258D01*
X131022500Y-103787742D02*
X131022500Y-104262258D01*
X145240000Y-88646267D02*
X145240000Y-88353733D01*
X146260000Y-88646267D02*
X146260000Y-88353733D01*
X200940000Y-103991233D02*
X200940000Y-104283767D01*
X201960000Y-103991233D02*
X201960000Y-104283767D01*
D14*
X191200000Y-93875000D02*
X191200000Y-91325000D01*
X192450000Y-93025000D02*
X192450000Y-91325000D01*
D15*
X193290000Y-104400000D02*
X193290000Y-108160000D01*
X193290000Y-108160000D02*
X194550000Y-108160000D01*
X200110000Y-104400000D02*
X200110000Y-108160000D01*
X200110000Y-108160000D02*
X198850000Y-108160000D01*
X200340000Y-103360000D02*
X200010000Y-103120000D01*
X200340000Y-102880000D01*
X200340000Y-103360000D01*
G36*
X200340000Y-103360000D02*
G01*
X200010000Y-103120000D01*
X200340000Y-102880000D01*
X200340000Y-103360000D01*
G37*
X187977500Y-88637258D02*
X187977500Y-88162742D01*
X189022500Y-88637258D02*
X189022500Y-88162742D01*
D13*
X121473601Y-88741300D02*
X121473601Y-90747900D01*
X122537861Y-88741300D02*
X121473601Y-88741300D01*
X122812140Y-90747900D02*
X123487862Y-90747900D01*
X124826401Y-88741300D02*
X123762141Y-88741300D01*
X124826401Y-90747900D02*
X124826401Y-88741300D01*
X122276201Y-92564000D02*
G75*
G02*
X122123801Y-92564000I-76200J0D01*
G01*
X122123801Y-92564000D02*
G75*
G02*
X122276201Y-92564000I76200J0D01*
G01*
D14*
X197450000Y-91330000D02*
X198700000Y-91330000D01*
X197450000Y-100270000D02*
X198700000Y-100270000D01*
X201420000Y-100270000D02*
X202700000Y-100270000D01*
X202700000Y-91330000D02*
X201420000Y-91330000D01*
X194200000Y-99050000D02*
G75*
G02*
X194000000Y-99050000I-100000J0D01*
G01*
X194000000Y-99050000D02*
G75*
G02*
X194200000Y-99050000I100000J0D01*
G01*
D15*
X126977500Y-102062258D02*
X126977500Y-101587742D01*
X128022500Y-102062258D02*
X128022500Y-101587742D01*
D14*
X106900000Y-100900000D02*
X114600000Y-100900000D01*
X106900000Y-111100000D02*
X106900000Y-100900000D01*
X114600000Y-100900000D02*
X114600000Y-111100000D01*
X114600000Y-111100000D02*
X106900000Y-111100000D01*
D16*
X112500000Y-102600000D02*
G75*
G02*
X112300000Y-102600000I-100000J0D01*
G01*
X112300000Y-102600000D02*
G75*
G02*
X112500000Y-102600000I100000J0D01*
G01*
D15*
X189952500Y-88662258D02*
X189952500Y-88187742D01*
X190997500Y-88662258D02*
X190997500Y-88187742D01*
X184290000Y-90846267D02*
X184290000Y-90553733D01*
X185310000Y-90846267D02*
X185310000Y-90553733D01*
X138153733Y-94490000D02*
X138446267Y-94490000D01*
X138153733Y-95510000D02*
X138446267Y-95510000D01*
D11*
X179325000Y-103025000D02*
X180435000Y-103025000D01*
X179325000Y-107175000D02*
X179325000Y-103025000D01*
X180435000Y-107175000D02*
X179325000Y-107175000D01*
X188275000Y-103025000D02*
X187165000Y-103025000D01*
X188275000Y-107175000D02*
X187165000Y-107175000D01*
X188275000Y-107175000D02*
X188275000Y-103025000D01*
D15*
X180435000Y-107737500D02*
X180105000Y-107977500D01*
X180105000Y-107497500D01*
X180435000Y-107737500D01*
G36*
X180435000Y-107737500D02*
G01*
X180105000Y-107977500D01*
X180105000Y-107497500D01*
X180435000Y-107737500D01*
G37*
D13*
X135073601Y-110491300D02*
X135073601Y-112497900D01*
X135073601Y-112497900D02*
X136137861Y-112497900D01*
X137087862Y-110491300D02*
X136412140Y-110491300D01*
X137362141Y-112497900D02*
X138426401Y-112497900D01*
X138426401Y-112497900D02*
X138426401Y-110491300D01*
X137776201Y-108675200D02*
G75*
G02*
X137623801Y-108675200I-76200J0D01*
G01*
X137623801Y-108675200D02*
G75*
G02*
X137776201Y-108675200I76200J0D01*
G01*
D15*
X143200000Y-90800000D02*
X145600000Y-90800000D01*
X143200000Y-93200000D02*
X143200000Y-90800000D01*
X145600000Y-90800000D02*
X145600000Y-93200000D01*
X145600000Y-93200000D02*
X143200000Y-93200000D01*
D14*
X123100000Y-114650000D02*
X133300000Y-114650000D01*
X123100000Y-122350000D02*
X123100000Y-114650000D01*
X133300000Y-114650000D02*
X133300000Y-122350000D01*
X133300000Y-122350000D02*
X123100000Y-122350000D01*
D16*
X124900000Y-116850000D02*
G75*
G02*
X124700000Y-116850000I-100000J0D01*
G01*
X124700000Y-116850000D02*
G75*
G02*
X124900000Y-116850000I100000J0D01*
G01*
D15*
X183090000Y-95146267D02*
X183090000Y-94853733D01*
X184110000Y-95146267D02*
X184110000Y-94853733D01*
X141977500Y-101974758D02*
X141977500Y-101500242D01*
X143022500Y-101974758D02*
X143022500Y-101500242D01*
X149350000Y-106890000D02*
X149350000Y-112700000D01*
X153650000Y-106890000D02*
X149350000Y-106890000D01*
X153650000Y-106890000D02*
X153650000Y-112700000D01*
X128560000Y-94750000D02*
X122750000Y-94750000D01*
X128560000Y-99050000D02*
X122750000Y-99050000D01*
X128560000Y-99050000D02*
X128560000Y-94750000D01*
X122937742Y-92977500D02*
X123412258Y-92977500D01*
X122937742Y-94022500D02*
X123412258Y-94022500D01*
X189090000Y-105046267D02*
X189090000Y-104753733D01*
X190110000Y-105046267D02*
X190110000Y-104753733D01*
X141953733Y-94590000D02*
X142246267Y-94590000D01*
X141953733Y-95610000D02*
X142246267Y-95610000D01*
X184977500Y-98587742D02*
X184977500Y-99062258D01*
X186022500Y-98587742D02*
X186022500Y-99062258D01*
D13*
X122696700Y-100223600D02*
X122696700Y-101287860D01*
X122696700Y-102512140D02*
X122696700Y-103576400D01*
X122696700Y-103576400D02*
X124703300Y-103576400D01*
X124703300Y-100223600D02*
X122696700Y-100223600D01*
X124703300Y-102237861D02*
X124703300Y-101562139D01*
X126595600Y-102850000D02*
G75*
G02*
X126443200Y-102850000I-76200J0D01*
G01*
X126443200Y-102850000D02*
G75*
G02*
X126595600Y-102850000I76200J0D01*
G01*
D14*
X106900000Y-89900000D02*
X114600000Y-89900000D01*
X106900000Y-100100000D02*
X106900000Y-89900000D01*
X114600000Y-89900000D02*
X114600000Y-100100000D01*
X114600000Y-100100000D02*
X106900000Y-100100000D01*
D16*
X112500000Y-91600000D02*
G75*
G02*
X112300000Y-91600000I-100000J0D01*
G01*
X112300000Y-91600000D02*
G75*
G02*
X112500000Y-91600000I100000J0D01*
G01*
%LPC*%
D18*
X195970000Y-92950000D02*
X194720000Y-92950000D01*
X194720000Y-92250000D01*
X195970000Y-92250000D01*
X195970000Y-92950000D01*
G36*
X195970000Y-92950000D02*
G01*
X194720000Y-92950000D01*
X194720000Y-92250000D01*
X195970000Y-92250000D01*
X195970000Y-92950000D01*
G37*
X195970000Y-93750000D02*
X194720000Y-93750000D01*
X194720000Y-93050000D01*
X195970000Y-93050000D01*
X195970000Y-93750000D01*
G36*
X195970000Y-93750000D02*
G01*
X194720000Y-93750000D01*
X194720000Y-93050000D01*
X195970000Y-93050000D01*
X195970000Y-93750000D01*
G37*
X195970000Y-94250000D02*
X194720000Y-94250000D01*
X194720000Y-93850000D01*
X195970000Y-93850000D01*
X195970000Y-94250000D01*
G36*
X195970000Y-94250000D02*
G01*
X194720000Y-94250000D01*
X194720000Y-93850000D01*
X195970000Y-93850000D01*
X195970000Y-94250000D01*
G37*
X195970000Y-94750000D02*
X194720000Y-94750000D01*
X194720000Y-94350000D01*
X195970000Y-94350000D01*
X195970000Y-94750000D01*
G36*
X195970000Y-94750000D02*
G01*
X194720000Y-94750000D01*
X194720000Y-94350000D01*
X195970000Y-94350000D01*
X195970000Y-94750000D01*
G37*
X195970000Y-95250000D02*
X194720000Y-95250000D01*
X194720000Y-94850000D01*
X195970000Y-94850000D01*
X195970000Y-95250000D01*
G36*
X195970000Y-95250000D02*
G01*
X194720000Y-95250000D01*
X194720000Y-94850000D01*
X195970000Y-94850000D01*
X195970000Y-95250000D01*
G37*
X195970000Y-95750000D02*
X194720000Y-95750000D01*
X194720000Y-95350000D01*
X195970000Y-95350000D01*
X195970000Y-95750000D01*
G36*
X195970000Y-95750000D02*
G01*
X194720000Y-95750000D01*
X194720000Y-95350000D01*
X195970000Y-95350000D01*
X195970000Y-95750000D01*
G37*
X195970000Y-96250000D02*
X194720000Y-96250000D01*
X194720000Y-95850000D01*
X195970000Y-95850000D01*
X195970000Y-96250000D01*
G36*
X195970000Y-96250000D02*
G01*
X194720000Y-96250000D01*
X194720000Y-95850000D01*
X195970000Y-95850000D01*
X195970000Y-96250000D01*
G37*
X195970000Y-96750000D02*
X194720000Y-96750000D01*
X194720000Y-96350000D01*
X195970000Y-96350000D01*
X195970000Y-96750000D01*
G36*
X195970000Y-96750000D02*
G01*
X194720000Y-96750000D01*
X194720000Y-96350000D01*
X195970000Y-96350000D01*
X195970000Y-96750000D01*
G37*
X195970000Y-97250000D02*
X194720000Y-97250000D01*
X194720000Y-96850000D01*
X195970000Y-96850000D01*
X195970000Y-97250000D01*
G36*
X195970000Y-97250000D02*
G01*
X194720000Y-97250000D01*
X194720000Y-96850000D01*
X195970000Y-96850000D01*
X195970000Y-97250000D01*
G37*
X195970000Y-97750000D02*
X194720000Y-97750000D01*
X194720000Y-97350000D01*
X195970000Y-97350000D01*
X195970000Y-97750000D01*
G36*
X195970000Y-97750000D02*
G01*
X194720000Y-97750000D01*
X194720000Y-97350000D01*
X195970000Y-97350000D01*
X195970000Y-97750000D01*
G37*
X195970000Y-98550000D02*
X194720000Y-98550000D01*
X194720000Y-97850000D01*
X195970000Y-97850000D01*
X195970000Y-98550000D01*
G36*
X195970000Y-98550000D02*
G01*
X194720000Y-98550000D01*
X194720000Y-97850000D01*
X195970000Y-97850000D01*
X195970000Y-98550000D01*
G37*
X195970000Y-99350000D02*
X194720000Y-99350000D01*
X194720000Y-98650000D01*
X195970000Y-98650000D01*
X195970000Y-99350000D01*
G36*
X195970000Y-99350000D02*
G01*
X194720000Y-99350000D01*
X194720000Y-98650000D01*
X195970000Y-98650000D01*
X195970000Y-99350000D01*
G37*
D19*
X197700000Y-83500000D03*
D20*
X166800002Y-110300000D03*
X164900000Y-110300000D03*
X165850001Y-112789200D03*
D21*
X143900000Y-82900000D03*
X138900000Y-82900000D03*
X133900000Y-82900000D03*
D22*
X116300000Y-100600000D03*
D23*
X183700000Y-98000000D03*
X183700000Y-99650000D03*
D21*
X147700000Y-118250000D03*
X152700000Y-118250000D03*
D20*
X157200002Y-110405400D03*
X155300000Y-110405400D03*
X156250001Y-112894600D03*
D24*
X199687500Y-88900000D03*
X196712500Y-88900000D03*
D21*
X158700000Y-118250000D03*
X163700000Y-118250000D03*
D25*
X201450000Y-108887500D03*
X201450000Y-107162500D03*
D22*
X171100000Y-110200000D03*
D26*
X127800000Y-112525000D03*
X127800000Y-110875000D03*
D27*
X131800000Y-108250000D03*
X131800000Y-112550000D03*
D21*
X136700000Y-118250000D03*
X141700000Y-118250000D03*
D28*
X159987499Y-100860599D03*
D29*
X166487500Y-100860599D03*
X159987499Y-105360600D03*
X166487500Y-105360600D03*
D30*
X190962500Y-95350000D03*
X190962500Y-97250000D03*
X193237500Y-96300000D03*
D31*
X127250000Y-106800000D03*
X122950000Y-106800000D03*
D32*
X137775000Y-90400000D03*
X134025000Y-90400000D03*
D33*
X174925000Y-108100000D03*
X173275000Y-108100000D03*
D25*
X185500000Y-95862500D03*
X185500000Y-94137500D03*
D34*
X148855000Y-79640000D03*
X148855000Y-80910000D03*
X148855000Y-82180000D03*
X148855000Y-83450000D03*
X148855000Y-84720000D03*
X148855000Y-85990000D03*
X148855000Y-87260000D03*
X148855000Y-88530000D03*
X148855000Y-89800000D03*
X148855000Y-91070000D03*
X148855000Y-92340000D03*
X148855000Y-93610000D03*
X148855000Y-94880000D03*
X148855000Y-96150000D03*
D35*
X151890000Y-97400000D03*
X153160000Y-97400000D03*
X154430000Y-97400000D03*
X155700000Y-97400000D03*
X156970000Y-97400000D03*
X158240000Y-97400000D03*
X159510000Y-97400000D03*
X160780000Y-97400000D03*
X162050000Y-97400000D03*
X163320000Y-97400000D03*
D34*
X166355000Y-96150000D03*
X166355000Y-94880000D03*
X166355000Y-93610000D03*
X166355000Y-92340000D03*
X166355000Y-91070000D03*
X166355000Y-89800000D03*
X166355000Y-88530000D03*
X166355000Y-87260000D03*
X166355000Y-85990000D03*
X166355000Y-84720000D03*
X166355000Y-83450000D03*
X166355000Y-82180000D03*
X166355000Y-80910000D03*
X166355000Y-79640000D03*
D36*
X156105000Y-87360000D03*
X154705000Y-87360000D03*
X154705000Y-88760000D03*
X156105000Y-88760000D03*
X157505000Y-88760000D03*
X157505000Y-87360000D03*
X157505000Y-85960000D03*
X156105000Y-85960000D03*
X154705000Y-85960000D03*
D22*
X145400000Y-96350000D03*
X171100000Y-108100000D03*
D37*
X125189200Y-112600000D03*
X125189200Y-110699998D03*
X122700000Y-111649999D03*
D38*
X133900000Y-100150000D03*
X133900000Y-95850000D03*
D25*
X186800000Y-91562500D03*
X186800000Y-89837500D03*
D38*
X128400000Y-92850000D03*
X128400000Y-88550000D03*
D26*
X132700000Y-104825000D03*
X132700000Y-103175000D03*
D25*
X142500000Y-99200000D03*
X142500000Y-97475000D03*
D33*
X166825000Y-107750000D03*
X165175000Y-107750000D03*
X147425000Y-107700000D03*
X145775000Y-107700000D03*
D39*
X138000000Y-102345000D03*
X138649998Y-102345000D03*
X139300000Y-102345000D03*
X139949998Y-102345000D03*
X139949998Y-97900000D03*
X139300000Y-97900000D03*
X138649998Y-97900000D03*
X138000000Y-97900000D03*
D40*
X134825000Y-105300000D03*
X137775000Y-105300000D03*
D33*
X137549998Y-107550000D03*
X135899998Y-107550000D03*
D41*
X189600000Y-93225000D03*
X189600000Y-91100000D03*
D21*
X128200000Y-82850000D03*
X123200000Y-82850000D03*
D33*
X174925000Y-110200000D03*
X173275000Y-110200000D03*
X141425000Y-105300000D03*
X139775000Y-105300000D03*
D25*
X143750000Y-89362500D03*
X143750000Y-87637500D03*
D27*
X141600000Y-108450000D03*
X141600000Y-112750000D03*
D19*
X111700000Y-117500000D03*
D22*
X116300000Y-105700000D03*
D26*
X192225000Y-89250000D03*
X192225000Y-87600000D03*
D28*
X148174999Y-100810599D03*
D29*
X154675000Y-100810599D03*
X148174999Y-105310600D03*
X154675000Y-105310600D03*
D20*
X147500000Y-110400000D03*
X145599998Y-110400000D03*
X146549999Y-112889200D03*
D42*
X141300000Y-92000000D03*
D27*
X161000000Y-108400000D03*
X161000000Y-112700000D03*
D33*
X157125000Y-107850000D03*
X155475000Y-107850000D03*
D43*
X192900000Y-99400000D03*
X191175000Y-99400000D03*
D23*
X130500000Y-103200000D03*
X130500000Y-104850000D03*
D25*
X145750000Y-89362500D03*
X145750000Y-87637500D03*
D44*
X130000000Y-100500000D03*
D45*
X201450000Y-103275000D03*
X201450000Y-105000000D03*
D46*
X191825000Y-93325000D03*
X191825000Y-91025000D03*
D47*
X199000000Y-103100000D03*
X196700000Y-103100000D03*
D48*
X196700000Y-109400000D03*
D47*
X194400000Y-103100000D03*
D22*
X116300000Y-103100000D03*
D26*
X188500000Y-89225000D03*
X188500000Y-87575000D03*
D20*
X122200000Y-90989200D03*
X124100002Y-90989200D03*
X123150001Y-88500000D03*
D49*
X196420000Y-98690000D03*
X196420000Y-92910000D03*
D50*
X195920000Y-100120000D03*
X195920000Y-91480000D03*
D51*
X200100000Y-100120000D03*
X200100000Y-91480000D03*
D26*
X127500000Y-102650000D03*
X127500000Y-101000000D03*
D21*
X111000000Y-103500000D03*
X111000000Y-108500000D03*
D26*
X190475000Y-89250000D03*
X190475000Y-87600000D03*
D25*
X184800000Y-91562500D03*
X184800000Y-89837500D03*
D19*
X111700000Y-83500000D03*
D52*
X137437500Y-95000000D03*
X139162500Y-95000000D03*
D53*
X180942500Y-107700000D03*
X181577500Y-107700000D03*
X182212500Y-107700000D03*
X182847500Y-107700000D03*
X183482500Y-107700000D03*
X184117500Y-107700000D03*
X184752500Y-107700000D03*
X185387500Y-107700000D03*
X186022500Y-107700000D03*
X186657500Y-107700000D03*
X186657500Y-102500000D03*
X186022500Y-102500000D03*
X185387500Y-102500000D03*
X184752500Y-102500000D03*
X184117500Y-102500000D03*
X183482500Y-102500000D03*
X182847500Y-102500000D03*
X182212500Y-102500000D03*
X181577500Y-102500000D03*
X180942500Y-102500000D03*
D20*
X137700002Y-110250000D03*
X135800000Y-110250000D03*
X136750001Y-112739200D03*
D22*
X141200000Y-88000000D03*
D42*
X144400000Y-92000000D03*
D21*
X125700000Y-118250000D03*
X130700000Y-118250000D03*
D25*
X183600000Y-95862500D03*
X183600000Y-94137500D03*
D26*
X142500000Y-102562500D03*
X142500000Y-100912500D03*
D22*
X198500000Y-112200000D03*
D19*
X197700000Y-117500000D03*
D27*
X151500000Y-108400000D03*
X151500000Y-112700000D03*
D31*
X127050000Y-96900000D03*
X122750000Y-96900000D03*
D54*
X122350000Y-93500000D03*
X124000000Y-93500000D03*
D25*
X189600000Y-105762500D03*
X189600000Y-104037500D03*
D52*
X141237500Y-95100000D03*
X142962500Y-95100000D03*
D23*
X185500000Y-98000000D03*
X185500000Y-99650000D03*
D37*
X124944600Y-102850001D03*
X124944600Y-100949999D03*
X122455400Y-101900000D03*
D21*
X111000000Y-92500000D03*
X111000000Y-97500000D03*
D55*
X187600000Y-96400000D03*
X181600000Y-90400000D03*
D56*
X118965000Y-113305000D03*
X118965000Y-110765000D03*
X118965000Y-108225000D03*
X118965000Y-105685000D03*
X118965000Y-103145000D03*
X118965000Y-100605000D03*
X118965000Y-98065000D03*
X118965000Y-95525000D03*
X118965000Y-92985000D03*
X118965000Y-90445000D03*
X118965000Y-87905000D03*
D57*
X176875000Y-110200000D03*
D58*
X179415000Y-110200000D03*
X181955000Y-110200000D03*
X184495000Y-110200000D03*
X187035000Y-110200000D03*
X189575000Y-110200000D03*
X192115000Y-110200000D03*
X192115000Y-117820000D03*
X189575000Y-117820000D03*
X187035000Y-117820000D03*
X184495000Y-117820000D03*
X181955000Y-117820000D03*
X179415000Y-117820000D03*
X176875000Y-117820000D03*
%LPD*%
M02*
