%TF.GenerationSoftware,KiCad,Pcbnew,8.0.6*%
%TF.CreationDate,2025-05-30T23:27:36-07:00*%
%TF.ProjectId,aroma,61726f6d-612e-46b6-9963-61645f706362,rev?*%
%TF.SameCoordinates,Original*%
%TF.FileFunction,Drillmap*%
%TF.FilePolarity,Positive*%
%FSLAX45Y45*%
G04 Gerber Fmt 4.5, Leading zero omitted, Abs format (unit mm)*
G04 Created by KiCad (PCBNEW 8.0.6) date 2025-05-30 23:27:36*
%MOMM*%
%LPD*%
G01*
G04 APERTURE LIST*
%ADD10C,0.200000*%
%ADD11C,0.010000*%
%ADD12C,0.100000*%
%ADD13C,0.130000*%
%ADD14C,0.350000*%
G04 APERTURE END LIST*
D10*
X11170000Y-7850000D02*
X19770000Y-7850000D01*
X19770000Y-7850000D02*
G75*
G02*
X20270000Y-8350000I0J-500000D01*
G01*
X10670000Y-8350000D02*
G75*
G02*
X11170000Y-7850000I500000J0D01*
G01*
X11170000Y-12250000D02*
G75*
G02*
X10670000Y-11750000I0J500000D01*
G01*
X11170000Y-12250000D02*
X19770000Y-12250000D01*
X20270000Y-8350000D02*
X20270000Y-11750000D01*
X10670000Y-11750000D02*
X10670000Y-8350000D01*
X20270000Y-11750000D02*
G75*
G02*
X19770000Y-12250000I-500000J0D01*
G01*
D11*
X17950000Y-9820000D02*
X17950000Y-9965000D01*
X17950000Y-9965000D02*
X18270000Y-9965000D01*
X18270000Y-9820000D02*
X17950000Y-9820000D01*
X18270000Y-9965000D02*
X18270000Y-9820000D01*
X18300000Y-8715000D02*
X18620000Y-8715000D01*
X18300000Y-8860000D02*
X18300000Y-8715000D01*
X18620000Y-8715000D02*
X18620000Y-8860000D01*
X18620000Y-8860000D02*
X18300000Y-8860000D01*
X18650000Y-9820000D02*
X18970000Y-9820000D01*
X18650000Y-9965000D02*
X18650000Y-9820000D01*
X18970000Y-9820000D02*
X18970000Y-9965000D01*
X18970000Y-9965000D02*
X18650000Y-9965000D01*
D12*
X17271500Y-8475500D02*
G75*
G02*
X16921500Y-8475500I-175000J0D01*
G01*
X16921500Y-8475500D02*
G75*
G02*
X17271500Y-8475500I175000J0D01*
G01*
X17271500Y-11645500D02*
G75*
G02*
X16921500Y-11645500I-175000J0D01*
G01*
X16921500Y-11645500D02*
G75*
G02*
X17271500Y-11645500I175000J0D01*
G01*
D10*
D12*
X12350000Y-9210000D02*
X12380000Y-9240000D01*
X12380000Y-9210000D02*
X12350000Y-9240000D01*
X12485000Y-9405000D02*
X12515000Y-9435000D01*
X12515000Y-9405000D02*
X12485000Y-9435000D01*
X12495000Y-10935000D02*
X12525000Y-10965000D01*
X12525000Y-10935000D02*
X12495000Y-10965000D01*
X12525000Y-9140000D02*
X12555000Y-9170000D01*
X12555000Y-9140000D02*
X12525000Y-9170000D01*
X12525000Y-9250000D02*
X12555000Y-9280000D01*
X12555000Y-9250000D02*
X12525000Y-9280000D01*
X12565000Y-10935000D02*
X12595000Y-10965000D01*
X12595000Y-10935000D02*
X12565000Y-10965000D01*
X12625000Y-10015000D02*
X12655000Y-10045000D01*
X12655000Y-10015000D02*
X12625000Y-10045000D01*
X12625000Y-10075000D02*
X12655000Y-10105000D01*
X12655000Y-10075000D02*
X12625000Y-10105000D01*
X12625000Y-10135000D02*
X12655000Y-10165000D01*
X12655000Y-10135000D02*
X12625000Y-10165000D01*
X12635000Y-10935000D02*
X12665000Y-10965000D01*
X12665000Y-10935000D02*
X12635000Y-10965000D01*
X12765000Y-10965000D02*
X12795000Y-10995000D01*
X12795000Y-10965000D02*
X12765000Y-10995000D01*
X12825000Y-10255000D02*
X12855000Y-10285000D01*
X12855000Y-10255000D02*
X12825000Y-10285000D01*
X12892500Y-8460000D02*
X12922500Y-8490000D01*
X12922500Y-8460000D02*
X12892500Y-8490000D01*
X12892500Y-8590000D02*
X12922500Y-8620000D01*
X12922500Y-8590000D02*
X12892500Y-8620000D01*
X12895000Y-9695000D02*
X12925000Y-9725000D01*
X12925000Y-9695000D02*
X12895000Y-9725000D01*
X12895000Y-9765000D02*
X12925000Y-9795000D01*
X12925000Y-9765000D02*
X12895000Y-9795000D01*
X12902552Y-8380634D02*
X12932552Y-8410634D01*
X12932552Y-8380634D02*
X12902552Y-8410634D01*
X12925000Y-10595000D02*
X12955000Y-10625000D01*
X12955000Y-10595000D02*
X12925000Y-10625000D01*
X12926721Y-8665865D02*
X12956721Y-8695865D01*
X12956721Y-8665865D02*
X12926721Y-8695865D01*
X12965000Y-9695000D02*
X12995000Y-9725000D01*
X12995000Y-9695000D02*
X12965000Y-9725000D01*
X12965000Y-9765000D02*
X12995000Y-9795000D01*
X12995000Y-9765000D02*
X12965000Y-9795000D01*
X12995000Y-10395000D02*
X13025000Y-10425000D01*
X13025000Y-10395000D02*
X12995000Y-10425000D01*
X12995000Y-10595000D02*
X13025000Y-10625000D01*
X13025000Y-10595000D02*
X12995000Y-10625000D01*
X13045000Y-9695000D02*
X13075000Y-9725000D01*
X13075000Y-9695000D02*
X13045000Y-9725000D01*
X13045000Y-9765000D02*
X13075000Y-9795000D01*
X13075000Y-9765000D02*
X13045000Y-9795000D01*
X13075000Y-10595000D02*
X13105000Y-10625000D01*
X13105000Y-10595000D02*
X13075000Y-10625000D01*
X13085000Y-10395000D02*
X13115000Y-10425000D01*
X13115000Y-10395000D02*
X13085000Y-10425000D01*
X13115000Y-9695000D02*
X13145000Y-9725000D01*
X13145000Y-9695000D02*
X13115000Y-9725000D01*
X13115000Y-9765000D02*
X13145000Y-9795000D01*
X13145000Y-9765000D02*
X13115000Y-9795000D01*
X13155000Y-10595000D02*
X13185000Y-10625000D01*
X13185000Y-10595000D02*
X13155000Y-10625000D01*
X13235000Y-10595000D02*
X13265000Y-10625000D01*
X13265000Y-10595000D02*
X13235000Y-10625000D01*
X13315000Y-10595000D02*
X13345000Y-10625000D01*
X13345000Y-10595000D02*
X13315000Y-10625000D01*
X13530000Y-10845000D02*
X13560000Y-10875000D01*
X13560000Y-10845000D02*
X13530000Y-10875000D01*
X13615000Y-10845000D02*
X13645000Y-10875000D01*
X13645000Y-10845000D02*
X13615000Y-10875000D01*
X13620000Y-8795000D02*
X13650000Y-8825000D01*
X13650000Y-8795000D02*
X13620000Y-8825000D01*
X13620000Y-8905000D02*
X13650000Y-8935000D01*
X13650000Y-8905000D02*
X13620000Y-8935000D01*
X13620000Y-9020000D02*
X13650000Y-9050000D01*
X13650000Y-9020000D02*
X13620000Y-9050000D01*
X13620000Y-9125000D02*
X13650000Y-9155000D01*
X13650000Y-9125000D02*
X13620000Y-9155000D01*
X13620000Y-9250000D02*
X13650000Y-9280000D01*
X13650000Y-9250000D02*
X13620000Y-9280000D01*
X13650000Y-10475000D02*
X13680000Y-10505000D01*
X13680000Y-10475000D02*
X13650000Y-10505000D01*
X13650000Y-10555000D02*
X13680000Y-10585000D01*
X13680000Y-10555000D02*
X13650000Y-10585000D01*
X13850000Y-9565000D02*
X13880000Y-9595000D01*
X13880000Y-9565000D02*
X13850000Y-9595000D01*
X13850000Y-9630000D02*
X13880000Y-9660000D01*
X13880000Y-9630000D02*
X13850000Y-9660000D01*
X13850000Y-9930000D02*
X13880000Y-9960000D01*
X13880000Y-9930000D02*
X13850000Y-9960000D01*
X13910000Y-9930000D02*
X13940000Y-9960000D01*
X13940000Y-9930000D02*
X13910000Y-9960000D01*
X13925000Y-10735000D02*
X13955000Y-10765000D01*
X13955000Y-10735000D02*
X13925000Y-10765000D01*
X13925000Y-10815000D02*
X13955000Y-10845000D01*
X13955000Y-10815000D02*
X13925000Y-10845000D01*
X13925000Y-10905000D02*
X13955000Y-10935000D01*
X13955000Y-10905000D02*
X13925000Y-10935000D01*
X13965000Y-9620000D02*
X13995000Y-9650000D01*
X13995000Y-9620000D02*
X13965000Y-9650000D01*
X13986590Y-10315000D02*
X14016590Y-10345000D01*
X14016590Y-10315000D02*
X13986590Y-10345000D01*
X14015000Y-10170000D02*
X14045000Y-10200000D01*
X14045000Y-10170000D02*
X14015000Y-10200000D01*
X14040000Y-9620000D02*
X14070000Y-9650000D01*
X14070000Y-9620000D02*
X14040000Y-9650000D01*
X14105000Y-8785000D02*
X14135000Y-8815000D01*
X14135000Y-8785000D02*
X14105000Y-8815000D01*
X14105000Y-10255000D02*
X14135000Y-10285000D01*
X14135000Y-10255000D02*
X14105000Y-10285000D01*
X14120000Y-9620000D02*
X14150000Y-9650000D01*
X14150000Y-9620000D02*
X14120000Y-9650000D01*
X14230000Y-10520000D02*
X14260000Y-10550000D01*
X14260000Y-10520000D02*
X14230000Y-10550000D01*
X14235000Y-9615000D02*
X14265000Y-9645000D01*
X14265000Y-9615000D02*
X14235000Y-9645000D01*
X14265000Y-9385000D02*
X14295000Y-9415000D01*
X14295000Y-9385000D02*
X14265000Y-9415000D01*
X14310000Y-9615000D02*
X14340000Y-9645000D01*
X14340000Y-9615000D02*
X14310000Y-9645000D01*
X14335000Y-10735000D02*
X14365000Y-10765000D01*
X14365000Y-10735000D02*
X14335000Y-10765000D01*
X14335000Y-10815000D02*
X14365000Y-10845000D01*
X14365000Y-10815000D02*
X14335000Y-10845000D01*
X14335000Y-10905000D02*
X14365000Y-10935000D01*
X14365000Y-10905000D02*
X14335000Y-10935000D01*
X14460000Y-8720000D02*
X14490000Y-8750000D01*
X14490000Y-8720000D02*
X14460000Y-8750000D01*
X14460000Y-8790000D02*
X14490000Y-8820000D01*
X14490000Y-8790000D02*
X14460000Y-8820000D01*
X14460000Y-8890000D02*
X14490000Y-8920000D01*
X14490000Y-8890000D02*
X14460000Y-8920000D01*
X14460000Y-8960000D02*
X14490000Y-8990000D01*
X14490000Y-8960000D02*
X14460000Y-8990000D01*
X14500000Y-10875000D02*
X14530000Y-10905000D01*
X14530000Y-10875000D02*
X14500000Y-10905000D01*
X14525000Y-9620000D02*
X14555000Y-9650000D01*
X14555000Y-9620000D02*
X14525000Y-9650000D01*
X14565000Y-8520000D02*
X14595000Y-8550000D01*
X14595000Y-8520000D02*
X14565000Y-8550000D01*
X14585000Y-10875000D02*
X14615000Y-10905000D01*
X14615000Y-10875000D02*
X14585000Y-10905000D01*
X14625000Y-8460000D02*
X14655000Y-8490000D01*
X14655000Y-8460000D02*
X14625000Y-8490000D01*
X14635000Y-8375000D02*
X14665000Y-8405000D01*
X14665000Y-8375000D02*
X14635000Y-8405000D01*
X14635000Y-8590000D02*
X14665000Y-8620000D01*
X14665000Y-8590000D02*
X14635000Y-8620000D01*
X14695000Y-7965000D02*
X14725000Y-7995000D01*
X14725000Y-7965000D02*
X14695000Y-7995000D01*
X14695000Y-8045000D02*
X14725000Y-8075000D01*
X14725000Y-8045000D02*
X14695000Y-8075000D01*
X14695000Y-8125000D02*
X14725000Y-8155000D01*
X14725000Y-8125000D02*
X14695000Y-8155000D01*
X14705500Y-9215000D02*
X14735500Y-9245000D01*
X14735500Y-9215000D02*
X14705500Y-9245000D01*
X14865000Y-7955000D02*
X14895000Y-7985000D01*
X14895000Y-7955000D02*
X14865000Y-7985000D01*
X14870500Y-8076000D02*
X14900500Y-8106000D01*
X14900500Y-8076000D02*
X14870500Y-8106000D01*
X14870500Y-8330000D02*
X14900500Y-8360000D01*
X14900500Y-8330000D02*
X14870500Y-8360000D01*
X14995500Y-7965000D02*
X15025500Y-7995000D01*
X15025500Y-7965000D02*
X14995500Y-7995000D01*
X15025000Y-11005000D02*
X15055000Y-11035000D01*
X15055000Y-11005000D02*
X15025000Y-11035000D01*
X15055000Y-8615000D02*
X15085000Y-8645000D01*
X15085000Y-8615000D02*
X15055000Y-8645000D01*
X15075000Y-9435000D02*
X15105000Y-9465000D01*
X15105000Y-9435000D02*
X15075000Y-9465000D01*
X15081216Y-8048784D02*
X15111216Y-8078784D01*
X15111216Y-8048784D02*
X15081216Y-8078784D01*
X15095000Y-8535000D02*
X15125000Y-8565000D01*
X15125000Y-8535000D02*
X15095000Y-8565000D01*
X15100324Y-8455177D02*
X15130324Y-8485177D01*
X15130324Y-8455177D02*
X15100324Y-8485177D01*
X15135000Y-11005000D02*
X15165000Y-11035000D01*
X15165000Y-11005000D02*
X15135000Y-11035000D01*
X15153785Y-9213542D02*
X15183785Y-9243542D01*
X15183785Y-9213542D02*
X15153785Y-9243542D01*
X15165000Y-8076000D02*
X15195000Y-8106000D01*
X15195000Y-8076000D02*
X15165000Y-8106000D01*
X15169007Y-9495000D02*
X15199007Y-9525000D01*
X15199007Y-9495000D02*
X15169007Y-9525000D01*
X15205000Y-9275000D02*
X15235000Y-9305000D01*
X15235000Y-9275000D02*
X15205000Y-9305000D01*
X15210000Y-10510000D02*
X15240000Y-10540000D01*
X15240000Y-10510000D02*
X15210000Y-10540000D01*
X15235000Y-11005000D02*
X15265000Y-11035000D01*
X15265000Y-11005000D02*
X15235000Y-11035000D01*
X15245000Y-8515000D02*
X15275000Y-8545000D01*
X15275000Y-8515000D02*
X15245000Y-8545000D01*
X15365000Y-9365000D02*
X15395000Y-9395000D01*
X15395000Y-9365000D02*
X15365000Y-9395000D01*
X15455000Y-8475000D02*
X15485000Y-8505000D01*
X15485000Y-8475000D02*
X15455000Y-8505000D01*
X15480000Y-10880000D02*
X15510000Y-10910000D01*
X15510000Y-10880000D02*
X15480000Y-10910000D01*
X15535000Y-8475000D02*
X15565000Y-8505000D01*
X15565000Y-8475000D02*
X15535000Y-8505000D01*
X15550000Y-10880000D02*
X15580000Y-10910000D01*
X15580000Y-10880000D02*
X15550000Y-10910000D01*
X15615000Y-8475000D02*
X15645000Y-8505000D01*
X15645000Y-8475000D02*
X15615000Y-8505000D01*
X15690000Y-8475000D02*
X15720000Y-8505000D01*
X15720000Y-8475000D02*
X15690000Y-8505000D01*
X15745000Y-10265000D02*
X15775000Y-10295000D01*
X15775000Y-10265000D02*
X15745000Y-10295000D01*
X15975000Y-11005000D02*
X16005000Y-11035000D01*
X16005000Y-11005000D02*
X15975000Y-11035000D01*
X16085000Y-11005000D02*
X16115000Y-11035000D01*
X16115000Y-11005000D02*
X16085000Y-11035000D01*
X16205000Y-11005000D02*
X16235000Y-11035000D01*
X16235000Y-11005000D02*
X16205000Y-11035000D01*
X16225000Y-10495000D02*
X16255000Y-10525000D01*
X16255000Y-10495000D02*
X16225000Y-10525000D01*
X16440000Y-10865000D02*
X16470000Y-10895000D01*
X16470000Y-10865000D02*
X16440000Y-10895000D01*
X16457853Y-9533000D02*
X16487853Y-9563000D01*
X16487853Y-9533000D02*
X16457853Y-9563000D01*
X16465000Y-9015000D02*
X16495000Y-9045000D01*
X16495000Y-9015000D02*
X16465000Y-9045000D01*
X16472513Y-9102634D02*
X16502513Y-9132634D01*
X16502513Y-9102634D02*
X16472513Y-9132634D01*
X16520000Y-10865000D02*
X16550000Y-10895000D01*
X16550000Y-10865000D02*
X16520000Y-10895000D01*
X16625000Y-7955000D02*
X16655000Y-7985000D01*
X16655000Y-7955000D02*
X16625000Y-7985000D01*
X16635000Y-10255000D02*
X16665000Y-10285000D01*
X16665000Y-10255000D02*
X16635000Y-10285000D01*
X16825000Y-10615000D02*
X16855000Y-10645000D01*
X16855000Y-10615000D02*
X16825000Y-10645000D01*
X16875000Y-9015000D02*
X16905000Y-9045000D01*
X16905000Y-9015000D02*
X16875000Y-9045000D01*
X16875000Y-9105000D02*
X16905000Y-9135000D01*
X16905000Y-9105000D02*
X16875000Y-9135000D01*
X16935000Y-9496716D02*
X16965000Y-9526716D01*
X16965000Y-9496716D02*
X16935000Y-9526716D01*
X16947029Y-9400670D02*
X16977029Y-9430670D01*
X16977029Y-9400670D02*
X16947029Y-9430670D01*
X17005000Y-9345000D02*
X17035000Y-9375000D01*
X17035000Y-9345000D02*
X17005000Y-9375000D01*
X17065000Y-9965000D02*
X17095000Y-9995000D01*
X17095000Y-9965000D02*
X17065000Y-9995000D01*
X17145000Y-9965000D02*
X17175000Y-9995000D01*
X17175000Y-9965000D02*
X17145000Y-9995000D01*
X17305000Y-10545000D02*
X17335000Y-10575000D01*
X17335000Y-10545000D02*
X17305000Y-10575000D01*
X17345000Y-10475718D02*
X17375000Y-10505718D01*
X17375000Y-10475718D02*
X17345000Y-10505718D01*
X17405000Y-10405000D02*
X17435000Y-10435000D01*
X17435000Y-10405000D02*
X17405000Y-10435000D01*
X17454976Y-10342530D02*
X17484976Y-10372530D01*
X17484976Y-10342530D02*
X17454976Y-10372530D01*
X17495765Y-10273710D02*
X17525765Y-10303710D01*
X17525765Y-10273710D02*
X17495765Y-10303710D01*
X17595000Y-10195000D02*
X17625000Y-10225000D01*
X17625000Y-10195000D02*
X17595000Y-10225000D01*
X17595000Y-10285000D02*
X17625000Y-10315000D01*
X17625000Y-10285000D02*
X17595000Y-10315000D01*
X17692775Y-9732775D02*
X17722775Y-9762775D01*
X17722775Y-9732775D02*
X17692775Y-9762775D01*
X17695000Y-8277500D02*
X17725000Y-8307500D01*
X17725000Y-8277500D02*
X17695000Y-8307500D01*
X17695000Y-8442500D02*
X17725000Y-8472500D01*
X17725000Y-8442500D02*
X17695000Y-8472500D01*
X17700000Y-10212500D02*
X17730000Y-10242500D01*
X17730000Y-10212500D02*
X17700000Y-10242500D01*
X17705000Y-8935000D02*
X17735000Y-8965000D01*
X17735000Y-8935000D02*
X17705000Y-8965000D01*
X17705000Y-9335000D02*
X17735000Y-9365000D01*
X17735000Y-9335000D02*
X17705000Y-9365000D01*
X17820000Y-10785000D02*
X17850000Y-10815000D01*
X17850000Y-10785000D02*
X17820000Y-10815000D01*
X17945000Y-10665000D02*
X17975000Y-10695000D01*
X17975000Y-10665000D02*
X17945000Y-10695000D01*
X17945000Y-10755000D02*
X17975000Y-10785000D01*
X17975000Y-10755000D02*
X17945000Y-10785000D01*
X18021250Y-10138750D02*
X18051250Y-10168750D01*
X18051250Y-10138750D02*
X18021250Y-10168750D01*
X18065000Y-10910000D02*
X18095000Y-10940000D01*
X18095000Y-10910000D02*
X18065000Y-10940000D01*
X18095000Y-8275000D02*
X18125000Y-8305000D01*
X18125000Y-8275000D02*
X18095000Y-8305000D01*
X18095000Y-8440000D02*
X18125000Y-8470000D01*
X18125000Y-8440000D02*
X18095000Y-8470000D01*
X18165000Y-9725000D02*
X18195000Y-9755000D01*
X18195000Y-9725000D02*
X18165000Y-9755000D01*
X18305000Y-10365000D02*
X18335000Y-10395000D01*
X18335000Y-10365000D02*
X18305000Y-10395000D01*
X18400000Y-10870000D02*
X18430000Y-10900000D01*
X18430000Y-10870000D02*
X18400000Y-10900000D01*
X18425000Y-10120000D02*
X18455000Y-10150000D01*
X18455000Y-10120000D02*
X18425000Y-10150000D01*
X18440000Y-9355000D02*
X18470000Y-9385000D01*
X18470000Y-9355000D02*
X18440000Y-9385000D01*
X18440000Y-9440000D02*
X18470000Y-9470000D01*
X18470000Y-9440000D02*
X18440000Y-9470000D01*
X18450000Y-9680000D02*
X18480000Y-9710000D01*
X18480000Y-9680000D02*
X18450000Y-9710000D01*
X18455000Y-8275000D02*
X18485000Y-8305000D01*
X18485000Y-8275000D02*
X18455000Y-8305000D01*
X18455000Y-8435000D02*
X18485000Y-8465000D01*
X18485000Y-8435000D02*
X18455000Y-8465000D01*
X18565000Y-8935000D02*
X18595000Y-8965000D01*
X18595000Y-8935000D02*
X18565000Y-8965000D01*
X18565000Y-9005000D02*
X18595000Y-9035000D01*
X18595000Y-9005000D02*
X18565000Y-9035000D01*
X18710000Y-8630000D02*
X18740000Y-8660000D01*
X18740000Y-8630000D02*
X18710000Y-8660000D01*
X18795000Y-8277500D02*
X18825000Y-8307500D01*
X18825000Y-8277500D02*
X18795000Y-8307500D01*
X18800000Y-9050000D02*
X18830000Y-9080000D01*
X18830000Y-9050000D02*
X18800000Y-9080000D01*
X18800000Y-9130000D02*
X18830000Y-9160000D01*
X18830000Y-9130000D02*
X18800000Y-9160000D01*
X18800000Y-9210000D02*
X18830000Y-9240000D01*
X18830000Y-9210000D02*
X18800000Y-9240000D01*
X18845000Y-10875000D02*
X18875000Y-10905000D01*
X18875000Y-10875000D02*
X18845000Y-10905000D01*
X18850000Y-10205000D02*
X18880000Y-10235000D01*
X18880000Y-10205000D02*
X18850000Y-10235000D01*
X18905000Y-9710000D02*
X18935000Y-9740000D01*
X18935000Y-9710000D02*
X18905000Y-9740000D01*
X18935000Y-8715000D02*
X18965000Y-8745000D01*
X18965000Y-8715000D02*
X18935000Y-8745000D01*
X18935000Y-8790000D02*
X18965000Y-8820000D01*
X18965000Y-8790000D02*
X18935000Y-8820000D01*
X18995000Y-10240000D02*
X19025000Y-10270000D01*
X19025000Y-10240000D02*
X18995000Y-10270000D01*
X19045000Y-10390000D02*
X19075000Y-10420000D01*
X19075000Y-10390000D02*
X19045000Y-10420000D01*
X19080000Y-10240000D02*
X19110000Y-10270000D01*
X19110000Y-10240000D02*
X19080000Y-10270000D01*
X19115000Y-9055000D02*
X19145000Y-9085000D01*
X19145000Y-9055000D02*
X19115000Y-9085000D01*
X19115000Y-9120000D02*
X19145000Y-9150000D01*
X19145000Y-9120000D02*
X19115000Y-9150000D01*
X19185000Y-8275000D02*
X19215000Y-8305000D01*
X19215000Y-8275000D02*
X19185000Y-8305000D01*
X19197500Y-9770000D02*
X19227500Y-9800000D01*
X19227500Y-9770000D02*
X19197500Y-9800000D01*
X19205000Y-10205000D02*
X19235000Y-10235000D01*
X19235000Y-10205000D02*
X19205000Y-10235000D01*
X19212574Y-9077574D02*
X19242574Y-9107574D01*
X19242574Y-9077574D02*
X19212574Y-9107574D01*
X19255000Y-9575000D02*
X19285000Y-9605000D01*
X19285000Y-9575000D02*
X19255000Y-9605000D01*
X19355000Y-10455000D02*
X19385000Y-10485000D01*
X19385000Y-10455000D02*
X19355000Y-10485000D01*
X19357000Y-9185000D02*
X19387000Y-9215000D01*
X19387000Y-9185000D02*
X19357000Y-9215000D01*
X19365000Y-9490000D02*
X19395000Y-9520000D01*
X19395000Y-9490000D02*
X19365000Y-9520000D01*
X19378767Y-9612682D02*
X19408767Y-9642682D01*
X19408767Y-9612682D02*
X19378767Y-9642682D01*
X19405000Y-10865000D02*
X19435000Y-10895000D01*
X19435000Y-10865000D02*
X19405000Y-10895000D01*
X19405000Y-10935000D02*
X19435000Y-10965000D01*
X19435000Y-10935000D02*
X19405000Y-10965000D01*
X19405000Y-11005000D02*
X19435000Y-11035000D01*
X19435000Y-11005000D02*
X19405000Y-11035000D01*
X19420000Y-10455000D02*
X19450000Y-10485000D01*
X19450000Y-10455000D02*
X19420000Y-10485000D01*
X19435000Y-8985000D02*
X19465000Y-9015000D01*
X19465000Y-8985000D02*
X19435000Y-9015000D01*
X19485000Y-10450000D02*
X19515000Y-10480000D01*
X19515000Y-10450000D02*
X19485000Y-10480000D01*
X19519500Y-9245000D02*
X19549500Y-9275000D01*
X19549500Y-9245000D02*
X19519500Y-9275000D01*
X19519500Y-9885000D02*
X19549500Y-9915000D01*
X19549500Y-9885000D02*
X19519500Y-9915000D01*
X19595000Y-10450000D02*
X19625000Y-10480000D01*
X19625000Y-10450000D02*
X19595000Y-10480000D01*
X19645000Y-9490000D02*
X19675000Y-9520000D01*
X19675000Y-9490000D02*
X19645000Y-9520000D01*
X19652971Y-9359557D02*
X19682971Y-9389557D01*
X19682971Y-9359557D02*
X19652971Y-9389557D01*
X19655000Y-10450000D02*
X19685000Y-10480000D01*
X19685000Y-10450000D02*
X19655000Y-10480000D01*
X19665000Y-9690000D02*
X19695000Y-9720000D01*
X19695000Y-9690000D02*
X19665000Y-9720000D01*
X19715000Y-10450000D02*
X19745000Y-10480000D01*
X19745000Y-10450000D02*
X19715000Y-10480000D01*
X19805000Y-9435000D02*
X19835000Y-9465000D01*
X19835000Y-9435000D02*
X19805000Y-9465000D01*
X19840000Y-10460000D02*
X19870000Y-10490000D01*
X19870000Y-10460000D02*
X19840000Y-10490000D01*
X19905000Y-10865000D02*
X19935000Y-10895000D01*
X19935000Y-10865000D02*
X19905000Y-10895000D01*
X19905000Y-10935000D02*
X19935000Y-10965000D01*
X19935000Y-10935000D02*
X19905000Y-10965000D01*
X19905000Y-11005000D02*
X19935000Y-11035000D01*
X19935000Y-11005000D02*
X19905000Y-11035000D01*
X19920000Y-10460000D02*
X19950000Y-10490000D01*
X19950000Y-10460000D02*
X19920000Y-10490000D01*
X20090000Y-8820000D02*
X20120000Y-8850000D01*
X20120000Y-8820000D02*
X20090000Y-8850000D01*
X20090000Y-8925000D02*
X20120000Y-8955000D01*
X20120000Y-8925000D02*
X20090000Y-8955000D01*
X20090000Y-10205000D02*
X20120000Y-10235000D01*
X20120000Y-10205000D02*
X20090000Y-10235000D01*
X20090000Y-10590000D02*
X20120000Y-10620000D01*
X20120000Y-10590000D02*
X20090000Y-10620000D01*
X20160000Y-10205000D02*
X20190000Y-10235000D01*
X20190000Y-10205000D02*
X20160000Y-10235000D01*
X20160000Y-10590000D02*
X20190000Y-10620000D01*
X20190000Y-10590000D02*
X20160000Y-10620000D01*
X19622000Y-9148000D02*
G75*
G02*
X19562000Y-9148000I-30000J0D01*
G01*
X19562000Y-9148000D02*
G75*
G02*
X19622000Y-9148000I30000J0D01*
G01*
X19537000Y-9178000D02*
X19647000Y-9178000D01*
X19647000Y-9118000D02*
G75*
G02*
X19647000Y-9178000I0J-30000D01*
G01*
X19647000Y-9118000D02*
X19537000Y-9118000D01*
X19537000Y-9118000D02*
G75*
G03*
X19537000Y-9178000I0J-30000D01*
G01*
X19622000Y-10012000D02*
G75*
G02*
X19562000Y-10012000I-30000J0D01*
G01*
X19562000Y-10012000D02*
G75*
G02*
X19622000Y-10012000I30000J0D01*
G01*
X19537000Y-10042000D02*
X19647000Y-10042000D01*
X19647000Y-9982000D02*
G75*
G02*
X19647000Y-10042000I0J-30000D01*
G01*
X19647000Y-9982000D02*
X19537000Y-9982000D01*
X19537000Y-9982000D02*
G75*
G03*
X19537000Y-10042000I0J-30000D01*
G01*
X20040000Y-9148000D02*
G75*
G02*
X19980000Y-9148000I-30000J0D01*
G01*
X19980000Y-9148000D02*
G75*
G02*
X20040000Y-9148000I30000J0D01*
G01*
X19970000Y-9178000D02*
X20050000Y-9178000D01*
X20050000Y-9118000D02*
G75*
G02*
X20050000Y-9178000I0J-30000D01*
G01*
X20050000Y-9118000D02*
X19970000Y-9118000D01*
X19970000Y-9118000D02*
G75*
G03*
X19970000Y-9178000I0J-30000D01*
G01*
X20040000Y-10012000D02*
G75*
G02*
X19980000Y-10012000I-30000J0D01*
G01*
X19980000Y-10012000D02*
G75*
G02*
X20040000Y-10012000I30000J0D01*
G01*
X19970000Y-10042000D02*
X20050000Y-10042000D01*
X20050000Y-9982000D02*
G75*
G02*
X20050000Y-10042000I0J-30000D01*
G01*
X20050000Y-9982000D02*
X19970000Y-9982000D01*
X19970000Y-9982000D02*
G75*
G03*
X19970000Y-10042000I0J-30000D01*
G01*
X17687500Y-10980000D02*
X17687500Y-11060000D01*
X17647500Y-11020000D02*
X17727500Y-11020000D01*
X17687500Y-11742000D02*
X17687500Y-11822000D01*
X17647500Y-11782000D02*
X17727500Y-11782000D01*
X17941500Y-10980000D02*
X17941500Y-11060000D01*
X17901500Y-11020000D02*
X17981500Y-11020000D01*
X17941500Y-11742000D02*
X17941500Y-11822000D01*
X17901500Y-11782000D02*
X17981500Y-11782000D01*
X18195500Y-10980000D02*
X18195500Y-11060000D01*
X18155500Y-11020000D02*
X18235500Y-11020000D01*
X18195500Y-11742000D02*
X18195500Y-11822000D01*
X18155500Y-11782000D02*
X18235500Y-11782000D01*
X18449500Y-10980000D02*
X18449500Y-11060000D01*
X18409500Y-11020000D02*
X18489500Y-11020000D01*
X18449500Y-11742000D02*
X18449500Y-11822000D01*
X18409500Y-11782000D02*
X18489500Y-11782000D01*
X18703500Y-10980000D02*
X18703500Y-11060000D01*
X18663500Y-11020000D02*
X18743500Y-11020000D01*
X18703500Y-11742000D02*
X18703500Y-11822000D01*
X18663500Y-11782000D02*
X18743500Y-11782000D01*
X18957500Y-10980000D02*
X18957500Y-11060000D01*
X18917500Y-11020000D02*
X18997500Y-11020000D01*
X18957500Y-11742000D02*
X18957500Y-11822000D01*
X18917500Y-11782000D02*
X18997500Y-11782000D01*
X19211500Y-10980000D02*
X19211500Y-11060000D01*
X19171500Y-11020000D02*
X19251500Y-11020000D01*
X19211500Y-11742000D02*
X19211500Y-11822000D01*
X19171500Y-11782000D02*
X19251500Y-11782000D01*
X14852523Y-10116083D02*
X14852523Y-10046037D01*
X14782477Y-10046037D01*
X14782477Y-10116083D01*
X14852523Y-10116083D01*
X14852523Y-10566083D02*
X14852523Y-10496037D01*
X14782477Y-10496037D01*
X14782477Y-10566083D01*
X14852523Y-10566083D01*
X15502523Y-10116083D02*
X15502523Y-10046037D01*
X15432477Y-10046037D01*
X15432477Y-10116083D01*
X15502523Y-10116083D01*
X15502523Y-10566083D02*
X15502523Y-10496037D01*
X15432477Y-10496037D01*
X15432477Y-10566083D01*
X15502523Y-10566083D01*
X16033773Y-10121083D02*
X16033773Y-10051037D01*
X15963727Y-10051037D01*
X15963727Y-10121083D01*
X16033773Y-10121083D01*
X16033773Y-10571083D02*
X16033773Y-10501037D01*
X15963727Y-10501037D01*
X15963727Y-10571083D01*
X16033773Y-10571083D01*
X16683773Y-10121083D02*
X16683773Y-10051037D01*
X16613727Y-10051037D01*
X16613727Y-10121083D01*
X16683773Y-10121083D01*
X16683773Y-10571083D02*
X16683773Y-10501037D01*
X16613727Y-10501037D01*
X16613727Y-10571083D01*
X16683773Y-10571083D01*
X11896500Y-8840500D02*
X11946500Y-8790500D01*
X11896500Y-8740500D01*
X11846500Y-8790500D01*
X11896500Y-8840500D01*
X11896500Y-9094500D02*
X11946500Y-9044500D01*
X11896500Y-8994500D01*
X11846500Y-9044500D01*
X11896500Y-9094500D01*
X11896500Y-9348500D02*
X11946500Y-9298500D01*
X11896500Y-9248500D01*
X11846500Y-9298500D01*
X11896500Y-9348500D01*
X11896500Y-9602500D02*
X11946500Y-9552500D01*
X11896500Y-9502500D01*
X11846500Y-9552500D01*
X11896500Y-9602500D01*
X11896500Y-9856500D02*
X11946500Y-9806500D01*
X11896500Y-9756500D01*
X11846500Y-9806500D01*
X11896500Y-9856500D01*
X11896500Y-10110500D02*
X11946500Y-10060500D01*
X11896500Y-10010500D01*
X11846500Y-10060500D01*
X11896500Y-10110500D01*
X11896500Y-10364500D02*
X11946500Y-10314500D01*
X11896500Y-10264500D01*
X11846500Y-10314500D01*
X11896500Y-10364500D01*
X11896500Y-10618500D02*
X11946500Y-10568500D01*
X11896500Y-10518500D01*
X11846500Y-10568500D01*
X11896500Y-10618500D01*
X11896500Y-10872500D02*
X11946500Y-10822500D01*
X11896500Y-10772500D01*
X11846500Y-10822500D01*
X11896500Y-10872500D01*
X11896500Y-11126500D02*
X11946500Y-11076500D01*
X11896500Y-11026500D01*
X11846500Y-11076500D01*
X11896500Y-11126500D01*
X11896500Y-11380500D02*
X11946500Y-11330500D01*
X11896500Y-11280500D01*
X11846500Y-11330500D01*
X11896500Y-11380500D01*
X14130000Y-9250000D02*
X14180000Y-9200000D01*
X14130000Y-9150000D01*
X14080000Y-9200000D01*
X14130000Y-9250000D01*
X14440000Y-9250000D02*
X14490000Y-9200000D01*
X14440000Y-9150000D01*
X14390000Y-9200000D01*
X14440000Y-9250000D01*
D13*
X11035000Y-9185000D02*
X11165000Y-9315000D01*
X11165000Y-9185000D02*
X11035000Y-9315000D01*
X11165000Y-9250000D02*
G75*
G02*
X11035000Y-9250000I-65000J0D01*
G01*
X11035000Y-9250000D02*
G75*
G02*
X11165000Y-9250000I65000J0D01*
G01*
X11035000Y-9685000D02*
X11165000Y-9815000D01*
X11165000Y-9685000D02*
X11035000Y-9815000D01*
X11165000Y-9750000D02*
G75*
G02*
X11035000Y-9750000I-65000J0D01*
G01*
X11035000Y-9750000D02*
G75*
G02*
X11165000Y-9750000I65000J0D01*
G01*
X11035000Y-10285000D02*
X11165000Y-10415000D01*
X11165000Y-10285000D02*
X11035000Y-10415000D01*
X11165000Y-10350000D02*
G75*
G02*
X11035000Y-10350000I-65000J0D01*
G01*
X11035000Y-10350000D02*
G75*
G02*
X11165000Y-10350000I65000J0D01*
G01*
X11035000Y-10785000D02*
X11165000Y-10915000D01*
X11165000Y-10785000D02*
X11035000Y-10915000D01*
X11165000Y-10850000D02*
G75*
G02*
X11035000Y-10850000I-65000J0D01*
G01*
X11035000Y-10850000D02*
G75*
G02*
X11165000Y-10850000I65000J0D01*
G01*
X12255000Y-8220000D02*
X12385000Y-8350000D01*
X12385000Y-8220000D02*
X12255000Y-8350000D01*
X12385000Y-8285000D02*
G75*
G02*
X12255000Y-8285000I-65000J0D01*
G01*
X12255000Y-8285000D02*
G75*
G02*
X12385000Y-8285000I65000J0D01*
G01*
X12505000Y-11760000D02*
X12635000Y-11890000D01*
X12635000Y-11760000D02*
X12505000Y-11890000D01*
X12635000Y-11825000D02*
G75*
G02*
X12505000Y-11825000I-65000J0D01*
G01*
X12505000Y-11825000D02*
G75*
G02*
X12635000Y-11825000I65000J0D01*
G01*
X12755000Y-8220000D02*
X12885000Y-8350000D01*
X12885000Y-8220000D02*
X12755000Y-8350000D01*
X12885000Y-8285000D02*
G75*
G02*
X12755000Y-8285000I-65000J0D01*
G01*
X12755000Y-8285000D02*
G75*
G02*
X12885000Y-8285000I65000J0D01*
G01*
X13005000Y-11760000D02*
X13135000Y-11890000D01*
X13135000Y-11760000D02*
X13005000Y-11890000D01*
X13135000Y-11825000D02*
G75*
G02*
X13005000Y-11825000I-65000J0D01*
G01*
X13005000Y-11825000D02*
G75*
G02*
X13135000Y-11825000I65000J0D01*
G01*
X13325000Y-8225000D02*
X13455000Y-8355000D01*
X13455000Y-8225000D02*
X13325000Y-8355000D01*
X13455000Y-8290000D02*
G75*
G02*
X13325000Y-8290000I-65000J0D01*
G01*
X13325000Y-8290000D02*
G75*
G02*
X13455000Y-8290000I65000J0D01*
G01*
X13605000Y-11760000D02*
X13735000Y-11890000D01*
X13735000Y-11760000D02*
X13605000Y-11890000D01*
X13735000Y-11825000D02*
G75*
G02*
X13605000Y-11825000I-65000J0D01*
G01*
X13605000Y-11825000D02*
G75*
G02*
X13735000Y-11825000I65000J0D01*
G01*
X13825000Y-8225000D02*
X13955000Y-8355000D01*
X13955000Y-8225000D02*
X13825000Y-8355000D01*
X13955000Y-8290000D02*
G75*
G02*
X13825000Y-8290000I-65000J0D01*
G01*
X13825000Y-8290000D02*
G75*
G02*
X13955000Y-8290000I65000J0D01*
G01*
X14105000Y-11760000D02*
X14235000Y-11890000D01*
X14235000Y-11760000D02*
X14105000Y-11890000D01*
X14235000Y-11825000D02*
G75*
G02*
X14105000Y-11825000I-65000J0D01*
G01*
X14105000Y-11825000D02*
G75*
G02*
X14235000Y-11825000I65000J0D01*
G01*
X14325000Y-8225000D02*
X14455000Y-8355000D01*
X14455000Y-8225000D02*
X14325000Y-8355000D01*
X14455000Y-8290000D02*
G75*
G02*
X14325000Y-8290000I-65000J0D01*
G01*
X14325000Y-8290000D02*
G75*
G02*
X14455000Y-8290000I65000J0D01*
G01*
X14705000Y-11760000D02*
X14835000Y-11890000D01*
X14835000Y-11760000D02*
X14705000Y-11890000D01*
X14835000Y-11825000D02*
G75*
G02*
X14705000Y-11825000I-65000J0D01*
G01*
X14705000Y-11825000D02*
G75*
G02*
X14835000Y-11825000I65000J0D01*
G01*
X15205000Y-11760000D02*
X15335000Y-11890000D01*
X15335000Y-11760000D02*
X15205000Y-11890000D01*
X15335000Y-11825000D02*
G75*
G02*
X15205000Y-11825000I-65000J0D01*
G01*
X15205000Y-11825000D02*
G75*
G02*
X15335000Y-11825000I65000J0D01*
G01*
X15805000Y-11760000D02*
X15935000Y-11890000D01*
X15935000Y-11760000D02*
X15805000Y-11890000D01*
X15935000Y-11825000D02*
G75*
G02*
X15805000Y-11825000I-65000J0D01*
G01*
X15805000Y-11825000D02*
G75*
G02*
X15935000Y-11825000I65000J0D01*
G01*
X16305000Y-11760000D02*
X16435000Y-11890000D01*
X16435000Y-11760000D02*
X16305000Y-11890000D01*
X16435000Y-11825000D02*
G75*
G02*
X16305000Y-11825000I-65000J0D01*
G01*
X16305000Y-11825000D02*
G75*
G02*
X16435000Y-11825000I65000J0D01*
G01*
D14*
X10995000Y-8175000D02*
X11345000Y-8525000D01*
X11345000Y-8175000D02*
X10995000Y-8525000D01*
X11170000Y-8175000D02*
X11170000Y-8525000D01*
X10995000Y-8350000D02*
X11345000Y-8350000D01*
X10995000Y-11575000D02*
X11345000Y-11925000D01*
X11345000Y-11575000D02*
X10995000Y-11925000D01*
X11170000Y-11575000D02*
X11170000Y-11925000D01*
X10995000Y-11750000D02*
X11345000Y-11750000D01*
X19595000Y-8175000D02*
X19945000Y-8525000D01*
X19945000Y-8175000D02*
X19595000Y-8525000D01*
X19770000Y-8175000D02*
X19770000Y-8525000D01*
X19595000Y-8350000D02*
X19945000Y-8350000D01*
X19595000Y-11575000D02*
X19945000Y-11925000D01*
X19945000Y-11575000D02*
X19595000Y-11925000D01*
X19770000Y-11575000D02*
X19770000Y-11925000D01*
X19595000Y-11750000D02*
X19945000Y-11750000D01*
D10*
X10920777Y-12571484D02*
X10920777Y-12371484D01*
X10920777Y-12371484D02*
X10968396Y-12371484D01*
X10968396Y-12371484D02*
X10996967Y-12381008D01*
X10996967Y-12381008D02*
X11016015Y-12400055D01*
X11016015Y-12400055D02*
X11025539Y-12419103D01*
X11025539Y-12419103D02*
X11035063Y-12457198D01*
X11035063Y-12457198D02*
X11035063Y-12485769D01*
X11035063Y-12485769D02*
X11025539Y-12523865D01*
X11025539Y-12523865D02*
X11016015Y-12542912D01*
X11016015Y-12542912D02*
X10996967Y-12561960D01*
X10996967Y-12561960D02*
X10968396Y-12571484D01*
X10968396Y-12571484D02*
X10920777Y-12571484D01*
X11120777Y-12571484D02*
X11120777Y-12438150D01*
X11120777Y-12476246D02*
X11130301Y-12457198D01*
X11130301Y-12457198D02*
X11139824Y-12447674D01*
X11139824Y-12447674D02*
X11158872Y-12438150D01*
X11158872Y-12438150D02*
X11177920Y-12438150D01*
X11244586Y-12571484D02*
X11244586Y-12438150D01*
X11244586Y-12371484D02*
X11235062Y-12381008D01*
X11235062Y-12381008D02*
X11244586Y-12390531D01*
X11244586Y-12390531D02*
X11254110Y-12381008D01*
X11254110Y-12381008D02*
X11244586Y-12371484D01*
X11244586Y-12371484D02*
X11244586Y-12390531D01*
X11368396Y-12571484D02*
X11349348Y-12561960D01*
X11349348Y-12561960D02*
X11339824Y-12542912D01*
X11339824Y-12542912D02*
X11339824Y-12371484D01*
X11473158Y-12571484D02*
X11454110Y-12561960D01*
X11454110Y-12561960D02*
X11444586Y-12542912D01*
X11444586Y-12542912D02*
X11444586Y-12371484D01*
X11701729Y-12571484D02*
X11701729Y-12371484D01*
X11701729Y-12371484D02*
X11768396Y-12514341D01*
X11768396Y-12514341D02*
X11835062Y-12371484D01*
X11835062Y-12371484D02*
X11835062Y-12571484D01*
X12016015Y-12571484D02*
X12016015Y-12466722D01*
X12016015Y-12466722D02*
X12006491Y-12447674D01*
X12006491Y-12447674D02*
X11987443Y-12438150D01*
X11987443Y-12438150D02*
X11949348Y-12438150D01*
X11949348Y-12438150D02*
X11930301Y-12447674D01*
X12016015Y-12561960D02*
X11996967Y-12571484D01*
X11996967Y-12571484D02*
X11949348Y-12571484D01*
X11949348Y-12571484D02*
X11930301Y-12561960D01*
X11930301Y-12561960D02*
X11920777Y-12542912D01*
X11920777Y-12542912D02*
X11920777Y-12523865D01*
X11920777Y-12523865D02*
X11930301Y-12504817D01*
X11930301Y-12504817D02*
X11949348Y-12495293D01*
X11949348Y-12495293D02*
X11996967Y-12495293D01*
X11996967Y-12495293D02*
X12016015Y-12485769D01*
X12111253Y-12438150D02*
X12111253Y-12638150D01*
X12111253Y-12447674D02*
X12130301Y-12438150D01*
X12130301Y-12438150D02*
X12168396Y-12438150D01*
X12168396Y-12438150D02*
X12187443Y-12447674D01*
X12187443Y-12447674D02*
X12196967Y-12457198D01*
X12196967Y-12457198D02*
X12206491Y-12476246D01*
X12206491Y-12476246D02*
X12206491Y-12533388D01*
X12206491Y-12533388D02*
X12196967Y-12552436D01*
X12196967Y-12552436D02*
X12187443Y-12561960D01*
X12187443Y-12561960D02*
X12168396Y-12571484D01*
X12168396Y-12571484D02*
X12130301Y-12571484D01*
X12130301Y-12571484D02*
X12111253Y-12561960D01*
X12292205Y-12552436D02*
X12301729Y-12561960D01*
X12301729Y-12561960D02*
X12292205Y-12571484D01*
X12292205Y-12571484D02*
X12282682Y-12561960D01*
X12282682Y-12561960D02*
X12292205Y-12552436D01*
X12292205Y-12552436D02*
X12292205Y-12571484D01*
X12292205Y-12447674D02*
X12301729Y-12457198D01*
X12301729Y-12457198D02*
X12292205Y-12466722D01*
X12292205Y-12466722D02*
X12282682Y-12457198D01*
X12282682Y-12457198D02*
X12292205Y-12447674D01*
X12292205Y-12447674D02*
X12292205Y-12466722D01*
D12*
X10630000Y-12885000D02*
X10660000Y-12915000D01*
X10660000Y-12885000D02*
X10630000Y-12915000D01*
D10*
X10958872Y-12791484D02*
X10977920Y-12791484D01*
X10977920Y-12791484D02*
X10996967Y-12801008D01*
X10996967Y-12801008D02*
X11006491Y-12810531D01*
X11006491Y-12810531D02*
X11016015Y-12829579D01*
X11016015Y-12829579D02*
X11025539Y-12867674D01*
X11025539Y-12867674D02*
X11025539Y-12915293D01*
X11025539Y-12915293D02*
X11016015Y-12953388D01*
X11016015Y-12953388D02*
X11006491Y-12972436D01*
X11006491Y-12972436D02*
X10996967Y-12981960D01*
X10996967Y-12981960D02*
X10977920Y-12991484D01*
X10977920Y-12991484D02*
X10958872Y-12991484D01*
X10958872Y-12991484D02*
X10939824Y-12981960D01*
X10939824Y-12981960D02*
X10930301Y-12972436D01*
X10930301Y-12972436D02*
X10920777Y-12953388D01*
X10920777Y-12953388D02*
X10911253Y-12915293D01*
X10911253Y-12915293D02*
X10911253Y-12867674D01*
X10911253Y-12867674D02*
X10920777Y-12829579D01*
X10920777Y-12829579D02*
X10930301Y-12810531D01*
X10930301Y-12810531D02*
X10939824Y-12801008D01*
X10939824Y-12801008D02*
X10958872Y-12791484D01*
X11111253Y-12972436D02*
X11120777Y-12981960D01*
X11120777Y-12981960D02*
X11111253Y-12991484D01*
X11111253Y-12991484D02*
X11101729Y-12981960D01*
X11101729Y-12981960D02*
X11111253Y-12972436D01*
X11111253Y-12972436D02*
X11111253Y-12991484D01*
X11187443Y-12791484D02*
X11311253Y-12791484D01*
X11311253Y-12791484D02*
X11244586Y-12867674D01*
X11244586Y-12867674D02*
X11273158Y-12867674D01*
X11273158Y-12867674D02*
X11292205Y-12877198D01*
X11292205Y-12877198D02*
X11301729Y-12886722D01*
X11301729Y-12886722D02*
X11311253Y-12905769D01*
X11311253Y-12905769D02*
X11311253Y-12953388D01*
X11311253Y-12953388D02*
X11301729Y-12972436D01*
X11301729Y-12972436D02*
X11292205Y-12981960D01*
X11292205Y-12981960D02*
X11273158Y-12991484D01*
X11273158Y-12991484D02*
X11216015Y-12991484D01*
X11216015Y-12991484D02*
X11196967Y-12981960D01*
X11196967Y-12981960D02*
X11187443Y-12972436D01*
X11435062Y-12791484D02*
X11454110Y-12791484D01*
X11454110Y-12791484D02*
X11473158Y-12801008D01*
X11473158Y-12801008D02*
X11482682Y-12810531D01*
X11482682Y-12810531D02*
X11492205Y-12829579D01*
X11492205Y-12829579D02*
X11501729Y-12867674D01*
X11501729Y-12867674D02*
X11501729Y-12915293D01*
X11501729Y-12915293D02*
X11492205Y-12953388D01*
X11492205Y-12953388D02*
X11482682Y-12972436D01*
X11482682Y-12972436D02*
X11473158Y-12981960D01*
X11473158Y-12981960D02*
X11454110Y-12991484D01*
X11454110Y-12991484D02*
X11435062Y-12991484D01*
X11435062Y-12991484D02*
X11416015Y-12981960D01*
X11416015Y-12981960D02*
X11406491Y-12972436D01*
X11406491Y-12972436D02*
X11396967Y-12953388D01*
X11396967Y-12953388D02*
X11387443Y-12915293D01*
X11387443Y-12915293D02*
X11387443Y-12867674D01*
X11387443Y-12867674D02*
X11396967Y-12829579D01*
X11396967Y-12829579D02*
X11406491Y-12810531D01*
X11406491Y-12810531D02*
X11416015Y-12801008D01*
X11416015Y-12801008D02*
X11435062Y-12791484D01*
X11625539Y-12791484D02*
X11644586Y-12791484D01*
X11644586Y-12791484D02*
X11663634Y-12801008D01*
X11663634Y-12801008D02*
X11673158Y-12810531D01*
X11673158Y-12810531D02*
X11682682Y-12829579D01*
X11682682Y-12829579D02*
X11692205Y-12867674D01*
X11692205Y-12867674D02*
X11692205Y-12915293D01*
X11692205Y-12915293D02*
X11682682Y-12953388D01*
X11682682Y-12953388D02*
X11673158Y-12972436D01*
X11673158Y-12972436D02*
X11663634Y-12981960D01*
X11663634Y-12981960D02*
X11644586Y-12991484D01*
X11644586Y-12991484D02*
X11625539Y-12991484D01*
X11625539Y-12991484D02*
X11606491Y-12981960D01*
X11606491Y-12981960D02*
X11596967Y-12972436D01*
X11596967Y-12972436D02*
X11587443Y-12953388D01*
X11587443Y-12953388D02*
X11577920Y-12915293D01*
X11577920Y-12915293D02*
X11577920Y-12867674D01*
X11577920Y-12867674D02*
X11587443Y-12829579D01*
X11587443Y-12829579D02*
X11596967Y-12810531D01*
X11596967Y-12810531D02*
X11606491Y-12801008D01*
X11606491Y-12801008D02*
X11625539Y-12791484D01*
X11777920Y-12991484D02*
X11777920Y-12858150D01*
X11777920Y-12877198D02*
X11787443Y-12867674D01*
X11787443Y-12867674D02*
X11806491Y-12858150D01*
X11806491Y-12858150D02*
X11835063Y-12858150D01*
X11835063Y-12858150D02*
X11854110Y-12867674D01*
X11854110Y-12867674D02*
X11863634Y-12886722D01*
X11863634Y-12886722D02*
X11863634Y-12991484D01*
X11863634Y-12886722D02*
X11873158Y-12867674D01*
X11873158Y-12867674D02*
X11892205Y-12858150D01*
X11892205Y-12858150D02*
X11920777Y-12858150D01*
X11920777Y-12858150D02*
X11939824Y-12867674D01*
X11939824Y-12867674D02*
X11949348Y-12886722D01*
X11949348Y-12886722D02*
X11949348Y-12991484D01*
X12044586Y-12991484D02*
X12044586Y-12858150D01*
X12044586Y-12877198D02*
X12054110Y-12867674D01*
X12054110Y-12867674D02*
X12073158Y-12858150D01*
X12073158Y-12858150D02*
X12101729Y-12858150D01*
X12101729Y-12858150D02*
X12120777Y-12867674D01*
X12120777Y-12867674D02*
X12130301Y-12886722D01*
X12130301Y-12886722D02*
X12130301Y-12991484D01*
X12130301Y-12886722D02*
X12139824Y-12867674D01*
X12139824Y-12867674D02*
X12158872Y-12858150D01*
X12158872Y-12858150D02*
X12187443Y-12858150D01*
X12187443Y-12858150D02*
X12206491Y-12867674D01*
X12206491Y-12867674D02*
X12216015Y-12886722D01*
X12216015Y-12886722D02*
X12216015Y-12991484D01*
X12606491Y-12781960D02*
X12435063Y-13039103D01*
X12863634Y-12791484D02*
X12882682Y-12791484D01*
X12882682Y-12791484D02*
X12901729Y-12801008D01*
X12901729Y-12801008D02*
X12911253Y-12810531D01*
X12911253Y-12810531D02*
X12920777Y-12829579D01*
X12920777Y-12829579D02*
X12930301Y-12867674D01*
X12930301Y-12867674D02*
X12930301Y-12915293D01*
X12930301Y-12915293D02*
X12920777Y-12953388D01*
X12920777Y-12953388D02*
X12911253Y-12972436D01*
X12911253Y-12972436D02*
X12901729Y-12981960D01*
X12901729Y-12981960D02*
X12882682Y-12991484D01*
X12882682Y-12991484D02*
X12863634Y-12991484D01*
X12863634Y-12991484D02*
X12844586Y-12981960D01*
X12844586Y-12981960D02*
X12835063Y-12972436D01*
X12835063Y-12972436D02*
X12825539Y-12953388D01*
X12825539Y-12953388D02*
X12816015Y-12915293D01*
X12816015Y-12915293D02*
X12816015Y-12867674D01*
X12816015Y-12867674D02*
X12825539Y-12829579D01*
X12825539Y-12829579D02*
X12835063Y-12810531D01*
X12835063Y-12810531D02*
X12844586Y-12801008D01*
X12844586Y-12801008D02*
X12863634Y-12791484D01*
X13016015Y-12972436D02*
X13025539Y-12981960D01*
X13025539Y-12981960D02*
X13016015Y-12991484D01*
X13016015Y-12991484D02*
X13006491Y-12981960D01*
X13006491Y-12981960D02*
X13016015Y-12972436D01*
X13016015Y-12972436D02*
X13016015Y-12991484D01*
X13149348Y-12791484D02*
X13168396Y-12791484D01*
X13168396Y-12791484D02*
X13187444Y-12801008D01*
X13187444Y-12801008D02*
X13196967Y-12810531D01*
X13196967Y-12810531D02*
X13206491Y-12829579D01*
X13206491Y-12829579D02*
X13216015Y-12867674D01*
X13216015Y-12867674D02*
X13216015Y-12915293D01*
X13216015Y-12915293D02*
X13206491Y-12953388D01*
X13206491Y-12953388D02*
X13196967Y-12972436D01*
X13196967Y-12972436D02*
X13187444Y-12981960D01*
X13187444Y-12981960D02*
X13168396Y-12991484D01*
X13168396Y-12991484D02*
X13149348Y-12991484D01*
X13149348Y-12991484D02*
X13130301Y-12981960D01*
X13130301Y-12981960D02*
X13120777Y-12972436D01*
X13120777Y-12972436D02*
X13111253Y-12953388D01*
X13111253Y-12953388D02*
X13101729Y-12915293D01*
X13101729Y-12915293D02*
X13101729Y-12867674D01*
X13101729Y-12867674D02*
X13111253Y-12829579D01*
X13111253Y-12829579D02*
X13120777Y-12810531D01*
X13120777Y-12810531D02*
X13130301Y-12801008D01*
X13130301Y-12801008D02*
X13149348Y-12791484D01*
X13406491Y-12991484D02*
X13292206Y-12991484D01*
X13349348Y-12991484D02*
X13349348Y-12791484D01*
X13349348Y-12791484D02*
X13330301Y-12820055D01*
X13330301Y-12820055D02*
X13311253Y-12839103D01*
X13311253Y-12839103D02*
X13292206Y-12848627D01*
X13596967Y-12991484D02*
X13482682Y-12991484D01*
X13539825Y-12991484D02*
X13539825Y-12791484D01*
X13539825Y-12791484D02*
X13520777Y-12820055D01*
X13520777Y-12820055D02*
X13501729Y-12839103D01*
X13501729Y-12839103D02*
X13482682Y-12848627D01*
X13711253Y-12877198D02*
X13692206Y-12867674D01*
X13692206Y-12867674D02*
X13682682Y-12858150D01*
X13682682Y-12858150D02*
X13673158Y-12839103D01*
X13673158Y-12839103D02*
X13673158Y-12829579D01*
X13673158Y-12829579D02*
X13682682Y-12810531D01*
X13682682Y-12810531D02*
X13692206Y-12801008D01*
X13692206Y-12801008D02*
X13711253Y-12791484D01*
X13711253Y-12791484D02*
X13749348Y-12791484D01*
X13749348Y-12791484D02*
X13768396Y-12801008D01*
X13768396Y-12801008D02*
X13777920Y-12810531D01*
X13777920Y-12810531D02*
X13787444Y-12829579D01*
X13787444Y-12829579D02*
X13787444Y-12839103D01*
X13787444Y-12839103D02*
X13777920Y-12858150D01*
X13777920Y-12858150D02*
X13768396Y-12867674D01*
X13768396Y-12867674D02*
X13749348Y-12877198D01*
X13749348Y-12877198D02*
X13711253Y-12877198D01*
X13711253Y-12877198D02*
X13692206Y-12886722D01*
X13692206Y-12886722D02*
X13682682Y-12896246D01*
X13682682Y-12896246D02*
X13673158Y-12915293D01*
X13673158Y-12915293D02*
X13673158Y-12953388D01*
X13673158Y-12953388D02*
X13682682Y-12972436D01*
X13682682Y-12972436D02*
X13692206Y-12981960D01*
X13692206Y-12981960D02*
X13711253Y-12991484D01*
X13711253Y-12991484D02*
X13749348Y-12991484D01*
X13749348Y-12991484D02*
X13768396Y-12981960D01*
X13768396Y-12981960D02*
X13777920Y-12972436D01*
X13777920Y-12972436D02*
X13787444Y-12953388D01*
X13787444Y-12953388D02*
X13787444Y-12915293D01*
X13787444Y-12915293D02*
X13777920Y-12896246D01*
X13777920Y-12896246D02*
X13768396Y-12886722D01*
X13768396Y-12886722D02*
X13749348Y-12877198D01*
X13863634Y-12791484D02*
X13863634Y-12829579D01*
X13939825Y-12791484D02*
X13939825Y-12829579D01*
X14235063Y-13067674D02*
X14225539Y-13058150D01*
X14225539Y-13058150D02*
X14206491Y-13029579D01*
X14206491Y-13029579D02*
X14196968Y-13010531D01*
X14196968Y-13010531D02*
X14187444Y-12981960D01*
X14187444Y-12981960D02*
X14177920Y-12934341D01*
X14177920Y-12934341D02*
X14177920Y-12896246D01*
X14177920Y-12896246D02*
X14187444Y-12848627D01*
X14187444Y-12848627D02*
X14196968Y-12820055D01*
X14196968Y-12820055D02*
X14206491Y-12801008D01*
X14206491Y-12801008D02*
X14225539Y-12772436D01*
X14225539Y-12772436D02*
X14235063Y-12762912D01*
X14301729Y-12810531D02*
X14311253Y-12801008D01*
X14311253Y-12801008D02*
X14330301Y-12791484D01*
X14330301Y-12791484D02*
X14377920Y-12791484D01*
X14377920Y-12791484D02*
X14396968Y-12801008D01*
X14396968Y-12801008D02*
X14406491Y-12810531D01*
X14406491Y-12810531D02*
X14416015Y-12829579D01*
X14416015Y-12829579D02*
X14416015Y-12848627D01*
X14416015Y-12848627D02*
X14406491Y-12877198D01*
X14406491Y-12877198D02*
X14292206Y-12991484D01*
X14292206Y-12991484D02*
X14416015Y-12991484D01*
X14539825Y-12791484D02*
X14558872Y-12791484D01*
X14558872Y-12791484D02*
X14577920Y-12801008D01*
X14577920Y-12801008D02*
X14587444Y-12810531D01*
X14587444Y-12810531D02*
X14596968Y-12829579D01*
X14596968Y-12829579D02*
X14606491Y-12867674D01*
X14606491Y-12867674D02*
X14606491Y-12915293D01*
X14606491Y-12915293D02*
X14596968Y-12953388D01*
X14596968Y-12953388D02*
X14587444Y-12972436D01*
X14587444Y-12972436D02*
X14577920Y-12981960D01*
X14577920Y-12981960D02*
X14558872Y-12991484D01*
X14558872Y-12991484D02*
X14539825Y-12991484D01*
X14539825Y-12991484D02*
X14520777Y-12981960D01*
X14520777Y-12981960D02*
X14511253Y-12972436D01*
X14511253Y-12972436D02*
X14501729Y-12953388D01*
X14501729Y-12953388D02*
X14492206Y-12915293D01*
X14492206Y-12915293D02*
X14492206Y-12867674D01*
X14492206Y-12867674D02*
X14501729Y-12829579D01*
X14501729Y-12829579D02*
X14511253Y-12810531D01*
X14511253Y-12810531D02*
X14520777Y-12801008D01*
X14520777Y-12801008D02*
X14539825Y-12791484D01*
X14673158Y-12791484D02*
X14796968Y-12791484D01*
X14796968Y-12791484D02*
X14730301Y-12867674D01*
X14730301Y-12867674D02*
X14758872Y-12867674D01*
X14758872Y-12867674D02*
X14777920Y-12877198D01*
X14777920Y-12877198D02*
X14787444Y-12886722D01*
X14787444Y-12886722D02*
X14796968Y-12905769D01*
X14796968Y-12905769D02*
X14796968Y-12953388D01*
X14796968Y-12953388D02*
X14787444Y-12972436D01*
X14787444Y-12972436D02*
X14777920Y-12981960D01*
X14777920Y-12981960D02*
X14758872Y-12991484D01*
X14758872Y-12991484D02*
X14701729Y-12991484D01*
X14701729Y-12991484D02*
X14682682Y-12981960D01*
X14682682Y-12981960D02*
X14673158Y-12972436D01*
X15035063Y-12991484D02*
X15035063Y-12791484D01*
X15120777Y-12991484D02*
X15120777Y-12886722D01*
X15120777Y-12886722D02*
X15111253Y-12867674D01*
X15111253Y-12867674D02*
X15092206Y-12858150D01*
X15092206Y-12858150D02*
X15063634Y-12858150D01*
X15063634Y-12858150D02*
X15044587Y-12867674D01*
X15044587Y-12867674D02*
X15035063Y-12877198D01*
X15244587Y-12991484D02*
X15225539Y-12981960D01*
X15225539Y-12981960D02*
X15216015Y-12972436D01*
X15216015Y-12972436D02*
X15206491Y-12953388D01*
X15206491Y-12953388D02*
X15206491Y-12896246D01*
X15206491Y-12896246D02*
X15216015Y-12877198D01*
X15216015Y-12877198D02*
X15225539Y-12867674D01*
X15225539Y-12867674D02*
X15244587Y-12858150D01*
X15244587Y-12858150D02*
X15273158Y-12858150D01*
X15273158Y-12858150D02*
X15292206Y-12867674D01*
X15292206Y-12867674D02*
X15301730Y-12877198D01*
X15301730Y-12877198D02*
X15311253Y-12896246D01*
X15311253Y-12896246D02*
X15311253Y-12953388D01*
X15311253Y-12953388D02*
X15301730Y-12972436D01*
X15301730Y-12972436D02*
X15292206Y-12981960D01*
X15292206Y-12981960D02*
X15273158Y-12991484D01*
X15273158Y-12991484D02*
X15244587Y-12991484D01*
X15425539Y-12991484D02*
X15406491Y-12981960D01*
X15406491Y-12981960D02*
X15396968Y-12962912D01*
X15396968Y-12962912D02*
X15396968Y-12791484D01*
X15577920Y-12981960D02*
X15558872Y-12991484D01*
X15558872Y-12991484D02*
X15520777Y-12991484D01*
X15520777Y-12991484D02*
X15501730Y-12981960D01*
X15501730Y-12981960D02*
X15492206Y-12962912D01*
X15492206Y-12962912D02*
X15492206Y-12886722D01*
X15492206Y-12886722D02*
X15501730Y-12867674D01*
X15501730Y-12867674D02*
X15520777Y-12858150D01*
X15520777Y-12858150D02*
X15558872Y-12858150D01*
X15558872Y-12858150D02*
X15577920Y-12867674D01*
X15577920Y-12867674D02*
X15587444Y-12886722D01*
X15587444Y-12886722D02*
X15587444Y-12905769D01*
X15587444Y-12905769D02*
X15492206Y-12924817D01*
X15663634Y-12981960D02*
X15682682Y-12991484D01*
X15682682Y-12991484D02*
X15720777Y-12991484D01*
X15720777Y-12991484D02*
X15739825Y-12981960D01*
X15739825Y-12981960D02*
X15749349Y-12962912D01*
X15749349Y-12962912D02*
X15749349Y-12953388D01*
X15749349Y-12953388D02*
X15739825Y-12934341D01*
X15739825Y-12934341D02*
X15720777Y-12924817D01*
X15720777Y-12924817D02*
X15692206Y-12924817D01*
X15692206Y-12924817D02*
X15673158Y-12915293D01*
X15673158Y-12915293D02*
X15663634Y-12896246D01*
X15663634Y-12896246D02*
X15663634Y-12886722D01*
X15663634Y-12886722D02*
X15673158Y-12867674D01*
X15673158Y-12867674D02*
X15692206Y-12858150D01*
X15692206Y-12858150D02*
X15720777Y-12858150D01*
X15720777Y-12858150D02*
X15739825Y-12867674D01*
X15816015Y-13067674D02*
X15825539Y-13058150D01*
X15825539Y-13058150D02*
X15844587Y-13029579D01*
X15844587Y-13029579D02*
X15854111Y-13010531D01*
X15854111Y-13010531D02*
X15863634Y-12981960D01*
X15863634Y-12981960D02*
X15873158Y-12934341D01*
X15873158Y-12934341D02*
X15873158Y-12896246D01*
X15873158Y-12896246D02*
X15863634Y-12848627D01*
X15863634Y-12848627D02*
X15854111Y-12820055D01*
X15854111Y-12820055D02*
X15844587Y-12801008D01*
X15844587Y-12801008D02*
X15825539Y-12772436D01*
X15825539Y-12772436D02*
X15816015Y-12762912D01*
D12*
X10660000Y-13164000D02*
G75*
G02*
X10600000Y-13164000I-30000J0D01*
G01*
X10600000Y-13164000D02*
G75*
G02*
X10660000Y-13164000I30000J0D01*
G01*
D10*
X10958872Y-13055484D02*
X10977920Y-13055484D01*
X10977920Y-13055484D02*
X10996967Y-13065008D01*
X10996967Y-13065008D02*
X11006491Y-13074531D01*
X11006491Y-13074531D02*
X11016015Y-13093579D01*
X11016015Y-13093579D02*
X11025539Y-13131674D01*
X11025539Y-13131674D02*
X11025539Y-13179293D01*
X11025539Y-13179293D02*
X11016015Y-13217388D01*
X11016015Y-13217388D02*
X11006491Y-13236436D01*
X11006491Y-13236436D02*
X10996967Y-13245960D01*
X10996967Y-13245960D02*
X10977920Y-13255484D01*
X10977920Y-13255484D02*
X10958872Y-13255484D01*
X10958872Y-13255484D02*
X10939824Y-13245960D01*
X10939824Y-13245960D02*
X10930301Y-13236436D01*
X10930301Y-13236436D02*
X10920777Y-13217388D01*
X10920777Y-13217388D02*
X10911253Y-13179293D01*
X10911253Y-13179293D02*
X10911253Y-13131674D01*
X10911253Y-13131674D02*
X10920777Y-13093579D01*
X10920777Y-13093579D02*
X10930301Y-13074531D01*
X10930301Y-13074531D02*
X10939824Y-13065008D01*
X10939824Y-13065008D02*
X10958872Y-13055484D01*
X11111253Y-13236436D02*
X11120777Y-13245960D01*
X11120777Y-13245960D02*
X11111253Y-13255484D01*
X11111253Y-13255484D02*
X11101729Y-13245960D01*
X11101729Y-13245960D02*
X11111253Y-13236436D01*
X11111253Y-13236436D02*
X11111253Y-13255484D01*
X11292205Y-13055484D02*
X11254110Y-13055484D01*
X11254110Y-13055484D02*
X11235062Y-13065008D01*
X11235062Y-13065008D02*
X11225539Y-13074531D01*
X11225539Y-13074531D02*
X11206491Y-13103103D01*
X11206491Y-13103103D02*
X11196967Y-13141198D01*
X11196967Y-13141198D02*
X11196967Y-13217388D01*
X11196967Y-13217388D02*
X11206491Y-13236436D01*
X11206491Y-13236436D02*
X11216015Y-13245960D01*
X11216015Y-13245960D02*
X11235062Y-13255484D01*
X11235062Y-13255484D02*
X11273158Y-13255484D01*
X11273158Y-13255484D02*
X11292205Y-13245960D01*
X11292205Y-13245960D02*
X11301729Y-13236436D01*
X11301729Y-13236436D02*
X11311253Y-13217388D01*
X11311253Y-13217388D02*
X11311253Y-13169769D01*
X11311253Y-13169769D02*
X11301729Y-13150722D01*
X11301729Y-13150722D02*
X11292205Y-13141198D01*
X11292205Y-13141198D02*
X11273158Y-13131674D01*
X11273158Y-13131674D02*
X11235062Y-13131674D01*
X11235062Y-13131674D02*
X11216015Y-13141198D01*
X11216015Y-13141198D02*
X11206491Y-13150722D01*
X11206491Y-13150722D02*
X11196967Y-13169769D01*
X11435062Y-13055484D02*
X11454110Y-13055484D01*
X11454110Y-13055484D02*
X11473158Y-13065008D01*
X11473158Y-13065008D02*
X11482682Y-13074531D01*
X11482682Y-13074531D02*
X11492205Y-13093579D01*
X11492205Y-13093579D02*
X11501729Y-13131674D01*
X11501729Y-13131674D02*
X11501729Y-13179293D01*
X11501729Y-13179293D02*
X11492205Y-13217388D01*
X11492205Y-13217388D02*
X11482682Y-13236436D01*
X11482682Y-13236436D02*
X11473158Y-13245960D01*
X11473158Y-13245960D02*
X11454110Y-13255484D01*
X11454110Y-13255484D02*
X11435062Y-13255484D01*
X11435062Y-13255484D02*
X11416015Y-13245960D01*
X11416015Y-13245960D02*
X11406491Y-13236436D01*
X11406491Y-13236436D02*
X11396967Y-13217388D01*
X11396967Y-13217388D02*
X11387443Y-13179293D01*
X11387443Y-13179293D02*
X11387443Y-13131674D01*
X11387443Y-13131674D02*
X11396967Y-13093579D01*
X11396967Y-13093579D02*
X11406491Y-13074531D01*
X11406491Y-13074531D02*
X11416015Y-13065008D01*
X11416015Y-13065008D02*
X11435062Y-13055484D01*
X11625539Y-13055484D02*
X11644586Y-13055484D01*
X11644586Y-13055484D02*
X11663634Y-13065008D01*
X11663634Y-13065008D02*
X11673158Y-13074531D01*
X11673158Y-13074531D02*
X11682682Y-13093579D01*
X11682682Y-13093579D02*
X11692205Y-13131674D01*
X11692205Y-13131674D02*
X11692205Y-13179293D01*
X11692205Y-13179293D02*
X11682682Y-13217388D01*
X11682682Y-13217388D02*
X11673158Y-13236436D01*
X11673158Y-13236436D02*
X11663634Y-13245960D01*
X11663634Y-13245960D02*
X11644586Y-13255484D01*
X11644586Y-13255484D02*
X11625539Y-13255484D01*
X11625539Y-13255484D02*
X11606491Y-13245960D01*
X11606491Y-13245960D02*
X11596967Y-13236436D01*
X11596967Y-13236436D02*
X11587443Y-13217388D01*
X11587443Y-13217388D02*
X11577920Y-13179293D01*
X11577920Y-13179293D02*
X11577920Y-13131674D01*
X11577920Y-13131674D02*
X11587443Y-13093579D01*
X11587443Y-13093579D02*
X11596967Y-13074531D01*
X11596967Y-13074531D02*
X11606491Y-13065008D01*
X11606491Y-13065008D02*
X11625539Y-13055484D01*
X11777920Y-13255484D02*
X11777920Y-13122150D01*
X11777920Y-13141198D02*
X11787443Y-13131674D01*
X11787443Y-13131674D02*
X11806491Y-13122150D01*
X11806491Y-13122150D02*
X11835063Y-13122150D01*
X11835063Y-13122150D02*
X11854110Y-13131674D01*
X11854110Y-13131674D02*
X11863634Y-13150722D01*
X11863634Y-13150722D02*
X11863634Y-13255484D01*
X11863634Y-13150722D02*
X11873158Y-13131674D01*
X11873158Y-13131674D02*
X11892205Y-13122150D01*
X11892205Y-13122150D02*
X11920777Y-13122150D01*
X11920777Y-13122150D02*
X11939824Y-13131674D01*
X11939824Y-13131674D02*
X11949348Y-13150722D01*
X11949348Y-13150722D02*
X11949348Y-13255484D01*
X12044586Y-13255484D02*
X12044586Y-13122150D01*
X12044586Y-13141198D02*
X12054110Y-13131674D01*
X12054110Y-13131674D02*
X12073158Y-13122150D01*
X12073158Y-13122150D02*
X12101729Y-13122150D01*
X12101729Y-13122150D02*
X12120777Y-13131674D01*
X12120777Y-13131674D02*
X12130301Y-13150722D01*
X12130301Y-13150722D02*
X12130301Y-13255484D01*
X12130301Y-13150722D02*
X12139824Y-13131674D01*
X12139824Y-13131674D02*
X12158872Y-13122150D01*
X12158872Y-13122150D02*
X12187443Y-13122150D01*
X12187443Y-13122150D02*
X12206491Y-13131674D01*
X12206491Y-13131674D02*
X12216015Y-13150722D01*
X12216015Y-13150722D02*
X12216015Y-13255484D01*
X12606491Y-13045960D02*
X12435063Y-13303103D01*
X12863634Y-13055484D02*
X12882682Y-13055484D01*
X12882682Y-13055484D02*
X12901729Y-13065008D01*
X12901729Y-13065008D02*
X12911253Y-13074531D01*
X12911253Y-13074531D02*
X12920777Y-13093579D01*
X12920777Y-13093579D02*
X12930301Y-13131674D01*
X12930301Y-13131674D02*
X12930301Y-13179293D01*
X12930301Y-13179293D02*
X12920777Y-13217388D01*
X12920777Y-13217388D02*
X12911253Y-13236436D01*
X12911253Y-13236436D02*
X12901729Y-13245960D01*
X12901729Y-13245960D02*
X12882682Y-13255484D01*
X12882682Y-13255484D02*
X12863634Y-13255484D01*
X12863634Y-13255484D02*
X12844586Y-13245960D01*
X12844586Y-13245960D02*
X12835063Y-13236436D01*
X12835063Y-13236436D02*
X12825539Y-13217388D01*
X12825539Y-13217388D02*
X12816015Y-13179293D01*
X12816015Y-13179293D02*
X12816015Y-13131674D01*
X12816015Y-13131674D02*
X12825539Y-13093579D01*
X12825539Y-13093579D02*
X12835063Y-13074531D01*
X12835063Y-13074531D02*
X12844586Y-13065008D01*
X12844586Y-13065008D02*
X12863634Y-13055484D01*
X13016015Y-13236436D02*
X13025539Y-13245960D01*
X13025539Y-13245960D02*
X13016015Y-13255484D01*
X13016015Y-13255484D02*
X13006491Y-13245960D01*
X13006491Y-13245960D02*
X13016015Y-13236436D01*
X13016015Y-13236436D02*
X13016015Y-13255484D01*
X13149348Y-13055484D02*
X13168396Y-13055484D01*
X13168396Y-13055484D02*
X13187444Y-13065008D01*
X13187444Y-13065008D02*
X13196967Y-13074531D01*
X13196967Y-13074531D02*
X13206491Y-13093579D01*
X13206491Y-13093579D02*
X13216015Y-13131674D01*
X13216015Y-13131674D02*
X13216015Y-13179293D01*
X13216015Y-13179293D02*
X13206491Y-13217388D01*
X13206491Y-13217388D02*
X13196967Y-13236436D01*
X13196967Y-13236436D02*
X13187444Y-13245960D01*
X13187444Y-13245960D02*
X13168396Y-13255484D01*
X13168396Y-13255484D02*
X13149348Y-13255484D01*
X13149348Y-13255484D02*
X13130301Y-13245960D01*
X13130301Y-13245960D02*
X13120777Y-13236436D01*
X13120777Y-13236436D02*
X13111253Y-13217388D01*
X13111253Y-13217388D02*
X13101729Y-13179293D01*
X13101729Y-13179293D02*
X13101729Y-13131674D01*
X13101729Y-13131674D02*
X13111253Y-13093579D01*
X13111253Y-13093579D02*
X13120777Y-13074531D01*
X13120777Y-13074531D02*
X13130301Y-13065008D01*
X13130301Y-13065008D02*
X13149348Y-13055484D01*
X13292206Y-13074531D02*
X13301729Y-13065008D01*
X13301729Y-13065008D02*
X13320777Y-13055484D01*
X13320777Y-13055484D02*
X13368396Y-13055484D01*
X13368396Y-13055484D02*
X13387444Y-13065008D01*
X13387444Y-13065008D02*
X13396967Y-13074531D01*
X13396967Y-13074531D02*
X13406491Y-13093579D01*
X13406491Y-13093579D02*
X13406491Y-13112627D01*
X13406491Y-13112627D02*
X13396967Y-13141198D01*
X13396967Y-13141198D02*
X13282682Y-13255484D01*
X13282682Y-13255484D02*
X13406491Y-13255484D01*
X13473158Y-13055484D02*
X13596967Y-13055484D01*
X13596967Y-13055484D02*
X13530301Y-13131674D01*
X13530301Y-13131674D02*
X13558872Y-13131674D01*
X13558872Y-13131674D02*
X13577920Y-13141198D01*
X13577920Y-13141198D02*
X13587444Y-13150722D01*
X13587444Y-13150722D02*
X13596967Y-13169769D01*
X13596967Y-13169769D02*
X13596967Y-13217388D01*
X13596967Y-13217388D02*
X13587444Y-13236436D01*
X13587444Y-13236436D02*
X13577920Y-13245960D01*
X13577920Y-13245960D02*
X13558872Y-13255484D01*
X13558872Y-13255484D02*
X13501729Y-13255484D01*
X13501729Y-13255484D02*
X13482682Y-13245960D01*
X13482682Y-13245960D02*
X13473158Y-13236436D01*
X13768396Y-13055484D02*
X13730301Y-13055484D01*
X13730301Y-13055484D02*
X13711253Y-13065008D01*
X13711253Y-13065008D02*
X13701729Y-13074531D01*
X13701729Y-13074531D02*
X13682682Y-13103103D01*
X13682682Y-13103103D02*
X13673158Y-13141198D01*
X13673158Y-13141198D02*
X13673158Y-13217388D01*
X13673158Y-13217388D02*
X13682682Y-13236436D01*
X13682682Y-13236436D02*
X13692206Y-13245960D01*
X13692206Y-13245960D02*
X13711253Y-13255484D01*
X13711253Y-13255484D02*
X13749348Y-13255484D01*
X13749348Y-13255484D02*
X13768396Y-13245960D01*
X13768396Y-13245960D02*
X13777920Y-13236436D01*
X13777920Y-13236436D02*
X13787444Y-13217388D01*
X13787444Y-13217388D02*
X13787444Y-13169769D01*
X13787444Y-13169769D02*
X13777920Y-13150722D01*
X13777920Y-13150722D02*
X13768396Y-13141198D01*
X13768396Y-13141198D02*
X13749348Y-13131674D01*
X13749348Y-13131674D02*
X13711253Y-13131674D01*
X13711253Y-13131674D02*
X13692206Y-13141198D01*
X13692206Y-13141198D02*
X13682682Y-13150722D01*
X13682682Y-13150722D02*
X13673158Y-13169769D01*
X13863634Y-13055484D02*
X13863634Y-13093579D01*
X13939825Y-13055484D02*
X13939825Y-13093579D01*
X14235063Y-13331674D02*
X14225539Y-13322150D01*
X14225539Y-13322150D02*
X14206491Y-13293579D01*
X14206491Y-13293579D02*
X14196968Y-13274531D01*
X14196968Y-13274531D02*
X14187444Y-13245960D01*
X14187444Y-13245960D02*
X14177920Y-13198341D01*
X14177920Y-13198341D02*
X14177920Y-13160246D01*
X14177920Y-13160246D02*
X14187444Y-13112627D01*
X14187444Y-13112627D02*
X14196968Y-13084055D01*
X14196968Y-13084055D02*
X14206491Y-13065008D01*
X14206491Y-13065008D02*
X14225539Y-13036436D01*
X14225539Y-13036436D02*
X14235063Y-13026912D01*
X14349348Y-13055484D02*
X14368396Y-13055484D01*
X14368396Y-13055484D02*
X14387444Y-13065008D01*
X14387444Y-13065008D02*
X14396968Y-13074531D01*
X14396968Y-13074531D02*
X14406491Y-13093579D01*
X14406491Y-13093579D02*
X14416015Y-13131674D01*
X14416015Y-13131674D02*
X14416015Y-13179293D01*
X14416015Y-13179293D02*
X14406491Y-13217388D01*
X14406491Y-13217388D02*
X14396968Y-13236436D01*
X14396968Y-13236436D02*
X14387444Y-13245960D01*
X14387444Y-13245960D02*
X14368396Y-13255484D01*
X14368396Y-13255484D02*
X14349348Y-13255484D01*
X14349348Y-13255484D02*
X14330301Y-13245960D01*
X14330301Y-13245960D02*
X14320777Y-13236436D01*
X14320777Y-13236436D02*
X14311253Y-13217388D01*
X14311253Y-13217388D02*
X14301729Y-13179293D01*
X14301729Y-13179293D02*
X14301729Y-13131674D01*
X14301729Y-13131674D02*
X14311253Y-13093579D01*
X14311253Y-13093579D02*
X14320777Y-13074531D01*
X14320777Y-13074531D02*
X14330301Y-13065008D01*
X14330301Y-13065008D02*
X14349348Y-13055484D01*
X14654110Y-13255484D02*
X14654110Y-13055484D01*
X14739825Y-13255484D02*
X14739825Y-13150722D01*
X14739825Y-13150722D02*
X14730301Y-13131674D01*
X14730301Y-13131674D02*
X14711253Y-13122150D01*
X14711253Y-13122150D02*
X14682682Y-13122150D01*
X14682682Y-13122150D02*
X14663634Y-13131674D01*
X14663634Y-13131674D02*
X14654110Y-13141198D01*
X14863634Y-13255484D02*
X14844587Y-13245960D01*
X14844587Y-13245960D02*
X14835063Y-13236436D01*
X14835063Y-13236436D02*
X14825539Y-13217388D01*
X14825539Y-13217388D02*
X14825539Y-13160246D01*
X14825539Y-13160246D02*
X14835063Y-13141198D01*
X14835063Y-13141198D02*
X14844587Y-13131674D01*
X14844587Y-13131674D02*
X14863634Y-13122150D01*
X14863634Y-13122150D02*
X14892206Y-13122150D01*
X14892206Y-13122150D02*
X14911253Y-13131674D01*
X14911253Y-13131674D02*
X14920777Y-13141198D01*
X14920777Y-13141198D02*
X14930301Y-13160246D01*
X14930301Y-13160246D02*
X14930301Y-13217388D01*
X14930301Y-13217388D02*
X14920777Y-13236436D01*
X14920777Y-13236436D02*
X14911253Y-13245960D01*
X14911253Y-13245960D02*
X14892206Y-13255484D01*
X14892206Y-13255484D02*
X14863634Y-13255484D01*
X15044587Y-13255484D02*
X15025539Y-13245960D01*
X15025539Y-13245960D02*
X15016015Y-13226912D01*
X15016015Y-13226912D02*
X15016015Y-13055484D01*
X15196968Y-13245960D02*
X15177920Y-13255484D01*
X15177920Y-13255484D02*
X15139825Y-13255484D01*
X15139825Y-13255484D02*
X15120777Y-13245960D01*
X15120777Y-13245960D02*
X15111253Y-13226912D01*
X15111253Y-13226912D02*
X15111253Y-13150722D01*
X15111253Y-13150722D02*
X15120777Y-13131674D01*
X15120777Y-13131674D02*
X15139825Y-13122150D01*
X15139825Y-13122150D02*
X15177920Y-13122150D01*
X15177920Y-13122150D02*
X15196968Y-13131674D01*
X15196968Y-13131674D02*
X15206491Y-13150722D01*
X15206491Y-13150722D02*
X15206491Y-13169769D01*
X15206491Y-13169769D02*
X15111253Y-13188817D01*
X15282682Y-13245960D02*
X15301730Y-13255484D01*
X15301730Y-13255484D02*
X15339825Y-13255484D01*
X15339825Y-13255484D02*
X15358872Y-13245960D01*
X15358872Y-13245960D02*
X15368396Y-13226912D01*
X15368396Y-13226912D02*
X15368396Y-13217388D01*
X15368396Y-13217388D02*
X15358872Y-13198341D01*
X15358872Y-13198341D02*
X15339825Y-13188817D01*
X15339825Y-13188817D02*
X15311253Y-13188817D01*
X15311253Y-13188817D02*
X15292206Y-13179293D01*
X15292206Y-13179293D02*
X15282682Y-13160246D01*
X15282682Y-13160246D02*
X15282682Y-13150722D01*
X15282682Y-13150722D02*
X15292206Y-13131674D01*
X15292206Y-13131674D02*
X15311253Y-13122150D01*
X15311253Y-13122150D02*
X15339825Y-13122150D01*
X15339825Y-13122150D02*
X15358872Y-13131674D01*
X15606492Y-13179293D02*
X15758873Y-13179293D01*
X15682682Y-13255484D02*
X15682682Y-13103103D01*
X16092206Y-13122150D02*
X16092206Y-13255484D01*
X16044587Y-13045960D02*
X15996968Y-13188817D01*
X15996968Y-13188817D02*
X16120777Y-13188817D01*
X16339825Y-13245960D02*
X16358873Y-13255484D01*
X16358873Y-13255484D02*
X16396968Y-13255484D01*
X16396968Y-13255484D02*
X16416015Y-13245960D01*
X16416015Y-13245960D02*
X16425539Y-13226912D01*
X16425539Y-13226912D02*
X16425539Y-13217388D01*
X16425539Y-13217388D02*
X16416015Y-13198341D01*
X16416015Y-13198341D02*
X16396968Y-13188817D01*
X16396968Y-13188817D02*
X16368396Y-13188817D01*
X16368396Y-13188817D02*
X16349349Y-13179293D01*
X16349349Y-13179293D02*
X16339825Y-13160246D01*
X16339825Y-13160246D02*
X16339825Y-13150722D01*
X16339825Y-13150722D02*
X16349349Y-13131674D01*
X16349349Y-13131674D02*
X16368396Y-13122150D01*
X16368396Y-13122150D02*
X16396968Y-13122150D01*
X16396968Y-13122150D02*
X16416015Y-13131674D01*
X16539825Y-13255484D02*
X16520777Y-13245960D01*
X16520777Y-13245960D02*
X16511254Y-13226912D01*
X16511254Y-13226912D02*
X16511254Y-13055484D01*
X16644587Y-13255484D02*
X16625539Y-13245960D01*
X16625539Y-13245960D02*
X16616015Y-13236436D01*
X16616015Y-13236436D02*
X16606492Y-13217388D01*
X16606492Y-13217388D02*
X16606492Y-13160246D01*
X16606492Y-13160246D02*
X16616015Y-13141198D01*
X16616015Y-13141198D02*
X16625539Y-13131674D01*
X16625539Y-13131674D02*
X16644587Y-13122150D01*
X16644587Y-13122150D02*
X16673158Y-13122150D01*
X16673158Y-13122150D02*
X16692206Y-13131674D01*
X16692206Y-13131674D02*
X16701730Y-13141198D01*
X16701730Y-13141198D02*
X16711254Y-13160246D01*
X16711254Y-13160246D02*
X16711254Y-13217388D01*
X16711254Y-13217388D02*
X16701730Y-13236436D01*
X16701730Y-13236436D02*
X16692206Y-13245960D01*
X16692206Y-13245960D02*
X16673158Y-13255484D01*
X16673158Y-13255484D02*
X16644587Y-13255484D01*
X16768396Y-13122150D02*
X16844587Y-13122150D01*
X16796968Y-13055484D02*
X16796968Y-13226912D01*
X16796968Y-13226912D02*
X16806492Y-13245960D01*
X16806492Y-13245960D02*
X16825539Y-13255484D01*
X16825539Y-13255484D02*
X16844587Y-13255484D01*
X16901730Y-13245960D02*
X16920777Y-13255484D01*
X16920777Y-13255484D02*
X16958873Y-13255484D01*
X16958873Y-13255484D02*
X16977920Y-13245960D01*
X16977920Y-13245960D02*
X16987444Y-13226912D01*
X16987444Y-13226912D02*
X16987444Y-13217388D01*
X16987444Y-13217388D02*
X16977920Y-13198341D01*
X16977920Y-13198341D02*
X16958873Y-13188817D01*
X16958873Y-13188817D02*
X16930301Y-13188817D01*
X16930301Y-13188817D02*
X16911254Y-13179293D01*
X16911254Y-13179293D02*
X16901730Y-13160246D01*
X16901730Y-13160246D02*
X16901730Y-13150722D01*
X16901730Y-13150722D02*
X16911254Y-13131674D01*
X16911254Y-13131674D02*
X16930301Y-13122150D01*
X16930301Y-13122150D02*
X16958873Y-13122150D01*
X16958873Y-13122150D02*
X16977920Y-13131674D01*
X17054111Y-13331674D02*
X17063635Y-13322150D01*
X17063635Y-13322150D02*
X17082682Y-13293579D01*
X17082682Y-13293579D02*
X17092206Y-13274531D01*
X17092206Y-13274531D02*
X17101730Y-13245960D01*
X17101730Y-13245960D02*
X17111254Y-13198341D01*
X17111254Y-13198341D02*
X17111254Y-13160246D01*
X17111254Y-13160246D02*
X17101730Y-13112627D01*
X17101730Y-13112627D02*
X17092206Y-13084055D01*
X17092206Y-13084055D02*
X17082682Y-13065008D01*
X17082682Y-13065008D02*
X17063635Y-13036436D01*
X17063635Y-13036436D02*
X17054111Y-13026912D01*
D12*
X10620000Y-13388000D02*
X10620000Y-13468000D01*
X10580000Y-13428000D02*
X10660000Y-13428000D01*
D10*
X10958872Y-13319484D02*
X10977920Y-13319484D01*
X10977920Y-13319484D02*
X10996967Y-13329008D01*
X10996967Y-13329008D02*
X11006491Y-13338531D01*
X11006491Y-13338531D02*
X11016015Y-13357579D01*
X11016015Y-13357579D02*
X11025539Y-13395674D01*
X11025539Y-13395674D02*
X11025539Y-13443293D01*
X11025539Y-13443293D02*
X11016015Y-13481388D01*
X11016015Y-13481388D02*
X11006491Y-13500436D01*
X11006491Y-13500436D02*
X10996967Y-13509960D01*
X10996967Y-13509960D02*
X10977920Y-13519484D01*
X10977920Y-13519484D02*
X10958872Y-13519484D01*
X10958872Y-13519484D02*
X10939824Y-13509960D01*
X10939824Y-13509960D02*
X10930301Y-13500436D01*
X10930301Y-13500436D02*
X10920777Y-13481388D01*
X10920777Y-13481388D02*
X10911253Y-13443293D01*
X10911253Y-13443293D02*
X10911253Y-13395674D01*
X10911253Y-13395674D02*
X10920777Y-13357579D01*
X10920777Y-13357579D02*
X10930301Y-13338531D01*
X10930301Y-13338531D02*
X10939824Y-13329008D01*
X10939824Y-13329008D02*
X10958872Y-13319484D01*
X11111253Y-13500436D02*
X11120777Y-13509960D01*
X11120777Y-13509960D02*
X11111253Y-13519484D01*
X11111253Y-13519484D02*
X11101729Y-13509960D01*
X11101729Y-13509960D02*
X11111253Y-13500436D01*
X11111253Y-13500436D02*
X11111253Y-13519484D01*
X11235062Y-13405198D02*
X11216015Y-13395674D01*
X11216015Y-13395674D02*
X11206491Y-13386150D01*
X11206491Y-13386150D02*
X11196967Y-13367103D01*
X11196967Y-13367103D02*
X11196967Y-13357579D01*
X11196967Y-13357579D02*
X11206491Y-13338531D01*
X11206491Y-13338531D02*
X11216015Y-13329008D01*
X11216015Y-13329008D02*
X11235062Y-13319484D01*
X11235062Y-13319484D02*
X11273158Y-13319484D01*
X11273158Y-13319484D02*
X11292205Y-13329008D01*
X11292205Y-13329008D02*
X11301729Y-13338531D01*
X11301729Y-13338531D02*
X11311253Y-13357579D01*
X11311253Y-13357579D02*
X11311253Y-13367103D01*
X11311253Y-13367103D02*
X11301729Y-13386150D01*
X11301729Y-13386150D02*
X11292205Y-13395674D01*
X11292205Y-13395674D02*
X11273158Y-13405198D01*
X11273158Y-13405198D02*
X11235062Y-13405198D01*
X11235062Y-13405198D02*
X11216015Y-13414722D01*
X11216015Y-13414722D02*
X11206491Y-13424246D01*
X11206491Y-13424246D02*
X11196967Y-13443293D01*
X11196967Y-13443293D02*
X11196967Y-13481388D01*
X11196967Y-13481388D02*
X11206491Y-13500436D01*
X11206491Y-13500436D02*
X11216015Y-13509960D01*
X11216015Y-13509960D02*
X11235062Y-13519484D01*
X11235062Y-13519484D02*
X11273158Y-13519484D01*
X11273158Y-13519484D02*
X11292205Y-13509960D01*
X11292205Y-13509960D02*
X11301729Y-13500436D01*
X11301729Y-13500436D02*
X11311253Y-13481388D01*
X11311253Y-13481388D02*
X11311253Y-13443293D01*
X11311253Y-13443293D02*
X11301729Y-13424246D01*
X11301729Y-13424246D02*
X11292205Y-13414722D01*
X11292205Y-13414722D02*
X11273158Y-13405198D01*
X11435062Y-13319484D02*
X11454110Y-13319484D01*
X11454110Y-13319484D02*
X11473158Y-13329008D01*
X11473158Y-13329008D02*
X11482682Y-13338531D01*
X11482682Y-13338531D02*
X11492205Y-13357579D01*
X11492205Y-13357579D02*
X11501729Y-13395674D01*
X11501729Y-13395674D02*
X11501729Y-13443293D01*
X11501729Y-13443293D02*
X11492205Y-13481388D01*
X11492205Y-13481388D02*
X11482682Y-13500436D01*
X11482682Y-13500436D02*
X11473158Y-13509960D01*
X11473158Y-13509960D02*
X11454110Y-13519484D01*
X11454110Y-13519484D02*
X11435062Y-13519484D01*
X11435062Y-13519484D02*
X11416015Y-13509960D01*
X11416015Y-13509960D02*
X11406491Y-13500436D01*
X11406491Y-13500436D02*
X11396967Y-13481388D01*
X11396967Y-13481388D02*
X11387443Y-13443293D01*
X11387443Y-13443293D02*
X11387443Y-13395674D01*
X11387443Y-13395674D02*
X11396967Y-13357579D01*
X11396967Y-13357579D02*
X11406491Y-13338531D01*
X11406491Y-13338531D02*
X11416015Y-13329008D01*
X11416015Y-13329008D02*
X11435062Y-13319484D01*
X11625539Y-13319484D02*
X11644586Y-13319484D01*
X11644586Y-13319484D02*
X11663634Y-13329008D01*
X11663634Y-13329008D02*
X11673158Y-13338531D01*
X11673158Y-13338531D02*
X11682682Y-13357579D01*
X11682682Y-13357579D02*
X11692205Y-13395674D01*
X11692205Y-13395674D02*
X11692205Y-13443293D01*
X11692205Y-13443293D02*
X11682682Y-13481388D01*
X11682682Y-13481388D02*
X11673158Y-13500436D01*
X11673158Y-13500436D02*
X11663634Y-13509960D01*
X11663634Y-13509960D02*
X11644586Y-13519484D01*
X11644586Y-13519484D02*
X11625539Y-13519484D01*
X11625539Y-13519484D02*
X11606491Y-13509960D01*
X11606491Y-13509960D02*
X11596967Y-13500436D01*
X11596967Y-13500436D02*
X11587443Y-13481388D01*
X11587443Y-13481388D02*
X11577920Y-13443293D01*
X11577920Y-13443293D02*
X11577920Y-13395674D01*
X11577920Y-13395674D02*
X11587443Y-13357579D01*
X11587443Y-13357579D02*
X11596967Y-13338531D01*
X11596967Y-13338531D02*
X11606491Y-13329008D01*
X11606491Y-13329008D02*
X11625539Y-13319484D01*
X11777920Y-13519484D02*
X11777920Y-13386150D01*
X11777920Y-13405198D02*
X11787443Y-13395674D01*
X11787443Y-13395674D02*
X11806491Y-13386150D01*
X11806491Y-13386150D02*
X11835063Y-13386150D01*
X11835063Y-13386150D02*
X11854110Y-13395674D01*
X11854110Y-13395674D02*
X11863634Y-13414722D01*
X11863634Y-13414722D02*
X11863634Y-13519484D01*
X11863634Y-13414722D02*
X11873158Y-13395674D01*
X11873158Y-13395674D02*
X11892205Y-13386150D01*
X11892205Y-13386150D02*
X11920777Y-13386150D01*
X11920777Y-13386150D02*
X11939824Y-13395674D01*
X11939824Y-13395674D02*
X11949348Y-13414722D01*
X11949348Y-13414722D02*
X11949348Y-13519484D01*
X12044586Y-13519484D02*
X12044586Y-13386150D01*
X12044586Y-13405198D02*
X12054110Y-13395674D01*
X12054110Y-13395674D02*
X12073158Y-13386150D01*
X12073158Y-13386150D02*
X12101729Y-13386150D01*
X12101729Y-13386150D02*
X12120777Y-13395674D01*
X12120777Y-13395674D02*
X12130301Y-13414722D01*
X12130301Y-13414722D02*
X12130301Y-13519484D01*
X12130301Y-13414722D02*
X12139824Y-13395674D01*
X12139824Y-13395674D02*
X12158872Y-13386150D01*
X12158872Y-13386150D02*
X12187443Y-13386150D01*
X12187443Y-13386150D02*
X12206491Y-13395674D01*
X12206491Y-13395674D02*
X12216015Y-13414722D01*
X12216015Y-13414722D02*
X12216015Y-13519484D01*
X12606491Y-13309960D02*
X12435063Y-13567103D01*
X12863634Y-13319484D02*
X12882682Y-13319484D01*
X12882682Y-13319484D02*
X12901729Y-13329008D01*
X12901729Y-13329008D02*
X12911253Y-13338531D01*
X12911253Y-13338531D02*
X12920777Y-13357579D01*
X12920777Y-13357579D02*
X12930301Y-13395674D01*
X12930301Y-13395674D02*
X12930301Y-13443293D01*
X12930301Y-13443293D02*
X12920777Y-13481388D01*
X12920777Y-13481388D02*
X12911253Y-13500436D01*
X12911253Y-13500436D02*
X12901729Y-13509960D01*
X12901729Y-13509960D02*
X12882682Y-13519484D01*
X12882682Y-13519484D02*
X12863634Y-13519484D01*
X12863634Y-13519484D02*
X12844586Y-13509960D01*
X12844586Y-13509960D02*
X12835063Y-13500436D01*
X12835063Y-13500436D02*
X12825539Y-13481388D01*
X12825539Y-13481388D02*
X12816015Y-13443293D01*
X12816015Y-13443293D02*
X12816015Y-13395674D01*
X12816015Y-13395674D02*
X12825539Y-13357579D01*
X12825539Y-13357579D02*
X12835063Y-13338531D01*
X12835063Y-13338531D02*
X12844586Y-13329008D01*
X12844586Y-13329008D02*
X12863634Y-13319484D01*
X13016015Y-13500436D02*
X13025539Y-13509960D01*
X13025539Y-13509960D02*
X13016015Y-13519484D01*
X13016015Y-13519484D02*
X13006491Y-13509960D01*
X13006491Y-13509960D02*
X13016015Y-13500436D01*
X13016015Y-13500436D02*
X13016015Y-13519484D01*
X13149348Y-13319484D02*
X13168396Y-13319484D01*
X13168396Y-13319484D02*
X13187444Y-13329008D01*
X13187444Y-13329008D02*
X13196967Y-13338531D01*
X13196967Y-13338531D02*
X13206491Y-13357579D01*
X13206491Y-13357579D02*
X13216015Y-13395674D01*
X13216015Y-13395674D02*
X13216015Y-13443293D01*
X13216015Y-13443293D02*
X13206491Y-13481388D01*
X13206491Y-13481388D02*
X13196967Y-13500436D01*
X13196967Y-13500436D02*
X13187444Y-13509960D01*
X13187444Y-13509960D02*
X13168396Y-13519484D01*
X13168396Y-13519484D02*
X13149348Y-13519484D01*
X13149348Y-13519484D02*
X13130301Y-13509960D01*
X13130301Y-13509960D02*
X13120777Y-13500436D01*
X13120777Y-13500436D02*
X13111253Y-13481388D01*
X13111253Y-13481388D02*
X13101729Y-13443293D01*
X13101729Y-13443293D02*
X13101729Y-13395674D01*
X13101729Y-13395674D02*
X13111253Y-13357579D01*
X13111253Y-13357579D02*
X13120777Y-13338531D01*
X13120777Y-13338531D02*
X13130301Y-13329008D01*
X13130301Y-13329008D02*
X13149348Y-13319484D01*
X13282682Y-13319484D02*
X13406491Y-13319484D01*
X13406491Y-13319484D02*
X13339825Y-13395674D01*
X13339825Y-13395674D02*
X13368396Y-13395674D01*
X13368396Y-13395674D02*
X13387444Y-13405198D01*
X13387444Y-13405198D02*
X13396967Y-13414722D01*
X13396967Y-13414722D02*
X13406491Y-13433769D01*
X13406491Y-13433769D02*
X13406491Y-13481388D01*
X13406491Y-13481388D02*
X13396967Y-13500436D01*
X13396967Y-13500436D02*
X13387444Y-13509960D01*
X13387444Y-13509960D02*
X13368396Y-13519484D01*
X13368396Y-13519484D02*
X13311253Y-13519484D01*
X13311253Y-13519484D02*
X13292206Y-13509960D01*
X13292206Y-13509960D02*
X13282682Y-13500436D01*
X13596967Y-13519484D02*
X13482682Y-13519484D01*
X13539825Y-13519484D02*
X13539825Y-13319484D01*
X13539825Y-13319484D02*
X13520777Y-13348055D01*
X13520777Y-13348055D02*
X13501729Y-13367103D01*
X13501729Y-13367103D02*
X13482682Y-13376627D01*
X13777920Y-13319484D02*
X13682682Y-13319484D01*
X13682682Y-13319484D02*
X13673158Y-13414722D01*
X13673158Y-13414722D02*
X13682682Y-13405198D01*
X13682682Y-13405198D02*
X13701729Y-13395674D01*
X13701729Y-13395674D02*
X13749348Y-13395674D01*
X13749348Y-13395674D02*
X13768396Y-13405198D01*
X13768396Y-13405198D02*
X13777920Y-13414722D01*
X13777920Y-13414722D02*
X13787444Y-13433769D01*
X13787444Y-13433769D02*
X13787444Y-13481388D01*
X13787444Y-13481388D02*
X13777920Y-13500436D01*
X13777920Y-13500436D02*
X13768396Y-13509960D01*
X13768396Y-13509960D02*
X13749348Y-13519484D01*
X13749348Y-13519484D02*
X13701729Y-13519484D01*
X13701729Y-13519484D02*
X13682682Y-13509960D01*
X13682682Y-13509960D02*
X13673158Y-13500436D01*
X13863634Y-13319484D02*
X13863634Y-13357579D01*
X13939825Y-13319484D02*
X13939825Y-13357579D01*
X14235063Y-13595674D02*
X14225539Y-13586150D01*
X14225539Y-13586150D02*
X14206491Y-13557579D01*
X14206491Y-13557579D02*
X14196968Y-13538531D01*
X14196968Y-13538531D02*
X14187444Y-13509960D01*
X14187444Y-13509960D02*
X14177920Y-13462341D01*
X14177920Y-13462341D02*
X14177920Y-13424246D01*
X14177920Y-13424246D02*
X14187444Y-13376627D01*
X14187444Y-13376627D02*
X14196968Y-13348055D01*
X14196968Y-13348055D02*
X14206491Y-13329008D01*
X14206491Y-13329008D02*
X14225539Y-13300436D01*
X14225539Y-13300436D02*
X14235063Y-13290912D01*
X14416015Y-13519484D02*
X14301729Y-13519484D01*
X14358872Y-13519484D02*
X14358872Y-13319484D01*
X14358872Y-13319484D02*
X14339825Y-13348055D01*
X14339825Y-13348055D02*
X14320777Y-13367103D01*
X14320777Y-13367103D02*
X14301729Y-13376627D01*
X14587444Y-13386150D02*
X14587444Y-13519484D01*
X14539825Y-13309960D02*
X14492206Y-13452817D01*
X14492206Y-13452817D02*
X14616015Y-13452817D01*
X14844587Y-13519484D02*
X14844587Y-13319484D01*
X14930301Y-13519484D02*
X14930301Y-13414722D01*
X14930301Y-13414722D02*
X14920777Y-13395674D01*
X14920777Y-13395674D02*
X14901730Y-13386150D01*
X14901730Y-13386150D02*
X14873158Y-13386150D01*
X14873158Y-13386150D02*
X14854110Y-13395674D01*
X14854110Y-13395674D02*
X14844587Y-13405198D01*
X15054110Y-13519484D02*
X15035063Y-13509960D01*
X15035063Y-13509960D02*
X15025539Y-13500436D01*
X15025539Y-13500436D02*
X15016015Y-13481388D01*
X15016015Y-13481388D02*
X15016015Y-13424246D01*
X15016015Y-13424246D02*
X15025539Y-13405198D01*
X15025539Y-13405198D02*
X15035063Y-13395674D01*
X15035063Y-13395674D02*
X15054110Y-13386150D01*
X15054110Y-13386150D02*
X15082682Y-13386150D01*
X15082682Y-13386150D02*
X15101730Y-13395674D01*
X15101730Y-13395674D02*
X15111253Y-13405198D01*
X15111253Y-13405198D02*
X15120777Y-13424246D01*
X15120777Y-13424246D02*
X15120777Y-13481388D01*
X15120777Y-13481388D02*
X15111253Y-13500436D01*
X15111253Y-13500436D02*
X15101730Y-13509960D01*
X15101730Y-13509960D02*
X15082682Y-13519484D01*
X15082682Y-13519484D02*
X15054110Y-13519484D01*
X15235063Y-13519484D02*
X15216015Y-13509960D01*
X15216015Y-13509960D02*
X15206491Y-13490912D01*
X15206491Y-13490912D02*
X15206491Y-13319484D01*
X15387444Y-13509960D02*
X15368396Y-13519484D01*
X15368396Y-13519484D02*
X15330301Y-13519484D01*
X15330301Y-13519484D02*
X15311253Y-13509960D01*
X15311253Y-13509960D02*
X15301730Y-13490912D01*
X15301730Y-13490912D02*
X15301730Y-13414722D01*
X15301730Y-13414722D02*
X15311253Y-13395674D01*
X15311253Y-13395674D02*
X15330301Y-13386150D01*
X15330301Y-13386150D02*
X15368396Y-13386150D01*
X15368396Y-13386150D02*
X15387444Y-13395674D01*
X15387444Y-13395674D02*
X15396968Y-13414722D01*
X15396968Y-13414722D02*
X15396968Y-13433769D01*
X15396968Y-13433769D02*
X15301730Y-13452817D01*
X15473158Y-13509960D02*
X15492206Y-13519484D01*
X15492206Y-13519484D02*
X15530301Y-13519484D01*
X15530301Y-13519484D02*
X15549349Y-13509960D01*
X15549349Y-13509960D02*
X15558872Y-13490912D01*
X15558872Y-13490912D02*
X15558872Y-13481388D01*
X15558872Y-13481388D02*
X15549349Y-13462341D01*
X15549349Y-13462341D02*
X15530301Y-13452817D01*
X15530301Y-13452817D02*
X15501730Y-13452817D01*
X15501730Y-13452817D02*
X15482682Y-13443293D01*
X15482682Y-13443293D02*
X15473158Y-13424246D01*
X15473158Y-13424246D02*
X15473158Y-13414722D01*
X15473158Y-13414722D02*
X15482682Y-13395674D01*
X15482682Y-13395674D02*
X15501730Y-13386150D01*
X15501730Y-13386150D02*
X15530301Y-13386150D01*
X15530301Y-13386150D02*
X15549349Y-13395674D01*
X15625539Y-13595674D02*
X15635063Y-13586150D01*
X15635063Y-13586150D02*
X15654111Y-13557579D01*
X15654111Y-13557579D02*
X15663634Y-13538531D01*
X15663634Y-13538531D02*
X15673158Y-13509960D01*
X15673158Y-13509960D02*
X15682682Y-13462341D01*
X15682682Y-13462341D02*
X15682682Y-13424246D01*
X15682682Y-13424246D02*
X15673158Y-13376627D01*
X15673158Y-13376627D02*
X15663634Y-13348055D01*
X15663634Y-13348055D02*
X15654111Y-13329008D01*
X15654111Y-13329008D02*
X15635063Y-13300436D01*
X15635063Y-13300436D02*
X15625539Y-13290912D01*
D12*
X10645493Y-13727023D02*
X10645493Y-13656977D01*
X10575447Y-13656977D01*
X10575447Y-13727023D01*
X10645493Y-13727023D01*
D10*
X10958872Y-13583484D02*
X10977920Y-13583484D01*
X10977920Y-13583484D02*
X10996967Y-13593008D01*
X10996967Y-13593008D02*
X11006491Y-13602531D01*
X11006491Y-13602531D02*
X11016015Y-13621579D01*
X11016015Y-13621579D02*
X11025539Y-13659674D01*
X11025539Y-13659674D02*
X11025539Y-13707293D01*
X11025539Y-13707293D02*
X11016015Y-13745388D01*
X11016015Y-13745388D02*
X11006491Y-13764436D01*
X11006491Y-13764436D02*
X10996967Y-13773960D01*
X10996967Y-13773960D02*
X10977920Y-13783484D01*
X10977920Y-13783484D02*
X10958872Y-13783484D01*
X10958872Y-13783484D02*
X10939824Y-13773960D01*
X10939824Y-13773960D02*
X10930301Y-13764436D01*
X10930301Y-13764436D02*
X10920777Y-13745388D01*
X10920777Y-13745388D02*
X10911253Y-13707293D01*
X10911253Y-13707293D02*
X10911253Y-13659674D01*
X10911253Y-13659674D02*
X10920777Y-13621579D01*
X10920777Y-13621579D02*
X10930301Y-13602531D01*
X10930301Y-13602531D02*
X10939824Y-13593008D01*
X10939824Y-13593008D02*
X10958872Y-13583484D01*
X11111253Y-13764436D02*
X11120777Y-13773960D01*
X11120777Y-13773960D02*
X11111253Y-13783484D01*
X11111253Y-13783484D02*
X11101729Y-13773960D01*
X11101729Y-13773960D02*
X11111253Y-13764436D01*
X11111253Y-13764436D02*
X11111253Y-13783484D01*
X11216015Y-13783484D02*
X11254110Y-13783484D01*
X11254110Y-13783484D02*
X11273158Y-13773960D01*
X11273158Y-13773960D02*
X11282682Y-13764436D01*
X11282682Y-13764436D02*
X11301729Y-13735865D01*
X11301729Y-13735865D02*
X11311253Y-13697769D01*
X11311253Y-13697769D02*
X11311253Y-13621579D01*
X11311253Y-13621579D02*
X11301729Y-13602531D01*
X11301729Y-13602531D02*
X11292205Y-13593008D01*
X11292205Y-13593008D02*
X11273158Y-13583484D01*
X11273158Y-13583484D02*
X11235062Y-13583484D01*
X11235062Y-13583484D02*
X11216015Y-13593008D01*
X11216015Y-13593008D02*
X11206491Y-13602531D01*
X11206491Y-13602531D02*
X11196967Y-13621579D01*
X11196967Y-13621579D02*
X11196967Y-13669198D01*
X11196967Y-13669198D02*
X11206491Y-13688246D01*
X11206491Y-13688246D02*
X11216015Y-13697769D01*
X11216015Y-13697769D02*
X11235062Y-13707293D01*
X11235062Y-13707293D02*
X11273158Y-13707293D01*
X11273158Y-13707293D02*
X11292205Y-13697769D01*
X11292205Y-13697769D02*
X11301729Y-13688246D01*
X11301729Y-13688246D02*
X11311253Y-13669198D01*
X11406491Y-13783484D02*
X11444586Y-13783484D01*
X11444586Y-13783484D02*
X11463634Y-13773960D01*
X11463634Y-13773960D02*
X11473158Y-13764436D01*
X11473158Y-13764436D02*
X11492205Y-13735865D01*
X11492205Y-13735865D02*
X11501729Y-13697769D01*
X11501729Y-13697769D02*
X11501729Y-13621579D01*
X11501729Y-13621579D02*
X11492205Y-13602531D01*
X11492205Y-13602531D02*
X11482682Y-13593008D01*
X11482682Y-13593008D02*
X11463634Y-13583484D01*
X11463634Y-13583484D02*
X11425539Y-13583484D01*
X11425539Y-13583484D02*
X11406491Y-13593008D01*
X11406491Y-13593008D02*
X11396967Y-13602531D01*
X11396967Y-13602531D02*
X11387443Y-13621579D01*
X11387443Y-13621579D02*
X11387443Y-13669198D01*
X11387443Y-13669198D02*
X11396967Y-13688246D01*
X11396967Y-13688246D02*
X11406491Y-13697769D01*
X11406491Y-13697769D02*
X11425539Y-13707293D01*
X11425539Y-13707293D02*
X11463634Y-13707293D01*
X11463634Y-13707293D02*
X11482682Y-13697769D01*
X11482682Y-13697769D02*
X11492205Y-13688246D01*
X11492205Y-13688246D02*
X11501729Y-13669198D01*
X11692205Y-13783484D02*
X11577920Y-13783484D01*
X11635062Y-13783484D02*
X11635062Y-13583484D01*
X11635062Y-13583484D02*
X11616015Y-13612055D01*
X11616015Y-13612055D02*
X11596967Y-13631103D01*
X11596967Y-13631103D02*
X11577920Y-13640627D01*
X11777920Y-13783484D02*
X11777920Y-13650150D01*
X11777920Y-13669198D02*
X11787443Y-13659674D01*
X11787443Y-13659674D02*
X11806491Y-13650150D01*
X11806491Y-13650150D02*
X11835063Y-13650150D01*
X11835063Y-13650150D02*
X11854110Y-13659674D01*
X11854110Y-13659674D02*
X11863634Y-13678722D01*
X11863634Y-13678722D02*
X11863634Y-13783484D01*
X11863634Y-13678722D02*
X11873158Y-13659674D01*
X11873158Y-13659674D02*
X11892205Y-13650150D01*
X11892205Y-13650150D02*
X11920777Y-13650150D01*
X11920777Y-13650150D02*
X11939824Y-13659674D01*
X11939824Y-13659674D02*
X11949348Y-13678722D01*
X11949348Y-13678722D02*
X11949348Y-13783484D01*
X12044586Y-13783484D02*
X12044586Y-13650150D01*
X12044586Y-13669198D02*
X12054110Y-13659674D01*
X12054110Y-13659674D02*
X12073158Y-13650150D01*
X12073158Y-13650150D02*
X12101729Y-13650150D01*
X12101729Y-13650150D02*
X12120777Y-13659674D01*
X12120777Y-13659674D02*
X12130301Y-13678722D01*
X12130301Y-13678722D02*
X12130301Y-13783484D01*
X12130301Y-13678722D02*
X12139824Y-13659674D01*
X12139824Y-13659674D02*
X12158872Y-13650150D01*
X12158872Y-13650150D02*
X12187443Y-13650150D01*
X12187443Y-13650150D02*
X12206491Y-13659674D01*
X12206491Y-13659674D02*
X12216015Y-13678722D01*
X12216015Y-13678722D02*
X12216015Y-13783484D01*
X12606491Y-13573960D02*
X12435063Y-13831103D01*
X12863634Y-13583484D02*
X12882682Y-13583484D01*
X12882682Y-13583484D02*
X12901729Y-13593008D01*
X12901729Y-13593008D02*
X12911253Y-13602531D01*
X12911253Y-13602531D02*
X12920777Y-13621579D01*
X12920777Y-13621579D02*
X12930301Y-13659674D01*
X12930301Y-13659674D02*
X12930301Y-13707293D01*
X12930301Y-13707293D02*
X12920777Y-13745388D01*
X12920777Y-13745388D02*
X12911253Y-13764436D01*
X12911253Y-13764436D02*
X12901729Y-13773960D01*
X12901729Y-13773960D02*
X12882682Y-13783484D01*
X12882682Y-13783484D02*
X12863634Y-13783484D01*
X12863634Y-13783484D02*
X12844586Y-13773960D01*
X12844586Y-13773960D02*
X12835063Y-13764436D01*
X12835063Y-13764436D02*
X12825539Y-13745388D01*
X12825539Y-13745388D02*
X12816015Y-13707293D01*
X12816015Y-13707293D02*
X12816015Y-13659674D01*
X12816015Y-13659674D02*
X12825539Y-13621579D01*
X12825539Y-13621579D02*
X12835063Y-13602531D01*
X12835063Y-13602531D02*
X12844586Y-13593008D01*
X12844586Y-13593008D02*
X12863634Y-13583484D01*
X13016015Y-13764436D02*
X13025539Y-13773960D01*
X13025539Y-13773960D02*
X13016015Y-13783484D01*
X13016015Y-13783484D02*
X13006491Y-13773960D01*
X13006491Y-13773960D02*
X13016015Y-13764436D01*
X13016015Y-13764436D02*
X13016015Y-13783484D01*
X13149348Y-13583484D02*
X13168396Y-13583484D01*
X13168396Y-13583484D02*
X13187444Y-13593008D01*
X13187444Y-13593008D02*
X13196967Y-13602531D01*
X13196967Y-13602531D02*
X13206491Y-13621579D01*
X13206491Y-13621579D02*
X13216015Y-13659674D01*
X13216015Y-13659674D02*
X13216015Y-13707293D01*
X13216015Y-13707293D02*
X13206491Y-13745388D01*
X13206491Y-13745388D02*
X13196967Y-13764436D01*
X13196967Y-13764436D02*
X13187444Y-13773960D01*
X13187444Y-13773960D02*
X13168396Y-13783484D01*
X13168396Y-13783484D02*
X13149348Y-13783484D01*
X13149348Y-13783484D02*
X13130301Y-13773960D01*
X13130301Y-13773960D02*
X13120777Y-13764436D01*
X13120777Y-13764436D02*
X13111253Y-13745388D01*
X13111253Y-13745388D02*
X13101729Y-13707293D01*
X13101729Y-13707293D02*
X13101729Y-13659674D01*
X13101729Y-13659674D02*
X13111253Y-13621579D01*
X13111253Y-13621579D02*
X13120777Y-13602531D01*
X13120777Y-13602531D02*
X13130301Y-13593008D01*
X13130301Y-13593008D02*
X13149348Y-13583484D01*
X13282682Y-13583484D02*
X13406491Y-13583484D01*
X13406491Y-13583484D02*
X13339825Y-13659674D01*
X13339825Y-13659674D02*
X13368396Y-13659674D01*
X13368396Y-13659674D02*
X13387444Y-13669198D01*
X13387444Y-13669198D02*
X13396967Y-13678722D01*
X13396967Y-13678722D02*
X13406491Y-13697769D01*
X13406491Y-13697769D02*
X13406491Y-13745388D01*
X13406491Y-13745388D02*
X13396967Y-13764436D01*
X13396967Y-13764436D02*
X13387444Y-13773960D01*
X13387444Y-13773960D02*
X13368396Y-13783484D01*
X13368396Y-13783484D02*
X13311253Y-13783484D01*
X13311253Y-13783484D02*
X13292206Y-13773960D01*
X13292206Y-13773960D02*
X13282682Y-13764436D01*
X13501729Y-13783484D02*
X13539825Y-13783484D01*
X13539825Y-13783484D02*
X13558872Y-13773960D01*
X13558872Y-13773960D02*
X13568396Y-13764436D01*
X13568396Y-13764436D02*
X13587444Y-13735865D01*
X13587444Y-13735865D02*
X13596967Y-13697769D01*
X13596967Y-13697769D02*
X13596967Y-13621579D01*
X13596967Y-13621579D02*
X13587444Y-13602531D01*
X13587444Y-13602531D02*
X13577920Y-13593008D01*
X13577920Y-13593008D02*
X13558872Y-13583484D01*
X13558872Y-13583484D02*
X13520777Y-13583484D01*
X13520777Y-13583484D02*
X13501729Y-13593008D01*
X13501729Y-13593008D02*
X13492206Y-13602531D01*
X13492206Y-13602531D02*
X13482682Y-13621579D01*
X13482682Y-13621579D02*
X13482682Y-13669198D01*
X13482682Y-13669198D02*
X13492206Y-13688246D01*
X13492206Y-13688246D02*
X13501729Y-13697769D01*
X13501729Y-13697769D02*
X13520777Y-13707293D01*
X13520777Y-13707293D02*
X13558872Y-13707293D01*
X13558872Y-13707293D02*
X13577920Y-13697769D01*
X13577920Y-13697769D02*
X13587444Y-13688246D01*
X13587444Y-13688246D02*
X13596967Y-13669198D01*
X13720777Y-13583484D02*
X13739825Y-13583484D01*
X13739825Y-13583484D02*
X13758872Y-13593008D01*
X13758872Y-13593008D02*
X13768396Y-13602531D01*
X13768396Y-13602531D02*
X13777920Y-13621579D01*
X13777920Y-13621579D02*
X13787444Y-13659674D01*
X13787444Y-13659674D02*
X13787444Y-13707293D01*
X13787444Y-13707293D02*
X13777920Y-13745388D01*
X13777920Y-13745388D02*
X13768396Y-13764436D01*
X13768396Y-13764436D02*
X13758872Y-13773960D01*
X13758872Y-13773960D02*
X13739825Y-13783484D01*
X13739825Y-13783484D02*
X13720777Y-13783484D01*
X13720777Y-13783484D02*
X13701729Y-13773960D01*
X13701729Y-13773960D02*
X13692206Y-13764436D01*
X13692206Y-13764436D02*
X13682682Y-13745388D01*
X13682682Y-13745388D02*
X13673158Y-13707293D01*
X13673158Y-13707293D02*
X13673158Y-13659674D01*
X13673158Y-13659674D02*
X13682682Y-13621579D01*
X13682682Y-13621579D02*
X13692206Y-13602531D01*
X13692206Y-13602531D02*
X13701729Y-13593008D01*
X13701729Y-13593008D02*
X13720777Y-13583484D01*
X13863634Y-13583484D02*
X13863634Y-13621579D01*
X13939825Y-13583484D02*
X13939825Y-13621579D01*
X14235063Y-13859674D02*
X14225539Y-13850150D01*
X14225539Y-13850150D02*
X14206491Y-13821579D01*
X14206491Y-13821579D02*
X14196968Y-13802531D01*
X14196968Y-13802531D02*
X14187444Y-13773960D01*
X14187444Y-13773960D02*
X14177920Y-13726341D01*
X14177920Y-13726341D02*
X14177920Y-13688246D01*
X14177920Y-13688246D02*
X14187444Y-13640627D01*
X14187444Y-13640627D02*
X14196968Y-13612055D01*
X14196968Y-13612055D02*
X14206491Y-13593008D01*
X14206491Y-13593008D02*
X14225539Y-13564436D01*
X14225539Y-13564436D02*
X14235063Y-13554912D01*
X14339825Y-13669198D02*
X14320777Y-13659674D01*
X14320777Y-13659674D02*
X14311253Y-13650150D01*
X14311253Y-13650150D02*
X14301729Y-13631103D01*
X14301729Y-13631103D02*
X14301729Y-13621579D01*
X14301729Y-13621579D02*
X14311253Y-13602531D01*
X14311253Y-13602531D02*
X14320777Y-13593008D01*
X14320777Y-13593008D02*
X14339825Y-13583484D01*
X14339825Y-13583484D02*
X14377920Y-13583484D01*
X14377920Y-13583484D02*
X14396968Y-13593008D01*
X14396968Y-13593008D02*
X14406491Y-13602531D01*
X14406491Y-13602531D02*
X14416015Y-13621579D01*
X14416015Y-13621579D02*
X14416015Y-13631103D01*
X14416015Y-13631103D02*
X14406491Y-13650150D01*
X14406491Y-13650150D02*
X14396968Y-13659674D01*
X14396968Y-13659674D02*
X14377920Y-13669198D01*
X14377920Y-13669198D02*
X14339825Y-13669198D01*
X14339825Y-13669198D02*
X14320777Y-13678722D01*
X14320777Y-13678722D02*
X14311253Y-13688246D01*
X14311253Y-13688246D02*
X14301729Y-13707293D01*
X14301729Y-13707293D02*
X14301729Y-13745388D01*
X14301729Y-13745388D02*
X14311253Y-13764436D01*
X14311253Y-13764436D02*
X14320777Y-13773960D01*
X14320777Y-13773960D02*
X14339825Y-13783484D01*
X14339825Y-13783484D02*
X14377920Y-13783484D01*
X14377920Y-13783484D02*
X14396968Y-13773960D01*
X14396968Y-13773960D02*
X14406491Y-13764436D01*
X14406491Y-13764436D02*
X14416015Y-13745388D01*
X14416015Y-13745388D02*
X14416015Y-13707293D01*
X14416015Y-13707293D02*
X14406491Y-13688246D01*
X14406491Y-13688246D02*
X14396968Y-13678722D01*
X14396968Y-13678722D02*
X14377920Y-13669198D01*
X14654110Y-13783484D02*
X14654110Y-13583484D01*
X14739825Y-13783484D02*
X14739825Y-13678722D01*
X14739825Y-13678722D02*
X14730301Y-13659674D01*
X14730301Y-13659674D02*
X14711253Y-13650150D01*
X14711253Y-13650150D02*
X14682682Y-13650150D01*
X14682682Y-13650150D02*
X14663634Y-13659674D01*
X14663634Y-13659674D02*
X14654110Y-13669198D01*
X14863634Y-13783484D02*
X14844587Y-13773960D01*
X14844587Y-13773960D02*
X14835063Y-13764436D01*
X14835063Y-13764436D02*
X14825539Y-13745388D01*
X14825539Y-13745388D02*
X14825539Y-13688246D01*
X14825539Y-13688246D02*
X14835063Y-13669198D01*
X14835063Y-13669198D02*
X14844587Y-13659674D01*
X14844587Y-13659674D02*
X14863634Y-13650150D01*
X14863634Y-13650150D02*
X14892206Y-13650150D01*
X14892206Y-13650150D02*
X14911253Y-13659674D01*
X14911253Y-13659674D02*
X14920777Y-13669198D01*
X14920777Y-13669198D02*
X14930301Y-13688246D01*
X14930301Y-13688246D02*
X14930301Y-13745388D01*
X14930301Y-13745388D02*
X14920777Y-13764436D01*
X14920777Y-13764436D02*
X14911253Y-13773960D01*
X14911253Y-13773960D02*
X14892206Y-13783484D01*
X14892206Y-13783484D02*
X14863634Y-13783484D01*
X15044587Y-13783484D02*
X15025539Y-13773960D01*
X15025539Y-13773960D02*
X15016015Y-13754912D01*
X15016015Y-13754912D02*
X15016015Y-13583484D01*
X15196968Y-13773960D02*
X15177920Y-13783484D01*
X15177920Y-13783484D02*
X15139825Y-13783484D01*
X15139825Y-13783484D02*
X15120777Y-13773960D01*
X15120777Y-13773960D02*
X15111253Y-13754912D01*
X15111253Y-13754912D02*
X15111253Y-13678722D01*
X15111253Y-13678722D02*
X15120777Y-13659674D01*
X15120777Y-13659674D02*
X15139825Y-13650150D01*
X15139825Y-13650150D02*
X15177920Y-13650150D01*
X15177920Y-13650150D02*
X15196968Y-13659674D01*
X15196968Y-13659674D02*
X15206491Y-13678722D01*
X15206491Y-13678722D02*
X15206491Y-13697769D01*
X15206491Y-13697769D02*
X15111253Y-13716817D01*
X15282682Y-13773960D02*
X15301730Y-13783484D01*
X15301730Y-13783484D02*
X15339825Y-13783484D01*
X15339825Y-13783484D02*
X15358872Y-13773960D01*
X15358872Y-13773960D02*
X15368396Y-13754912D01*
X15368396Y-13754912D02*
X15368396Y-13745388D01*
X15368396Y-13745388D02*
X15358872Y-13726341D01*
X15358872Y-13726341D02*
X15339825Y-13716817D01*
X15339825Y-13716817D02*
X15311253Y-13716817D01*
X15311253Y-13716817D02*
X15292206Y-13707293D01*
X15292206Y-13707293D02*
X15282682Y-13688246D01*
X15282682Y-13688246D02*
X15282682Y-13678722D01*
X15282682Y-13678722D02*
X15292206Y-13659674D01*
X15292206Y-13659674D02*
X15311253Y-13650150D01*
X15311253Y-13650150D02*
X15339825Y-13650150D01*
X15339825Y-13650150D02*
X15358872Y-13659674D01*
X15435063Y-13859674D02*
X15444587Y-13850150D01*
X15444587Y-13850150D02*
X15463634Y-13821579D01*
X15463634Y-13821579D02*
X15473158Y-13802531D01*
X15473158Y-13802531D02*
X15482682Y-13773960D01*
X15482682Y-13773960D02*
X15492206Y-13726341D01*
X15492206Y-13726341D02*
X15492206Y-13688246D01*
X15492206Y-13688246D02*
X15482682Y-13640627D01*
X15482682Y-13640627D02*
X15473158Y-13612055D01*
X15473158Y-13612055D02*
X15463634Y-13593008D01*
X15463634Y-13593008D02*
X15444587Y-13564436D01*
X15444587Y-13564436D02*
X15435063Y-13554912D01*
D12*
X10610000Y-14006000D02*
X10660000Y-13956000D01*
X10610000Y-13906000D01*
X10560000Y-13956000D01*
X10610000Y-14006000D01*
D10*
X11025539Y-14047484D02*
X10911253Y-14047484D01*
X10968396Y-14047484D02*
X10968396Y-13847484D01*
X10968396Y-13847484D02*
X10949348Y-13876055D01*
X10949348Y-13876055D02*
X10930301Y-13895103D01*
X10930301Y-13895103D02*
X10911253Y-13904627D01*
X11111253Y-14028436D02*
X11120777Y-14037960D01*
X11120777Y-14037960D02*
X11111253Y-14047484D01*
X11111253Y-14047484D02*
X11101729Y-14037960D01*
X11101729Y-14037960D02*
X11111253Y-14028436D01*
X11111253Y-14028436D02*
X11111253Y-14047484D01*
X11244586Y-13847484D02*
X11263634Y-13847484D01*
X11263634Y-13847484D02*
X11282682Y-13857008D01*
X11282682Y-13857008D02*
X11292205Y-13866531D01*
X11292205Y-13866531D02*
X11301729Y-13885579D01*
X11301729Y-13885579D02*
X11311253Y-13923674D01*
X11311253Y-13923674D02*
X11311253Y-13971293D01*
X11311253Y-13971293D02*
X11301729Y-14009388D01*
X11301729Y-14009388D02*
X11292205Y-14028436D01*
X11292205Y-14028436D02*
X11282682Y-14037960D01*
X11282682Y-14037960D02*
X11263634Y-14047484D01*
X11263634Y-14047484D02*
X11244586Y-14047484D01*
X11244586Y-14047484D02*
X11225539Y-14037960D01*
X11225539Y-14037960D02*
X11216015Y-14028436D01*
X11216015Y-14028436D02*
X11206491Y-14009388D01*
X11206491Y-14009388D02*
X11196967Y-13971293D01*
X11196967Y-13971293D02*
X11196967Y-13923674D01*
X11196967Y-13923674D02*
X11206491Y-13885579D01*
X11206491Y-13885579D02*
X11216015Y-13866531D01*
X11216015Y-13866531D02*
X11225539Y-13857008D01*
X11225539Y-13857008D02*
X11244586Y-13847484D01*
X11435062Y-13847484D02*
X11454110Y-13847484D01*
X11454110Y-13847484D02*
X11473158Y-13857008D01*
X11473158Y-13857008D02*
X11482682Y-13866531D01*
X11482682Y-13866531D02*
X11492205Y-13885579D01*
X11492205Y-13885579D02*
X11501729Y-13923674D01*
X11501729Y-13923674D02*
X11501729Y-13971293D01*
X11501729Y-13971293D02*
X11492205Y-14009388D01*
X11492205Y-14009388D02*
X11482682Y-14028436D01*
X11482682Y-14028436D02*
X11473158Y-14037960D01*
X11473158Y-14037960D02*
X11454110Y-14047484D01*
X11454110Y-14047484D02*
X11435062Y-14047484D01*
X11435062Y-14047484D02*
X11416015Y-14037960D01*
X11416015Y-14037960D02*
X11406491Y-14028436D01*
X11406491Y-14028436D02*
X11396967Y-14009388D01*
X11396967Y-14009388D02*
X11387443Y-13971293D01*
X11387443Y-13971293D02*
X11387443Y-13923674D01*
X11387443Y-13923674D02*
X11396967Y-13885579D01*
X11396967Y-13885579D02*
X11406491Y-13866531D01*
X11406491Y-13866531D02*
X11416015Y-13857008D01*
X11416015Y-13857008D02*
X11435062Y-13847484D01*
X11625539Y-13847484D02*
X11644586Y-13847484D01*
X11644586Y-13847484D02*
X11663634Y-13857008D01*
X11663634Y-13857008D02*
X11673158Y-13866531D01*
X11673158Y-13866531D02*
X11682682Y-13885579D01*
X11682682Y-13885579D02*
X11692205Y-13923674D01*
X11692205Y-13923674D02*
X11692205Y-13971293D01*
X11692205Y-13971293D02*
X11682682Y-14009388D01*
X11682682Y-14009388D02*
X11673158Y-14028436D01*
X11673158Y-14028436D02*
X11663634Y-14037960D01*
X11663634Y-14037960D02*
X11644586Y-14047484D01*
X11644586Y-14047484D02*
X11625539Y-14047484D01*
X11625539Y-14047484D02*
X11606491Y-14037960D01*
X11606491Y-14037960D02*
X11596967Y-14028436D01*
X11596967Y-14028436D02*
X11587443Y-14009388D01*
X11587443Y-14009388D02*
X11577920Y-13971293D01*
X11577920Y-13971293D02*
X11577920Y-13923674D01*
X11577920Y-13923674D02*
X11587443Y-13885579D01*
X11587443Y-13885579D02*
X11596967Y-13866531D01*
X11596967Y-13866531D02*
X11606491Y-13857008D01*
X11606491Y-13857008D02*
X11625539Y-13847484D01*
X11777920Y-14047484D02*
X11777920Y-13914150D01*
X11777920Y-13933198D02*
X11787443Y-13923674D01*
X11787443Y-13923674D02*
X11806491Y-13914150D01*
X11806491Y-13914150D02*
X11835063Y-13914150D01*
X11835063Y-13914150D02*
X11854110Y-13923674D01*
X11854110Y-13923674D02*
X11863634Y-13942722D01*
X11863634Y-13942722D02*
X11863634Y-14047484D01*
X11863634Y-13942722D02*
X11873158Y-13923674D01*
X11873158Y-13923674D02*
X11892205Y-13914150D01*
X11892205Y-13914150D02*
X11920777Y-13914150D01*
X11920777Y-13914150D02*
X11939824Y-13923674D01*
X11939824Y-13923674D02*
X11949348Y-13942722D01*
X11949348Y-13942722D02*
X11949348Y-14047484D01*
X12044586Y-14047484D02*
X12044586Y-13914150D01*
X12044586Y-13933198D02*
X12054110Y-13923674D01*
X12054110Y-13923674D02*
X12073158Y-13914150D01*
X12073158Y-13914150D02*
X12101729Y-13914150D01*
X12101729Y-13914150D02*
X12120777Y-13923674D01*
X12120777Y-13923674D02*
X12130301Y-13942722D01*
X12130301Y-13942722D02*
X12130301Y-14047484D01*
X12130301Y-13942722D02*
X12139824Y-13923674D01*
X12139824Y-13923674D02*
X12158872Y-13914150D01*
X12158872Y-13914150D02*
X12187443Y-13914150D01*
X12187443Y-13914150D02*
X12206491Y-13923674D01*
X12206491Y-13923674D02*
X12216015Y-13942722D01*
X12216015Y-13942722D02*
X12216015Y-14047484D01*
X12606491Y-13837960D02*
X12435063Y-14095103D01*
X12863634Y-13847484D02*
X12882682Y-13847484D01*
X12882682Y-13847484D02*
X12901729Y-13857008D01*
X12901729Y-13857008D02*
X12911253Y-13866531D01*
X12911253Y-13866531D02*
X12920777Y-13885579D01*
X12920777Y-13885579D02*
X12930301Y-13923674D01*
X12930301Y-13923674D02*
X12930301Y-13971293D01*
X12930301Y-13971293D02*
X12920777Y-14009388D01*
X12920777Y-14009388D02*
X12911253Y-14028436D01*
X12911253Y-14028436D02*
X12901729Y-14037960D01*
X12901729Y-14037960D02*
X12882682Y-14047484D01*
X12882682Y-14047484D02*
X12863634Y-14047484D01*
X12863634Y-14047484D02*
X12844586Y-14037960D01*
X12844586Y-14037960D02*
X12835063Y-14028436D01*
X12835063Y-14028436D02*
X12825539Y-14009388D01*
X12825539Y-14009388D02*
X12816015Y-13971293D01*
X12816015Y-13971293D02*
X12816015Y-13923674D01*
X12816015Y-13923674D02*
X12825539Y-13885579D01*
X12825539Y-13885579D02*
X12835063Y-13866531D01*
X12835063Y-13866531D02*
X12844586Y-13857008D01*
X12844586Y-13857008D02*
X12863634Y-13847484D01*
X13016015Y-14028436D02*
X13025539Y-14037960D01*
X13025539Y-14037960D02*
X13016015Y-14047484D01*
X13016015Y-14047484D02*
X13006491Y-14037960D01*
X13006491Y-14037960D02*
X13016015Y-14028436D01*
X13016015Y-14028436D02*
X13016015Y-14047484D01*
X13149348Y-13847484D02*
X13168396Y-13847484D01*
X13168396Y-13847484D02*
X13187444Y-13857008D01*
X13187444Y-13857008D02*
X13196967Y-13866531D01*
X13196967Y-13866531D02*
X13206491Y-13885579D01*
X13206491Y-13885579D02*
X13216015Y-13923674D01*
X13216015Y-13923674D02*
X13216015Y-13971293D01*
X13216015Y-13971293D02*
X13206491Y-14009388D01*
X13206491Y-14009388D02*
X13196967Y-14028436D01*
X13196967Y-14028436D02*
X13187444Y-14037960D01*
X13187444Y-14037960D02*
X13168396Y-14047484D01*
X13168396Y-14047484D02*
X13149348Y-14047484D01*
X13149348Y-14047484D02*
X13130301Y-14037960D01*
X13130301Y-14037960D02*
X13120777Y-14028436D01*
X13120777Y-14028436D02*
X13111253Y-14009388D01*
X13111253Y-14009388D02*
X13101729Y-13971293D01*
X13101729Y-13971293D02*
X13101729Y-13923674D01*
X13101729Y-13923674D02*
X13111253Y-13885579D01*
X13111253Y-13885579D02*
X13120777Y-13866531D01*
X13120777Y-13866531D02*
X13130301Y-13857008D01*
X13130301Y-13857008D02*
X13149348Y-13847484D01*
X13282682Y-13847484D02*
X13406491Y-13847484D01*
X13406491Y-13847484D02*
X13339825Y-13923674D01*
X13339825Y-13923674D02*
X13368396Y-13923674D01*
X13368396Y-13923674D02*
X13387444Y-13933198D01*
X13387444Y-13933198D02*
X13396967Y-13942722D01*
X13396967Y-13942722D02*
X13406491Y-13961769D01*
X13406491Y-13961769D02*
X13406491Y-14009388D01*
X13406491Y-14009388D02*
X13396967Y-14028436D01*
X13396967Y-14028436D02*
X13387444Y-14037960D01*
X13387444Y-14037960D02*
X13368396Y-14047484D01*
X13368396Y-14047484D02*
X13311253Y-14047484D01*
X13311253Y-14047484D02*
X13292206Y-14037960D01*
X13292206Y-14037960D02*
X13282682Y-14028436D01*
X13501729Y-14047484D02*
X13539825Y-14047484D01*
X13539825Y-14047484D02*
X13558872Y-14037960D01*
X13558872Y-14037960D02*
X13568396Y-14028436D01*
X13568396Y-14028436D02*
X13587444Y-13999865D01*
X13587444Y-13999865D02*
X13596967Y-13961769D01*
X13596967Y-13961769D02*
X13596967Y-13885579D01*
X13596967Y-13885579D02*
X13587444Y-13866531D01*
X13587444Y-13866531D02*
X13577920Y-13857008D01*
X13577920Y-13857008D02*
X13558872Y-13847484D01*
X13558872Y-13847484D02*
X13520777Y-13847484D01*
X13520777Y-13847484D02*
X13501729Y-13857008D01*
X13501729Y-13857008D02*
X13492206Y-13866531D01*
X13492206Y-13866531D02*
X13482682Y-13885579D01*
X13482682Y-13885579D02*
X13482682Y-13933198D01*
X13482682Y-13933198D02*
X13492206Y-13952246D01*
X13492206Y-13952246D02*
X13501729Y-13961769D01*
X13501729Y-13961769D02*
X13520777Y-13971293D01*
X13520777Y-13971293D02*
X13558872Y-13971293D01*
X13558872Y-13971293D02*
X13577920Y-13961769D01*
X13577920Y-13961769D02*
X13587444Y-13952246D01*
X13587444Y-13952246D02*
X13596967Y-13933198D01*
X13768396Y-13914150D02*
X13768396Y-14047484D01*
X13720777Y-13837960D02*
X13673158Y-13980817D01*
X13673158Y-13980817D02*
X13796967Y-13980817D01*
X13863634Y-13847484D02*
X13863634Y-13885579D01*
X13939825Y-13847484D02*
X13939825Y-13885579D01*
X14235063Y-14123674D02*
X14225539Y-14114150D01*
X14225539Y-14114150D02*
X14206491Y-14085579D01*
X14206491Y-14085579D02*
X14196968Y-14066531D01*
X14196968Y-14066531D02*
X14187444Y-14037960D01*
X14187444Y-14037960D02*
X14177920Y-13990341D01*
X14177920Y-13990341D02*
X14177920Y-13952246D01*
X14177920Y-13952246D02*
X14187444Y-13904627D01*
X14187444Y-13904627D02*
X14196968Y-13876055D01*
X14196968Y-13876055D02*
X14206491Y-13857008D01*
X14206491Y-13857008D02*
X14225539Y-13828436D01*
X14225539Y-13828436D02*
X14235063Y-13818912D01*
X14416015Y-14047484D02*
X14301729Y-14047484D01*
X14358872Y-14047484D02*
X14358872Y-13847484D01*
X14358872Y-13847484D02*
X14339825Y-13876055D01*
X14339825Y-13876055D02*
X14320777Y-13895103D01*
X14320777Y-13895103D02*
X14301729Y-13904627D01*
X14482682Y-13847484D02*
X14606491Y-13847484D01*
X14606491Y-13847484D02*
X14539825Y-13923674D01*
X14539825Y-13923674D02*
X14568396Y-13923674D01*
X14568396Y-13923674D02*
X14587444Y-13933198D01*
X14587444Y-13933198D02*
X14596968Y-13942722D01*
X14596968Y-13942722D02*
X14606491Y-13961769D01*
X14606491Y-13961769D02*
X14606491Y-14009388D01*
X14606491Y-14009388D02*
X14596968Y-14028436D01*
X14596968Y-14028436D02*
X14587444Y-14037960D01*
X14587444Y-14037960D02*
X14568396Y-14047484D01*
X14568396Y-14047484D02*
X14511253Y-14047484D01*
X14511253Y-14047484D02*
X14492206Y-14037960D01*
X14492206Y-14037960D02*
X14482682Y-14028436D01*
X14844587Y-14047484D02*
X14844587Y-13847484D01*
X14930301Y-14047484D02*
X14930301Y-13942722D01*
X14930301Y-13942722D02*
X14920777Y-13923674D01*
X14920777Y-13923674D02*
X14901730Y-13914150D01*
X14901730Y-13914150D02*
X14873158Y-13914150D01*
X14873158Y-13914150D02*
X14854110Y-13923674D01*
X14854110Y-13923674D02*
X14844587Y-13933198D01*
X15054110Y-14047484D02*
X15035063Y-14037960D01*
X15035063Y-14037960D02*
X15025539Y-14028436D01*
X15025539Y-14028436D02*
X15016015Y-14009388D01*
X15016015Y-14009388D02*
X15016015Y-13952246D01*
X15016015Y-13952246D02*
X15025539Y-13933198D01*
X15025539Y-13933198D02*
X15035063Y-13923674D01*
X15035063Y-13923674D02*
X15054110Y-13914150D01*
X15054110Y-13914150D02*
X15082682Y-13914150D01*
X15082682Y-13914150D02*
X15101730Y-13923674D01*
X15101730Y-13923674D02*
X15111253Y-13933198D01*
X15111253Y-13933198D02*
X15120777Y-13952246D01*
X15120777Y-13952246D02*
X15120777Y-14009388D01*
X15120777Y-14009388D02*
X15111253Y-14028436D01*
X15111253Y-14028436D02*
X15101730Y-14037960D01*
X15101730Y-14037960D02*
X15082682Y-14047484D01*
X15082682Y-14047484D02*
X15054110Y-14047484D01*
X15235063Y-14047484D02*
X15216015Y-14037960D01*
X15216015Y-14037960D02*
X15206491Y-14018912D01*
X15206491Y-14018912D02*
X15206491Y-13847484D01*
X15387444Y-14037960D02*
X15368396Y-14047484D01*
X15368396Y-14047484D02*
X15330301Y-14047484D01*
X15330301Y-14047484D02*
X15311253Y-14037960D01*
X15311253Y-14037960D02*
X15301730Y-14018912D01*
X15301730Y-14018912D02*
X15301730Y-13942722D01*
X15301730Y-13942722D02*
X15311253Y-13923674D01*
X15311253Y-13923674D02*
X15330301Y-13914150D01*
X15330301Y-13914150D02*
X15368396Y-13914150D01*
X15368396Y-13914150D02*
X15387444Y-13923674D01*
X15387444Y-13923674D02*
X15396968Y-13942722D01*
X15396968Y-13942722D02*
X15396968Y-13961769D01*
X15396968Y-13961769D02*
X15301730Y-13980817D01*
X15473158Y-14037960D02*
X15492206Y-14047484D01*
X15492206Y-14047484D02*
X15530301Y-14047484D01*
X15530301Y-14047484D02*
X15549349Y-14037960D01*
X15549349Y-14037960D02*
X15558872Y-14018912D01*
X15558872Y-14018912D02*
X15558872Y-14009388D01*
X15558872Y-14009388D02*
X15549349Y-13990341D01*
X15549349Y-13990341D02*
X15530301Y-13980817D01*
X15530301Y-13980817D02*
X15501730Y-13980817D01*
X15501730Y-13980817D02*
X15482682Y-13971293D01*
X15482682Y-13971293D02*
X15473158Y-13952246D01*
X15473158Y-13952246D02*
X15473158Y-13942722D01*
X15473158Y-13942722D02*
X15482682Y-13923674D01*
X15482682Y-13923674D02*
X15501730Y-13914150D01*
X15501730Y-13914150D02*
X15530301Y-13914150D01*
X15530301Y-13914150D02*
X15549349Y-13923674D01*
X15625539Y-14123674D02*
X15635063Y-14114150D01*
X15635063Y-14114150D02*
X15654111Y-14085579D01*
X15654111Y-14085579D02*
X15663634Y-14066531D01*
X15663634Y-14066531D02*
X15673158Y-14037960D01*
X15673158Y-14037960D02*
X15682682Y-13990341D01*
X15682682Y-13990341D02*
X15682682Y-13952246D01*
X15682682Y-13952246D02*
X15673158Y-13904627D01*
X15673158Y-13904627D02*
X15663634Y-13876055D01*
X15663634Y-13876055D02*
X15654111Y-13857008D01*
X15654111Y-13857008D02*
X15635063Y-13828436D01*
X15635063Y-13828436D02*
X15625539Y-13818912D01*
D13*
X10530000Y-14155000D02*
X10660000Y-14285000D01*
X10660000Y-14155000D02*
X10530000Y-14285000D01*
X10660000Y-14220000D02*
G75*
G02*
X10530000Y-14220000I-65000J0D01*
G01*
X10530000Y-14220000D02*
G75*
G02*
X10660000Y-14220000I65000J0D01*
G01*
D10*
X11025539Y-14311484D02*
X10911253Y-14311484D01*
X10968396Y-14311484D02*
X10968396Y-14111484D01*
X10968396Y-14111484D02*
X10949348Y-14140055D01*
X10949348Y-14140055D02*
X10930301Y-14159103D01*
X10930301Y-14159103D02*
X10911253Y-14168627D01*
X11111253Y-14292436D02*
X11120777Y-14301960D01*
X11120777Y-14301960D02*
X11111253Y-14311484D01*
X11111253Y-14311484D02*
X11101729Y-14301960D01*
X11101729Y-14301960D02*
X11111253Y-14292436D01*
X11111253Y-14292436D02*
X11111253Y-14311484D01*
X11187443Y-14111484D02*
X11311253Y-14111484D01*
X11311253Y-14111484D02*
X11244586Y-14187674D01*
X11244586Y-14187674D02*
X11273158Y-14187674D01*
X11273158Y-14187674D02*
X11292205Y-14197198D01*
X11292205Y-14197198D02*
X11301729Y-14206722D01*
X11301729Y-14206722D02*
X11311253Y-14225769D01*
X11311253Y-14225769D02*
X11311253Y-14273388D01*
X11311253Y-14273388D02*
X11301729Y-14292436D01*
X11301729Y-14292436D02*
X11292205Y-14301960D01*
X11292205Y-14301960D02*
X11273158Y-14311484D01*
X11273158Y-14311484D02*
X11216015Y-14311484D01*
X11216015Y-14311484D02*
X11196967Y-14301960D01*
X11196967Y-14301960D02*
X11187443Y-14292436D01*
X11435062Y-14111484D02*
X11454110Y-14111484D01*
X11454110Y-14111484D02*
X11473158Y-14121008D01*
X11473158Y-14121008D02*
X11482682Y-14130531D01*
X11482682Y-14130531D02*
X11492205Y-14149579D01*
X11492205Y-14149579D02*
X11501729Y-14187674D01*
X11501729Y-14187674D02*
X11501729Y-14235293D01*
X11501729Y-14235293D02*
X11492205Y-14273388D01*
X11492205Y-14273388D02*
X11482682Y-14292436D01*
X11482682Y-14292436D02*
X11473158Y-14301960D01*
X11473158Y-14301960D02*
X11454110Y-14311484D01*
X11454110Y-14311484D02*
X11435062Y-14311484D01*
X11435062Y-14311484D02*
X11416015Y-14301960D01*
X11416015Y-14301960D02*
X11406491Y-14292436D01*
X11406491Y-14292436D02*
X11396967Y-14273388D01*
X11396967Y-14273388D02*
X11387443Y-14235293D01*
X11387443Y-14235293D02*
X11387443Y-14187674D01*
X11387443Y-14187674D02*
X11396967Y-14149579D01*
X11396967Y-14149579D02*
X11406491Y-14130531D01*
X11406491Y-14130531D02*
X11416015Y-14121008D01*
X11416015Y-14121008D02*
X11435062Y-14111484D01*
X11625539Y-14111484D02*
X11644586Y-14111484D01*
X11644586Y-14111484D02*
X11663634Y-14121008D01*
X11663634Y-14121008D02*
X11673158Y-14130531D01*
X11673158Y-14130531D02*
X11682682Y-14149579D01*
X11682682Y-14149579D02*
X11692205Y-14187674D01*
X11692205Y-14187674D02*
X11692205Y-14235293D01*
X11692205Y-14235293D02*
X11682682Y-14273388D01*
X11682682Y-14273388D02*
X11673158Y-14292436D01*
X11673158Y-14292436D02*
X11663634Y-14301960D01*
X11663634Y-14301960D02*
X11644586Y-14311484D01*
X11644586Y-14311484D02*
X11625539Y-14311484D01*
X11625539Y-14311484D02*
X11606491Y-14301960D01*
X11606491Y-14301960D02*
X11596967Y-14292436D01*
X11596967Y-14292436D02*
X11587443Y-14273388D01*
X11587443Y-14273388D02*
X11577920Y-14235293D01*
X11577920Y-14235293D02*
X11577920Y-14187674D01*
X11577920Y-14187674D02*
X11587443Y-14149579D01*
X11587443Y-14149579D02*
X11596967Y-14130531D01*
X11596967Y-14130531D02*
X11606491Y-14121008D01*
X11606491Y-14121008D02*
X11625539Y-14111484D01*
X11777920Y-14311484D02*
X11777920Y-14178150D01*
X11777920Y-14197198D02*
X11787443Y-14187674D01*
X11787443Y-14187674D02*
X11806491Y-14178150D01*
X11806491Y-14178150D02*
X11835063Y-14178150D01*
X11835063Y-14178150D02*
X11854110Y-14187674D01*
X11854110Y-14187674D02*
X11863634Y-14206722D01*
X11863634Y-14206722D02*
X11863634Y-14311484D01*
X11863634Y-14206722D02*
X11873158Y-14187674D01*
X11873158Y-14187674D02*
X11892205Y-14178150D01*
X11892205Y-14178150D02*
X11920777Y-14178150D01*
X11920777Y-14178150D02*
X11939824Y-14187674D01*
X11939824Y-14187674D02*
X11949348Y-14206722D01*
X11949348Y-14206722D02*
X11949348Y-14311484D01*
X12044586Y-14311484D02*
X12044586Y-14178150D01*
X12044586Y-14197198D02*
X12054110Y-14187674D01*
X12054110Y-14187674D02*
X12073158Y-14178150D01*
X12073158Y-14178150D02*
X12101729Y-14178150D01*
X12101729Y-14178150D02*
X12120777Y-14187674D01*
X12120777Y-14187674D02*
X12130301Y-14206722D01*
X12130301Y-14206722D02*
X12130301Y-14311484D01*
X12130301Y-14206722D02*
X12139824Y-14187674D01*
X12139824Y-14187674D02*
X12158872Y-14178150D01*
X12158872Y-14178150D02*
X12187443Y-14178150D01*
X12187443Y-14178150D02*
X12206491Y-14187674D01*
X12206491Y-14187674D02*
X12216015Y-14206722D01*
X12216015Y-14206722D02*
X12216015Y-14311484D01*
X12606491Y-14101960D02*
X12435063Y-14359103D01*
X12863634Y-14111484D02*
X12882682Y-14111484D01*
X12882682Y-14111484D02*
X12901729Y-14121008D01*
X12901729Y-14121008D02*
X12911253Y-14130531D01*
X12911253Y-14130531D02*
X12920777Y-14149579D01*
X12920777Y-14149579D02*
X12930301Y-14187674D01*
X12930301Y-14187674D02*
X12930301Y-14235293D01*
X12930301Y-14235293D02*
X12920777Y-14273388D01*
X12920777Y-14273388D02*
X12911253Y-14292436D01*
X12911253Y-14292436D02*
X12901729Y-14301960D01*
X12901729Y-14301960D02*
X12882682Y-14311484D01*
X12882682Y-14311484D02*
X12863634Y-14311484D01*
X12863634Y-14311484D02*
X12844586Y-14301960D01*
X12844586Y-14301960D02*
X12835063Y-14292436D01*
X12835063Y-14292436D02*
X12825539Y-14273388D01*
X12825539Y-14273388D02*
X12816015Y-14235293D01*
X12816015Y-14235293D02*
X12816015Y-14187674D01*
X12816015Y-14187674D02*
X12825539Y-14149579D01*
X12825539Y-14149579D02*
X12835063Y-14130531D01*
X12835063Y-14130531D02*
X12844586Y-14121008D01*
X12844586Y-14121008D02*
X12863634Y-14111484D01*
X13016015Y-14292436D02*
X13025539Y-14301960D01*
X13025539Y-14301960D02*
X13016015Y-14311484D01*
X13016015Y-14311484D02*
X13006491Y-14301960D01*
X13006491Y-14301960D02*
X13016015Y-14292436D01*
X13016015Y-14292436D02*
X13016015Y-14311484D01*
X13149348Y-14111484D02*
X13168396Y-14111484D01*
X13168396Y-14111484D02*
X13187444Y-14121008D01*
X13187444Y-14121008D02*
X13196967Y-14130531D01*
X13196967Y-14130531D02*
X13206491Y-14149579D01*
X13206491Y-14149579D02*
X13216015Y-14187674D01*
X13216015Y-14187674D02*
X13216015Y-14235293D01*
X13216015Y-14235293D02*
X13206491Y-14273388D01*
X13206491Y-14273388D02*
X13196967Y-14292436D01*
X13196967Y-14292436D02*
X13187444Y-14301960D01*
X13187444Y-14301960D02*
X13168396Y-14311484D01*
X13168396Y-14311484D02*
X13149348Y-14311484D01*
X13149348Y-14311484D02*
X13130301Y-14301960D01*
X13130301Y-14301960D02*
X13120777Y-14292436D01*
X13120777Y-14292436D02*
X13111253Y-14273388D01*
X13111253Y-14273388D02*
X13101729Y-14235293D01*
X13101729Y-14235293D02*
X13101729Y-14187674D01*
X13101729Y-14187674D02*
X13111253Y-14149579D01*
X13111253Y-14149579D02*
X13120777Y-14130531D01*
X13120777Y-14130531D02*
X13130301Y-14121008D01*
X13130301Y-14121008D02*
X13149348Y-14111484D01*
X13396967Y-14111484D02*
X13301729Y-14111484D01*
X13301729Y-14111484D02*
X13292206Y-14206722D01*
X13292206Y-14206722D02*
X13301729Y-14197198D01*
X13301729Y-14197198D02*
X13320777Y-14187674D01*
X13320777Y-14187674D02*
X13368396Y-14187674D01*
X13368396Y-14187674D02*
X13387444Y-14197198D01*
X13387444Y-14197198D02*
X13396967Y-14206722D01*
X13396967Y-14206722D02*
X13406491Y-14225769D01*
X13406491Y-14225769D02*
X13406491Y-14273388D01*
X13406491Y-14273388D02*
X13396967Y-14292436D01*
X13396967Y-14292436D02*
X13387444Y-14301960D01*
X13387444Y-14301960D02*
X13368396Y-14311484D01*
X13368396Y-14311484D02*
X13320777Y-14311484D01*
X13320777Y-14311484D02*
X13301729Y-14301960D01*
X13301729Y-14301960D02*
X13292206Y-14292436D01*
X13596967Y-14311484D02*
X13482682Y-14311484D01*
X13539825Y-14311484D02*
X13539825Y-14111484D01*
X13539825Y-14111484D02*
X13520777Y-14140055D01*
X13520777Y-14140055D02*
X13501729Y-14159103D01*
X13501729Y-14159103D02*
X13482682Y-14168627D01*
X13673158Y-14130531D02*
X13682682Y-14121008D01*
X13682682Y-14121008D02*
X13701729Y-14111484D01*
X13701729Y-14111484D02*
X13749348Y-14111484D01*
X13749348Y-14111484D02*
X13768396Y-14121008D01*
X13768396Y-14121008D02*
X13777920Y-14130531D01*
X13777920Y-14130531D02*
X13787444Y-14149579D01*
X13787444Y-14149579D02*
X13787444Y-14168627D01*
X13787444Y-14168627D02*
X13777920Y-14197198D01*
X13777920Y-14197198D02*
X13663634Y-14311484D01*
X13663634Y-14311484D02*
X13787444Y-14311484D01*
X13863634Y-14111484D02*
X13863634Y-14149579D01*
X13939825Y-14111484D02*
X13939825Y-14149579D01*
X14235063Y-14387674D02*
X14225539Y-14378150D01*
X14225539Y-14378150D02*
X14206491Y-14349579D01*
X14206491Y-14349579D02*
X14196968Y-14330531D01*
X14196968Y-14330531D02*
X14187444Y-14301960D01*
X14187444Y-14301960D02*
X14177920Y-14254341D01*
X14177920Y-14254341D02*
X14177920Y-14216246D01*
X14177920Y-14216246D02*
X14187444Y-14168627D01*
X14187444Y-14168627D02*
X14196968Y-14140055D01*
X14196968Y-14140055D02*
X14206491Y-14121008D01*
X14206491Y-14121008D02*
X14225539Y-14092436D01*
X14225539Y-14092436D02*
X14235063Y-14082912D01*
X14416015Y-14311484D02*
X14301729Y-14311484D01*
X14358872Y-14311484D02*
X14358872Y-14111484D01*
X14358872Y-14111484D02*
X14339825Y-14140055D01*
X14339825Y-14140055D02*
X14320777Y-14159103D01*
X14320777Y-14159103D02*
X14301729Y-14168627D01*
X14482682Y-14111484D02*
X14616015Y-14111484D01*
X14616015Y-14111484D02*
X14530301Y-14311484D01*
X14844587Y-14311484D02*
X14844587Y-14111484D01*
X14930301Y-14311484D02*
X14930301Y-14206722D01*
X14930301Y-14206722D02*
X14920777Y-14187674D01*
X14920777Y-14187674D02*
X14901730Y-14178150D01*
X14901730Y-14178150D02*
X14873158Y-14178150D01*
X14873158Y-14178150D02*
X14854110Y-14187674D01*
X14854110Y-14187674D02*
X14844587Y-14197198D01*
X15054110Y-14311484D02*
X15035063Y-14301960D01*
X15035063Y-14301960D02*
X15025539Y-14292436D01*
X15025539Y-14292436D02*
X15016015Y-14273388D01*
X15016015Y-14273388D02*
X15016015Y-14216246D01*
X15016015Y-14216246D02*
X15025539Y-14197198D01*
X15025539Y-14197198D02*
X15035063Y-14187674D01*
X15035063Y-14187674D02*
X15054110Y-14178150D01*
X15054110Y-14178150D02*
X15082682Y-14178150D01*
X15082682Y-14178150D02*
X15101730Y-14187674D01*
X15101730Y-14187674D02*
X15111253Y-14197198D01*
X15111253Y-14197198D02*
X15120777Y-14216246D01*
X15120777Y-14216246D02*
X15120777Y-14273388D01*
X15120777Y-14273388D02*
X15111253Y-14292436D01*
X15111253Y-14292436D02*
X15101730Y-14301960D01*
X15101730Y-14301960D02*
X15082682Y-14311484D01*
X15082682Y-14311484D02*
X15054110Y-14311484D01*
X15235063Y-14311484D02*
X15216015Y-14301960D01*
X15216015Y-14301960D02*
X15206491Y-14282912D01*
X15206491Y-14282912D02*
X15206491Y-14111484D01*
X15387444Y-14301960D02*
X15368396Y-14311484D01*
X15368396Y-14311484D02*
X15330301Y-14311484D01*
X15330301Y-14311484D02*
X15311253Y-14301960D01*
X15311253Y-14301960D02*
X15301730Y-14282912D01*
X15301730Y-14282912D02*
X15301730Y-14206722D01*
X15301730Y-14206722D02*
X15311253Y-14187674D01*
X15311253Y-14187674D02*
X15330301Y-14178150D01*
X15330301Y-14178150D02*
X15368396Y-14178150D01*
X15368396Y-14178150D02*
X15387444Y-14187674D01*
X15387444Y-14187674D02*
X15396968Y-14206722D01*
X15396968Y-14206722D02*
X15396968Y-14225769D01*
X15396968Y-14225769D02*
X15301730Y-14244817D01*
X15473158Y-14301960D02*
X15492206Y-14311484D01*
X15492206Y-14311484D02*
X15530301Y-14311484D01*
X15530301Y-14311484D02*
X15549349Y-14301960D01*
X15549349Y-14301960D02*
X15558872Y-14282912D01*
X15558872Y-14282912D02*
X15558872Y-14273388D01*
X15558872Y-14273388D02*
X15549349Y-14254341D01*
X15549349Y-14254341D02*
X15530301Y-14244817D01*
X15530301Y-14244817D02*
X15501730Y-14244817D01*
X15501730Y-14244817D02*
X15482682Y-14235293D01*
X15482682Y-14235293D02*
X15473158Y-14216246D01*
X15473158Y-14216246D02*
X15473158Y-14206722D01*
X15473158Y-14206722D02*
X15482682Y-14187674D01*
X15482682Y-14187674D02*
X15501730Y-14178150D01*
X15501730Y-14178150D02*
X15530301Y-14178150D01*
X15530301Y-14178150D02*
X15549349Y-14187674D01*
X15625539Y-14387674D02*
X15635063Y-14378150D01*
X15635063Y-14378150D02*
X15654111Y-14349579D01*
X15654111Y-14349579D02*
X15663634Y-14330531D01*
X15663634Y-14330531D02*
X15673158Y-14301960D01*
X15673158Y-14301960D02*
X15682682Y-14254341D01*
X15682682Y-14254341D02*
X15682682Y-14216246D01*
X15682682Y-14216246D02*
X15673158Y-14168627D01*
X15673158Y-14168627D02*
X15663634Y-14140055D01*
X15663634Y-14140055D02*
X15654111Y-14121008D01*
X15654111Y-14121008D02*
X15635063Y-14092436D01*
X15635063Y-14092436D02*
X15625539Y-14082912D01*
X10460000Y-14384000D02*
X10660000Y-14584000D01*
X10660000Y-14384000D02*
X10460000Y-14584000D01*
X10560000Y-14384000D02*
X10560000Y-14584000D01*
X10460000Y-14484000D02*
X10660000Y-14484000D01*
X10901729Y-14375484D02*
X11025539Y-14375484D01*
X11025539Y-14375484D02*
X10958872Y-14451674D01*
X10958872Y-14451674D02*
X10987444Y-14451674D01*
X10987444Y-14451674D02*
X11006491Y-14461198D01*
X11006491Y-14461198D02*
X11016015Y-14470722D01*
X11016015Y-14470722D02*
X11025539Y-14489769D01*
X11025539Y-14489769D02*
X11025539Y-14537388D01*
X11025539Y-14537388D02*
X11016015Y-14556436D01*
X11016015Y-14556436D02*
X11006491Y-14565960D01*
X11006491Y-14565960D02*
X10987444Y-14575484D01*
X10987444Y-14575484D02*
X10930301Y-14575484D01*
X10930301Y-14575484D02*
X10911253Y-14565960D01*
X10911253Y-14565960D02*
X10901729Y-14556436D01*
X11111253Y-14556436D02*
X11120777Y-14565960D01*
X11120777Y-14565960D02*
X11111253Y-14575484D01*
X11111253Y-14575484D02*
X11101729Y-14565960D01*
X11101729Y-14565960D02*
X11111253Y-14556436D01*
X11111253Y-14556436D02*
X11111253Y-14575484D01*
X11301729Y-14375484D02*
X11206491Y-14375484D01*
X11206491Y-14375484D02*
X11196967Y-14470722D01*
X11196967Y-14470722D02*
X11206491Y-14461198D01*
X11206491Y-14461198D02*
X11225539Y-14451674D01*
X11225539Y-14451674D02*
X11273158Y-14451674D01*
X11273158Y-14451674D02*
X11292205Y-14461198D01*
X11292205Y-14461198D02*
X11301729Y-14470722D01*
X11301729Y-14470722D02*
X11311253Y-14489769D01*
X11311253Y-14489769D02*
X11311253Y-14537388D01*
X11311253Y-14537388D02*
X11301729Y-14556436D01*
X11301729Y-14556436D02*
X11292205Y-14565960D01*
X11292205Y-14565960D02*
X11273158Y-14575484D01*
X11273158Y-14575484D02*
X11225539Y-14575484D01*
X11225539Y-14575484D02*
X11206491Y-14565960D01*
X11206491Y-14565960D02*
X11196967Y-14556436D01*
X11435062Y-14375484D02*
X11454110Y-14375484D01*
X11454110Y-14375484D02*
X11473158Y-14385008D01*
X11473158Y-14385008D02*
X11482682Y-14394531D01*
X11482682Y-14394531D02*
X11492205Y-14413579D01*
X11492205Y-14413579D02*
X11501729Y-14451674D01*
X11501729Y-14451674D02*
X11501729Y-14499293D01*
X11501729Y-14499293D02*
X11492205Y-14537388D01*
X11492205Y-14537388D02*
X11482682Y-14556436D01*
X11482682Y-14556436D02*
X11473158Y-14565960D01*
X11473158Y-14565960D02*
X11454110Y-14575484D01*
X11454110Y-14575484D02*
X11435062Y-14575484D01*
X11435062Y-14575484D02*
X11416015Y-14565960D01*
X11416015Y-14565960D02*
X11406491Y-14556436D01*
X11406491Y-14556436D02*
X11396967Y-14537388D01*
X11396967Y-14537388D02*
X11387443Y-14499293D01*
X11387443Y-14499293D02*
X11387443Y-14451674D01*
X11387443Y-14451674D02*
X11396967Y-14413579D01*
X11396967Y-14413579D02*
X11406491Y-14394531D01*
X11406491Y-14394531D02*
X11416015Y-14385008D01*
X11416015Y-14385008D02*
X11435062Y-14375484D01*
X11625539Y-14375484D02*
X11644586Y-14375484D01*
X11644586Y-14375484D02*
X11663634Y-14385008D01*
X11663634Y-14385008D02*
X11673158Y-14394531D01*
X11673158Y-14394531D02*
X11682682Y-14413579D01*
X11682682Y-14413579D02*
X11692205Y-14451674D01*
X11692205Y-14451674D02*
X11692205Y-14499293D01*
X11692205Y-14499293D02*
X11682682Y-14537388D01*
X11682682Y-14537388D02*
X11673158Y-14556436D01*
X11673158Y-14556436D02*
X11663634Y-14565960D01*
X11663634Y-14565960D02*
X11644586Y-14575484D01*
X11644586Y-14575484D02*
X11625539Y-14575484D01*
X11625539Y-14575484D02*
X11606491Y-14565960D01*
X11606491Y-14565960D02*
X11596967Y-14556436D01*
X11596967Y-14556436D02*
X11587443Y-14537388D01*
X11587443Y-14537388D02*
X11577920Y-14499293D01*
X11577920Y-14499293D02*
X11577920Y-14451674D01*
X11577920Y-14451674D02*
X11587443Y-14413579D01*
X11587443Y-14413579D02*
X11596967Y-14394531D01*
X11596967Y-14394531D02*
X11606491Y-14385008D01*
X11606491Y-14385008D02*
X11625539Y-14375484D01*
X11777920Y-14575484D02*
X11777920Y-14442150D01*
X11777920Y-14461198D02*
X11787443Y-14451674D01*
X11787443Y-14451674D02*
X11806491Y-14442150D01*
X11806491Y-14442150D02*
X11835063Y-14442150D01*
X11835063Y-14442150D02*
X11854110Y-14451674D01*
X11854110Y-14451674D02*
X11863634Y-14470722D01*
X11863634Y-14470722D02*
X11863634Y-14575484D01*
X11863634Y-14470722D02*
X11873158Y-14451674D01*
X11873158Y-14451674D02*
X11892205Y-14442150D01*
X11892205Y-14442150D02*
X11920777Y-14442150D01*
X11920777Y-14442150D02*
X11939824Y-14451674D01*
X11939824Y-14451674D02*
X11949348Y-14470722D01*
X11949348Y-14470722D02*
X11949348Y-14575484D01*
X12044586Y-14575484D02*
X12044586Y-14442150D01*
X12044586Y-14461198D02*
X12054110Y-14451674D01*
X12054110Y-14451674D02*
X12073158Y-14442150D01*
X12073158Y-14442150D02*
X12101729Y-14442150D01*
X12101729Y-14442150D02*
X12120777Y-14451674D01*
X12120777Y-14451674D02*
X12130301Y-14470722D01*
X12130301Y-14470722D02*
X12130301Y-14575484D01*
X12130301Y-14470722D02*
X12139824Y-14451674D01*
X12139824Y-14451674D02*
X12158872Y-14442150D01*
X12158872Y-14442150D02*
X12187443Y-14442150D01*
X12187443Y-14442150D02*
X12206491Y-14451674D01*
X12206491Y-14451674D02*
X12216015Y-14470722D01*
X12216015Y-14470722D02*
X12216015Y-14575484D01*
X12606491Y-14365960D02*
X12435063Y-14623103D01*
X12863634Y-14375484D02*
X12882682Y-14375484D01*
X12882682Y-14375484D02*
X12901729Y-14385008D01*
X12901729Y-14385008D02*
X12911253Y-14394531D01*
X12911253Y-14394531D02*
X12920777Y-14413579D01*
X12920777Y-14413579D02*
X12930301Y-14451674D01*
X12930301Y-14451674D02*
X12930301Y-14499293D01*
X12930301Y-14499293D02*
X12920777Y-14537388D01*
X12920777Y-14537388D02*
X12911253Y-14556436D01*
X12911253Y-14556436D02*
X12901729Y-14565960D01*
X12901729Y-14565960D02*
X12882682Y-14575484D01*
X12882682Y-14575484D02*
X12863634Y-14575484D01*
X12863634Y-14575484D02*
X12844586Y-14565960D01*
X12844586Y-14565960D02*
X12835063Y-14556436D01*
X12835063Y-14556436D02*
X12825539Y-14537388D01*
X12825539Y-14537388D02*
X12816015Y-14499293D01*
X12816015Y-14499293D02*
X12816015Y-14451674D01*
X12816015Y-14451674D02*
X12825539Y-14413579D01*
X12825539Y-14413579D02*
X12835063Y-14394531D01*
X12835063Y-14394531D02*
X12844586Y-14385008D01*
X12844586Y-14385008D02*
X12863634Y-14375484D01*
X13016015Y-14556436D02*
X13025539Y-14565960D01*
X13025539Y-14565960D02*
X13016015Y-14575484D01*
X13016015Y-14575484D02*
X13006491Y-14565960D01*
X13006491Y-14565960D02*
X13016015Y-14556436D01*
X13016015Y-14556436D02*
X13016015Y-14575484D01*
X13216015Y-14575484D02*
X13101729Y-14575484D01*
X13158872Y-14575484D02*
X13158872Y-14375484D01*
X13158872Y-14375484D02*
X13139825Y-14404055D01*
X13139825Y-14404055D02*
X13120777Y-14423103D01*
X13120777Y-14423103D02*
X13101729Y-14432627D01*
X13282682Y-14375484D02*
X13406491Y-14375484D01*
X13406491Y-14375484D02*
X13339825Y-14451674D01*
X13339825Y-14451674D02*
X13368396Y-14451674D01*
X13368396Y-14451674D02*
X13387444Y-14461198D01*
X13387444Y-14461198D02*
X13396967Y-14470722D01*
X13396967Y-14470722D02*
X13406491Y-14489769D01*
X13406491Y-14489769D02*
X13406491Y-14537388D01*
X13406491Y-14537388D02*
X13396967Y-14556436D01*
X13396967Y-14556436D02*
X13387444Y-14565960D01*
X13387444Y-14565960D02*
X13368396Y-14575484D01*
X13368396Y-14575484D02*
X13311253Y-14575484D01*
X13311253Y-14575484D02*
X13292206Y-14565960D01*
X13292206Y-14565960D02*
X13282682Y-14556436D01*
X13473158Y-14375484D02*
X13606491Y-14375484D01*
X13606491Y-14375484D02*
X13520777Y-14575484D01*
X13711253Y-14461198D02*
X13692206Y-14451674D01*
X13692206Y-14451674D02*
X13682682Y-14442150D01*
X13682682Y-14442150D02*
X13673158Y-14423103D01*
X13673158Y-14423103D02*
X13673158Y-14413579D01*
X13673158Y-14413579D02*
X13682682Y-14394531D01*
X13682682Y-14394531D02*
X13692206Y-14385008D01*
X13692206Y-14385008D02*
X13711253Y-14375484D01*
X13711253Y-14375484D02*
X13749348Y-14375484D01*
X13749348Y-14375484D02*
X13768396Y-14385008D01*
X13768396Y-14385008D02*
X13777920Y-14394531D01*
X13777920Y-14394531D02*
X13787444Y-14413579D01*
X13787444Y-14413579D02*
X13787444Y-14423103D01*
X13787444Y-14423103D02*
X13777920Y-14442150D01*
X13777920Y-14442150D02*
X13768396Y-14451674D01*
X13768396Y-14451674D02*
X13749348Y-14461198D01*
X13749348Y-14461198D02*
X13711253Y-14461198D01*
X13711253Y-14461198D02*
X13692206Y-14470722D01*
X13692206Y-14470722D02*
X13682682Y-14480246D01*
X13682682Y-14480246D02*
X13673158Y-14499293D01*
X13673158Y-14499293D02*
X13673158Y-14537388D01*
X13673158Y-14537388D02*
X13682682Y-14556436D01*
X13682682Y-14556436D02*
X13692206Y-14565960D01*
X13692206Y-14565960D02*
X13711253Y-14575484D01*
X13711253Y-14575484D02*
X13749348Y-14575484D01*
X13749348Y-14575484D02*
X13768396Y-14565960D01*
X13768396Y-14565960D02*
X13777920Y-14556436D01*
X13777920Y-14556436D02*
X13787444Y-14537388D01*
X13787444Y-14537388D02*
X13787444Y-14499293D01*
X13787444Y-14499293D02*
X13777920Y-14480246D01*
X13777920Y-14480246D02*
X13768396Y-14470722D01*
X13768396Y-14470722D02*
X13749348Y-14461198D01*
X13863634Y-14375484D02*
X13863634Y-14413579D01*
X13939825Y-14375484D02*
X13939825Y-14413579D01*
X14235063Y-14651674D02*
X14225539Y-14642150D01*
X14225539Y-14642150D02*
X14206491Y-14613579D01*
X14206491Y-14613579D02*
X14196968Y-14594531D01*
X14196968Y-14594531D02*
X14187444Y-14565960D01*
X14187444Y-14565960D02*
X14177920Y-14518341D01*
X14177920Y-14518341D02*
X14177920Y-14480246D01*
X14177920Y-14480246D02*
X14187444Y-14432627D01*
X14187444Y-14432627D02*
X14196968Y-14404055D01*
X14196968Y-14404055D02*
X14206491Y-14385008D01*
X14206491Y-14385008D02*
X14225539Y-14356436D01*
X14225539Y-14356436D02*
X14235063Y-14346912D01*
X14396968Y-14442150D02*
X14396968Y-14575484D01*
X14349348Y-14365960D02*
X14301729Y-14508817D01*
X14301729Y-14508817D02*
X14425539Y-14508817D01*
X14654110Y-14575484D02*
X14654110Y-14375484D01*
X14739825Y-14575484D02*
X14739825Y-14470722D01*
X14739825Y-14470722D02*
X14730301Y-14451674D01*
X14730301Y-14451674D02*
X14711253Y-14442150D01*
X14711253Y-14442150D02*
X14682682Y-14442150D01*
X14682682Y-14442150D02*
X14663634Y-14451674D01*
X14663634Y-14451674D02*
X14654110Y-14461198D01*
X14863634Y-14575484D02*
X14844587Y-14565960D01*
X14844587Y-14565960D02*
X14835063Y-14556436D01*
X14835063Y-14556436D02*
X14825539Y-14537388D01*
X14825539Y-14537388D02*
X14825539Y-14480246D01*
X14825539Y-14480246D02*
X14835063Y-14461198D01*
X14835063Y-14461198D02*
X14844587Y-14451674D01*
X14844587Y-14451674D02*
X14863634Y-14442150D01*
X14863634Y-14442150D02*
X14892206Y-14442150D01*
X14892206Y-14442150D02*
X14911253Y-14451674D01*
X14911253Y-14451674D02*
X14920777Y-14461198D01*
X14920777Y-14461198D02*
X14930301Y-14480246D01*
X14930301Y-14480246D02*
X14930301Y-14537388D01*
X14930301Y-14537388D02*
X14920777Y-14556436D01*
X14920777Y-14556436D02*
X14911253Y-14565960D01*
X14911253Y-14565960D02*
X14892206Y-14575484D01*
X14892206Y-14575484D02*
X14863634Y-14575484D01*
X15044587Y-14575484D02*
X15025539Y-14565960D01*
X15025539Y-14565960D02*
X15016015Y-14546912D01*
X15016015Y-14546912D02*
X15016015Y-14375484D01*
X15196968Y-14565960D02*
X15177920Y-14575484D01*
X15177920Y-14575484D02*
X15139825Y-14575484D01*
X15139825Y-14575484D02*
X15120777Y-14565960D01*
X15120777Y-14565960D02*
X15111253Y-14546912D01*
X15111253Y-14546912D02*
X15111253Y-14470722D01*
X15111253Y-14470722D02*
X15120777Y-14451674D01*
X15120777Y-14451674D02*
X15139825Y-14442150D01*
X15139825Y-14442150D02*
X15177920Y-14442150D01*
X15177920Y-14442150D02*
X15196968Y-14451674D01*
X15196968Y-14451674D02*
X15206491Y-14470722D01*
X15206491Y-14470722D02*
X15206491Y-14489769D01*
X15206491Y-14489769D02*
X15111253Y-14508817D01*
X15282682Y-14565960D02*
X15301730Y-14575484D01*
X15301730Y-14575484D02*
X15339825Y-14575484D01*
X15339825Y-14575484D02*
X15358872Y-14565960D01*
X15358872Y-14565960D02*
X15368396Y-14546912D01*
X15368396Y-14546912D02*
X15368396Y-14537388D01*
X15368396Y-14537388D02*
X15358872Y-14518341D01*
X15358872Y-14518341D02*
X15339825Y-14508817D01*
X15339825Y-14508817D02*
X15311253Y-14508817D01*
X15311253Y-14508817D02*
X15292206Y-14499293D01*
X15292206Y-14499293D02*
X15282682Y-14480246D01*
X15282682Y-14480246D02*
X15282682Y-14470722D01*
X15282682Y-14470722D02*
X15292206Y-14451674D01*
X15292206Y-14451674D02*
X15311253Y-14442150D01*
X15311253Y-14442150D02*
X15339825Y-14442150D01*
X15339825Y-14442150D02*
X15358872Y-14451674D01*
X15435063Y-14651674D02*
X15444587Y-14642150D01*
X15444587Y-14642150D02*
X15463634Y-14613579D01*
X15463634Y-14613579D02*
X15473158Y-14594531D01*
X15473158Y-14594531D02*
X15482682Y-14565960D01*
X15482682Y-14565960D02*
X15492206Y-14518341D01*
X15492206Y-14518341D02*
X15492206Y-14480246D01*
X15492206Y-14480246D02*
X15482682Y-14432627D01*
X15482682Y-14432627D02*
X15473158Y-14404055D01*
X15473158Y-14404055D02*
X15463634Y-14385008D01*
X15463634Y-14385008D02*
X15444587Y-14356436D01*
X15444587Y-14356436D02*
X15435063Y-14346912D01*
M02*
