G04 #@! TF.GenerationSoftware,KiCad,Pcbnew,8.0.6*
G04 #@! TF.CreationDate,2025-05-30T23:26:53-07:00*
G04 #@! TF.ProjectId,aroma,61726f6d-612e-46b6-9963-61645f706362,rev?*
G04 #@! TF.SameCoordinates,Original*
G04 #@! TF.FileFunction,Soldermask,Top*
G04 #@! TF.FilePolarity,Negative*
%FSLAX46Y46*%
G04 Gerber Fmt 4.6, Leading zero omitted, Abs format (unit mm)*
G04 Created by KiCad (PCBNEW 8.0.6) date 2025-05-30 23:26:53*
%MOMM*%
%LPD*%
G01*
G04 APERTURE LIST*
G04 Aperture macros list*
%AMRoundRect*
0 Rectangle with rounded corners*
0 $1 Rounding radius*
0 $2 $3 $4 $5 $6 $7 $8 $9 X,Y pos of 4 corners*
0 Add a 4 corners polygon primitive as box body*
4,1,4,$2,$3,$4,$5,$6,$7,$8,$9,$2,$3,0*
0 Add four circle primitives for the rounded corners*
1,1,$1+$1,$2,$3*
1,1,$1+$1,$4,$5*
1,1,$1+$1,$6,$7*
1,1,$1+$1,$8,$9*
0 Add four rect primitives between the rounded corners*
20,1,$1+$1,$2,$3,$4,$5,0*
20,1,$1+$1,$4,$5,$6,$7,0*
20,1,$1+$1,$6,$7,$8,$9,0*
20,1,$1+$1,$8,$9,$2,$3,0*%
G04 Aperture macros list end*
%ADD10C,0.010000*%
%ADD11C,7.000000*%
%ADD12R,0.558800X1.625600*%
%ADD13C,2.154000*%
%ADD14RoundRect,0.102000X-1.100000X-0.700000X1.100000X-0.700000X1.100000X0.700000X-1.100000X0.700000X0*%
%ADD15RoundRect,0.200000X-0.275000X0.200000X-0.275000X-0.200000X0.275000X-0.200000X0.275000X0.200000X0*%
%ADD16RoundRect,0.250001X0.462499X0.624999X-0.462499X0.624999X-0.462499X-0.624999X0.462499X-0.624999X0*%
%ADD17RoundRect,0.237500X0.237500X-0.300000X0.237500X0.300000X-0.237500X0.300000X-0.237500X-0.300000X0*%
%ADD18RoundRect,0.200000X0.275000X-0.200000X0.275000X0.200000X-0.275000X0.200000X-0.275000X-0.200000X0*%
%ADD19RoundRect,0.250000X-0.900000X1.000000X-0.900000X-1.000000X0.900000X-1.000000X0.900000X1.000000X0*%
%ADD20R,1.498600X1.498600*%
%ADD21C,1.498600*%
%ADD22RoundRect,0.150000X-0.512500X-0.150000X0.512500X-0.150000X0.512500X0.150000X-0.512500X0.150000X0*%
%ADD23RoundRect,0.250000X1.000000X0.900000X-1.000000X0.900000X-1.000000X-0.900000X1.000000X-0.900000X0*%
%ADD24R,1.752600X5.511800*%
%ADD25RoundRect,0.200000X0.200000X0.275000X-0.200000X0.275000X-0.200000X-0.275000X0.200000X-0.275000X0*%
%ADD26R,1.500000X0.900000*%
%ADD27R,0.900000X1.500000*%
%ADD28R,0.900000X0.900000*%
%ADD29R,1.625600X0.558800*%
%ADD30RoundRect,0.250000X0.900000X-1.000000X0.900000X1.000000X-0.900000X1.000000X-0.900000X-1.000000X0*%
%ADD31R,0.431800X1.828800*%
%ADD32RoundRect,0.250000X-0.325000X-0.650000X0.325000X-0.650000X0.325000X0.650000X-0.325000X0.650000X0*%
%ADD33RoundRect,0.218750X0.381250X-0.218750X0.381250X0.218750X-0.381250X0.218750X-0.381250X-0.218750X0*%
%ADD34R,2.000000X2.000000*%
%ADD35RoundRect,0.237500X0.300000X0.237500X-0.300000X0.237500X-0.300000X-0.237500X0.300000X-0.237500X0*%
%ADD36RoundRect,0.102000X1.100000X0.700000X-1.100000X0.700000X-1.100000X-0.700000X1.100000X-0.700000X0*%
%ADD37RoundRect,0.237500X-0.237500X0.300000X-0.237500X-0.300000X0.237500X-0.300000X0.237500X0.300000X0*%
%ADD38R,0.500000X1.100000*%
%ADD39RoundRect,0.375000X-0.375000X0.625000X-0.375000X-0.625000X0.375000X-0.625000X0.375000X0.625000X0*%
%ADD40RoundRect,0.500000X-1.400000X0.500000X-1.400000X-0.500000X1.400000X-0.500000X1.400000X0.500000X0*%
%ADD41C,0.650000*%
%ADD42O,2.304000X1.204000*%
%ADD43O,2.004000X1.204000*%
%ADD44RoundRect,0.237500X-0.300000X-0.237500X0.300000X-0.237500X0.300000X0.237500X-0.300000X0.237500X0*%
%ADD45R,0.400000X1.200000*%
%ADD46RoundRect,0.200000X-0.200000X-0.275000X0.200000X-0.275000X0.200000X0.275000X-0.200000X0.275000X0*%
%ADD47C,1.600000*%
%ADD48C,1.750000*%
%ADD49R,1.600000X1.600000*%
%ADD50O,1.600000X1.600000*%
G04 APERTURE END LIST*
D10*
X195970000Y-92950000D02*
X194720000Y-92950000D01*
X194720000Y-92250000D01*
X195970000Y-92250000D01*
X195970000Y-92950000D01*
G36*
X195970000Y-92950000D02*
G01*
X194720000Y-92950000D01*
X194720000Y-92250000D01*
X195970000Y-92250000D01*
X195970000Y-92950000D01*
G37*
X195970000Y-93750000D02*
X194720000Y-93750000D01*
X194720000Y-93050000D01*
X195970000Y-93050000D01*
X195970000Y-93750000D01*
G36*
X195970000Y-93750000D02*
G01*
X194720000Y-93750000D01*
X194720000Y-93050000D01*
X195970000Y-93050000D01*
X195970000Y-93750000D01*
G37*
X195970000Y-94250000D02*
X194720000Y-94250000D01*
X194720000Y-93850000D01*
X195970000Y-93850000D01*
X195970000Y-94250000D01*
G36*
X195970000Y-94250000D02*
G01*
X194720000Y-94250000D01*
X194720000Y-93850000D01*
X195970000Y-93850000D01*
X195970000Y-94250000D01*
G37*
X195970000Y-94750000D02*
X194720000Y-94750000D01*
X194720000Y-94350000D01*
X195970000Y-94350000D01*
X195970000Y-94750000D01*
G36*
X195970000Y-94750000D02*
G01*
X194720000Y-94750000D01*
X194720000Y-94350000D01*
X195970000Y-94350000D01*
X195970000Y-94750000D01*
G37*
X195970000Y-95250000D02*
X194720000Y-95250000D01*
X194720000Y-94850000D01*
X195970000Y-94850000D01*
X195970000Y-95250000D01*
G36*
X195970000Y-95250000D02*
G01*
X194720000Y-95250000D01*
X194720000Y-94850000D01*
X195970000Y-94850000D01*
X195970000Y-95250000D01*
G37*
X195970000Y-95750000D02*
X194720000Y-95750000D01*
X194720000Y-95350000D01*
X195970000Y-95350000D01*
X195970000Y-95750000D01*
G36*
X195970000Y-95750000D02*
G01*
X194720000Y-95750000D01*
X194720000Y-95350000D01*
X195970000Y-95350000D01*
X195970000Y-95750000D01*
G37*
X195970000Y-96250000D02*
X194720000Y-96250000D01*
X194720000Y-95850000D01*
X195970000Y-95850000D01*
X195970000Y-96250000D01*
G36*
X195970000Y-96250000D02*
G01*
X194720000Y-96250000D01*
X194720000Y-95850000D01*
X195970000Y-95850000D01*
X195970000Y-96250000D01*
G37*
X195970000Y-96750000D02*
X194720000Y-96750000D01*
X194720000Y-96350000D01*
X195970000Y-96350000D01*
X195970000Y-96750000D01*
G36*
X195970000Y-96750000D02*
G01*
X194720000Y-96750000D01*
X194720000Y-96350000D01*
X195970000Y-96350000D01*
X195970000Y-96750000D01*
G37*
X195970000Y-97250000D02*
X194720000Y-97250000D01*
X194720000Y-96850000D01*
X195970000Y-96850000D01*
X195970000Y-97250000D01*
G36*
X195970000Y-97250000D02*
G01*
X194720000Y-97250000D01*
X194720000Y-96850000D01*
X195970000Y-96850000D01*
X195970000Y-97250000D01*
G37*
X195970000Y-97750000D02*
X194720000Y-97750000D01*
X194720000Y-97350000D01*
X195970000Y-97350000D01*
X195970000Y-97750000D01*
G36*
X195970000Y-97750000D02*
G01*
X194720000Y-97750000D01*
X194720000Y-97350000D01*
X195970000Y-97350000D01*
X195970000Y-97750000D01*
G37*
X195970000Y-98550000D02*
X194720000Y-98550000D01*
X194720000Y-97850000D01*
X195970000Y-97850000D01*
X195970000Y-98550000D01*
G36*
X195970000Y-98550000D02*
G01*
X194720000Y-98550000D01*
X194720000Y-97850000D01*
X195970000Y-97850000D01*
X195970000Y-98550000D01*
G37*
X195970000Y-99350000D02*
X194720000Y-99350000D01*
X194720000Y-98650000D01*
X195970000Y-98650000D01*
X195970000Y-99350000D01*
G36*
X195970000Y-99350000D02*
G01*
X194720000Y-99350000D01*
X194720000Y-98650000D01*
X195970000Y-98650000D01*
X195970000Y-99350000D01*
G37*
D11*
X197700000Y-83500000D03*
D12*
X166800002Y-110300000D03*
X164900000Y-110300000D03*
X165850001Y-112789200D03*
D13*
X143900000Y-82900000D03*
X138900000Y-82900000D03*
X133900000Y-82900000D03*
D14*
X116300000Y-100600000D03*
D15*
X183700000Y-98000000D03*
X183700000Y-99650000D03*
D13*
X147700000Y-118250000D03*
X152700000Y-118250000D03*
D12*
X157200002Y-110405400D03*
X155300000Y-110405400D03*
X156250001Y-112894600D03*
D16*
X199687500Y-88900000D03*
X196712500Y-88900000D03*
D13*
X158700000Y-118250000D03*
X163700000Y-118250000D03*
D17*
X201450000Y-108887500D03*
X201450000Y-107162500D03*
D14*
X171100000Y-110200000D03*
D18*
X127800000Y-112525000D03*
X127800000Y-110875000D03*
D19*
X131800000Y-108250000D03*
X131800000Y-112550000D03*
D13*
X136700000Y-118250000D03*
X141700000Y-118250000D03*
D20*
X159987499Y-100860599D03*
D21*
X166487500Y-100860599D03*
X159987499Y-105360600D03*
X166487500Y-105360600D03*
D22*
X190962500Y-95350000D03*
X190962500Y-97250000D03*
X193237500Y-96300000D03*
D23*
X127250000Y-106800000D03*
X122950000Y-106800000D03*
D24*
X137775000Y-90400000D03*
X134025000Y-90400000D03*
D25*
X174925000Y-108100000D03*
X173275000Y-108100000D03*
D17*
X185500000Y-95862500D03*
X185500000Y-94137500D03*
D26*
X148855000Y-79640000D03*
X148855000Y-80910000D03*
X148855000Y-82180000D03*
X148855000Y-83450000D03*
X148855000Y-84720000D03*
X148855000Y-85990000D03*
X148855000Y-87260000D03*
X148855000Y-88530000D03*
X148855000Y-89800000D03*
X148855000Y-91070000D03*
X148855000Y-92340000D03*
X148855000Y-93610000D03*
X148855000Y-94880000D03*
X148855000Y-96150000D03*
D27*
X151890000Y-97400000D03*
X153160000Y-97400000D03*
X154430000Y-97400000D03*
X155700000Y-97400000D03*
X156970000Y-97400000D03*
X158240000Y-97400000D03*
X159510000Y-97400000D03*
X160780000Y-97400000D03*
X162050000Y-97400000D03*
X163320000Y-97400000D03*
D26*
X166355000Y-96150000D03*
X166355000Y-94880000D03*
X166355000Y-93610000D03*
X166355000Y-92340000D03*
X166355000Y-91070000D03*
X166355000Y-89800000D03*
X166355000Y-88530000D03*
X166355000Y-87260000D03*
X166355000Y-85990000D03*
X166355000Y-84720000D03*
X166355000Y-83450000D03*
X166355000Y-82180000D03*
X166355000Y-80910000D03*
X166355000Y-79640000D03*
D28*
X156105000Y-87360000D03*
X154705000Y-87360000D03*
X154705000Y-88760000D03*
X156105000Y-88760000D03*
X157505000Y-88760000D03*
X157505000Y-87360000D03*
X157505000Y-85960000D03*
X156105000Y-85960000D03*
X154705000Y-85960000D03*
D14*
X145400000Y-96350000D03*
X171100000Y-108100000D03*
D29*
X125189200Y-112600000D03*
X125189200Y-110699998D03*
X122700000Y-111649999D03*
D30*
X133900000Y-100150000D03*
X133900000Y-95850000D03*
D17*
X186800000Y-91562500D03*
X186800000Y-89837500D03*
D30*
X128400000Y-92850000D03*
X128400000Y-88550000D03*
D18*
X132700000Y-104825000D03*
X132700000Y-103175000D03*
D17*
X142500000Y-99200000D03*
X142500000Y-97475000D03*
D25*
X166825000Y-107750000D03*
X165175000Y-107750000D03*
X147425000Y-107700000D03*
X145775000Y-107700000D03*
D31*
X138000000Y-102345000D03*
X138649998Y-102345000D03*
X139300000Y-102345000D03*
X139949998Y-102345000D03*
X139949998Y-97900000D03*
X139300000Y-97900000D03*
X138649998Y-97900000D03*
X138000000Y-97900000D03*
D32*
X134825000Y-105300000D03*
X137775000Y-105300000D03*
D25*
X137549998Y-107550000D03*
X135899998Y-107550000D03*
D33*
X189600000Y-93225000D03*
X189600000Y-91100000D03*
D13*
X128200000Y-82850000D03*
X123200000Y-82850000D03*
D25*
X174925000Y-110200000D03*
X173275000Y-110200000D03*
X141425000Y-105300000D03*
X139775000Y-105300000D03*
D17*
X143750000Y-89362500D03*
X143750000Y-87637500D03*
D19*
X141600000Y-108450000D03*
X141600000Y-112750000D03*
D11*
X111700000Y-117500000D03*
D14*
X116300000Y-105700000D03*
D18*
X192225000Y-89250000D03*
X192225000Y-87600000D03*
D20*
X148174999Y-100810599D03*
D21*
X154675000Y-100810599D03*
X148174999Y-105310600D03*
X154675000Y-105310600D03*
D12*
X147500000Y-110400000D03*
X145599998Y-110400000D03*
X146549999Y-112889200D03*
D34*
X141300000Y-92000000D03*
D19*
X161000000Y-108400000D03*
X161000000Y-112700000D03*
D25*
X157125000Y-107850000D03*
X155475000Y-107850000D03*
D35*
X192900000Y-99400000D03*
X191175000Y-99400000D03*
D15*
X130500000Y-103200000D03*
X130500000Y-104850000D03*
D17*
X145750000Y-89362500D03*
X145750000Y-87637500D03*
D36*
X130000000Y-100500000D03*
D37*
X201450000Y-103275000D03*
X201450000Y-105000000D03*
D38*
X191825000Y-93325000D03*
X191825000Y-91025000D03*
D39*
X199000000Y-103100000D03*
X196700000Y-103100000D03*
D40*
X196700000Y-109400000D03*
D39*
X194400000Y-103100000D03*
D14*
X116300000Y-103100000D03*
D18*
X188500000Y-89225000D03*
X188500000Y-87575000D03*
D12*
X122200000Y-90989200D03*
X124100002Y-90989200D03*
X123150001Y-88500000D03*
D41*
X196420000Y-98690000D03*
X196420000Y-92910000D03*
D42*
X195920000Y-100120000D03*
X195920000Y-91480000D03*
D43*
X200100000Y-100120000D03*
X200100000Y-91480000D03*
D18*
X127500000Y-102650000D03*
X127500000Y-101000000D03*
D13*
X111000000Y-103500000D03*
X111000000Y-108500000D03*
D18*
X190475000Y-89250000D03*
X190475000Y-87600000D03*
D17*
X184800000Y-91562500D03*
X184800000Y-89837500D03*
D11*
X111700000Y-83500000D03*
D44*
X137437500Y-95000000D03*
X139162500Y-95000000D03*
D45*
X180942500Y-107700000D03*
X181577500Y-107700000D03*
X182212500Y-107700000D03*
X182847500Y-107700000D03*
X183482500Y-107700000D03*
X184117500Y-107700000D03*
X184752500Y-107700000D03*
X185387500Y-107700000D03*
X186022500Y-107700000D03*
X186657500Y-107700000D03*
X186657500Y-102500000D03*
X186022500Y-102500000D03*
X185387500Y-102500000D03*
X184752500Y-102500000D03*
X184117500Y-102500000D03*
X183482500Y-102500000D03*
X182847500Y-102500000D03*
X182212500Y-102500000D03*
X181577500Y-102500000D03*
X180942500Y-102500000D03*
D12*
X137700002Y-110250000D03*
X135800000Y-110250000D03*
X136750001Y-112739200D03*
D14*
X141200000Y-88000000D03*
D34*
X144400000Y-92000000D03*
D13*
X125700000Y-118250000D03*
X130700000Y-118250000D03*
D17*
X183600000Y-95862500D03*
X183600000Y-94137500D03*
D18*
X142500000Y-102562500D03*
X142500000Y-100912500D03*
D14*
X198500000Y-112200000D03*
D11*
X197700000Y-117500000D03*
D19*
X151500000Y-108400000D03*
X151500000Y-112700000D03*
D23*
X127050000Y-96900000D03*
X122750000Y-96900000D03*
D46*
X122350000Y-93500000D03*
X124000000Y-93500000D03*
D17*
X189600000Y-105762500D03*
X189600000Y-104037500D03*
D44*
X141237500Y-95100000D03*
X142962500Y-95100000D03*
D15*
X185500000Y-98000000D03*
X185500000Y-99650000D03*
D29*
X124944600Y-102850001D03*
X124944600Y-100949999D03*
X122455400Y-101900000D03*
D13*
X111000000Y-92500000D03*
X111000000Y-97500000D03*
D47*
X187600000Y-96400000D03*
X181600000Y-90400000D03*
D48*
X118965000Y-113305000D03*
X118965000Y-110765000D03*
X118965000Y-108225000D03*
X118965000Y-105685000D03*
X118965000Y-103145000D03*
X118965000Y-100605000D03*
X118965000Y-98065000D03*
X118965000Y-95525000D03*
X118965000Y-92985000D03*
X118965000Y-90445000D03*
X118965000Y-87905000D03*
D49*
X176875000Y-110200000D03*
D50*
X179415000Y-110200000D03*
X181955000Y-110200000D03*
X184495000Y-110200000D03*
X187035000Y-110200000D03*
X189575000Y-110200000D03*
X192115000Y-110200000D03*
X192115000Y-117820000D03*
X189575000Y-117820000D03*
X187035000Y-117820000D03*
X184495000Y-117820000D03*
X181955000Y-117820000D03*
X179415000Y-117820000D03*
X176875000Y-117820000D03*
M02*
