G04 #@! TF.GenerationSoftware,KiCad,Pcbnew,8.0.6*
G04 #@! TF.CreationDate,2025-05-30T23:18:13-07:00*
G04 #@! TF.ProjectId,aroma,61726f6d-612e-46b6-9963-61645f706362,rev?*
G04 #@! TF.SameCoordinates,Original*
G04 #@! TF.FileFunction,Paste,Bot*
G04 #@! TF.FilePolarity,Positive*
%FSLAX46Y46*%
G04 Gerber Fmt 4.6, Leading zero omitted, Abs format (unit mm)*
G04 Created by KiCad (PCBNEW 8.0.6) date 2025-05-30 23:18:13*
%MOMM*%
%LPD*%
G01*
G04 APERTURE LIST*
G04 Aperture macros list*
%AMRoundRect*
0 Rectangle with rounded corners*
0 $1 Rounding radius*
0 $2 $3 $4 $5 $6 $7 $8 $9 X,Y pos of 4 corners*
0 Add a 4 corners polygon primitive as box body*
4,1,4,$2,$3,$4,$5,$6,$7,$8,$9,$2,$3,0*
0 Add four circle primitives for the rounded corners*
1,1,$1+$1,$2,$3*
1,1,$1+$1,$4,$5*
1,1,$1+$1,$6,$7*
1,1,$1+$1,$8,$9*
0 Add four rect primitives between the rounded corners*
20,1,$1+$1,$2,$3,$4,$5,0*
20,1,$1+$1,$4,$5,$6,$7,0*
20,1,$1+$1,$6,$7,$8,$9,0*
20,1,$1+$1,$8,$9,$2,$3,0*%
G04 Aperture macros list end*
%ADD10RoundRect,0.237500X0.300000X0.237500X-0.300000X0.237500X-0.300000X-0.237500X0.300000X-0.237500X0*%
%ADD11RoundRect,0.200000X0.275000X-0.200000X0.275000X0.200000X-0.275000X0.200000X-0.275000X-0.200000X0*%
%ADD12RoundRect,0.237500X-0.237500X0.300000X-0.237500X-0.300000X0.237500X-0.300000X0.237500X0.300000X0*%
%ADD13RoundRect,0.237500X-0.300000X-0.237500X0.300000X-0.237500X0.300000X0.237500X-0.300000X0.237500X0*%
%ADD14R,2.000000X1.900000*%
%ADD15RoundRect,0.150000X0.587500X0.150000X-0.587500X0.150000X-0.587500X-0.150000X0.587500X-0.150000X0*%
%ADD16RoundRect,0.200000X0.200000X0.275000X-0.200000X0.275000X-0.200000X-0.275000X0.200000X-0.275000X0*%
%ADD17RoundRect,0.200000X-0.275000X0.200000X-0.275000X-0.200000X0.275000X-0.200000X0.275000X0.200000X0*%
%ADD18RoundRect,0.237500X0.237500X-0.300000X0.237500X0.300000X-0.237500X0.300000X-0.237500X-0.300000X0*%
%ADD19RoundRect,0.150000X-0.587500X-0.150000X0.587500X-0.150000X0.587500X0.150000X-0.587500X0.150000X0*%
%ADD20RoundRect,0.200000X-0.200000X-0.275000X0.200000X-0.275000X0.200000X0.275000X-0.200000X0.275000X0*%
G04 APERTURE END LIST*
D10*
X152187500Y-105250000D03*
X150462500Y-105250000D03*
D11*
X168700000Y-105925000D03*
X168700000Y-104275000D03*
D12*
X185000000Y-105950000D03*
X185000000Y-107675000D03*
D11*
X185000000Y-103925000D03*
X185000000Y-102275000D03*
X192200000Y-103850000D03*
X192200000Y-102200000D03*
D13*
X162375000Y-105100000D03*
X164100000Y-105100000D03*
D12*
X192200000Y-105937500D03*
X192200000Y-107662500D03*
D11*
X188650000Y-103850000D03*
X188650000Y-102200000D03*
X177150000Y-103925000D03*
X177150000Y-102275000D03*
D12*
X177150000Y-105937500D03*
X177150000Y-107662500D03*
D14*
X192100000Y-89400000D03*
X192100000Y-93400000D03*
X192100000Y-97400000D03*
X177100000Y-89400000D03*
X177100000Y-93400000D03*
X177100000Y-97400000D03*
D15*
X152400000Y-101200000D03*
X152400000Y-103100000D03*
X150525000Y-102150000D03*
D16*
X158125000Y-101700000D03*
X156475000Y-101700000D03*
D12*
X188650000Y-105912500D03*
X188650000Y-107637500D03*
D17*
X181100000Y-82900000D03*
X181100000Y-84550000D03*
X188100000Y-82925000D03*
X188100000Y-84575000D03*
D18*
X168700000Y-102462500D03*
X168700000Y-100737500D03*
D11*
X181100000Y-103925000D03*
X181100000Y-102275000D03*
D17*
X184700000Y-82900000D03*
X184700000Y-84550000D03*
D12*
X181100000Y-105937500D03*
X181100000Y-107662500D03*
D17*
X177100000Y-82925000D03*
X177100000Y-84575000D03*
D19*
X162362500Y-103050000D03*
X162362500Y-101150000D03*
X164237500Y-102100000D03*
D20*
X156475000Y-104700000D03*
X158125000Y-104700000D03*
D17*
X192000000Y-82900000D03*
X192000000Y-84550000D03*
M02*
