M48
; DRILL file {KiCad 8.0.6} date 2025-05-30T23:18:23-0700
; FORMAT={-:-/ absolute / metric / decimal}
; #@! TF.CreationDate,2025-05-30T23:18:23-07:00
; #@! TF.GenerationSoftware,Kicad,Pcbnew,8.0.6
; #@! TF.FileFunction,Plated,1,4,PTH
FMAT,2
METRIC
; #@! TA.AperFunction,Plated,PTH,ViaDrill
T1C0.300
; #@! TA.AperFunction,Plated,PTH,ComponentDrill
T2C0.600
; #@! TA.AperFunction,Plated,PTH,ComponentDrill
T3C0.800
; #@! TA.AperFunction,Plated,PTH,ComponentDrill
T4C0.991
; #@! TA.AperFunction,Plated,PTH,ComponentDrill
T5C1.000
; #@! TA.AperFunction,Plated,PTH,ComponentDrill
T6C1.300
; #@! TA.AperFunction,Plated,PTH,ComponentDrill
T7C3.500
%
G90
G05
T1
X123.65Y-92.25
X125.0Y-94.2
X125.1Y-109.5
X125.4Y-91.55
X125.4Y-92.65
X125.8Y-109.5
X126.4Y-100.3
X126.4Y-100.9
X126.4Y-101.5
X126.5Y-109.5
X127.8Y-109.8
X128.4Y-102.7
X129.075Y-84.75
X129.075Y-86.05
X129.1Y-97.1
X129.1Y-97.8
X129.176Y-83.956
X129.4Y-106.1
X129.417Y-86.809
X129.8Y-97.1
X129.8Y-97.8
X130.1Y-104.1
X130.1Y-106.1
X130.6Y-97.1
X130.6Y-97.8
X130.9Y-106.1
X131.0Y-104.1
X131.3Y-97.1
X131.3Y-97.8
X131.7Y-106.1
X132.5Y-106.1
X133.3Y-106.1
X135.45Y-108.6
X136.3Y-108.6
X136.35Y-88.1
X136.35Y-89.2
X136.35Y-90.35
X136.35Y-91.4
X136.35Y-92.65
X136.65Y-104.9
X136.65Y-105.7
X138.65Y-95.8
X138.65Y-96.45
X138.65Y-99.45
X139.25Y-99.45
X139.4Y-107.5
X139.4Y-108.3
X139.4Y-109.2
X139.8Y-96.35
X140.016Y-103.3
X140.3Y-101.85
X140.55Y-96.35
X141.2Y-88.0
X141.2Y-102.7
X141.35Y-96.35
X142.45Y-105.35
X142.5Y-96.3
X142.8Y-94.0
X143.25Y-96.3
X143.5Y-107.5
X143.5Y-108.3
X143.5Y-109.2
X144.0Y-104.25
X144.75Y-87.35
X144.75Y-88.05
X144.75Y-89.05
X144.75Y-89.75
X145.15Y-108.9
X145.4Y-96.35
X145.8Y-85.35
X146.0Y-108.9
X146.4Y-84.75
X146.5Y-83.9
X146.5Y-86.05
X147.1Y-79.8
X147.1Y-80.6
X147.1Y-81.4
X147.205Y-92.3
X148.8Y-79.7
X148.855Y-80.91
X148.855Y-83.45
X150.105Y-79.8
X150.4Y-110.2
X150.7Y-86.3
X150.7Y-86.3
X150.9Y-94.5
X150.962Y-80.638
X151.1Y-85.5
X151.1Y-85.5
X151.153Y-84.702
X151.5Y-110.2
X151.688Y-92.285
X151.8Y-80.91
X151.84Y-95.1
X152.2Y-92.9
X152.25Y-105.25
X152.5Y-110.2
X152.6Y-85.3
X153.8Y-93.8
X154.7Y-84.9
X154.95Y-108.95
X155.5Y-84.9
X155.65Y-108.95
X156.3Y-84.9
X157.05Y-84.9
X157.6Y-102.8
X159.9Y-110.2
X161.0Y-110.2
X162.2Y-110.2
X162.4Y-105.1
X164.55Y-108.8
X164.729Y-95.48
X164.8Y-90.3
X164.875Y-91.176
X165.35Y-108.8
X166.4Y-79.7
X166.5Y-102.7
X168.4Y-106.3
X168.9Y-90.3
X168.9Y-91.2
X169.5Y-95.117
X169.62Y-94.157
X170.2Y-93.6
X170.8Y-99.8
X171.6Y-99.8
X173.2Y-105.6
X173.6Y-104.907
X174.2Y-104.2
X174.7Y-103.575
X175.108Y-102.887
X176.1Y-102.1
X176.1Y-103.0
X177.078Y-97.478
X177.1Y-82.925
X177.1Y-84.575
X177.15Y-102.275
X177.2Y-89.5
X177.2Y-93.5
X178.35Y-108.0
X179.6Y-106.8
X179.6Y-107.7
X180.362Y-101.537
X180.8Y-109.25
X181.1Y-82.9
X181.1Y-84.55
X181.8Y-97.4
X183.2Y-103.8
X184.15Y-108.85
X184.4Y-101.35
X184.55Y-93.7
X184.55Y-94.55
X184.65Y-96.95
X184.7Y-82.9
X184.7Y-84.5
X185.8Y-89.5
X185.8Y-90.2
X187.25Y-86.45
X188.1Y-82.925
X188.15Y-90.65
X188.15Y-91.45
X188.15Y-92.25
X188.6Y-108.9
X188.65Y-102.2
X189.2Y-97.25
X189.5Y-87.3
X189.5Y-88.05
X190.1Y-102.55
X190.6Y-104.05
X190.95Y-102.55
X191.3Y-90.7
X191.3Y-91.35
X192.0Y-82.9
X192.125Y-97.85
X192.2Y-102.2
X192.276Y-90.926
X192.7Y-95.9
X193.7Y-104.7
X193.72Y-92.0
X193.8Y-95.05
X193.938Y-96.277
X194.2Y-108.8
X194.2Y-109.5
X194.2Y-110.2
X194.35Y-104.7
X194.5Y-90.0
X195.0Y-104.65
X195.345Y-92.6
X195.345Y-99.0
X196.1Y-104.65
X196.6Y-95.05
X196.68Y-93.746
X196.7Y-104.65
X196.8Y-97.05
X197.3Y-104.65
X198.2Y-94.5
X198.55Y-104.75
X199.2Y-108.8
X199.2Y-109.5
X199.2Y-110.2
X199.35Y-104.75
X201.05Y-88.35
X201.05Y-89.4
X201.05Y-102.2
X201.05Y-106.05
X201.75Y-102.2
X201.75Y-106.05
T3
X176.875Y-110.2
X176.875Y-117.82
X179.415Y-110.2
X179.415Y-117.82
X181.955Y-110.2
X181.955Y-117.82
X184.495Y-110.2
X184.495Y-117.82
X187.035Y-110.2
X187.035Y-117.82
X189.575Y-110.2
X189.575Y-117.82
X192.115Y-110.2
X192.115Y-117.82
T4
X148.175Y-100.811
X148.175Y-105.311
X154.675Y-100.811
X154.675Y-105.311
X159.987Y-100.861
X159.987Y-105.361
X166.487Y-100.861
X166.487Y-105.361
T5
X118.965Y-87.905
X118.965Y-90.445
X118.965Y-92.985
X118.965Y-95.525
X118.965Y-98.065
X118.965Y-100.605
X118.965Y-103.145
X118.965Y-105.685
X118.965Y-108.225
X118.965Y-110.765
X118.965Y-113.305
X141.3Y-92.0
X144.4Y-92.0
T6
X111.0Y-92.5
X111.0Y-97.5
X111.0Y-103.5
X111.0Y-108.5
X123.2Y-82.85
X125.7Y-118.25
X128.2Y-82.85
X130.7Y-118.25
X133.9Y-82.9
X136.7Y-118.25
X138.9Y-82.9
X141.7Y-118.25
X143.9Y-82.9
X147.7Y-118.25
X152.7Y-118.25
X158.7Y-118.25
X163.7Y-118.25
T7
X111.7Y-83.5
X111.7Y-117.5
X197.7Y-83.5
X197.7Y-117.5
T2
X195.37Y-91.48G85X196.47Y-91.48
G05
X195.37Y-100.12G85X196.47Y-100.12
G05
X199.7Y-91.48G85X200.5Y-91.48
G05
X199.7Y-100.12G85X200.5Y-100.12
G05
M30
