G04 #@! TF.GenerationSoftware,KiCad,Pcbnew,8.0.6*
G04 #@! TF.CreationDate,2025-05-30T23:18:13-07:00*
G04 #@! TF.ProjectId,aroma,61726f6d-612e-46b6-9963-61645f706362,rev?*
G04 #@! TF.SameCoordinates,Original*
G04 #@! TF.FileFunction,Copper,L1,Top*
G04 #@! TF.FilePolarity,Positive*
%FSLAX46Y46*%
G04 Gerber Fmt 4.6, Leading zero omitted, Abs format (unit mm)*
G04 Created by KiCad (PCBNEW 8.0.6) date 2025-05-30 23:18:13*
%MOMM*%
%LPD*%
G01*
G04 APERTURE LIST*
G04 Aperture macros list*
%AMRoundRect*
0 Rectangle with rounded corners*
0 $1 Rounding radius*
0 $2 $3 $4 $5 $6 $7 $8 $9 X,Y pos of 4 corners*
0 Add a 4 corners polygon primitive as box body*
4,1,4,$2,$3,$4,$5,$6,$7,$8,$9,$2,$3,0*
0 Add four circle primitives for the rounded corners*
1,1,$1+$1,$2,$3*
1,1,$1+$1,$4,$5*
1,1,$1+$1,$6,$7*
1,1,$1+$1,$8,$9*
0 Add four rect primitives between the rounded corners*
20,1,$1+$1,$2,$3,$4,$5,0*
20,1,$1+$1,$4,$5,$6,$7,0*
20,1,$1+$1,$6,$7,$8,$9,0*
20,1,$1+$1,$8,$9,$2,$3,0*%
G04 Aperture macros list end*
G04 #@! TA.AperFunction,ComponentPad*
%ADD10C,7.000000*%
G04 #@! TD*
G04 #@! TA.AperFunction,SMDPad,CuDef*
%ADD11R,0.558800X1.625600*%
G04 #@! TD*
G04 #@! TA.AperFunction,ComponentPad*
%ADD12C,1.950000*%
G04 #@! TD*
G04 #@! TA.AperFunction,SMDPad,CuDef*
%ADD13R,2.200000X1.400000*%
G04 #@! TD*
G04 #@! TA.AperFunction,SMDPad,CuDef*
%ADD14RoundRect,0.200000X-0.275000X0.200000X-0.275000X-0.200000X0.275000X-0.200000X0.275000X0.200000X0*%
G04 #@! TD*
G04 #@! TA.AperFunction,SMDPad,CuDef*
%ADD15RoundRect,0.250001X0.462499X0.624999X-0.462499X0.624999X-0.462499X-0.624999X0.462499X-0.624999X0*%
G04 #@! TD*
G04 #@! TA.AperFunction,SMDPad,CuDef*
%ADD16RoundRect,0.237500X0.237500X-0.300000X0.237500X0.300000X-0.237500X0.300000X-0.237500X-0.300000X0*%
G04 #@! TD*
G04 #@! TA.AperFunction,SMDPad,CuDef*
%ADD17RoundRect,0.200000X0.275000X-0.200000X0.275000X0.200000X-0.275000X0.200000X-0.275000X-0.200000X0*%
G04 #@! TD*
G04 #@! TA.AperFunction,SMDPad,CuDef*
%ADD18RoundRect,0.250000X-0.900000X1.000000X-0.900000X-1.000000X0.900000X-1.000000X0.900000X1.000000X0*%
G04 #@! TD*
G04 #@! TA.AperFunction,ComponentPad*
%ADD19R,1.498600X1.498600*%
G04 #@! TD*
G04 #@! TA.AperFunction,ComponentPad*
%ADD20C,1.498600*%
G04 #@! TD*
G04 #@! TA.AperFunction,SMDPad,CuDef*
%ADD21RoundRect,0.150000X-0.512500X-0.150000X0.512500X-0.150000X0.512500X0.150000X-0.512500X0.150000X0*%
G04 #@! TD*
G04 #@! TA.AperFunction,SMDPad,CuDef*
%ADD22RoundRect,0.250000X1.000000X0.900000X-1.000000X0.900000X-1.000000X-0.900000X1.000000X-0.900000X0*%
G04 #@! TD*
G04 #@! TA.AperFunction,SMDPad,CuDef*
%ADD23R,1.752600X5.511800*%
G04 #@! TD*
G04 #@! TA.AperFunction,SMDPad,CuDef*
%ADD24RoundRect,0.200000X0.200000X0.275000X-0.200000X0.275000X-0.200000X-0.275000X0.200000X-0.275000X0*%
G04 #@! TD*
G04 #@! TA.AperFunction,SMDPad,CuDef*
%ADD25R,1.500000X0.900000*%
G04 #@! TD*
G04 #@! TA.AperFunction,SMDPad,CuDef*
%ADD26R,0.900000X1.500000*%
G04 #@! TD*
G04 #@! TA.AperFunction,SMDPad,CuDef*
%ADD27R,0.900000X0.900000*%
G04 #@! TD*
G04 #@! TA.AperFunction,SMDPad,CuDef*
%ADD28R,1.625600X0.558800*%
G04 #@! TD*
G04 #@! TA.AperFunction,SMDPad,CuDef*
%ADD29RoundRect,0.250000X0.900000X-1.000000X0.900000X1.000000X-0.900000X1.000000X-0.900000X-1.000000X0*%
G04 #@! TD*
G04 #@! TA.AperFunction,SMDPad,CuDef*
%ADD30R,0.431800X1.828800*%
G04 #@! TD*
G04 #@! TA.AperFunction,SMDPad,CuDef*
%ADD31RoundRect,0.250000X-0.325000X-0.650000X0.325000X-0.650000X0.325000X0.650000X-0.325000X0.650000X0*%
G04 #@! TD*
G04 #@! TA.AperFunction,SMDPad,CuDef*
%ADD32RoundRect,0.218750X0.381250X-0.218750X0.381250X0.218750X-0.381250X0.218750X-0.381250X-0.218750X0*%
G04 #@! TD*
G04 #@! TA.AperFunction,ComponentPad*
%ADD33R,2.000000X2.000000*%
G04 #@! TD*
G04 #@! TA.AperFunction,SMDPad,CuDef*
%ADD34RoundRect,0.237500X0.300000X0.237500X-0.300000X0.237500X-0.300000X-0.237500X0.300000X-0.237500X0*%
G04 #@! TD*
G04 #@! TA.AperFunction,SMDPad,CuDef*
%ADD35RoundRect,0.237500X-0.237500X0.300000X-0.237500X-0.300000X0.237500X-0.300000X0.237500X0.300000X0*%
G04 #@! TD*
G04 #@! TA.AperFunction,SMDPad,CuDef*
%ADD36R,0.500000X1.100000*%
G04 #@! TD*
G04 #@! TA.AperFunction,SMDPad,CuDef*
%ADD37RoundRect,0.375000X-0.375000X0.625000X-0.375000X-0.625000X0.375000X-0.625000X0.375000X0.625000X0*%
G04 #@! TD*
G04 #@! TA.AperFunction,SMDPad,CuDef*
%ADD38RoundRect,0.500000X-1.400000X0.500000X-1.400000X-0.500000X1.400000X-0.500000X1.400000X0.500000X0*%
G04 #@! TD*
G04 #@! TA.AperFunction,SMDPad,CuDef*
%ADD39R,1.150000X0.600000*%
G04 #@! TD*
G04 #@! TA.AperFunction,SMDPad,CuDef*
%ADD40R,1.150000X0.300000*%
G04 #@! TD*
G04 #@! TA.AperFunction,ComponentPad*
%ADD41O,2.100000X1.000000*%
G04 #@! TD*
G04 #@! TA.AperFunction,ComponentPad*
%ADD42O,1.800000X1.000000*%
G04 #@! TD*
G04 #@! TA.AperFunction,SMDPad,CuDef*
%ADD43RoundRect,0.237500X-0.300000X-0.237500X0.300000X-0.237500X0.300000X0.237500X-0.300000X0.237500X0*%
G04 #@! TD*
G04 #@! TA.AperFunction,SMDPad,CuDef*
%ADD44R,0.400000X1.200000*%
G04 #@! TD*
G04 #@! TA.AperFunction,SMDPad,CuDef*
%ADD45RoundRect,0.200000X-0.200000X-0.275000X0.200000X-0.275000X0.200000X0.275000X-0.200000X0.275000X0*%
G04 #@! TD*
G04 #@! TA.AperFunction,ComponentPad*
%ADD46C,1.750000*%
G04 #@! TD*
G04 #@! TA.AperFunction,ComponentPad*
%ADD47R,1.600000X1.600000*%
G04 #@! TD*
G04 #@! TA.AperFunction,ComponentPad*
%ADD48O,1.600000X1.600000*%
G04 #@! TD*
G04 #@! TA.AperFunction,ViaPad*
%ADD49C,0.600000*%
G04 #@! TD*
G04 #@! TA.AperFunction,Conductor*
%ADD50C,0.200000*%
G04 #@! TD*
G04 #@! TA.AperFunction,Conductor*
%ADD51C,0.350000*%
G04 #@! TD*
G04 APERTURE END LIST*
D10*
X197700000Y-83500000D03*
D11*
X166800002Y-110300000D03*
X164900000Y-110300000D03*
X165850001Y-112789200D03*
D12*
X143900000Y-82900000D03*
X138900000Y-82900000D03*
X133900000Y-82900000D03*
D13*
X116300000Y-100600000D03*
D14*
X183700000Y-98000000D03*
X183700000Y-99650000D03*
D12*
X147700000Y-118250000D03*
X152700000Y-118250000D03*
D11*
X157200002Y-110405400D03*
X155300000Y-110405400D03*
X156250001Y-112894600D03*
D15*
X199687500Y-88900000D03*
X196712500Y-88900000D03*
D12*
X158700000Y-118250000D03*
X163700000Y-118250000D03*
D16*
X201450000Y-108887500D03*
X201450000Y-107162500D03*
D13*
X171100000Y-110200000D03*
D17*
X127800000Y-112525000D03*
X127800000Y-110875000D03*
D18*
X131800000Y-108250000D03*
X131800000Y-112550000D03*
D12*
X136700000Y-118250000D03*
X141700000Y-118250000D03*
D19*
X159987499Y-100860599D03*
D20*
X166487500Y-100860599D03*
X159987499Y-105360600D03*
X166487500Y-105360600D03*
D21*
X190962500Y-95350000D03*
X190962500Y-97250000D03*
X193237500Y-96300000D03*
D22*
X127250000Y-106800000D03*
X122950000Y-106800000D03*
D23*
X137775000Y-90400000D03*
X134025000Y-90400000D03*
D24*
X174925000Y-108100000D03*
X173275000Y-108100000D03*
D16*
X185500000Y-95862500D03*
X185500000Y-94137500D03*
D25*
X148855000Y-79640000D03*
X148855000Y-80910000D03*
X148855000Y-82180000D03*
X148855000Y-83450000D03*
X148855000Y-84720000D03*
X148855000Y-85990000D03*
X148855000Y-87260000D03*
X148855000Y-88530000D03*
X148855000Y-89800000D03*
X148855000Y-91070000D03*
X148855000Y-92340000D03*
X148855000Y-93610000D03*
X148855000Y-94880000D03*
X148855000Y-96150000D03*
D26*
X151890000Y-97400000D03*
X153160000Y-97400000D03*
X154430000Y-97400000D03*
X155700000Y-97400000D03*
X156970000Y-97400000D03*
X158240000Y-97400000D03*
X159510000Y-97400000D03*
X160780000Y-97400000D03*
X162050000Y-97400000D03*
X163320000Y-97400000D03*
D25*
X166355000Y-96150000D03*
X166355000Y-94880000D03*
X166355000Y-93610000D03*
X166355000Y-92340000D03*
X166355000Y-91070000D03*
X166355000Y-89800000D03*
X166355000Y-88530000D03*
X166355000Y-87260000D03*
X166355000Y-85990000D03*
X166355000Y-84720000D03*
X166355000Y-83450000D03*
X166355000Y-82180000D03*
X166355000Y-80910000D03*
X166355000Y-79640000D03*
D27*
X156105000Y-87360000D03*
X154705000Y-87360000D03*
X154705000Y-88760000D03*
X156105000Y-88760000D03*
X157505000Y-88760000D03*
X157505000Y-87360000D03*
X157505000Y-85960000D03*
X156105000Y-85960000D03*
X154705000Y-85960000D03*
D13*
X145400000Y-96350000D03*
X171100000Y-108100000D03*
D28*
X125189200Y-112600000D03*
X125189200Y-110699998D03*
X122700000Y-111649999D03*
D29*
X133900000Y-100150000D03*
X133900000Y-95850000D03*
D16*
X186800000Y-91562500D03*
X186800000Y-89837500D03*
D29*
X128400000Y-92850000D03*
X128400000Y-88550000D03*
D17*
X132700000Y-104825000D03*
X132700000Y-103175000D03*
D16*
X142500000Y-99200000D03*
X142500000Y-97475000D03*
D24*
X166825000Y-107750000D03*
X165175000Y-107750000D03*
X147425000Y-107700000D03*
X145775000Y-107700000D03*
D30*
X138000000Y-102345000D03*
X138649998Y-102345000D03*
X139300000Y-102345000D03*
X139949998Y-102345000D03*
X139949998Y-97900000D03*
X139300000Y-97900000D03*
X138649998Y-97900000D03*
X138000000Y-97900000D03*
D31*
X134825000Y-105300000D03*
X137775000Y-105300000D03*
D24*
X137549998Y-107550000D03*
X135899998Y-107550000D03*
D32*
X189600000Y-93225000D03*
X189600000Y-91100000D03*
D12*
X128200000Y-82850000D03*
X123200000Y-82850000D03*
D24*
X174925000Y-110200000D03*
X173275000Y-110200000D03*
X141425000Y-105300000D03*
X139775000Y-105300000D03*
D16*
X143750000Y-89362500D03*
X143750000Y-87637500D03*
D18*
X141600000Y-108450000D03*
X141600000Y-112750000D03*
D10*
X111700000Y-117500000D03*
D13*
X116300000Y-105700000D03*
D17*
X192225000Y-89250000D03*
X192225000Y-87600000D03*
D19*
X148174999Y-100810599D03*
D20*
X154675000Y-100810599D03*
X148174999Y-105310600D03*
X154675000Y-105310600D03*
D11*
X147500000Y-110400000D03*
X145599998Y-110400000D03*
X146549999Y-112889200D03*
D33*
X141300000Y-92000000D03*
D18*
X161000000Y-108400000D03*
X161000000Y-112700000D03*
D24*
X157125000Y-107850000D03*
X155475000Y-107850000D03*
D34*
X192900000Y-99400000D03*
X191175000Y-99400000D03*
D14*
X130500000Y-103200000D03*
X130500000Y-104850000D03*
D16*
X145750000Y-89362500D03*
X145750000Y-87637500D03*
D13*
X130000000Y-100500000D03*
D35*
X201450000Y-103275000D03*
X201450000Y-105000000D03*
D36*
X191825000Y-93325000D03*
X191825000Y-91025000D03*
D37*
X199000000Y-103100000D03*
X196700000Y-103100000D03*
D38*
X196700000Y-109400000D03*
D37*
X194400000Y-103100000D03*
D13*
X116300000Y-103100000D03*
D17*
X188500000Y-89225000D03*
X188500000Y-87575000D03*
D11*
X122200000Y-90989200D03*
X124100002Y-90989200D03*
X123150001Y-88500000D03*
D39*
X195345000Y-99000000D03*
X195345000Y-98200000D03*
D40*
X195345000Y-97050000D03*
X195345000Y-96050000D03*
X195345000Y-95550000D03*
X195345000Y-94550000D03*
D39*
X195345000Y-92600000D03*
X195345000Y-93400000D03*
D40*
X195345000Y-94050000D03*
X195345000Y-95050000D03*
X195345000Y-96550000D03*
X195345000Y-97550000D03*
D41*
X195920000Y-100120000D03*
X195920000Y-91480000D03*
D42*
X200100000Y-100120000D03*
X200100000Y-91480000D03*
D17*
X127500000Y-102650000D03*
X127500000Y-101000000D03*
D12*
X111000000Y-103500000D03*
X111000000Y-108500000D03*
D17*
X190475000Y-89250000D03*
X190475000Y-87600000D03*
D16*
X184800000Y-91562500D03*
X184800000Y-89837500D03*
D10*
X111700000Y-83500000D03*
D43*
X137437500Y-95000000D03*
X139162500Y-95000000D03*
D44*
X180942500Y-107700000D03*
X181577500Y-107700000D03*
X182212500Y-107700000D03*
X182847500Y-107700000D03*
X183482500Y-107700000D03*
X184117500Y-107700000D03*
X184752500Y-107700000D03*
X185387500Y-107700000D03*
X186022500Y-107700000D03*
X186657500Y-107700000D03*
X186657500Y-102500000D03*
X186022500Y-102500000D03*
X185387500Y-102500000D03*
X184752500Y-102500000D03*
X184117500Y-102500000D03*
X183482500Y-102500000D03*
X182847500Y-102500000D03*
X182212500Y-102500000D03*
X181577500Y-102500000D03*
X180942500Y-102500000D03*
D11*
X137700002Y-110250000D03*
X135800000Y-110250000D03*
X136750001Y-112739200D03*
D13*
X141200000Y-88000000D03*
D33*
X144400000Y-92000000D03*
D12*
X125700000Y-118250000D03*
X130700000Y-118250000D03*
D16*
X183600000Y-95862500D03*
X183600000Y-94137500D03*
D17*
X142500000Y-102562500D03*
X142500000Y-100912500D03*
D13*
X198500000Y-112200000D03*
D10*
X197700000Y-117500000D03*
D18*
X151500000Y-108400000D03*
X151500000Y-112700000D03*
D22*
X127050000Y-96900000D03*
X122750000Y-96900000D03*
D45*
X122350000Y-93500000D03*
X124000000Y-93500000D03*
D16*
X189600000Y-105762500D03*
X189600000Y-104037500D03*
D43*
X141237500Y-95100000D03*
X142962500Y-95100000D03*
D14*
X185500000Y-98000000D03*
X185500000Y-99650000D03*
D28*
X124944600Y-102850001D03*
X124944600Y-100949999D03*
X122455400Y-101900000D03*
D12*
X111000000Y-92500000D03*
X111000000Y-97500000D03*
D46*
X118965000Y-113305000D03*
X118965000Y-110765000D03*
X118965000Y-108225000D03*
X118965000Y-105685000D03*
X118965000Y-103145000D03*
X118965000Y-100605000D03*
X118965000Y-98065000D03*
X118965000Y-95525000D03*
X118965000Y-92985000D03*
X118965000Y-90445000D03*
X118965000Y-87905000D03*
D47*
X176875000Y-110200000D03*
D48*
X179415000Y-110200000D03*
X181955000Y-110200000D03*
X184495000Y-110200000D03*
X187035000Y-110200000D03*
X189575000Y-110200000D03*
X192115000Y-110200000D03*
X192115000Y-117820000D03*
X189575000Y-117820000D03*
X187035000Y-117820000D03*
X184495000Y-117820000D03*
X181955000Y-117820000D03*
X179415000Y-117820000D03*
X176875000Y-117820000D03*
D49*
X152250000Y-105250000D03*
X154700000Y-84900000D03*
X195345000Y-92600000D03*
X140015902Y-103300000D03*
X144750000Y-88050000D03*
X143250000Y-96300000D03*
X136300000Y-108600000D03*
X184550000Y-93700000D03*
X125400000Y-91550000D03*
X156300000Y-84900000D03*
X189500000Y-87300000D03*
X146000000Y-108900000D03*
X193937671Y-96276815D03*
X125400000Y-92650000D03*
X201050000Y-106050000D03*
X144750000Y-87350000D03*
X165350000Y-108800000D03*
X195345000Y-99000000D03*
X126500000Y-109500000D03*
X126400000Y-100300000D03*
X140300000Y-101850000D03*
X201050000Y-88350000D03*
X125800000Y-109500000D03*
X188600000Y-108900000D03*
X198550000Y-104750000D03*
X142500000Y-96300000D03*
X155500000Y-84900000D03*
X126400000Y-100900000D03*
X138650000Y-96450000D03*
X199350000Y-104750000D03*
X138650000Y-95800000D03*
X192700000Y-95900000D03*
X126400000Y-101500000D03*
X166400000Y-79700000D03*
X185800000Y-89500000D03*
X127800000Y-109800000D03*
X166500000Y-102700000D03*
X180800000Y-109250000D03*
X184150000Y-108850000D03*
X135450000Y-108600000D03*
X190600000Y-104050000D03*
X190950000Y-102550000D03*
X123650000Y-92250000D03*
X192275735Y-90925735D03*
X130100000Y-104100000D03*
X125100000Y-109500000D03*
X191300000Y-90700000D03*
X154950000Y-108950000D03*
X178350000Y-108000000D03*
X201050000Y-89400000D03*
X136650000Y-105700000D03*
X184550000Y-94550000D03*
X164550000Y-108800000D03*
X145150000Y-108900000D03*
X201750000Y-106050000D03*
X131000000Y-104100000D03*
X157050000Y-84900000D03*
X184400000Y-101350000D03*
X162400000Y-105100000D03*
X148800000Y-79700000D03*
X189500000Y-88050000D03*
X155650000Y-108950000D03*
X191300000Y-91350000D03*
X185800000Y-90200000D03*
X190100000Y-102550000D03*
X136650000Y-104900000D03*
X144000000Y-104250000D03*
X150900000Y-94500000D03*
X147205000Y-92300000D03*
X157600000Y-102800000D03*
X144750000Y-89050000D03*
X199200000Y-108800000D03*
X144750000Y-89750000D03*
X194200000Y-109500000D03*
X199200000Y-110200000D03*
X199200000Y-109500000D03*
X196700000Y-104650000D03*
X148855000Y-80910000D03*
X197300000Y-104650000D03*
X168400000Y-106300000D03*
X194200000Y-108800000D03*
X194200000Y-110200000D03*
X177100000Y-82925000D03*
X196100000Y-104650000D03*
X188100000Y-82925000D03*
X181100000Y-82900000D03*
X192000000Y-82900000D03*
X184700000Y-82900000D03*
X164728527Y-95480000D03*
X151840074Y-95100000D03*
X151500000Y-110200000D03*
X145400000Y-96350000D03*
X187250000Y-86450000D03*
X161000000Y-110200000D03*
X141350000Y-96350000D03*
X159900000Y-110200000D03*
X162200000Y-110200000D03*
X140550000Y-96350000D03*
X194350000Y-104700000D03*
X136350000Y-91400000D03*
X136350000Y-89200000D03*
X201750000Y-102200000D03*
X201050000Y-102200000D03*
X142450000Y-105350000D03*
X139249998Y-99450000D03*
X188150000Y-91450000D03*
X136350000Y-92650000D03*
X188150000Y-90650000D03*
X152500000Y-110200000D03*
X150400000Y-110200000D03*
X138650000Y-99450000D03*
X183200000Y-103800000D03*
X136350000Y-90350000D03*
X188150000Y-92250000D03*
X139800000Y-96350000D03*
X195000000Y-104650000D03*
X136350000Y-88100000D03*
X193700000Y-104700000D03*
X189200000Y-97250000D03*
X184650000Y-96950000D03*
X193800000Y-95050000D03*
X196600000Y-95050000D03*
X131300000Y-97100000D03*
X143500000Y-109200000D03*
X130900000Y-106100000D03*
X129800000Y-97100000D03*
X132500000Y-106100000D03*
X131700000Y-106100000D03*
X130100000Y-106100000D03*
X130600000Y-97100000D03*
X129100000Y-97800000D03*
X139400000Y-109200000D03*
X133300000Y-106100000D03*
X143500000Y-107500000D03*
X130600000Y-97800000D03*
X129100000Y-97100000D03*
X129400000Y-106100000D03*
X139400000Y-107500000D03*
X129800000Y-97800000D03*
X131300000Y-97800000D03*
X139400000Y-108300000D03*
X143500000Y-108300000D03*
X174200000Y-104200000D03*
X169620292Y-94156699D03*
X152200000Y-92900000D03*
X125000000Y-94200000D03*
X142800000Y-94000000D03*
X168900000Y-91200000D03*
X173200000Y-105600000D03*
X164875132Y-91176339D03*
X147100000Y-80600000D03*
X150962157Y-80637843D03*
X147100000Y-81400000D03*
X151800000Y-80910000D03*
X150105002Y-79800000D03*
X147100000Y-79800000D03*
X152600000Y-85300000D03*
X129175522Y-83956341D03*
X146500000Y-83900000D03*
X146400000Y-84750000D03*
X129075000Y-84750000D03*
X151153243Y-84701773D03*
X145800000Y-85350000D03*
X151100000Y-85500000D03*
X129075000Y-86050000D03*
X151100000Y-85500000D03*
X128400000Y-102700000D03*
X141200000Y-102700000D03*
X170200000Y-93600000D03*
X174699758Y-103575303D03*
X151687851Y-92285421D03*
X173600000Y-104907178D03*
X169500000Y-95117156D03*
X153800000Y-93800000D03*
X150700000Y-86300000D03*
X146500000Y-86050000D03*
X150700000Y-86300000D03*
X129417215Y-86808647D03*
X168900000Y-90300000D03*
X175107648Y-102887095D03*
X164800000Y-90300000D03*
X148855000Y-83450000D03*
X141200000Y-88000000D03*
X196679705Y-93745571D03*
X193720000Y-92000000D03*
X194500000Y-90000000D03*
X196800000Y-97050000D03*
X176100000Y-102100000D03*
X179600000Y-106800000D03*
X171600003Y-99800000D03*
X170800000Y-99800000D03*
X176100000Y-103000000D03*
X179600000Y-107700000D03*
X192125000Y-97850000D03*
X188650000Y-102200000D03*
X192200000Y-102200000D03*
X198200000Y-94500000D03*
X177100000Y-84575000D03*
X177150000Y-102275000D03*
X177077749Y-97477749D03*
X177200000Y-93500000D03*
X181100000Y-84550000D03*
X180362500Y-101537500D03*
X181800000Y-97400000D03*
X184700000Y-84500000D03*
X177200000Y-89500000D03*
D50*
X192837500Y-95900000D02*
X193237500Y-96300000D01*
X193237500Y-96300000D02*
X193914486Y-96300000D01*
X126250001Y-100949999D02*
X126400000Y-100800000D01*
X192700000Y-95900000D02*
X192837500Y-95900000D01*
X151890000Y-97930000D02*
X153321299Y-99361299D01*
X155275321Y-99361299D02*
X156764022Y-100850000D01*
X166487500Y-100860599D02*
X166487500Y-102687500D01*
X159976900Y-100850000D02*
X159987499Y-100860599D01*
X154675000Y-105310600D02*
X154675000Y-107050000D01*
X154675000Y-107050000D02*
X155475000Y-107850000D01*
X166487500Y-102687500D02*
X166500000Y-102700000D01*
X184400000Y-101350000D02*
X183867500Y-101350000D01*
X184150000Y-107732500D02*
X184117500Y-107700000D01*
X193914486Y-96300000D02*
X193937671Y-96276815D01*
X184150000Y-108850000D02*
X184150000Y-107732500D01*
X183867500Y-101350000D02*
X183482500Y-101735000D01*
X156764022Y-100850000D02*
X159976900Y-100850000D01*
X138650000Y-97899998D02*
X138649998Y-97900000D01*
X126350001Y-100949999D02*
X126400000Y-100900000D01*
X124944600Y-100949999D02*
X124944600Y-101044600D01*
X183482500Y-101735000D02*
X183482500Y-102500000D01*
X151890000Y-97400000D02*
X151890000Y-97930000D01*
X153321299Y-99361299D02*
X155275321Y-99361299D01*
X127400000Y-100900000D02*
X127500000Y-101000000D01*
X135899998Y-107550000D02*
X135899998Y-107900002D01*
X152700000Y-95031372D02*
X152168628Y-94500000D01*
X148855000Y-82180000D02*
X149580000Y-82180000D01*
X152700000Y-95700000D02*
X152700000Y-95031372D01*
X147205000Y-82595000D02*
X147620000Y-82180000D01*
X157600000Y-102800000D02*
X157500000Y-102800000D01*
X150900000Y-98210000D02*
X150900000Y-96590000D01*
X147205000Y-92300000D02*
X147205000Y-82595000D01*
X157600000Y-102251664D02*
X155109635Y-99761299D01*
X150900000Y-96590000D02*
X151190000Y-96300000D01*
X147620000Y-82180000D02*
X148855000Y-82180000D01*
X152451299Y-99761299D02*
X150900000Y-98210000D01*
X157600000Y-102800000D02*
X157600000Y-102251664D01*
X152168628Y-94500000D02*
X150900000Y-94500000D01*
X152100000Y-96300000D02*
X152700000Y-95700000D01*
X155109635Y-99761299D02*
X152451299Y-99761299D01*
X151190000Y-96300000D02*
X152100000Y-96300000D01*
X166449998Y-105000000D02*
X166649999Y-105200001D01*
X150500000Y-98485598D02*
X148174999Y-100810599D01*
X151824314Y-95100000D02*
X150500000Y-96424314D01*
X165398527Y-96150000D02*
X166355000Y-96150000D01*
X150500000Y-96424314D02*
X150500000Y-98485598D01*
X148174999Y-100810599D02*
X154675000Y-100810599D01*
X151840074Y-95100000D02*
X151824314Y-95100000D01*
X164728527Y-95480000D02*
X165398527Y-96150000D01*
D51*
X196827437Y-101000000D02*
X197475000Y-100352437D01*
D50*
X191825000Y-93325000D02*
X191625000Y-93325000D01*
D51*
X194852297Y-90602298D02*
X194395000Y-91059595D01*
X194800000Y-101000000D02*
X196827437Y-101000000D01*
X194600000Y-98200000D02*
X194395000Y-98405000D01*
X194395000Y-93375000D02*
X194420000Y-93400000D01*
X197475000Y-100352437D02*
X197475000Y-91247563D01*
X191525000Y-93225000D02*
X189600000Y-93225000D01*
X197475000Y-91247563D02*
X196829735Y-90602298D01*
X192900000Y-99400000D02*
X194050000Y-98250000D01*
X194395000Y-100595000D02*
X194800000Y-101000000D01*
X194395000Y-98405000D02*
X194395000Y-100595000D01*
X193900000Y-93400000D02*
X191900000Y-93400000D01*
X194395000Y-91059595D02*
X194395000Y-93375000D01*
X194420000Y-93400000D02*
X195345000Y-93400000D01*
X196829735Y-90602298D02*
X194852297Y-90602298D01*
X194050000Y-98250000D02*
X194100000Y-98200000D01*
D50*
X191900000Y-93400000D02*
X191825000Y-93325000D01*
X195545000Y-98000000D02*
X195345000Y-98200000D01*
X191625000Y-93325000D02*
X191525000Y-93225000D01*
D51*
X194100000Y-98200000D02*
X194600000Y-98200000D01*
X195345000Y-93400000D02*
X193900000Y-93400000D01*
X194600000Y-98200000D02*
X195345000Y-98200000D01*
D50*
X183582500Y-103800000D02*
X184117500Y-103265000D01*
X192225000Y-89250000D02*
X191450000Y-88475000D01*
X191450000Y-88475000D02*
X191450000Y-87350000D01*
X191450000Y-87350000D02*
X190550000Y-86450000D01*
X184117500Y-103265000D02*
X184117500Y-102500000D01*
X190550000Y-86450000D02*
X187250000Y-86450000D01*
X183200000Y-103800000D02*
X183582500Y-103800000D01*
X184462500Y-95862500D02*
X183600000Y-95862500D01*
X193820000Y-97250000D02*
X190962500Y-97250000D01*
X184650000Y-96050000D02*
X184462500Y-95862500D01*
X196225000Y-96500000D02*
X196175000Y-96550000D01*
X196175000Y-95550000D02*
X196225000Y-95600000D01*
X195350000Y-95550000D02*
X196175000Y-95550000D01*
X196225000Y-95600000D02*
X196225000Y-96500000D01*
X183600000Y-98000000D02*
X183600000Y-95862500D01*
X190962500Y-97250000D02*
X189200000Y-97250000D01*
X194520000Y-96550000D02*
X193820000Y-97250000D01*
X184650000Y-96950000D02*
X184650000Y-96050000D01*
X195345000Y-96550000D02*
X194520000Y-96550000D01*
X196175000Y-96550000D02*
X195350000Y-96550000D01*
X187960000Y-94622399D02*
X187960000Y-95010000D01*
X188920000Y-95767613D02*
X188800000Y-95767613D01*
X187600000Y-95250000D02*
X186900000Y-95250000D01*
X194470000Y-95100000D02*
X194520000Y-95050000D01*
X194470000Y-96000000D02*
X194470000Y-95100000D01*
X193800000Y-95050000D02*
X192450000Y-95050000D01*
X188320000Y-94382399D02*
X188200000Y-94382399D01*
X190862500Y-95250000D02*
X190962500Y-95350000D01*
X189500000Y-95350000D02*
X189400000Y-95250000D01*
X194520000Y-96050000D02*
X194470000Y-96000000D01*
X188560000Y-95490000D02*
X188560000Y-94622399D01*
X194520000Y-95050000D02*
X195345000Y-95050000D01*
X192450000Y-95050000D02*
X192150000Y-95350000D01*
X195345000Y-96050000D02*
X194520000Y-96050000D01*
X188560000Y-95527613D02*
X188560000Y-95490000D01*
X186900000Y-95250000D02*
X186400000Y-95750000D01*
X189160000Y-95490000D02*
X189160000Y-95527613D01*
X190100000Y-95350000D02*
X189500000Y-95350000D01*
X187720000Y-95250000D02*
X187600000Y-95250000D01*
X196600000Y-95050000D02*
X195345000Y-95050000D01*
X186287500Y-95862500D02*
X185500000Y-95862500D01*
X190962500Y-95350000D02*
X190100000Y-95350000D01*
X186400000Y-95750000D02*
X186287500Y-95862500D01*
X192150000Y-95350000D02*
X190962500Y-95350000D01*
X185500000Y-98000000D02*
X185500000Y-95862500D01*
X187960000Y-95010000D02*
G75*
G02*
X187720000Y-95250000I-240000J0D01*
G01*
X189160000Y-95527613D02*
G75*
G02*
X188920000Y-95767600I-240000J13D01*
G01*
X188200000Y-94382399D02*
G75*
G03*
X187959999Y-94622399I0J-240001D01*
G01*
X189400000Y-95250000D02*
G75*
G03*
X189160000Y-95490000I0J-240000D01*
G01*
X188560000Y-94622399D02*
G75*
G03*
X188320000Y-94382400I-240000J-1D01*
G01*
X188800000Y-95767613D02*
G75*
G02*
X188559987Y-95527613I0J240013D01*
G01*
X187885000Y-105762500D02*
X185387500Y-103265000D01*
X185387500Y-102500000D02*
X184752500Y-102500000D01*
X185387500Y-103265000D02*
X185387500Y-102500000D01*
X184752500Y-102500000D02*
X184752500Y-104395000D01*
X189600000Y-105762500D02*
X187885000Y-105762500D01*
X182212500Y-106935000D02*
X182212500Y-107700000D01*
X184752500Y-104395000D02*
X182212500Y-106935000D01*
X138000000Y-97900000D02*
X138000000Y-95662500D01*
X138000000Y-95662500D02*
X137437500Y-95100000D01*
X142500000Y-100912500D02*
X142500000Y-99200000D01*
X196712500Y-88900000D02*
X193525000Y-88900000D01*
X193525000Y-88900000D02*
X192225000Y-87600000D01*
X133900000Y-90525000D02*
X134025000Y-90400000D01*
X122740000Y-96890000D02*
X122750000Y-96900000D01*
D51*
X122750000Y-96900000D02*
X122750000Y-101605400D01*
D50*
X122750000Y-97050000D02*
X122455400Y-97344600D01*
D51*
X115025000Y-106975000D02*
X112700000Y-104650000D01*
D50*
X122750000Y-96900000D02*
X122550000Y-96700000D01*
D51*
X112500000Y-92500000D02*
X111000000Y-92500000D01*
X119442767Y-106975000D02*
X115025000Y-106975000D01*
X122455400Y-101900000D02*
X122455400Y-103962367D01*
D50*
X122750000Y-96900000D02*
X122750000Y-97050000D01*
D51*
X122750000Y-96900000D02*
X122665000Y-96815000D01*
X112700000Y-104650000D02*
X112700000Y-92700000D01*
D50*
X122750000Y-101605400D02*
X122455400Y-101900000D01*
D51*
X122455400Y-103962367D02*
X119442767Y-106975000D01*
X112700000Y-92700000D02*
X112500000Y-92500000D01*
D50*
X122950000Y-111399999D02*
X122700000Y-111649999D01*
D51*
X122950000Y-109400000D02*
X122875000Y-109475000D01*
X122950000Y-106800000D02*
X122950000Y-109400000D01*
X111000000Y-105500000D02*
X111000000Y-103500000D01*
X122875000Y-109475000D02*
X114975000Y-109475000D01*
X122950000Y-109400000D02*
X122950000Y-111399999D01*
X114975000Y-109475000D02*
X111000000Y-105500000D01*
X132239200Y-112739200D02*
X136749999Y-112739200D01*
X131800000Y-114400000D02*
X131800000Y-112550000D01*
X130000000Y-116200000D02*
X127750000Y-116200000D01*
X130000000Y-116200000D02*
X131800000Y-114400000D01*
X131800000Y-112550000D02*
X132050000Y-112550000D01*
X127750000Y-116200000D02*
X125700000Y-118250000D01*
X132050000Y-112550000D02*
X132239200Y-112739200D01*
X141600000Y-112750000D02*
X146410799Y-112750000D01*
X141600000Y-115000000D02*
X141600000Y-112750000D01*
D50*
X141250000Y-112750000D02*
X141600000Y-112750000D01*
X146410799Y-112750000D02*
X146549999Y-112889200D01*
D51*
X136700000Y-118250000D02*
X138350000Y-118250000D01*
X138350000Y-118250000D02*
X141600000Y-115000000D01*
D50*
X128400000Y-83050000D02*
X128200000Y-82850000D01*
X128350000Y-88500000D02*
X128400000Y-88550000D01*
X128350000Y-88500000D02*
X129000000Y-87850000D01*
D51*
X128400000Y-88550000D02*
X128400000Y-83050000D01*
X123150001Y-88500000D02*
X128350000Y-88500000D01*
X156055401Y-112700000D02*
X156250001Y-112894600D01*
X149450000Y-118250000D02*
X151500000Y-116200000D01*
X151500000Y-112700000D02*
X156055401Y-112700000D01*
X151500000Y-115200000D02*
X151500000Y-112700000D01*
X151500000Y-116200000D02*
X151500000Y-115200000D01*
X147700000Y-118250000D02*
X149450000Y-118250000D01*
D50*
X173975000Y-107575000D02*
X173317157Y-106917157D01*
X167950000Y-83950000D02*
X167450000Y-83450000D01*
X173317157Y-106917157D02*
X170482843Y-106917157D01*
X171100000Y-110200000D02*
X173275000Y-110200000D01*
X170482843Y-106917157D02*
X167950000Y-104384314D01*
X173275000Y-110200000D02*
X173975000Y-109500000D01*
X167950000Y-104384314D02*
X167950000Y-83950000D01*
X173975000Y-109500000D02*
X173975000Y-107575000D01*
X167450000Y-83450000D02*
X166355000Y-83450000D01*
X145300000Y-105300000D02*
X145300000Y-100265686D01*
X147700000Y-95085000D02*
X147905000Y-94880000D01*
X145300000Y-100265686D02*
X147700000Y-97865686D01*
X147700000Y-97865686D02*
X147700000Y-95085000D01*
X131800000Y-111000000D02*
X133250000Y-109550000D01*
X135762350Y-106500000D02*
X144100000Y-106500000D01*
X133250000Y-109550000D02*
X133250000Y-109012350D01*
X144100000Y-106500000D02*
X145300000Y-105300000D01*
X127725000Y-112600000D02*
X127800000Y-112525000D01*
X129325000Y-111000000D02*
X131800000Y-111000000D01*
X147905000Y-94880000D02*
X148855000Y-94880000D01*
X127800000Y-112525000D02*
X129325000Y-111000000D01*
X133250000Y-109012350D02*
X135762350Y-106500000D01*
X125189200Y-112600000D02*
X127725000Y-112600000D01*
X152134314Y-93900000D02*
X153160000Y-94925686D01*
X147325000Y-107700000D02*
X147325000Y-107725000D01*
X147425000Y-107700000D02*
X146900000Y-107175000D01*
X150100000Y-96800000D02*
X150100000Y-94200000D01*
X146900000Y-107175000D02*
X146900000Y-100000000D01*
X150400000Y-93900000D02*
X152134314Y-93900000D01*
X150100000Y-94200000D02*
X150400000Y-93900000D01*
X153160000Y-94925686D02*
X153160000Y-97400000D01*
X147325000Y-107725000D02*
X147500000Y-107900000D01*
X147500000Y-107900000D02*
X147500000Y-110400000D01*
X146900000Y-100000000D02*
X150100000Y-96800000D01*
X169340584Y-94517156D02*
X169748529Y-94517156D01*
X169748529Y-94517156D02*
X170100000Y-94868627D01*
X149905000Y-91505000D02*
X151300000Y-92900000D01*
X172931372Y-104200000D02*
X174200000Y-104200000D01*
X169332843Y-100601471D02*
X172931372Y-104200000D01*
X170100000Y-94868627D02*
X170100000Y-95365685D01*
X169620292Y-94237448D02*
X169340584Y-94517156D01*
X149385000Y-89800000D02*
X149905000Y-90320000D01*
X170100000Y-95365685D02*
X169332843Y-96132842D01*
X169620292Y-94156699D02*
X169620292Y-94237448D01*
X148855000Y-89800000D02*
X149385000Y-89800000D01*
X151300000Y-92900000D02*
X152200000Y-92900000D01*
X149905000Y-90320000D02*
X149905000Y-91505000D01*
X169332843Y-96132842D02*
X169332843Y-100601471D01*
X125000000Y-94200000D02*
X124800000Y-94400000D01*
X147805000Y-92695000D02*
X147805000Y-91590000D01*
X142800000Y-94000000D02*
X146500000Y-94000000D01*
X147805000Y-91590000D02*
X148325000Y-91070000D01*
X124800000Y-94400000D02*
X123250000Y-94400000D01*
X123250000Y-94400000D02*
X122350000Y-93500000D01*
X146500000Y-94000000D02*
X147805000Y-92695000D01*
X122350000Y-91139200D02*
X122200000Y-90989200D01*
X148325000Y-91070000D02*
X148855000Y-91070000D01*
X122350000Y-93500000D02*
X122350000Y-91139200D01*
X158655000Y-87789314D02*
X158655000Y-85044314D01*
X150500000Y-84400000D02*
X150500000Y-85295000D01*
X151100000Y-83800000D02*
X150500000Y-84400000D01*
X157410686Y-83800000D02*
X151100000Y-83800000D01*
X149805000Y-85990000D02*
X148855000Y-85990000D01*
X168532843Y-91567157D02*
X168532843Y-100932843D01*
X168532843Y-100932843D02*
X173200000Y-105600000D01*
X158655000Y-85044314D02*
X157410686Y-83800000D01*
X150500000Y-85295000D02*
X149805000Y-85990000D01*
X162042025Y-91176339D02*
X158655000Y-87789314D01*
X164875132Y-91176339D02*
X162042025Y-91176339D01*
X168900000Y-91200000D02*
X168532843Y-91567157D01*
X165825000Y-88530000D02*
X166355000Y-88530000D01*
X158895000Y-81600000D02*
X165825000Y-88530000D01*
X150962157Y-80637843D02*
X150962157Y-80920686D01*
X114900000Y-101700000D02*
X114900000Y-88781191D01*
X116300000Y-103100000D02*
X118920000Y-103100000D01*
X123081191Y-80600000D02*
X147100000Y-80600000D01*
X114900000Y-88781191D02*
X123081191Y-80600000D01*
X116300000Y-103100000D02*
X114900000Y-101700000D01*
X118920000Y-103100000D02*
X118965000Y-103145000D01*
X151641471Y-81600000D02*
X158895000Y-81600000D01*
X150962157Y-80920686D02*
X151641471Y-81600000D01*
X147100000Y-80600000D02*
X147300000Y-80600000D01*
X116300000Y-100600000D02*
X118960000Y-100600000D01*
X116300000Y-87946877D02*
X123146877Y-81100000D01*
X123146877Y-81100000D02*
X146751471Y-81100000D01*
X146751471Y-81100000D02*
X147051471Y-81400000D01*
X116300000Y-100600000D02*
X116300000Y-87946877D01*
X151800000Y-80910000D02*
X166355000Y-80910000D01*
X118960000Y-100600000D02*
X118965000Y-100605000D01*
X147051471Y-81400000D02*
X147100000Y-81400000D01*
X114500000Y-88615505D02*
X123315505Y-79800000D01*
X123315505Y-79800000D02*
X147100000Y-79800000D01*
X150105002Y-80629217D02*
X151575785Y-82100000D01*
X150105002Y-79800000D02*
X150105002Y-80629217D01*
X151575785Y-82100000D02*
X157705000Y-82100000D01*
X116300000Y-105700000D02*
X118950000Y-105700000D01*
X114500000Y-103700000D02*
X114500000Y-88615505D01*
X118950000Y-105700000D02*
X118965000Y-105685000D01*
X116500000Y-105700000D02*
X114500000Y-103700000D01*
X157705000Y-82100000D02*
X165405000Y-89800000D01*
X116300000Y-105700000D02*
X118071701Y-105700000D01*
X118071701Y-105700000D02*
X116500000Y-105700000D01*
X165405000Y-89800000D02*
X166355000Y-89800000D01*
X144703123Y-83900000D02*
X146500000Y-83900000D01*
X152600000Y-85300000D02*
X152600000Y-90434314D01*
X154505686Y-92340000D02*
X166355000Y-92340000D01*
X152600000Y-90434314D02*
X154505686Y-92340000D01*
X129175522Y-83956341D02*
X129394181Y-84175000D01*
X129394181Y-84175000D02*
X144428123Y-84175000D01*
X144428123Y-84175000D02*
X144703123Y-83900000D01*
X165000000Y-91900000D02*
X165310000Y-91590000D01*
X158255000Y-85210000D02*
X158255000Y-87955000D01*
X146400000Y-84750000D02*
X129075000Y-84750000D01*
X165310000Y-91590000D02*
X165835000Y-91590000D01*
X151555016Y-84300000D02*
X157345000Y-84300000D01*
X158255000Y-87955000D02*
X162200000Y-91900000D01*
X162200000Y-91900000D02*
X165000000Y-91900000D01*
X157345000Y-84300000D02*
X158255000Y-85210000D01*
X151153243Y-84701773D02*
X151555016Y-84300000D01*
X165835000Y-91590000D02*
X166355000Y-91070000D01*
X167550000Y-104550000D02*
X171100000Y-108100000D01*
X173275000Y-108100000D02*
X171100000Y-108100000D01*
X167550000Y-84875000D02*
X167550000Y-104550000D01*
X167380000Y-84720000D02*
X166355000Y-84720000D01*
X167400000Y-84725000D02*
X167550000Y-84875000D01*
X152000000Y-86400000D02*
X151100000Y-85500000D01*
X129075000Y-86050000D02*
X129500000Y-86050000D01*
X166355000Y-93610000D02*
X162010000Y-93610000D01*
X152000000Y-90400000D02*
X152000000Y-86400000D01*
X162010000Y-93610000D02*
X162000000Y-93600000D01*
X129500000Y-86050000D02*
X130200000Y-85350000D01*
X162000000Y-93600000D02*
X155200000Y-93600000D01*
X155200000Y-93600000D02*
X152000000Y-90400000D01*
X130200000Y-85350000D02*
X145800000Y-85350000D01*
X127500000Y-102650000D02*
X128350000Y-102650000D01*
X147300000Y-94635000D02*
X148325000Y-93610000D01*
X127299999Y-102850001D02*
X127500000Y-102650000D01*
X147300000Y-97700000D02*
X147300000Y-94635000D01*
X144900000Y-100100000D02*
X147300000Y-97700000D01*
X143137500Y-103262500D02*
X144900000Y-101500000D01*
X148325000Y-93610000D02*
X148855000Y-93610000D01*
X124944600Y-102850001D02*
X127299999Y-102850001D01*
X141762500Y-103262500D02*
X143137500Y-103262500D01*
X144900000Y-101500000D02*
X144900000Y-100100000D01*
X141200000Y-102700000D02*
X141762500Y-103262500D01*
X128350000Y-102650000D02*
X128400000Y-102700000D01*
X169732843Y-100435785D02*
X172872361Y-103575303D01*
X149805000Y-88530000D02*
X148855000Y-88530000D01*
X170500000Y-93900000D02*
X170500000Y-95531371D01*
X170500000Y-95531371D02*
X169732843Y-96298528D01*
X170200000Y-93600000D02*
X170500000Y-93900000D01*
X150305000Y-90902570D02*
X150305000Y-89030000D01*
X150305000Y-89030000D02*
X149805000Y-88530000D01*
X169732843Y-96298528D02*
X169732843Y-100435785D01*
X151687851Y-92285421D02*
X150305000Y-90902570D01*
X172872361Y-103575303D02*
X174699758Y-103575303D01*
X153000000Y-92600000D02*
X153800000Y-93400000D01*
X151100000Y-88555000D02*
X151100000Y-90695000D01*
X169500000Y-95117156D02*
X168932843Y-95684313D01*
X168932843Y-100767157D02*
X173072864Y-104907178D01*
X149805000Y-87260000D02*
X151100000Y-88555000D01*
X151100000Y-90695000D02*
X153000000Y-92595000D01*
X168932843Y-95684313D02*
X168932843Y-100767157D01*
X153800000Y-93400000D02*
X153800000Y-93800000D01*
X148855000Y-87260000D02*
X149805000Y-87260000D01*
X153000000Y-92595000D02*
X153000000Y-92600000D01*
X173072864Y-104907178D02*
X173600000Y-104907178D01*
X151500000Y-87100000D02*
X150700000Y-86300000D01*
X130175862Y-86050000D02*
X146500000Y-86050000D01*
X155850686Y-94880000D02*
X151500000Y-90529314D01*
X166355000Y-94880000D02*
X155850686Y-94880000D01*
X151500000Y-90529314D02*
X151500000Y-87100000D01*
X129417215Y-86808647D02*
X130175862Y-86050000D01*
X168900000Y-90300000D02*
X170900000Y-92300000D01*
X148855000Y-84720000D02*
X149385000Y-84720000D01*
X170900000Y-95697057D02*
X170200000Y-96397057D01*
X172987095Y-102887095D02*
X175107648Y-102887095D01*
X157700000Y-83200000D02*
X164800000Y-90300000D01*
X149385000Y-84720000D02*
X150905000Y-83200000D01*
X170200000Y-100100000D02*
X172987095Y-102887095D01*
X151500000Y-83200000D02*
X157700000Y-83200000D01*
X170200000Y-96397057D02*
X170200000Y-100100000D01*
X170900000Y-92300000D02*
X170900000Y-95697057D01*
X150905000Y-83200000D02*
X151500000Y-83200000D01*
X137700002Y-107700004D02*
X137549998Y-107550000D01*
X148855000Y-97445000D02*
X145700000Y-100600000D01*
X145700000Y-105500000D02*
X144300000Y-106900000D01*
X145700000Y-100600000D02*
X145700000Y-105500000D01*
X138199998Y-106900000D02*
X137549998Y-107550000D01*
X137700002Y-110250000D02*
X137700002Y-107700004D01*
X148855000Y-96150000D02*
X148855000Y-97445000D01*
X144300000Y-106900000D02*
X138199998Y-106900000D01*
X191100000Y-92000000D02*
X190669843Y-91569843D01*
X190669843Y-90830157D02*
X189064686Y-89225000D01*
X189064686Y-89225000D02*
X188500000Y-89225000D01*
X196679705Y-93745571D02*
X196375276Y-94050000D01*
X190669843Y-91569843D02*
X190669843Y-90830157D01*
X193720000Y-92000000D02*
X191100000Y-92000000D01*
X196375276Y-94050000D02*
X195345000Y-94050000D01*
X192275000Y-90100000D02*
X192375000Y-90000000D01*
X196800000Y-97050000D02*
X195345000Y-97050000D01*
X191325000Y-90100000D02*
X192275000Y-90100000D01*
X190475000Y-89250000D02*
X191325000Y-90100000D01*
X192375000Y-90000000D02*
X194500000Y-90000000D01*
X173237062Y-101437059D02*
X171600003Y-99800000D01*
X175437059Y-101437059D02*
X173237062Y-101437059D01*
X181477500Y-106800000D02*
X179600000Y-106800000D01*
X181577500Y-107700000D02*
X181577500Y-106900000D01*
X181577500Y-106900000D02*
X181477500Y-106800000D01*
X176100000Y-102100000D02*
X175437059Y-101437059D01*
X173100000Y-102300000D02*
X170800000Y-100000000D01*
X173112905Y-102287095D02*
X173100000Y-102300000D01*
X170800000Y-100000000D02*
X170800000Y-99800000D01*
X180942500Y-107700000D02*
X179600000Y-107700000D01*
X175387095Y-102287095D02*
X173112905Y-102287095D01*
X176100000Y-103000000D02*
X175387095Y-102287095D01*
X185100000Y-100750000D02*
X183950000Y-100750000D01*
X186022500Y-101672500D02*
X185100000Y-100750000D01*
X186022500Y-102500000D02*
X186022500Y-101672500D01*
X183950000Y-100750000D02*
X183700000Y-100500000D01*
X183700000Y-100500000D02*
X183700000Y-99650000D01*
X185500000Y-100050000D02*
X185900000Y-100450000D01*
X187050000Y-100450000D02*
X187250000Y-100650000D01*
X185900000Y-100450000D02*
X187050000Y-100450000D01*
X185500000Y-99650000D02*
X185500000Y-100050000D01*
X187250000Y-101100000D02*
X186657500Y-101692500D01*
X186657500Y-101692500D02*
X186657500Y-102500000D01*
X187250000Y-100650000D02*
X187250000Y-101100000D01*
X177166722Y-108100000D02*
X180942500Y-104324222D01*
X174925000Y-108100000D02*
X177166722Y-108100000D01*
X180942500Y-104324222D02*
X180942500Y-102500000D01*
X176050000Y-108600000D02*
X182747500Y-108600000D01*
X174925000Y-109725000D02*
X176050000Y-108600000D01*
X174925000Y-110200000D02*
X174925000Y-109725000D01*
X182847500Y-108500000D02*
X182847500Y-107700000D01*
X182747500Y-108600000D02*
X182847500Y-108500000D01*
X139300000Y-104825000D02*
X139775000Y-105300000D01*
X139300000Y-102345000D02*
X139300000Y-104825000D01*
X132575000Y-103175000D02*
X132550000Y-103200000D01*
X133084400Y-103559400D02*
X132700000Y-103175000D01*
X138649998Y-102345000D02*
X138649998Y-103459400D01*
X132700000Y-103175000D02*
X132575000Y-103175000D01*
X138549998Y-103559400D02*
X133084400Y-103559400D01*
X138649998Y-103459400D02*
X138549998Y-103559400D01*
X132550000Y-103200000D02*
X130500000Y-103200000D01*
X138069400Y-101130600D02*
X138000000Y-101200000D01*
X138000000Y-101200000D02*
X138000000Y-102345000D01*
X141068100Y-101130600D02*
X138069400Y-101130600D01*
X142500000Y-102562500D02*
X141068100Y-101130600D01*
X190300000Y-100550000D02*
X190300000Y-98970778D01*
X191420778Y-97850000D02*
X192125000Y-97850000D01*
X190300000Y-98970778D02*
X191420778Y-97850000D01*
X188650000Y-102200000D02*
X190300000Y-100550000D01*
X197024189Y-101475000D02*
X198200000Y-100299189D01*
X192925000Y-101475000D02*
X197024189Y-101475000D01*
X192200000Y-102200000D02*
X192925000Y-101475000D01*
X198200000Y-100299189D02*
X198200000Y-94500000D01*
X176525000Y-84575000D02*
X174600000Y-86500000D01*
X174600000Y-86500000D02*
X174600000Y-95000000D01*
X177150000Y-97550000D02*
X177077749Y-97477749D01*
X177100000Y-84575000D02*
X176525000Y-84575000D01*
X177150000Y-102275000D02*
X177150000Y-97550000D01*
X174600000Y-95000000D02*
X177077749Y-97477749D01*
X177200000Y-96400000D02*
X177200000Y-93500000D01*
X181100000Y-84550000D02*
X179350000Y-86300000D01*
X177700000Y-98875000D02*
X177700000Y-96900000D01*
X179350000Y-86300000D02*
X176500000Y-86300000D01*
X175200000Y-89900000D02*
X177200000Y-91900000D01*
X180362500Y-101537500D02*
X177700000Y-98875000D01*
X177200000Y-91900000D02*
X177200000Y-93500000D01*
X177700000Y-96900000D02*
X177200000Y-96400000D01*
X175200000Y-87600000D02*
X175200000Y-89900000D01*
X176500000Y-86300000D02*
X175200000Y-87600000D01*
X160422134Y-106409900D02*
X161200000Y-105632034D01*
X157125000Y-107850000D02*
X158565100Y-106409900D01*
X161200000Y-104800000D02*
X163320000Y-102680000D01*
X157125000Y-107850000D02*
X157125000Y-110330398D01*
X161200000Y-105632034D02*
X161200000Y-104800000D01*
X163320000Y-102680000D02*
X163320000Y-97400000D01*
X157125000Y-110330398D02*
X157200002Y-110405400D01*
X158565100Y-106409900D02*
X160422134Y-106409900D01*
D51*
X165760801Y-112700000D02*
X165850001Y-112789200D01*
X158700000Y-118250000D02*
X161000000Y-115950000D01*
X161000000Y-115950000D02*
X161000000Y-115000000D01*
X161000000Y-112700000D02*
X165760801Y-112700000D01*
X161000000Y-115000000D02*
X161000000Y-112700000D01*
D50*
X165000000Y-96600000D02*
X163680000Y-95280000D01*
X166800002Y-107774998D02*
X166825000Y-107750000D01*
X165000000Y-105925000D02*
X165000000Y-96600000D01*
X154000000Y-95200000D02*
X152300000Y-93500000D01*
X152300000Y-93500000D02*
X150500000Y-93500000D01*
X163680000Y-95280000D02*
X155685001Y-95280000D01*
X150500000Y-93500000D02*
X149340000Y-92340000D01*
X149340000Y-92340000D02*
X148855000Y-92340000D01*
X166800002Y-110300000D02*
X166800002Y-107774998D01*
X155685001Y-95280000D02*
X155605001Y-95200000D01*
X166825000Y-107750000D02*
X165000000Y-105925000D01*
X155605001Y-95200000D02*
X154000000Y-95200000D01*
X179400000Y-97400000D02*
X178100000Y-96100000D01*
X178100000Y-87100000D02*
X177200000Y-88000000D01*
X177200000Y-88000000D02*
X177200000Y-89500000D01*
X184700000Y-84500000D02*
X182100000Y-87100000D01*
X178100000Y-90400000D02*
X177200000Y-89500000D01*
X178100000Y-96100000D02*
X178100000Y-90400000D01*
X182100000Y-87100000D02*
X178100000Y-87100000D01*
X181800000Y-97400000D02*
X179400000Y-97400000D01*
G04 #@! TA.AperFunction,Conductor*
G36*
X139525407Y-94537817D02*
G01*
X139558370Y-94550111D01*
X139589335Y-94567020D01*
X139614324Y-94585726D01*
X139639275Y-94610678D01*
X139653175Y-94629246D01*
X139657974Y-94635657D01*
X139674887Y-94666631D01*
X139687181Y-94699591D01*
X139695000Y-94742926D01*
X139695000Y-95257071D01*
X139687181Y-95300406D01*
X139674886Y-95333369D01*
X139657972Y-95364344D01*
X139639276Y-95389319D01*
X139614320Y-95414276D01*
X139589344Y-95432973D01*
X139558367Y-95449887D01*
X139525404Y-95462182D01*
X139482072Y-95470000D01*
X139323785Y-95470000D01*
X139285955Y-95472819D01*
X139285942Y-95472820D01*
X139249601Y-95478266D01*
X139239098Y-95480064D01*
X139146773Y-95517665D01*
X139088452Y-95556134D01*
X139088443Y-95556141D01*
X139052820Y-95584499D01*
X138995474Y-95666051D01*
X138967208Y-95729945D01*
X138967205Y-95729952D01*
X138947550Y-95799961D01*
X138939536Y-95860827D01*
X138931159Y-95892090D01*
X138901644Y-95963345D01*
X138901645Y-95963346D01*
X138894841Y-95979775D01*
X138894826Y-95979814D01*
X138885749Y-96005543D01*
X138885738Y-96005576D01*
X138878911Y-96028827D01*
X138878356Y-96030595D01*
X138878274Y-96030990D01*
X138878273Y-96031000D01*
X138878273Y-96031001D01*
X138869388Y-96130296D01*
X138869388Y-96130299D01*
X138869388Y-96130304D01*
X138876855Y-96199751D01*
X138876857Y-96199765D01*
X138876858Y-96199772D01*
X138876859Y-96199773D01*
X138894836Y-96270211D01*
X138894842Y-96270228D01*
X138931160Y-96357911D01*
X138939537Y-96389178D01*
X138945413Y-96433815D01*
X138945413Y-96466184D01*
X138939536Y-96510824D01*
X138931159Y-96542090D01*
X138913032Y-96585854D01*
X138900541Y-96608812D01*
X138894806Y-96617124D01*
X138894795Y-96617144D01*
X138858722Y-96694597D01*
X138840229Y-96761978D01*
X138840229Y-96761979D01*
X138832139Y-96806787D01*
X138832139Y-96806797D01*
X138841376Y-96892812D01*
X138839703Y-96930240D01*
X138833600Y-96960925D01*
X138833600Y-98685400D01*
X138813915Y-98752439D01*
X138761111Y-98798194D01*
X138709600Y-98809400D01*
X138590400Y-98809400D01*
X138523361Y-98789715D01*
X138477606Y-98736911D01*
X138466400Y-98685400D01*
X138466400Y-96960923D01*
X138466399Y-96960921D01*
X138451867Y-96887864D01*
X138451866Y-96887863D01*
X138451866Y-96887860D01*
X138396501Y-96804999D01*
X138396499Y-96804996D01*
X138387866Y-96796363D01*
X138390827Y-96793401D01*
X138360791Y-96757441D01*
X138350500Y-96707982D01*
X138350500Y-95616358D01*
X138350500Y-95616356D01*
X138326614Y-95527212D01*
X138321103Y-95517666D01*
X138316612Y-95509887D01*
X138300000Y-95447889D01*
X138300000Y-95003866D01*
X138319685Y-94936827D01*
X138372489Y-94891072D01*
X138392273Y-94883994D01*
X138398125Y-94882444D01*
X138398130Y-94882444D01*
X138463594Y-94858028D01*
X138504680Y-94838371D01*
X138578845Y-94771754D01*
X138620717Y-94715821D01*
X138653419Y-94655932D01*
X138662968Y-94641074D01*
X138685726Y-94610673D01*
X138710675Y-94585724D01*
X138735659Y-94567021D01*
X138766628Y-94550111D01*
X138799589Y-94537817D01*
X138842919Y-94530000D01*
X139482078Y-94530000D01*
X139525407Y-94537817D01*
G37*
G04 #@! TD.AperFunction*
G04 #@! TA.AperFunction,Conductor*
G36*
X163143039Y-106919685D02*
G01*
X163188794Y-106972489D01*
X163200000Y-107024000D01*
X163200000Y-110676000D01*
X163180315Y-110743039D01*
X163127511Y-110788794D01*
X163076000Y-110800000D01*
X159024000Y-110800000D01*
X158956961Y-110780315D01*
X158911206Y-110727511D01*
X158900000Y-110676000D01*
X158900000Y-107024000D01*
X158919685Y-106956961D01*
X158972489Y-106911206D01*
X159024000Y-106900000D01*
X163076000Y-106900000D01*
X163143039Y-106919685D01*
G37*
G04 #@! TD.AperFunction*
G04 #@! TA.AperFunction,Conductor*
G36*
X202158691Y-101768907D02*
G01*
X202194655Y-101818407D01*
X202199500Y-101849000D01*
X202199500Y-103845500D01*
X202180593Y-103903691D01*
X202131093Y-103939655D01*
X202100500Y-103944500D01*
X200799000Y-103944500D01*
X200740809Y-103925593D01*
X200704845Y-103876093D01*
X200700000Y-103845500D01*
X200700000Y-101849000D01*
X200718907Y-101790809D01*
X200768407Y-101754845D01*
X200799000Y-101750000D01*
X202100500Y-101750000D01*
X202158691Y-101768907D01*
G37*
G04 #@! TD.AperFunction*
G04 #@! TA.AperFunction,Conductor*
G36*
X144059191Y-107269407D02*
G01*
X144095155Y-107318907D01*
X144100000Y-107349500D01*
X144100000Y-110601000D01*
X144081093Y-110659191D01*
X144031593Y-110695155D01*
X144001000Y-110700000D01*
X138999000Y-110700000D01*
X138940809Y-110681093D01*
X138904845Y-110631593D01*
X138900000Y-110601000D01*
X138900000Y-107349500D01*
X138918907Y-107291309D01*
X138968407Y-107255345D01*
X138999000Y-107250500D01*
X144001000Y-107250500D01*
X144059191Y-107269407D01*
G37*
G04 #@! TD.AperFunction*
G04 #@! TA.AperFunction,Conductor*
G36*
X191909191Y-98668907D02*
G01*
X191945155Y-98718407D01*
X191950000Y-98749000D01*
X191950000Y-100201000D01*
X191931093Y-100259191D01*
X191881593Y-100295155D01*
X191851000Y-100300000D01*
X191350000Y-100300000D01*
X191350000Y-100300001D01*
X191350000Y-102901000D01*
X191331093Y-102959191D01*
X191281593Y-102995155D01*
X191251000Y-103000000D01*
X189699000Y-103000000D01*
X189640809Y-102981093D01*
X189604845Y-102931593D01*
X189600000Y-102901000D01*
X189600000Y-101786689D01*
X189618907Y-101728498D01*
X189628992Y-101716688D01*
X190316685Y-101028995D01*
X190325488Y-101024510D01*
X190349998Y-101000000D01*
X190350000Y-101000000D01*
X190350000Y-100999998D01*
X190367658Y-100982340D01*
X190368907Y-100978497D01*
X190378989Y-100966691D01*
X190580469Y-100765212D01*
X190626614Y-100685288D01*
X190650500Y-100596144D01*
X190650500Y-99156968D01*
X190669407Y-99098777D01*
X190679496Y-99086964D01*
X191087464Y-98678996D01*
X191141981Y-98651219D01*
X191157468Y-98650000D01*
X191851000Y-98650000D01*
X191909191Y-98668907D01*
G37*
G04 #@! TD.AperFunction*
G04 #@! TA.AperFunction,Conductor*
G36*
X132166383Y-104028134D02*
G01*
X132297804Y-104069086D01*
X132368384Y-104075500D01*
X132744086Y-104075500D01*
X132806085Y-104092112D01*
X132852616Y-104118977D01*
X133005343Y-104159901D01*
X133005345Y-104159901D01*
X133171054Y-104159901D01*
X133171070Y-104159900D01*
X135621396Y-104159900D01*
X135688435Y-104179585D01*
X135734190Y-104232389D01*
X135743117Y-104294464D01*
X135744816Y-104294586D01*
X135744500Y-104299003D01*
X135744500Y-105407372D01*
X135744426Y-105411646D01*
X135731179Y-105795773D01*
X135709196Y-105862094D01*
X135654846Y-105906002D01*
X135639348Y-105911273D01*
X135530570Y-105940421D01*
X135530559Y-105940426D01*
X135393640Y-106019475D01*
X135393632Y-106019481D01*
X132769481Y-108643632D01*
X132769475Y-108643640D01*
X132728490Y-108714630D01*
X132728490Y-108714632D01*
X132690423Y-108780564D01*
X132690423Y-108780565D01*
X132649499Y-108933293D01*
X132649499Y-108933295D01*
X132649499Y-109101396D01*
X132649500Y-109101409D01*
X132649500Y-109249902D01*
X132629815Y-109316941D01*
X132613180Y-109337583D01*
X132024258Y-109926507D01*
X131787084Y-110163681D01*
X131725761Y-110197166D01*
X131699403Y-110200000D01*
X129224000Y-110200000D01*
X129156961Y-110180315D01*
X129111206Y-110127511D01*
X129100000Y-110076000D01*
X129100000Y-108400000D01*
X125824000Y-108400000D01*
X125756961Y-108380315D01*
X125711206Y-108327511D01*
X125700000Y-108276000D01*
X125700000Y-104224000D01*
X125719685Y-104156961D01*
X125772489Y-104111206D01*
X125824000Y-104100000D01*
X128870500Y-104100000D01*
X128937539Y-104119685D01*
X128983294Y-104172489D01*
X128994500Y-104224000D01*
X128994500Y-105251009D01*
X129000721Y-105330067D01*
X129000723Y-105330085D01*
X129005567Y-105360665D01*
X129005569Y-105360672D01*
X129028741Y-105451461D01*
X129028742Y-105451466D01*
X129095885Y-105578716D01*
X129095887Y-105578719D01*
X129131851Y-105628219D01*
X129149482Y-105651083D01*
X129255486Y-105748371D01*
X129382521Y-105810829D01*
X129384606Y-105811854D01*
X129384608Y-105811854D01*
X129442795Y-105830760D01*
X129456577Y-105835022D01*
X129456584Y-105835024D01*
X129599000Y-105855500D01*
X129599003Y-105855500D01*
X131400991Y-105855500D01*
X131401000Y-105855500D01*
X131480070Y-105849278D01*
X131480077Y-105849276D01*
X131480085Y-105849276D01*
X131490931Y-105847557D01*
X131510663Y-105844433D01*
X131601467Y-105821257D01*
X131728719Y-105754113D01*
X131778219Y-105718149D01*
X131801083Y-105700518D01*
X131898371Y-105594514D01*
X131961853Y-105465396D01*
X131980760Y-105407205D01*
X131985024Y-105393416D01*
X132005500Y-105251000D01*
X132005500Y-104146521D01*
X132025185Y-104079482D01*
X132077989Y-104033727D01*
X132147147Y-104023783D01*
X132166383Y-104028134D01*
G37*
G04 #@! TD.AperFunction*
G04 #@! TA.AperFunction,Conductor*
G36*
X156209191Y-107168907D02*
G01*
X156245155Y-107218407D01*
X156250000Y-107249000D01*
X156250000Y-111386576D01*
X156231093Y-111444767D01*
X156181593Y-111480731D01*
X156151679Y-111485574D01*
X154150830Y-111499307D01*
X154092511Y-111480799D01*
X154056209Y-111431547D01*
X154051158Y-111399176D01*
X154098875Y-107247861D01*
X154118449Y-107189893D01*
X154168360Y-107154500D01*
X154197868Y-107150000D01*
X156151000Y-107150000D01*
X156209191Y-107168907D01*
G37*
G04 #@! TD.AperFunction*
G04 #@! TA.AperFunction,Conductor*
G36*
X146459191Y-86868907D02*
G01*
X146495155Y-86918407D01*
X146500000Y-86949000D01*
X146500000Y-88202184D01*
X146481093Y-88260375D01*
X146431593Y-88296339D01*
X146385515Y-88299965D01*
X146351006Y-88294500D01*
X146351000Y-88294500D01*
X145001110Y-88294500D01*
X144991292Y-88295467D01*
X144951265Y-88299409D01*
X144913375Y-88306946D01*
X144865463Y-88321480D01*
X144865435Y-88321489D01*
X144839046Y-88332419D01*
X144814089Y-88339106D01*
X144762922Y-88345843D01*
X144737077Y-88345843D01*
X144685912Y-88339107D01*
X144660950Y-88332419D01*
X144634547Y-88321483D01*
X144586624Y-88306946D01*
X144548732Y-88299409D01*
X144548736Y-88299409D01*
X144507827Y-88295380D01*
X144498890Y-88294500D01*
X143149000Y-88294500D01*
X143090809Y-88275593D01*
X143054845Y-88226093D01*
X143050000Y-88195500D01*
X143050000Y-86949000D01*
X143068907Y-86890809D01*
X143118407Y-86854845D01*
X143149000Y-86850000D01*
X146401000Y-86850000D01*
X146459191Y-86868907D01*
G37*
G04 #@! TD.AperFunction*
G04 #@! TA.AperFunction,Conductor*
G36*
X190521501Y-86918907D02*
G01*
X190533314Y-86928996D01*
X191070504Y-87466186D01*
X191098281Y-87520703D01*
X191099500Y-87536190D01*
X191099500Y-88251000D01*
X191080593Y-88309191D01*
X191031093Y-88345155D01*
X191000500Y-88350000D01*
X187849000Y-88350000D01*
X187790809Y-88331093D01*
X187754845Y-88281593D01*
X187750000Y-88251000D01*
X187750000Y-86999000D01*
X187768907Y-86940809D01*
X187818407Y-86904845D01*
X187849000Y-86900000D01*
X190463310Y-86900000D01*
X190521501Y-86918907D01*
G37*
G04 #@! TD.AperFunction*
G04 #@! TA.AperFunction,Conductor*
G36*
X157217001Y-84669407D02*
G01*
X157228814Y-84679496D01*
X157875504Y-85326185D01*
X157903281Y-85380702D01*
X157904500Y-85396189D01*
X157904500Y-88001143D01*
X157922892Y-88069783D01*
X157922892Y-88069785D01*
X157928383Y-88090282D01*
X157928384Y-88090284D01*
X157928385Y-88090287D01*
X157928386Y-88090288D01*
X157974530Y-88170212D01*
X158271005Y-88466687D01*
X158298781Y-88521202D01*
X158300000Y-88536689D01*
X158300000Y-89751000D01*
X158281093Y-89809191D01*
X158231593Y-89845155D01*
X158201000Y-89850000D01*
X153849921Y-89850000D01*
X153791730Y-89831093D01*
X153755766Y-89781593D01*
X153750925Y-89750083D01*
X153797236Y-84748583D01*
X153816682Y-84690570D01*
X153866512Y-84655066D01*
X153896232Y-84650500D01*
X157158810Y-84650500D01*
X157217001Y-84669407D01*
G37*
G04 #@! TD.AperFunction*
G04 #@! TA.AperFunction,Conductor*
G36*
X130020012Y-103805556D02*
G01*
X130140294Y-103847644D01*
X130140296Y-103847644D01*
X130140301Y-103847646D01*
X130170725Y-103850499D01*
X130170727Y-103850500D01*
X130170734Y-103850500D01*
X130829273Y-103850500D01*
X130829273Y-103850499D01*
X130859699Y-103847646D01*
X130859705Y-103847644D01*
X130979988Y-103805556D01*
X131012685Y-103800000D01*
X131401000Y-103800000D01*
X131459191Y-103818907D01*
X131495155Y-103868407D01*
X131500000Y-103899000D01*
X131500000Y-105251000D01*
X131481093Y-105309191D01*
X131431593Y-105345155D01*
X131401000Y-105350000D01*
X129599000Y-105350000D01*
X129540809Y-105331093D01*
X129504845Y-105281593D01*
X129500000Y-105251000D01*
X129500000Y-103899000D01*
X129518907Y-103840809D01*
X129568407Y-103804845D01*
X129599000Y-103800000D01*
X129987315Y-103800000D01*
X130020012Y-103805556D01*
G37*
G04 #@! TD.AperFunction*
G04 #@! TA.AperFunction,Conductor*
G36*
X146459191Y-107118907D02*
G01*
X146495155Y-107168407D01*
X146500000Y-107199000D01*
X146500000Y-111501000D01*
X146481093Y-111559191D01*
X146431593Y-111595155D01*
X146401000Y-111600000D01*
X144749000Y-111600000D01*
X144690809Y-111581093D01*
X144654845Y-111531593D01*
X144650000Y-111501000D01*
X144650000Y-107199000D01*
X144668907Y-107140809D01*
X144718407Y-107104845D01*
X144749000Y-107100000D01*
X146401000Y-107100000D01*
X146459191Y-107118907D01*
G37*
G04 #@! TD.AperFunction*
G04 #@! TA.AperFunction,Conductor*
G36*
X138609191Y-104218907D02*
G01*
X138645155Y-104268407D01*
X138650000Y-104299000D01*
X138650000Y-106050500D01*
X138631093Y-106108691D01*
X138581593Y-106144655D01*
X138551000Y-106149500D01*
X136349000Y-106149500D01*
X136290809Y-106130593D01*
X136254845Y-106081093D01*
X136250000Y-106050500D01*
X136250000Y-104299000D01*
X136268907Y-104240809D01*
X136318407Y-104204845D01*
X136349000Y-104200000D01*
X138551000Y-104200000D01*
X138609191Y-104218907D01*
G37*
G04 #@! TD.AperFunction*
G04 #@! TA.AperFunction,Conductor*
G36*
X189561187Y-90218907D02*
G01*
X189573000Y-90228996D01*
X190290347Y-90946343D01*
X190318124Y-91000860D01*
X190319343Y-91016347D01*
X190319343Y-91615986D01*
X190338542Y-91687641D01*
X190343229Y-91705131D01*
X190343230Y-91705134D01*
X190389371Y-91785052D01*
X190389373Y-91785055D01*
X190421005Y-91816687D01*
X190448781Y-91871202D01*
X190450000Y-91886689D01*
X190450000Y-92001000D01*
X190431093Y-92059191D01*
X190381593Y-92095155D01*
X190351000Y-92100000D01*
X188750000Y-92100000D01*
X188750000Y-92100001D01*
X188750000Y-92551000D01*
X188731093Y-92609191D01*
X188681593Y-92645155D01*
X188651000Y-92650000D01*
X183699000Y-92650000D01*
X183640809Y-92631093D01*
X183604845Y-92581593D01*
X183600000Y-92551000D01*
X183600000Y-90799000D01*
X183618907Y-90740809D01*
X183668407Y-90704845D01*
X183699000Y-90700000D01*
X183858353Y-90700000D01*
X183916544Y-90718907D01*
X183919639Y-90721250D01*
X183924875Y-90725377D01*
X183924876Y-90725378D01*
X184011857Y-90774088D01*
X184070048Y-90792995D01*
X184070049Y-90792995D01*
X184070052Y-90792996D01*
X184148997Y-90805500D01*
X184149000Y-90805500D01*
X187450994Y-90805500D01*
X187451000Y-90805500D01*
X187490965Y-90802355D01*
X187521558Y-90797510D01*
X187541239Y-90793595D01*
X187631773Y-90751859D01*
X187673903Y-90721250D01*
X187677128Y-90718907D01*
X187683000Y-90716998D01*
X187699998Y-90700000D01*
X187700000Y-90700000D01*
X187700000Y-90699998D01*
X187717361Y-90682638D01*
X187720136Y-90679969D01*
X187725378Y-90675124D01*
X187774088Y-90588143D01*
X187792995Y-90529952D01*
X187805500Y-90451000D01*
X187805500Y-90299000D01*
X187824407Y-90240809D01*
X187873907Y-90204845D01*
X187904500Y-90200000D01*
X189502996Y-90200000D01*
X189561187Y-90218907D01*
G37*
G04 #@! TD.AperFunction*
G04 #@! TA.AperFunction,Conductor*
G36*
X153546101Y-106919685D02*
G01*
X153591856Y-106972489D01*
X153603023Y-107020901D01*
X153696823Y-110772901D01*
X153678820Y-110840411D01*
X153627176Y-110887472D01*
X153572862Y-110900000D01*
X149424000Y-110900000D01*
X149356961Y-110880315D01*
X149311206Y-110827511D01*
X149300000Y-110776000D01*
X149300000Y-107024000D01*
X149319685Y-106956961D01*
X149372489Y-106911206D01*
X149424000Y-106900000D01*
X153479062Y-106900000D01*
X153546101Y-106919685D01*
G37*
G04 #@! TD.AperFunction*
G04 #@! TA.AperFunction,Conductor*
G36*
X136759191Y-106869407D02*
G01*
X136795155Y-106918907D01*
X136800000Y-106949500D01*
X136800000Y-111401000D01*
X136781093Y-111459191D01*
X136731593Y-111495155D01*
X136701000Y-111500000D01*
X134899000Y-111500000D01*
X134840809Y-111481093D01*
X134804845Y-111431593D01*
X134800000Y-111401000D01*
X134800000Y-107999040D01*
X134818907Y-107940849D01*
X134828996Y-107929036D01*
X135878536Y-106879496D01*
X135933053Y-106851719D01*
X135948540Y-106850500D01*
X136701000Y-106850500D01*
X136759191Y-106869407D01*
G37*
G04 #@! TD.AperFunction*
G04 #@! TA.AperFunction,Conductor*
G36*
X187509191Y-89168907D02*
G01*
X187545155Y-89218407D01*
X187550000Y-89249000D01*
X187550000Y-90451000D01*
X187531093Y-90509191D01*
X187481593Y-90545155D01*
X187451000Y-90550000D01*
X184149000Y-90550000D01*
X184090809Y-90531093D01*
X184054845Y-90481593D01*
X184050000Y-90451000D01*
X184050000Y-89249000D01*
X184068907Y-89190809D01*
X184118407Y-89154845D01*
X184149000Y-89150000D01*
X187451000Y-89150000D01*
X187509191Y-89168907D01*
G37*
G04 #@! TD.AperFunction*
G04 #@! TA.AperFunction,Conductor*
G36*
X201359191Y-87668907D02*
G01*
X201395155Y-87718407D01*
X201400000Y-87749000D01*
X201400000Y-90001000D01*
X201381093Y-90059191D01*
X201331593Y-90095155D01*
X201301000Y-90100000D01*
X198699000Y-90100000D01*
X198640809Y-90081093D01*
X198604845Y-90031593D01*
X198600000Y-90001000D01*
X198600000Y-87749000D01*
X198618907Y-87690809D01*
X198668407Y-87654845D01*
X198699000Y-87650000D01*
X201301000Y-87650000D01*
X201359191Y-87668907D01*
G37*
G04 #@! TD.AperFunction*
G04 #@! TA.AperFunction,Conductor*
G36*
X186209191Y-93318907D02*
G01*
X186245155Y-93368407D01*
X186250000Y-93399000D01*
X186250000Y-95001000D01*
X186231093Y-95059191D01*
X186181593Y-95095155D01*
X186151000Y-95100000D01*
X185911774Y-95100000D01*
X185877178Y-95093758D01*
X185842303Y-95080750D01*
X185842300Y-95080749D01*
X185842299Y-95080749D01*
X185842296Y-95080748D01*
X185842293Y-95080748D01*
X185816011Y-95077922D01*
X185784174Y-95074500D01*
X185215826Y-95074500D01*
X185187823Y-95077510D01*
X185157706Y-95080748D01*
X185157696Y-95080750D01*
X185122822Y-95093758D01*
X185088226Y-95100000D01*
X184011774Y-95100000D01*
X183977178Y-95093758D01*
X183942303Y-95080750D01*
X183942300Y-95080749D01*
X183942299Y-95080749D01*
X183942296Y-95080748D01*
X183942293Y-95080748D01*
X183916011Y-95077922D01*
X183884174Y-95074500D01*
X183315826Y-95074500D01*
X183287823Y-95077510D01*
X183257706Y-95080748D01*
X183257696Y-95080750D01*
X183222822Y-95093758D01*
X183188226Y-95100000D01*
X182949000Y-95100000D01*
X182890809Y-95081093D01*
X182854845Y-95031593D01*
X182850000Y-95001000D01*
X182850000Y-93399000D01*
X182868907Y-93340809D01*
X182918407Y-93304845D01*
X182949000Y-93300000D01*
X186151000Y-93300000D01*
X186209191Y-93318907D01*
G37*
G04 #@! TD.AperFunction*
G04 #@! TA.AperFunction,Conductor*
G36*
X129999364Y-91099983D02*
G01*
X130000684Y-91100028D01*
X132303498Y-91195979D01*
X132360852Y-91217292D01*
X132394724Y-91268247D01*
X132398363Y-91296571D01*
X132300000Y-97100000D01*
X135942511Y-98675140D01*
X135988417Y-98715591D01*
X136002158Y-98762596D01*
X136096559Y-101500213D01*
X136079669Y-101559021D01*
X136031437Y-101596669D01*
X136000189Y-101602592D01*
X129207071Y-101779036D01*
X129148408Y-101761646D01*
X129111171Y-101713096D01*
X129105500Y-101680069D01*
X129105500Y-101662700D01*
X129105499Y-101662685D01*
X129101813Y-101621500D01*
X129097466Y-101572930D01*
X129089646Y-101529592D01*
X129065803Y-101442688D01*
X128996845Y-101316409D01*
X128954973Y-101260478D01*
X128954971Y-101260476D01*
X128946241Y-101251747D01*
X128936993Y-101241073D01*
X128924745Y-101224711D01*
X128905010Y-101166796D01*
X128905000Y-101165384D01*
X128905000Y-99924003D01*
X128905000Y-99924000D01*
X128893447Y-99816544D01*
X128882241Y-99765033D01*
X128848113Y-99662496D01*
X128770325Y-99541457D01*
X128724570Y-99488653D01*
X128724562Y-99488646D01*
X128724559Y-99488643D01*
X128615837Y-99394433D01*
X128484965Y-99334664D01*
X128484961Y-99334663D01*
X128484959Y-99334662D01*
X128471104Y-99330593D01*
X128420599Y-99296056D01*
X128400040Y-99238428D01*
X128400000Y-99235605D01*
X128400000Y-99000000D01*
X128399999Y-98999999D01*
X125093454Y-98902748D01*
X125035845Y-98882138D01*
X125001352Y-98831602D01*
X124997404Y-98806546D01*
X124902631Y-95394741D01*
X124919915Y-95336051D01*
X124968398Y-95298726D01*
X124994538Y-95293247D01*
X126300000Y-95200000D01*
X126202477Y-91104058D01*
X126219994Y-91045436D01*
X126268624Y-91008304D01*
X126304051Y-91002738D01*
X129999364Y-91099983D01*
G37*
G04 #@! TD.AperFunction*
G04 #@! TA.AperFunction,Conductor*
G36*
X191096502Y-90368907D02*
G01*
X191108308Y-90378990D01*
X191109788Y-90380470D01*
X191189712Y-90426614D01*
X191278856Y-90450500D01*
X191278857Y-90450500D01*
X191278858Y-90450500D01*
X192321142Y-90450500D01*
X192321144Y-90450500D01*
X192410288Y-90426614D01*
X192490212Y-90380470D01*
X192491187Y-90379494D01*
X192492069Y-90379045D01*
X192495362Y-90376519D01*
X192495830Y-90377129D01*
X192545702Y-90351719D01*
X192561189Y-90350500D01*
X192601000Y-90350500D01*
X192659191Y-90369407D01*
X192695155Y-90418907D01*
X192700000Y-90449500D01*
X192700000Y-91550500D01*
X192681093Y-91608691D01*
X192631593Y-91644655D01*
X192601000Y-91649500D01*
X191286190Y-91649500D01*
X191227999Y-91630593D01*
X191216186Y-91620504D01*
X191049339Y-91453657D01*
X191021562Y-91399140D01*
X191020343Y-91383653D01*
X191020343Y-90784014D01*
X191020343Y-90784013D01*
X190996457Y-90694869D01*
X190950313Y-90614945D01*
X190950310Y-90614942D01*
X190878996Y-90543627D01*
X190851219Y-90489110D01*
X190850000Y-90473624D01*
X190850000Y-90449000D01*
X190868907Y-90390809D01*
X190918407Y-90354845D01*
X190949000Y-90350000D01*
X191038311Y-90350000D01*
X191096502Y-90368907D01*
G37*
G04 #@! TD.AperFunction*
G04 #@! TA.AperFunction,Conductor*
G36*
X135233530Y-87219685D02*
G01*
X135279285Y-87272489D01*
X135289229Y-87341647D01*
X135276364Y-87381480D01*
X135274533Y-87384978D01*
X135254851Y-87452009D01*
X135254848Y-87452021D01*
X135244500Y-87523998D01*
X135244500Y-95776002D01*
X135250338Y-95830312D01*
X135261543Y-95881818D01*
X135261546Y-95881827D01*
X135268779Y-95908192D01*
X135268783Y-95908203D01*
X135318105Y-95994818D01*
X135318110Y-95994825D01*
X135318112Y-95994828D01*
X135343729Y-96024392D01*
X135363863Y-96047628D01*
X135363866Y-96047631D01*
X135363867Y-96047632D01*
X135396641Y-96079257D01*
X135484976Y-96125465D01*
X135484977Y-96125465D01*
X135484977Y-96125466D01*
X135533584Y-96139738D01*
X135552015Y-96145150D01*
X135552019Y-96145150D01*
X135552021Y-96145151D01*
X135563652Y-96146823D01*
X135624000Y-96155500D01*
X135624001Y-96155500D01*
X136836225Y-96155500D01*
X136881574Y-96151441D01*
X136881580Y-96151440D01*
X136881592Y-96151439D01*
X136916444Y-96145150D01*
X136924935Y-96143618D01*
X136930171Y-96142478D01*
X136942770Y-96139737D01*
X137032695Y-96096704D01*
X137088625Y-96054828D01*
X137122502Y-96024394D01*
X137174888Y-95939576D01*
X137199301Y-95874110D01*
X137211349Y-95830183D01*
X137211348Y-95830182D01*
X137213695Y-95821629D01*
X137215995Y-95822259D01*
X137238751Y-95769982D01*
X137296846Y-95731165D01*
X137333898Y-95725500D01*
X137515956Y-95725500D01*
X137582995Y-95745185D01*
X137603637Y-95761819D01*
X137613181Y-95771363D01*
X137646666Y-95832686D01*
X137649500Y-95859044D01*
X137649500Y-96707982D01*
X137629815Y-96775021D01*
X137610480Y-96794709D01*
X137612134Y-96796363D01*
X137603500Y-96804996D01*
X137548134Y-96887860D01*
X137548132Y-96887864D01*
X137533600Y-96960921D01*
X137533600Y-98839078D01*
X137548132Y-98912135D01*
X137548133Y-98912139D01*
X137548134Y-98912140D01*
X137603499Y-98995001D01*
X137686360Y-99050366D01*
X137686364Y-99050367D01*
X137759421Y-99064899D01*
X137759424Y-99064900D01*
X137759426Y-99064900D01*
X137920500Y-99064900D01*
X137987539Y-99084585D01*
X138033294Y-99137389D01*
X138044500Y-99188900D01*
X138044500Y-99776002D01*
X138050338Y-99830312D01*
X138061543Y-99881818D01*
X138061546Y-99881827D01*
X138068779Y-99908192D01*
X138068783Y-99908203D01*
X138118105Y-99994818D01*
X138118110Y-99994825D01*
X138118112Y-99994828D01*
X138144580Y-100025374D01*
X138163863Y-100047628D01*
X138163866Y-100047631D01*
X138163867Y-100047632D01*
X138196641Y-100079257D01*
X138284976Y-100125465D01*
X138284977Y-100125465D01*
X138284977Y-100125466D01*
X138329218Y-100138456D01*
X138352015Y-100145150D01*
X138352019Y-100145150D01*
X138352021Y-100145151D01*
X138363652Y-100146823D01*
X138424000Y-100155500D01*
X138424001Y-100155500D01*
X139676000Y-100155500D01*
X139730313Y-100149661D01*
X139781824Y-100138455D01*
X139808198Y-100131219D01*
X139837074Y-100114775D01*
X139894818Y-100081894D01*
X139894819Y-100081892D01*
X139894828Y-100081888D01*
X139947632Y-100036133D01*
X139979257Y-100003359D01*
X140025465Y-99915024D01*
X140027470Y-99908198D01*
X140035215Y-99881818D01*
X140045150Y-99847985D01*
X140055500Y-99776000D01*
X140055500Y-99184681D01*
X140055500Y-99184670D01*
X140053958Y-99158138D01*
X140053782Y-99155100D01*
X140050458Y-99126583D01*
X140050184Y-99124322D01*
X140018701Y-99029732D01*
X139998923Y-98995000D01*
X139984133Y-98969026D01*
X139984127Y-98969017D01*
X139958152Y-98931605D01*
X139958151Y-98931604D01*
X139883404Y-98871370D01*
X139880528Y-98869052D01*
X139878053Y-98867757D01*
X139832924Y-98844150D01*
X139782645Y-98795634D01*
X139766400Y-98734275D01*
X139766400Y-97114600D01*
X139786085Y-97047561D01*
X139838889Y-97001806D01*
X139890400Y-96990600D01*
X140134877Y-96990600D01*
X140186874Y-97002029D01*
X140237608Y-97025465D01*
X140304647Y-97045150D01*
X140304651Y-97045150D01*
X140304653Y-97045151D01*
X140316284Y-97046823D01*
X140376632Y-97055500D01*
X140376633Y-97055500D01*
X141370500Y-97055500D01*
X141437539Y-97075185D01*
X141483294Y-97127989D01*
X141494500Y-97179500D01*
X141494500Y-98251007D01*
X141497644Y-98290952D01*
X141497646Y-98290973D01*
X141502488Y-98321553D01*
X141506404Y-98341237D01*
X141548140Y-98431771D01*
X141548140Y-98431772D01*
X141557304Y-98444385D01*
X141576317Y-98470554D01*
X141599798Y-98536359D01*
X141600000Y-98543440D01*
X141600000Y-100867456D01*
X141580315Y-100934495D01*
X141527511Y-100980250D01*
X141458353Y-100990194D01*
X141394797Y-100961169D01*
X141388319Y-100955137D01*
X141283313Y-100850131D01*
X141283308Y-100850127D01*
X141203390Y-100803987D01*
X141203389Y-100803986D01*
X141203388Y-100803986D01*
X141114244Y-100780100D01*
X138023256Y-100780100D01*
X137934112Y-100803986D01*
X137934111Y-100803986D01*
X137934109Y-100803987D01*
X137934106Y-100803988D01*
X137854194Y-100850126D01*
X137847742Y-100855078D01*
X137846125Y-100852971D01*
X137796289Y-100880171D01*
X137726598Y-100875171D01*
X137689955Y-100853739D01*
X136672811Y-99994818D01*
X136331154Y-99706308D01*
X136292635Y-99648017D01*
X136287232Y-99615849D01*
X136257506Y-98753791D01*
X136257506Y-98753787D01*
X136247395Y-98690911D01*
X136247394Y-98690906D01*
X136233653Y-98643901D01*
X136217835Y-98603129D01*
X136157334Y-98523895D01*
X136111428Y-98483444D01*
X136043922Y-98440628D01*
X136043917Y-98440625D01*
X136043910Y-98440622D01*
X133674783Y-97416134D01*
X133621063Y-97371458D01*
X133600025Y-97304831D01*
X133600000Y-97302320D01*
X133600000Y-87324000D01*
X133619685Y-87256961D01*
X133672489Y-87211206D01*
X133724000Y-87200000D01*
X135166491Y-87200000D01*
X135233530Y-87219685D01*
G37*
G04 #@! TD.AperFunction*
G04 #@! TA.AperFunction,Conductor*
G36*
X125858908Y-89919052D02*
G01*
X125895046Y-89968424D01*
X125900000Y-89999349D01*
X125900000Y-94101000D01*
X125881093Y-94159191D01*
X125831593Y-94195155D01*
X125801000Y-94200000D01*
X125642070Y-94200000D01*
X125583879Y-94181093D01*
X125547915Y-94131593D01*
X125543917Y-94113922D01*
X125541709Y-94097150D01*
X125536330Y-94056291D01*
X125480861Y-93922375D01*
X125392621Y-93807379D01*
X125277625Y-93719139D01*
X125277621Y-93719137D01*
X125143709Y-93663670D01*
X125143708Y-93663669D01*
X125000000Y-93644750D01*
X124856291Y-93663669D01*
X124856290Y-93663670D01*
X124722378Y-93719137D01*
X124722374Y-93719139D01*
X124607381Y-93807377D01*
X124607377Y-93807381D01*
X124519139Y-93922374D01*
X124519137Y-93922378D01*
X124491797Y-93988385D01*
X124452061Y-94034911D01*
X124400333Y-94049500D01*
X123436190Y-94049500D01*
X123377999Y-94030593D01*
X123366186Y-94020504D01*
X123178996Y-93833314D01*
X123151219Y-93778797D01*
X123150000Y-93763310D01*
X123150000Y-93644750D01*
X123150000Y-90008347D01*
X123168907Y-89950160D01*
X123218407Y-89914196D01*
X123248650Y-89909352D01*
X125800652Y-89900350D01*
X125858908Y-89919052D01*
G37*
G04 #@! TD.AperFunction*
G04 #@! TA.AperFunction,Conductor*
G36*
X139143039Y-87419685D02*
G01*
X139188794Y-87472489D01*
X139200000Y-87524000D01*
X139200000Y-93700000D01*
X141776000Y-93700000D01*
X141843039Y-93719685D01*
X141888794Y-93772489D01*
X141900000Y-93824000D01*
X141900000Y-94081065D01*
X141880315Y-94148104D01*
X141827920Y-94193672D01*
X141818228Y-94198140D01*
X141818220Y-94198145D01*
X141768740Y-94234094D01*
X141768732Y-94234100D01*
X141724622Y-94274876D01*
X141724620Y-94274878D01*
X141675914Y-94361851D01*
X141675910Y-94361860D01*
X141657005Y-94420046D01*
X141644500Y-94499000D01*
X141644500Y-94499684D01*
X141644504Y-94501052D01*
X141644515Y-94502691D01*
X141644516Y-94502700D01*
X141658167Y-94583307D01*
X141677900Y-94641213D01*
X141677901Y-94641217D01*
X141715208Y-94711921D01*
X141732976Y-94735657D01*
X141749888Y-94766631D01*
X141762181Y-94799589D01*
X141770000Y-94842923D01*
X141770000Y-95357072D01*
X141762182Y-95400405D01*
X141749889Y-95433364D01*
X141732974Y-95464341D01*
X141715197Y-95488087D01*
X141714478Y-95489056D01*
X141713971Y-95489740D01*
X141713862Y-95489888D01*
X141713214Y-95490766D01*
X141675911Y-95563376D01*
X141675908Y-95563382D01*
X141657005Y-95621563D01*
X141644500Y-95700519D01*
X141644500Y-96303620D01*
X141645047Y-96320349D01*
X141645895Y-96333293D01*
X141646345Y-96337859D01*
X141646345Y-96362137D01*
X141645896Y-96366698D01*
X141645047Y-96379650D01*
X141644500Y-96396378D01*
X141644500Y-96506041D01*
X141624815Y-96573080D01*
X141604674Y-96597095D01*
X141574623Y-96624875D01*
X141574620Y-96624878D01*
X141525914Y-96711851D01*
X141525912Y-96711855D01*
X141525112Y-96714320D01*
X141524343Y-96715444D01*
X141523472Y-96717436D01*
X141523094Y-96717270D01*
X141485673Y-96771995D01*
X141421314Y-96799192D01*
X141407181Y-96800000D01*
X140376632Y-96800000D01*
X140309593Y-96780315D01*
X140307741Y-96779102D01*
X140263637Y-96749633D01*
X140190575Y-96735100D01*
X140190572Y-96735100D01*
X139709424Y-96735100D01*
X139709421Y-96735100D01*
X139636362Y-96749632D01*
X139636358Y-96749633D01*
X139553497Y-96804999D01*
X139498131Y-96887860D01*
X139498130Y-96887864D01*
X139483598Y-96960921D01*
X139483598Y-98839078D01*
X139498130Y-98912135D01*
X139498131Y-98912139D01*
X139498132Y-98912140D01*
X139553497Y-98995001D01*
X139624611Y-99042517D01*
X139636358Y-99050366D01*
X139636362Y-99050367D01*
X139700191Y-99063064D01*
X139762102Y-99095449D01*
X139796676Y-99156164D01*
X139800000Y-99184681D01*
X139800000Y-99776000D01*
X139780315Y-99843039D01*
X139727511Y-99888794D01*
X139676000Y-99900000D01*
X138424000Y-99900000D01*
X138356961Y-99880315D01*
X138311206Y-99827511D01*
X138300000Y-99776000D01*
X138300000Y-99188900D01*
X138319685Y-99121861D01*
X138372489Y-99076106D01*
X138424000Y-99064900D01*
X138890574Y-99064900D01*
X138890575Y-99064899D01*
X138963638Y-99050366D01*
X139046499Y-98995001D01*
X139101864Y-98912140D01*
X139116398Y-98839074D01*
X139116398Y-96960926D01*
X139116398Y-96960923D01*
X139101864Y-96887859D01*
X139097191Y-96876577D01*
X139100848Y-96875062D01*
X139086619Y-96829599D01*
X139105111Y-96762220D01*
X139112214Y-96751924D01*
X139130861Y-96727625D01*
X139186330Y-96593709D01*
X139205250Y-96450000D01*
X139186330Y-96306291D01*
X139130893Y-96172452D01*
X139123424Y-96102983D01*
X139130893Y-96077548D01*
X139137700Y-96061112D01*
X139186330Y-95943709D01*
X139200864Y-95833313D01*
X139229131Y-95769418D01*
X139287455Y-95730947D01*
X139323803Y-95725500D01*
X139509174Y-95725500D01*
X139509190Y-95725499D01*
X139567299Y-95719251D01*
X139574500Y-95716565D01*
X139698778Y-95670212D01*
X139811116Y-95586116D01*
X139895212Y-95473778D01*
X139944251Y-95342299D01*
X139946992Y-95316805D01*
X139950499Y-95284190D01*
X139950500Y-95284173D01*
X139950500Y-94715826D01*
X139950499Y-94715809D01*
X139944251Y-94657700D01*
X139925590Y-94607669D01*
X139895212Y-94526222D01*
X139811116Y-94413884D01*
X139733671Y-94355909D01*
X139698780Y-94329789D01*
X139698778Y-94329788D01*
X139667782Y-94318227D01*
X139567299Y-94280748D01*
X139509190Y-94274500D01*
X139509174Y-94274500D01*
X138815826Y-94274500D01*
X138815809Y-94274500D01*
X138757700Y-94280748D01*
X138626219Y-94329789D01*
X138513884Y-94413884D01*
X138429788Y-94526221D01*
X138416181Y-94562703D01*
X138374309Y-94618636D01*
X138308845Y-94643052D01*
X138240572Y-94628200D01*
X138191167Y-94578794D01*
X138183819Y-94562703D01*
X138179154Y-94550198D01*
X138170212Y-94526222D01*
X138086116Y-94413884D01*
X138008671Y-94355909D01*
X137973780Y-94329789D01*
X137973778Y-94329788D01*
X137942782Y-94318227D01*
X137842299Y-94280748D01*
X137784190Y-94274500D01*
X137784174Y-94274500D01*
X137090826Y-94274500D01*
X137090809Y-94274500D01*
X137032700Y-94280748D01*
X136901219Y-94329789D01*
X136788884Y-94413884D01*
X136704789Y-94526219D01*
X136655748Y-94657700D01*
X136649500Y-94715809D01*
X136649500Y-95284190D01*
X136655748Y-95342299D01*
X136704789Y-95473780D01*
X136715572Y-95488184D01*
X136788884Y-95586116D01*
X136836241Y-95621567D01*
X136908322Y-95675527D01*
X136906473Y-95677996D01*
X136945048Y-95716565D01*
X136959905Y-95784837D01*
X136935492Y-95850303D01*
X136879562Y-95892179D01*
X136836220Y-95900000D01*
X135624000Y-95900000D01*
X135556961Y-95880315D01*
X135511206Y-95827511D01*
X135500000Y-95776000D01*
X135500000Y-87524000D01*
X135519685Y-87456961D01*
X135572489Y-87411206D01*
X135624000Y-87400000D01*
X139076000Y-87400000D01*
X139143039Y-87419685D01*
G37*
G04 #@! TD.AperFunction*
G04 #@! TA.AperFunction,Conductor*
G36*
X200309191Y-101818907D02*
G01*
X200345155Y-101868407D01*
X200350000Y-101899000D01*
X200350000Y-104951000D01*
X200331093Y-105009191D01*
X200281593Y-105045155D01*
X200251000Y-105050000D01*
X197899000Y-105050000D01*
X197840809Y-105031093D01*
X197804845Y-104981593D01*
X197800000Y-104951000D01*
X197800000Y-104901109D01*
X197807535Y-104863226D01*
X197836330Y-104793709D01*
X197855250Y-104650000D01*
X197836330Y-104506291D01*
X197807534Y-104436771D01*
X197800000Y-104398889D01*
X197800000Y-101899000D01*
X197818907Y-101840809D01*
X197868407Y-101804845D01*
X197899000Y-101800000D01*
X200251000Y-101800000D01*
X200309191Y-101818907D01*
G37*
G04 #@! TD.AperFunction*
G04 #@! TA.AperFunction,Conductor*
G36*
X202158691Y-104218907D02*
G01*
X202194655Y-104268407D01*
X202199500Y-104299000D01*
X202199500Y-108047628D01*
X202180593Y-108105819D01*
X202131093Y-108141783D01*
X202097202Y-108146573D01*
X201898726Y-108139957D01*
X201867428Y-108133770D01*
X201792304Y-108105750D01*
X201792299Y-108105749D01*
X201792297Y-108105748D01*
X201792293Y-108105748D01*
X201766011Y-108102922D01*
X201734174Y-108099500D01*
X201165826Y-108099500D01*
X201132611Y-108103070D01*
X201107698Y-108105749D01*
X201107697Y-108105749D01*
X201106728Y-108106111D01*
X201104917Y-108106406D01*
X201101678Y-108107172D01*
X201101624Y-108106944D01*
X201068845Y-108112294D01*
X200795702Y-108103189D01*
X200738173Y-108082354D01*
X200703878Y-108031683D01*
X200700000Y-108004244D01*
X200700000Y-104299000D01*
X200718907Y-104240809D01*
X200768407Y-104204845D01*
X200799000Y-104200000D01*
X202100500Y-104200000D01*
X202158691Y-104218907D01*
G37*
G04 #@! TD.AperFunction*
G04 #@! TA.AperFunction,Conductor*
G36*
X128342539Y-99819685D02*
G01*
X128388294Y-99872489D01*
X128399500Y-99924000D01*
X128399500Y-101247870D01*
X128399501Y-101247876D01*
X128405908Y-101307483D01*
X128456202Y-101442328D01*
X128456203Y-101442329D01*
X128456204Y-101442331D01*
X128542454Y-101557546D01*
X128550308Y-101563425D01*
X128592180Y-101619356D01*
X128600000Y-101662694D01*
X128600000Y-101778213D01*
X128580315Y-101845252D01*
X128527511Y-101891007D01*
X128462117Y-101901433D01*
X128400004Y-101894435D01*
X128399997Y-101894435D01*
X128281800Y-101907752D01*
X128212978Y-101895697D01*
X128203781Y-101890657D01*
X128064606Y-101806522D01*
X127902196Y-101755914D01*
X127902194Y-101755913D01*
X127902192Y-101755913D01*
X127852778Y-101751423D01*
X127831616Y-101749500D01*
X127168384Y-101749500D01*
X127149145Y-101751248D01*
X127097807Y-101755913D01*
X126935393Y-101806522D01*
X126789813Y-101894529D01*
X126770678Y-101913665D01*
X126720660Y-101963682D01*
X126659340Y-101997166D01*
X126632981Y-102000000D01*
X123892700Y-102000000D01*
X123825661Y-101980315D01*
X123779906Y-101927511D01*
X123768700Y-101876000D01*
X123768699Y-101572730D01*
X123768698Y-101572723D01*
X123767698Y-101563424D01*
X123762291Y-101513117D01*
X123735888Y-101442328D01*
X123708897Y-101369960D01*
X123711332Y-101369051D01*
X123700000Y-101324651D01*
X123700000Y-99924000D01*
X123719685Y-99856961D01*
X123772489Y-99811206D01*
X123824000Y-99800000D01*
X128275500Y-99800000D01*
X128342539Y-99819685D01*
G37*
G04 #@! TD.AperFunction*
G04 #@! TA.AperFunction,Conductor*
G36*
X165596501Y-107018907D02*
G01*
X165608314Y-107028996D01*
X165671004Y-107091686D01*
X165698781Y-107146203D01*
X165700000Y-107161690D01*
X165700000Y-111351000D01*
X165681093Y-111409191D01*
X165631593Y-111445155D01*
X165601000Y-111450000D01*
X164049000Y-111450000D01*
X163990809Y-111431093D01*
X163954845Y-111381593D01*
X163950000Y-111351000D01*
X163950000Y-107099000D01*
X163968907Y-107040809D01*
X164018407Y-107004845D01*
X164049000Y-107000000D01*
X165538310Y-107000000D01*
X165596501Y-107018907D01*
G37*
G04 #@! TD.AperFunction*
G04 #@! TA.AperFunction,Conductor*
G36*
X200113982Y-108113799D02*
G01*
X200180324Y-108135705D01*
X200221384Y-108183548D01*
X200285249Y-108315021D01*
X200285250Y-108315022D01*
X200319533Y-108365676D01*
X200319541Y-108365688D01*
X200319543Y-108365690D01*
X200336404Y-108389131D01*
X200439108Y-108489896D01*
X200566040Y-108557644D01*
X200623569Y-108578479D01*
X200637206Y-108583199D01*
X200778861Y-108608408D01*
X201052004Y-108617513D01*
X201150272Y-108611193D01*
X201150276Y-108611192D01*
X201150279Y-108611192D01*
X201155021Y-108610417D01*
X201175804Y-108607024D01*
X201182536Y-108606114D01*
X201182801Y-108606085D01*
X201186333Y-108605707D01*
X201199559Y-108605000D01*
X201665083Y-108605000D01*
X201698883Y-108609695D01*
X201769398Y-108629674D01*
X201787471Y-108633246D01*
X201800683Y-108635859D01*
X201800688Y-108635859D01*
X201800696Y-108635861D01*
X201881885Y-108645176D01*
X202079632Y-108651767D01*
X202145977Y-108673673D01*
X202189948Y-108727972D01*
X202199500Y-108775698D01*
X202199500Y-113476000D01*
X202179815Y-113543039D01*
X202127011Y-113588794D01*
X202075500Y-113600000D01*
X198609930Y-113600000D01*
X198579800Y-113596284D01*
X198481406Y-113571637D01*
X198481401Y-113571636D01*
X198481400Y-113571636D01*
X198337256Y-113550254D01*
X198092599Y-113513963D01*
X198092597Y-113513962D01*
X198092591Y-113513962D01*
X197700000Y-113494675D01*
X197307409Y-113513962D01*
X197307403Y-113513962D01*
X197307400Y-113513963D01*
X196918593Y-113571637D01*
X196820200Y-113596284D01*
X196790070Y-113600000D01*
X193824000Y-113600000D01*
X193756961Y-113580315D01*
X193711206Y-113527511D01*
X193700000Y-113476000D01*
X193700000Y-108028202D01*
X193719685Y-107961163D01*
X193772489Y-107915408D01*
X193828130Y-107904271D01*
X200113982Y-108113799D01*
G37*
G04 #@! TD.AperFunction*
G04 #@! TA.AperFunction,Conductor*
G36*
X143009191Y-104568907D02*
G01*
X143045155Y-104618407D01*
X143050000Y-104649000D01*
X143050000Y-105951000D01*
X143031093Y-106009191D01*
X142981593Y-106045155D01*
X142951000Y-106050000D01*
X140749000Y-106050000D01*
X140690809Y-106031093D01*
X140654845Y-105981593D01*
X140650000Y-105951000D01*
X140650000Y-104649000D01*
X140668907Y-104590809D01*
X140718407Y-104554845D01*
X140749000Y-104550000D01*
X142951000Y-104550000D01*
X143009191Y-104568907D01*
G37*
G04 #@! TD.AperFunction*
G04 #@! TA.AperFunction,Conductor*
G36*
X195203691Y-101844407D02*
G01*
X195239655Y-101893907D01*
X195244500Y-101924500D01*
X195244500Y-104398895D01*
X195249406Y-104448714D01*
X195249410Y-104448739D01*
X195256939Y-104486596D01*
X195256946Y-104486626D01*
X195271477Y-104534529D01*
X195271486Y-104534553D01*
X195282418Y-104560946D01*
X195289107Y-104585910D01*
X195295843Y-104637078D01*
X195295843Y-104662921D01*
X195289107Y-104714086D01*
X195282419Y-104739047D01*
X195271485Y-104765444D01*
X195271483Y-104765449D01*
X195256944Y-104813380D01*
X195249408Y-104851266D01*
X195244500Y-104901102D01*
X195244500Y-104951000D01*
X195225593Y-105009191D01*
X195176093Y-105045155D01*
X195145500Y-105050000D01*
X193149000Y-105050000D01*
X193090809Y-105031093D01*
X193054845Y-104981593D01*
X193050000Y-104951000D01*
X193050000Y-101924500D01*
X193068907Y-101866309D01*
X193118407Y-101830345D01*
X193149000Y-101825500D01*
X195145500Y-101825500D01*
X195203691Y-101844407D01*
G37*
G04 #@! TD.AperFunction*
G04 #@! TA.AperFunction,Conductor*
G36*
X191159191Y-103268907D02*
G01*
X191195155Y-103318407D01*
X191200000Y-103349000D01*
X191200000Y-104551000D01*
X191181093Y-104609191D01*
X191131593Y-104645155D01*
X191101000Y-104650000D01*
X188999000Y-104650000D01*
X188940809Y-104631093D01*
X188904845Y-104581593D01*
X188900000Y-104551000D01*
X188900000Y-103349000D01*
X188918907Y-103290809D01*
X188968407Y-103254845D01*
X188999000Y-103250000D01*
X191101000Y-103250000D01*
X191159191Y-103268907D01*
G37*
G04 #@! TD.AperFunction*
G04 #@! TA.AperFunction,Conductor*
G36*
X144536775Y-88557536D02*
G01*
X144606291Y-88586330D01*
X144750000Y-88605250D01*
X144893709Y-88586330D01*
X144963225Y-88557536D01*
X145001110Y-88550000D01*
X146351000Y-88550000D01*
X146409191Y-88568907D01*
X146445155Y-88618407D01*
X146450000Y-88649000D01*
X146450000Y-90001000D01*
X146431093Y-90059191D01*
X146381593Y-90095155D01*
X146351000Y-90100000D01*
X143149000Y-90100000D01*
X143090809Y-90081093D01*
X143054845Y-90031593D01*
X143050000Y-90001000D01*
X143050000Y-88649000D01*
X143068907Y-88590809D01*
X143118407Y-88554845D01*
X143149000Y-88550000D01*
X144498890Y-88550000D01*
X144536775Y-88557536D01*
G37*
G04 #@! TD.AperFunction*
G04 #@! TA.AperFunction,Conductor*
G36*
X197503691Y-101818907D02*
G01*
X197539655Y-101868407D01*
X197544500Y-101899000D01*
X197544500Y-104398889D01*
X197544499Y-104398893D01*
X197549406Y-104448714D01*
X197549410Y-104448739D01*
X197556939Y-104486596D01*
X197556946Y-104486626D01*
X197571477Y-104534529D01*
X197571486Y-104534553D01*
X197582418Y-104560946D01*
X197589107Y-104585910D01*
X197595843Y-104637078D01*
X197595843Y-104662921D01*
X197589107Y-104714086D01*
X197582419Y-104739047D01*
X197571485Y-104765444D01*
X197571483Y-104765449D01*
X197556944Y-104813380D01*
X197549408Y-104851266D01*
X197544500Y-104901102D01*
X197544500Y-104951000D01*
X197525593Y-105009191D01*
X197476093Y-105045155D01*
X197445500Y-105050000D01*
X195599000Y-105050000D01*
X195540809Y-105031093D01*
X195504845Y-104981593D01*
X195500000Y-104951000D01*
X195500000Y-104901109D01*
X195507535Y-104863226D01*
X195536330Y-104793709D01*
X195555250Y-104650000D01*
X195536330Y-104506291D01*
X195507534Y-104436771D01*
X195500000Y-104398889D01*
X195500000Y-101924500D01*
X195518907Y-101866309D01*
X195568407Y-101830345D01*
X195599000Y-101825500D01*
X197070331Y-101825500D01*
X197070333Y-101825500D01*
X197152912Y-101803372D01*
X197178535Y-101800000D01*
X197445500Y-101800000D01*
X197503691Y-101818907D01*
G37*
G04 #@! TD.AperFunction*
G04 #@! TA.AperFunction,Conductor*
G36*
X125794523Y-108901262D02*
G01*
X125797650Y-108901711D01*
X125824000Y-108905500D01*
X128470500Y-108905500D01*
X128537539Y-108925185D01*
X128583294Y-108977989D01*
X128594500Y-109029500D01*
X128594500Y-110076000D01*
X128594501Y-110076009D01*
X128606052Y-110183450D01*
X128606054Y-110183462D01*
X128617260Y-110234972D01*
X128651383Y-110337497D01*
X128651386Y-110337503D01*
X128729171Y-110458537D01*
X128729173Y-110458541D01*
X128769713Y-110505326D01*
X128798738Y-110568882D01*
X128800000Y-110586529D01*
X128800000Y-110624401D01*
X128780315Y-110691440D01*
X128763681Y-110712082D01*
X127887584Y-111588181D01*
X127826261Y-111621666D01*
X127799903Y-111624500D01*
X127468384Y-111624500D01*
X127449145Y-111626248D01*
X127397807Y-111630913D01*
X127235393Y-111681522D01*
X127089811Y-111769530D01*
X127084599Y-111773614D01*
X127019685Y-111799460D01*
X127008130Y-111800000D01*
X124424000Y-111800000D01*
X124356961Y-111780315D01*
X124311206Y-111727511D01*
X124300000Y-111676000D01*
X124300000Y-109024000D01*
X124319685Y-108956961D01*
X124372489Y-108911206D01*
X124424000Y-108900000D01*
X125776877Y-108900000D01*
X125794523Y-108901262D01*
G37*
G04 #@! TD.AperFunction*
G04 #@! TA.AperFunction,Conductor*
G36*
X142441580Y-94418907D02*
G01*
X142443656Y-94420458D01*
X142522373Y-94480860D01*
X142522374Y-94480860D01*
X142522375Y-94480861D01*
X142656291Y-94536330D01*
X142800000Y-94555250D01*
X142943709Y-94536330D01*
X143077625Y-94480861D01*
X143129822Y-94440809D01*
X143156344Y-94420458D01*
X143214020Y-94400034D01*
X143216611Y-94400000D01*
X143751000Y-94400000D01*
X143809191Y-94418907D01*
X143845155Y-94468407D01*
X143850000Y-94499000D01*
X143850000Y-98251000D01*
X143831093Y-98309191D01*
X143781593Y-98345155D01*
X143751000Y-98350000D01*
X141849000Y-98350000D01*
X141790809Y-98331093D01*
X141754845Y-98281593D01*
X141750000Y-98251000D01*
X141750000Y-96849000D01*
X141768907Y-96790809D01*
X141818407Y-96754845D01*
X141849000Y-96750000D01*
X141899999Y-96750000D01*
X141900000Y-96750000D01*
X141900000Y-96396365D01*
X141900847Y-96383442D01*
X141905250Y-96349999D01*
X141900847Y-96316556D01*
X141900000Y-96303634D01*
X141900000Y-95700519D01*
X141918907Y-95642328D01*
X141919663Y-95641302D01*
X141970212Y-95573778D01*
X142019251Y-95442299D01*
X142025500Y-95384174D01*
X142025500Y-94815826D01*
X142019251Y-94757701D01*
X142019249Y-94757695D01*
X141970213Y-94626223D01*
X141919746Y-94558806D01*
X141900010Y-94500891D01*
X141900000Y-94499478D01*
X141900000Y-94499000D01*
X141918907Y-94440809D01*
X141968407Y-94404845D01*
X141999000Y-94400000D01*
X142000000Y-94400000D01*
X142383389Y-94400000D01*
X142441580Y-94418907D01*
G37*
G04 #@! TD.AperFunction*
M02*
